G75*
G70*
%OFA0B0*%
%FSLAX24Y24*%
%IPPOS*%
%LPD*%
%AMOC8*
5,1,8,0,0,1.08239X$1,22.5*
%
%ADD10C,0.0520*%
%ADD11C,0.0495*%
%ADD12C,0.0440*%
%ADD13OC8,0.0560*%
%ADD14C,0.0787*%
%ADD15OC8,0.0520*%
%ADD16C,0.0600*%
%ADD17C,0.0440*%
%ADD18C,0.0594*%
%ADD19OC8,0.0594*%
%ADD20C,0.0860*%
%ADD21C,0.0160*%
%ADD22C,0.0100*%
%ADD23C,0.0400*%
%ADD24C,0.0787*%
D10*
X006340Y016600D02*
X006860Y016600D01*
X006860Y017600D02*
X006340Y017600D01*
X006340Y018600D02*
X006860Y018600D01*
X006860Y019600D02*
X006340Y019600D01*
X006340Y020600D02*
X006860Y020600D01*
X006860Y021600D02*
X006340Y021600D01*
X006340Y022600D02*
X006860Y022600D01*
X006860Y023600D02*
X006340Y023600D01*
X009340Y023600D02*
X009860Y023600D01*
X009860Y022600D02*
X009340Y022600D01*
X009340Y021600D02*
X009860Y021600D01*
X009860Y020600D02*
X009340Y020600D01*
X009340Y019600D02*
X009860Y019600D01*
X009860Y018600D02*
X009340Y018600D01*
X009340Y017600D02*
X009860Y017600D01*
X009860Y016600D02*
X009340Y016600D01*
X013100Y028340D02*
X013100Y028860D01*
X015100Y028860D02*
X015100Y028340D01*
X015100Y032340D02*
X015100Y032860D01*
X013100Y032860D02*
X013100Y032340D01*
X026840Y027600D02*
X027360Y027600D01*
X027360Y026600D02*
X026840Y026600D01*
X026840Y025600D02*
X027360Y025600D01*
X027360Y024600D02*
X026840Y024600D01*
X026840Y023600D02*
X027360Y023600D01*
X027360Y022600D02*
X026840Y022600D01*
X026840Y021600D02*
X027360Y021600D01*
X027360Y020600D02*
X026840Y020600D01*
X026840Y019600D02*
X027360Y019600D01*
X027360Y018600D02*
X026840Y018600D01*
X026840Y017600D02*
X027360Y017600D01*
X027360Y016600D02*
X026840Y016600D01*
X026840Y015600D02*
X027360Y015600D01*
X027360Y014600D02*
X026840Y014600D01*
X029840Y014600D02*
X030360Y014600D01*
X030360Y015600D02*
X029840Y015600D01*
X029840Y016600D02*
X030360Y016600D01*
X030360Y017600D02*
X029840Y017600D01*
X029840Y018600D02*
X030360Y018600D01*
X030360Y019600D02*
X029840Y019600D01*
X029840Y020600D02*
X030360Y020600D01*
X030360Y021600D02*
X029840Y021600D01*
X029840Y022600D02*
X030360Y022600D01*
X030360Y023600D02*
X029840Y023600D01*
X029840Y024600D02*
X030360Y024600D01*
X030360Y025600D02*
X029840Y025600D01*
X029840Y026600D02*
X030360Y026600D01*
X030360Y027600D02*
X029840Y027600D01*
D11*
X025100Y013600D03*
X023100Y013600D03*
X023100Y007600D03*
X025100Y007600D03*
X017100Y007600D03*
X016100Y007600D03*
X016100Y013600D03*
X017100Y013600D03*
D12*
X032380Y021600D02*
X032820Y021600D01*
X032820Y023600D02*
X032380Y023600D01*
D13*
X032600Y026100D03*
X032600Y029100D03*
X032600Y018600D03*
X032600Y015600D03*
D14*
X036610Y015608D03*
X036610Y017608D03*
X036610Y020108D03*
X036610Y022108D03*
X036610Y024608D03*
X036610Y026608D03*
X036610Y029108D03*
X036610Y031108D03*
X034592Y036610D03*
X032592Y036610D03*
X030592Y036610D03*
X028092Y036610D03*
X026092Y036610D03*
X024092Y036610D03*
X021592Y036610D03*
X019592Y036610D03*
X017592Y036610D03*
X015592Y036610D03*
X013592Y036610D03*
X011592Y036610D03*
X009592Y036610D03*
X007592Y036610D03*
X005592Y036610D03*
X017592Y023610D03*
X019592Y023610D03*
X019108Y003590D03*
X017108Y003590D03*
X021608Y003590D03*
X023608Y003590D03*
D15*
X028100Y002600D03*
X029600Y002600D03*
X029600Y006600D03*
X028100Y006600D03*
X028100Y008100D03*
X029600Y008100D03*
X031100Y007600D03*
X031100Y006600D03*
X035100Y006600D03*
X035100Y007600D03*
X036100Y008600D03*
X037600Y008600D03*
X037600Y012600D03*
X036100Y012600D03*
X034600Y013100D03*
X030600Y013100D03*
X029600Y012100D03*
X028100Y012100D03*
X021600Y015600D03*
X017600Y015600D03*
X015100Y017100D03*
X015100Y021100D03*
X015100Y023100D03*
X015100Y027100D03*
X019600Y026100D03*
X021100Y028100D03*
X021100Y029100D03*
X023600Y026100D03*
X025100Y028100D03*
X025100Y029100D03*
X023100Y033600D03*
X021100Y033600D03*
X017100Y033600D03*
X027100Y033600D03*
X029600Y033600D03*
X033600Y033600D03*
X006100Y031600D03*
X006100Y027600D03*
X004600Y018600D03*
X004600Y014600D03*
X004600Y011600D03*
X004600Y007600D03*
D16*
X002900Y008100D02*
X002300Y008100D01*
X002300Y009100D02*
X002900Y009100D01*
X002900Y010100D02*
X002300Y010100D01*
X002300Y015600D02*
X002900Y015600D01*
X002900Y016600D02*
X002300Y016600D01*
X002300Y017600D02*
X002900Y017600D01*
X003300Y029100D02*
X003900Y029100D01*
X003900Y030100D02*
X003300Y030100D01*
X003300Y031100D02*
X003900Y031100D01*
D17*
X009100Y030600D03*
X010100Y029600D03*
X010100Y031600D03*
D18*
X017100Y028397D02*
X017100Y027803D01*
X018100Y027803D02*
X018100Y028397D01*
X019100Y028397D02*
X019100Y027803D01*
X019100Y019397D02*
X019100Y018803D01*
X020100Y018803D02*
X020100Y019397D01*
X017600Y019397D02*
X017600Y018803D01*
X016600Y018803D02*
X016600Y019397D01*
X031100Y010397D02*
X031100Y009803D01*
X032100Y009803D02*
X032100Y010397D01*
X033600Y010397D02*
X033600Y009803D01*
X034600Y009803D02*
X034600Y010397D01*
X034600Y004397D02*
X034600Y003803D01*
X033600Y003803D02*
X033600Y004397D01*
X032100Y004397D02*
X032100Y003803D01*
X031100Y003803D02*
X031100Y004397D01*
D19*
X024600Y023600D03*
X024600Y024600D03*
X023600Y024600D03*
X022600Y024600D03*
X022600Y023600D03*
X023600Y023600D03*
X023100Y031100D03*
X024100Y031100D03*
X024100Y032100D03*
X023100Y032100D03*
X022100Y032100D03*
X021100Y032100D03*
X021100Y031100D03*
X022100Y031100D03*
X020100Y031100D03*
X019100Y031100D03*
X019100Y032100D03*
X020100Y032100D03*
X018100Y032100D03*
X017100Y032100D03*
X017100Y031100D03*
X018100Y031100D03*
X027600Y031100D03*
X027600Y032100D03*
X028600Y032100D03*
X029600Y032100D03*
X029600Y031100D03*
X028600Y031100D03*
X030600Y031100D03*
X031600Y031100D03*
X031600Y032100D03*
X030600Y032100D03*
D20*
X011530Y007281D02*
X010670Y007281D01*
X010670Y004919D02*
X011530Y004919D01*
X012990Y005670D02*
X012990Y006530D01*
D21*
X000600Y000600D02*
X038990Y000600D01*
X038990Y038990D01*
X000600Y038990D01*
X000600Y000600D01*
X000600Y000734D02*
X038990Y000734D01*
X038990Y000893D02*
X000600Y000893D01*
X000600Y001051D02*
X001727Y001051D01*
X001672Y001066D02*
X001954Y000990D01*
X002246Y000990D01*
X002528Y001066D01*
X002782Y001212D01*
X002988Y001418D01*
X003134Y001672D01*
X003210Y001954D01*
X003210Y002246D01*
X003134Y002528D01*
X002988Y002782D01*
X002782Y002988D01*
X002528Y003134D01*
X002246Y003210D01*
X001954Y003210D01*
X001672Y003134D01*
X001418Y002988D01*
X001212Y002782D01*
X001066Y002528D01*
X000990Y002246D01*
X000990Y001954D01*
X001066Y001672D01*
X001212Y001418D01*
X001418Y001212D01*
X001672Y001066D01*
X001423Y001210D02*
X000600Y001210D01*
X000600Y001368D02*
X001262Y001368D01*
X001149Y001527D02*
X000600Y001527D01*
X000600Y001685D02*
X001062Y001685D01*
X001020Y001844D02*
X000600Y001844D01*
X000600Y002002D02*
X000990Y002002D01*
X000990Y002161D02*
X000600Y002161D01*
X000600Y002319D02*
X001010Y002319D01*
X001052Y002478D02*
X000600Y002478D01*
X000600Y002636D02*
X001128Y002636D01*
X001225Y002795D02*
X000600Y002795D01*
X000600Y002953D02*
X001383Y002953D01*
X001632Y003112D02*
X000600Y003112D01*
X000600Y003270D02*
X016645Y003270D01*
X016639Y003277D02*
X016795Y003121D01*
X016998Y003036D01*
X017218Y003036D01*
X017422Y003121D01*
X017578Y003277D01*
X017662Y003480D01*
X017662Y003700D01*
X017578Y003904D01*
X017422Y004060D01*
X017218Y004144D01*
X016998Y004144D01*
X016795Y004060D01*
X016639Y003904D01*
X000600Y003904D01*
X000600Y003746D02*
X016573Y003746D01*
X016555Y003700D02*
X016555Y003480D01*
X016639Y003277D01*
X016576Y003429D02*
X000600Y003429D01*
X000600Y003587D02*
X016555Y003587D01*
X016555Y003700D02*
X016639Y003904D01*
X016802Y004063D02*
X000600Y004063D01*
X000600Y004221D02*
X030643Y004221D01*
X030643Y004063D02*
X023915Y004063D01*
X023922Y004060D02*
X023718Y004144D01*
X023498Y004144D01*
X023295Y004060D01*
X023139Y003904D01*
X022078Y003904D01*
X021922Y004060D01*
X021718Y004144D01*
X021498Y004144D01*
X021295Y004060D01*
X021139Y003904D01*
X019589Y003904D01*
X019599Y003891D02*
X019546Y003964D01*
X019482Y004028D01*
X019409Y004081D01*
X019329Y004122D01*
X019243Y004150D01*
X019156Y004163D01*
X019156Y003638D01*
X019060Y003638D01*
X019060Y003542D01*
X018535Y003542D01*
X018549Y003456D01*
X018577Y003370D01*
X018618Y003289D01*
X018671Y003216D01*
X018735Y003153D01*
X018808Y003099D01*
X018888Y003058D01*
X018974Y003031D01*
X019060Y003017D01*
X019060Y003542D01*
X019156Y003542D01*
X019156Y003017D01*
X019243Y003031D01*
X019329Y003058D01*
X019409Y003099D01*
X019482Y003153D01*
X019546Y003216D01*
X019599Y003289D01*
X019640Y003370D01*
X019668Y003456D01*
X019682Y003542D01*
X019156Y003542D01*
X019156Y003638D01*
X019682Y003638D01*
X019668Y003724D01*
X019640Y003810D01*
X019599Y003891D01*
X019661Y003746D02*
X021073Y003746D01*
X021055Y003700D02*
X021055Y003480D01*
X021139Y003277D01*
X021295Y003121D01*
X021498Y003036D01*
X021718Y003036D01*
X021922Y003121D01*
X022078Y003277D01*
X022162Y003480D01*
X022162Y003700D01*
X022078Y003904D01*
X022143Y003746D02*
X023073Y003746D01*
X023055Y003700D02*
X023055Y003480D01*
X023139Y003277D01*
X023295Y003121D01*
X023498Y003036D01*
X023718Y003036D01*
X023922Y003121D01*
X024078Y003277D01*
X024162Y003480D01*
X024162Y003700D01*
X024078Y003904D01*
X023922Y004060D01*
X024078Y003904D02*
X030643Y003904D01*
X030643Y003746D02*
X024143Y003746D01*
X024162Y003587D02*
X030695Y003587D01*
X030713Y003544D02*
X030643Y003712D01*
X030643Y004488D01*
X030713Y004656D01*
X030841Y004784D01*
X031009Y004854D01*
X031191Y004854D01*
X031359Y004784D01*
X031487Y004656D01*
X031557Y004488D01*
X031557Y003712D01*
X031487Y003544D01*
X031359Y003416D01*
X031191Y003346D01*
X031009Y003346D01*
X030841Y003416D01*
X030713Y003544D01*
X030829Y003429D02*
X024141Y003429D01*
X024071Y003270D02*
X038990Y003270D01*
X038990Y003112D02*
X038068Y003112D01*
X038028Y003134D02*
X037746Y003210D01*
X037454Y003210D01*
X037172Y003134D01*
X036918Y002988D01*
X036712Y002782D01*
X036566Y002528D01*
X036490Y002246D01*
X036490Y001954D01*
X036566Y001672D01*
X036712Y001418D01*
X036918Y001212D01*
X037172Y001066D01*
X037454Y000990D01*
X037746Y000990D01*
X038028Y001066D01*
X038282Y001212D01*
X038488Y001418D01*
X038634Y001672D01*
X038710Y001954D01*
X038710Y002246D01*
X038634Y002528D01*
X038488Y002782D01*
X038282Y002988D01*
X038028Y003134D01*
X038317Y002953D02*
X038990Y002953D01*
X038990Y002795D02*
X038475Y002795D01*
X038572Y002636D02*
X038990Y002636D01*
X038990Y002478D02*
X038648Y002478D01*
X038690Y002319D02*
X038990Y002319D01*
X038990Y002161D02*
X038710Y002161D01*
X038710Y002002D02*
X038990Y002002D01*
X038990Y001844D02*
X038680Y001844D01*
X038638Y001685D02*
X038990Y001685D01*
X038990Y001527D02*
X038551Y001527D01*
X038438Y001368D02*
X038990Y001368D01*
X038990Y001210D02*
X038277Y001210D01*
X037973Y001051D02*
X038990Y001051D01*
X037227Y001051D02*
X002473Y001051D01*
X002777Y001210D02*
X036923Y001210D01*
X036762Y001368D02*
X002938Y001368D01*
X003051Y001527D02*
X036649Y001527D01*
X036562Y001685D02*
X003138Y001685D01*
X003180Y001844D02*
X036520Y001844D01*
X036490Y002002D02*
X003210Y002002D01*
X003210Y002161D02*
X036490Y002161D01*
X036510Y002319D02*
X029913Y002319D01*
X030020Y002426D02*
X029774Y002180D01*
X029426Y002180D01*
X029180Y002426D01*
X029180Y002774D01*
X029426Y003020D01*
X029774Y003020D01*
X030020Y002774D01*
X030020Y002426D01*
X030020Y002478D02*
X036552Y002478D01*
X036628Y002636D02*
X030020Y002636D01*
X029999Y002795D02*
X036725Y002795D01*
X036883Y002953D02*
X029841Y002953D01*
X029359Y002953D02*
X028341Y002953D01*
X028274Y003020D02*
X027926Y003020D01*
X027680Y002774D01*
X027680Y002426D01*
X027926Y002180D01*
X028274Y002180D01*
X028520Y002426D01*
X028520Y002774D01*
X028274Y003020D01*
X028499Y002795D02*
X029201Y002795D01*
X029180Y002636D02*
X028520Y002636D01*
X028520Y002478D02*
X029180Y002478D01*
X029287Y002319D02*
X028413Y002319D01*
X027787Y002319D02*
X003190Y002319D01*
X003148Y002478D02*
X027680Y002478D01*
X027680Y002636D02*
X003072Y002636D01*
X002975Y002795D02*
X027701Y002795D01*
X027859Y002953D02*
X002817Y002953D01*
X002568Y003112D02*
X016817Y003112D01*
X017400Y003112D02*
X018791Y003112D01*
X018632Y003270D02*
X017571Y003270D01*
X017641Y003429D02*
X018558Y003429D01*
X018535Y003638D02*
X019060Y003638D01*
X019060Y004163D01*
X018974Y004150D01*
X018888Y004122D01*
X018808Y004081D01*
X018735Y004028D01*
X018671Y003964D01*
X018618Y003891D01*
X018577Y003810D01*
X018549Y003724D01*
X018535Y003638D01*
X018556Y003746D02*
X017643Y003746D01*
X017662Y003587D02*
X019060Y003587D01*
X019156Y003587D02*
X021055Y003587D01*
X021055Y003700D02*
X021139Y003904D01*
X021302Y004063D02*
X019434Y004063D01*
X019156Y004063D02*
X019060Y004063D01*
X019060Y003904D02*
X019156Y003904D01*
X019156Y003746D02*
X019060Y003746D01*
X019060Y003429D02*
X019156Y003429D01*
X019156Y003270D02*
X019060Y003270D01*
X019060Y003112D02*
X019156Y003112D01*
X019426Y003112D02*
X021317Y003112D01*
X021145Y003270D02*
X019585Y003270D01*
X019659Y003429D02*
X021076Y003429D01*
X021900Y003112D02*
X023317Y003112D01*
X023145Y003270D02*
X022071Y003270D01*
X022141Y003429D02*
X023076Y003429D01*
X023055Y003587D02*
X022162Y003587D01*
X021915Y004063D02*
X023302Y004063D01*
X023139Y003904D02*
X023055Y003700D01*
X023900Y003112D02*
X037132Y003112D01*
X038990Y003429D02*
X034871Y003429D01*
X034859Y003416D02*
X034987Y003544D01*
X035057Y003712D01*
X035057Y004488D01*
X034987Y004656D01*
X034859Y004784D01*
X034691Y004854D01*
X034509Y004854D01*
X034341Y004784D01*
X034213Y004656D01*
X034143Y004488D01*
X034143Y003712D01*
X034213Y003544D01*
X034341Y003416D01*
X034509Y003346D01*
X034691Y003346D01*
X034859Y003416D01*
X035005Y003587D02*
X038990Y003587D01*
X038990Y003746D02*
X035057Y003746D01*
X035057Y003904D02*
X038990Y003904D01*
X038990Y004063D02*
X035057Y004063D01*
X035057Y004221D02*
X038990Y004221D01*
X038990Y004380D02*
X035057Y004380D01*
X035036Y004538D02*
X038990Y004538D01*
X038990Y004697D02*
X034946Y004697D01*
X034254Y004697D02*
X033946Y004697D01*
X033987Y004656D02*
X033859Y004784D01*
X033691Y004854D01*
X033509Y004854D01*
X033341Y004784D01*
X033213Y004656D01*
X033143Y004488D01*
X033143Y003712D01*
X033213Y003544D01*
X033341Y003416D01*
X033509Y003346D01*
X033691Y003346D01*
X033859Y003416D01*
X033987Y003544D01*
X034057Y003712D01*
X034057Y004488D01*
X033987Y004656D01*
X034036Y004538D02*
X034164Y004538D01*
X034143Y004380D02*
X034057Y004380D01*
X034057Y004221D02*
X034143Y004221D01*
X034143Y004063D02*
X034057Y004063D01*
X034057Y003904D02*
X034143Y003904D01*
X034143Y003746D02*
X034057Y003746D01*
X034005Y003587D02*
X034195Y003587D01*
X034329Y003429D02*
X033871Y003429D01*
X033329Y003429D02*
X032371Y003429D01*
X032359Y003416D02*
X032487Y003544D01*
X032557Y003712D01*
X032557Y004488D01*
X032487Y004656D01*
X032359Y004784D01*
X032191Y004854D01*
X032009Y004854D01*
X031841Y004784D01*
X031713Y004656D01*
X031643Y004488D01*
X031643Y003712D01*
X031713Y003544D01*
X031841Y003416D01*
X032009Y003346D01*
X032191Y003346D01*
X032359Y003416D01*
X032505Y003587D02*
X033195Y003587D01*
X033143Y003746D02*
X032557Y003746D01*
X032557Y003904D02*
X033143Y003904D01*
X033143Y004063D02*
X032557Y004063D01*
X032557Y004221D02*
X033143Y004221D01*
X033143Y004380D02*
X032557Y004380D01*
X032536Y004538D02*
X033164Y004538D01*
X033254Y004697D02*
X032446Y004697D01*
X031754Y004697D02*
X031446Y004697D01*
X031536Y004538D02*
X031664Y004538D01*
X031643Y004380D02*
X031557Y004380D01*
X031557Y004221D02*
X031643Y004221D01*
X031643Y004063D02*
X031557Y004063D01*
X031557Y003904D02*
X031643Y003904D01*
X031643Y003746D02*
X031557Y003746D01*
X031505Y003587D02*
X031695Y003587D01*
X031829Y003429D02*
X031371Y003429D01*
X030643Y004380D02*
X011815Y004380D01*
X011850Y004397D02*
X011927Y004454D01*
X011995Y004522D01*
X012052Y004599D01*
X012095Y004685D01*
X012125Y004776D01*
X012140Y004871D01*
X012140Y004919D01*
X012140Y004967D01*
X012125Y005062D01*
X012095Y005153D01*
X012052Y005239D01*
X011995Y005316D01*
X011927Y005384D01*
X011850Y005441D01*
X011764Y005484D01*
X011673Y005514D01*
X011578Y005529D01*
X011100Y005529D01*
X010622Y005529D01*
X010527Y005514D01*
X010436Y005484D01*
X010350Y005441D01*
X010273Y005384D01*
X010205Y005316D01*
X010148Y005239D01*
X010105Y005153D01*
X010075Y005062D01*
X010060Y004967D01*
X010060Y004919D01*
X011100Y004919D01*
X011100Y005529D01*
X011100Y004919D01*
X011100Y004919D01*
X012140Y004919D01*
X011100Y004919D01*
X011100Y004919D01*
X011100Y004919D01*
X010060Y004919D01*
X010060Y004871D01*
X010075Y004776D01*
X010105Y004685D01*
X010148Y004599D01*
X010205Y004522D01*
X010273Y004454D01*
X010350Y004397D01*
X010436Y004354D01*
X010527Y004324D01*
X010622Y004309D01*
X011100Y004309D01*
X011578Y004309D01*
X011673Y004324D01*
X011764Y004354D01*
X011850Y004397D01*
X012007Y004538D02*
X030664Y004538D01*
X030754Y004697D02*
X012099Y004697D01*
X012137Y004855D02*
X038990Y004855D01*
X038990Y005014D02*
X012133Y005014D01*
X012086Y005172D02*
X012653Y005172D01*
X012656Y005170D02*
X012872Y005080D01*
X013107Y005080D01*
X013324Y005170D01*
X013490Y005336D01*
X013580Y005553D01*
X013580Y006647D01*
X013490Y006864D01*
X013324Y007030D01*
X013107Y007120D01*
X012872Y007120D01*
X012656Y007030D01*
X012490Y006864D01*
X012400Y006647D01*
X012400Y005553D01*
X012490Y005336D01*
X012656Y005170D01*
X012495Y005331D02*
X011981Y005331D01*
X011749Y005489D02*
X012426Y005489D01*
X012400Y005648D02*
X000600Y005648D01*
X000600Y005806D02*
X012400Y005806D01*
X012400Y005965D02*
X000600Y005965D01*
X000600Y006123D02*
X012400Y006123D01*
X012400Y006282D02*
X000600Y006282D01*
X000600Y006440D02*
X012400Y006440D01*
X012400Y006599D02*
X000600Y006599D01*
X000600Y006757D02*
X010394Y006757D01*
X010336Y006781D02*
X010553Y006691D01*
X011647Y006691D01*
X011864Y006781D01*
X012030Y006947D01*
X012120Y007164D01*
X012120Y007398D01*
X012030Y007615D01*
X011864Y007781D01*
X011810Y007804D01*
X011810Y008013D01*
X016998Y013201D01*
X017019Y013192D01*
X017181Y013192D01*
X017331Y013254D01*
X017446Y013369D01*
X017508Y013519D01*
X017508Y013681D01*
X017446Y013831D01*
X017331Y013946D01*
X017181Y014008D01*
X017019Y014008D01*
X016869Y013946D01*
X016754Y013831D01*
X016692Y013681D01*
X016692Y013519D01*
X016701Y013498D01*
X011513Y008310D01*
X011390Y008187D01*
X011390Y007871D01*
X010553Y007871D01*
X010336Y007781D01*
X010170Y007615D01*
X010080Y007398D01*
X010080Y007164D01*
X010170Y006947D01*
X010336Y006781D01*
X010201Y006916D02*
X000600Y006916D01*
X000600Y007074D02*
X010117Y007074D01*
X010080Y007233D02*
X004826Y007233D01*
X004774Y007180D02*
X005020Y007426D01*
X005020Y007774D01*
X004774Y008020D01*
X004477Y008020D01*
X004310Y008187D01*
X004187Y008310D01*
X003311Y008310D01*
X003290Y008361D01*
X003161Y008490D01*
X002991Y008560D01*
X002208Y008560D01*
X002039Y008490D01*
X002023Y008474D01*
X001687Y008810D01*
X001310Y008810D01*
X001310Y019513D01*
X006187Y024390D01*
X020013Y024390D01*
X022013Y022390D01*
X025187Y022390D01*
X025310Y022513D01*
X025687Y022890D01*
X026536Y022890D01*
X026484Y022838D01*
X026420Y022684D01*
X026420Y022516D01*
X026484Y022362D01*
X026536Y022310D01*
X017687Y022310D01*
X016607Y023390D01*
X017083Y023390D01*
X017122Y023296D01*
X017278Y023140D01*
X017482Y023056D01*
X017702Y023056D01*
X017905Y023140D01*
X018061Y023296D01*
X018145Y023500D01*
X018145Y023720D01*
X018061Y023923D01*
X017905Y024079D01*
X017702Y024164D01*
X017482Y024164D01*
X017278Y024079D01*
X017122Y023923D01*
X017075Y023810D01*
X015513Y023810D01*
X015390Y023687D01*
X015223Y023520D01*
X014926Y023520D01*
X014680Y023274D01*
X014680Y022926D01*
X014926Y022680D01*
X015274Y022680D01*
X015520Y022926D01*
X015520Y023223D01*
X015687Y023390D01*
X016013Y023390D01*
X017390Y022013D01*
X017513Y021890D01*
X025881Y021890D01*
X025795Y021804D01*
X025740Y021672D01*
X025740Y021537D01*
X024163Y019960D01*
X024028Y019960D01*
X023896Y019905D01*
X023795Y019804D01*
X023740Y019672D01*
X023740Y019528D01*
X023795Y019396D01*
X023881Y019310D01*
X021687Y019310D01*
X020310Y020687D01*
X020187Y020810D01*
X017513Y020810D01*
X016557Y019854D01*
X016509Y019854D01*
X016341Y019784D01*
X016213Y019656D01*
X016143Y019488D01*
X016143Y018712D01*
X016213Y018544D01*
X016341Y018416D01*
X016509Y018346D01*
X016691Y018346D01*
X016859Y018416D01*
X016987Y018544D01*
X017057Y018712D01*
X017057Y019488D01*
X016987Y019656D01*
X016970Y019673D01*
X017687Y020390D01*
X020013Y020390D01*
X021513Y018890D01*
X024187Y018890D01*
X024310Y019013D01*
X025187Y019890D01*
X025881Y019890D01*
X025795Y019804D01*
X025740Y019672D01*
X025740Y019528D01*
X025795Y019396D01*
X025896Y019295D01*
X026028Y019240D01*
X026163Y019240D01*
X026390Y019013D01*
X026513Y018890D01*
X026536Y018890D01*
X026484Y018838D01*
X026420Y018684D01*
X026420Y018516D01*
X026484Y018362D01*
X026536Y018310D01*
X019687Y018310D01*
X019470Y018527D01*
X019487Y018544D01*
X019557Y018712D01*
X019557Y019488D01*
X019487Y019656D01*
X019359Y019784D01*
X019191Y019854D01*
X019009Y019854D01*
X018841Y019784D01*
X018713Y019656D01*
X018643Y019488D01*
X018643Y018712D01*
X018713Y018544D01*
X018841Y018416D01*
X019009Y018346D01*
X019057Y018346D01*
X019513Y017890D01*
X026536Y017890D01*
X026484Y017838D01*
X026420Y017684D01*
X026420Y017516D01*
X026484Y017362D01*
X026536Y017310D01*
X017187Y017310D01*
X016187Y018310D01*
X012687Y018310D01*
X010687Y020310D01*
X010164Y020310D01*
X010216Y020362D01*
X010280Y020516D01*
X010280Y020684D01*
X010216Y020838D01*
X010098Y020956D01*
X009944Y021020D01*
X009256Y021020D01*
X009102Y020956D01*
X008984Y020838D01*
X008920Y020684D01*
X008920Y020577D01*
X008687Y020810D01*
X007228Y020810D01*
X007216Y020838D01*
X007098Y020956D01*
X006944Y021020D01*
X006256Y021020D01*
X006102Y020956D01*
X005984Y020838D01*
X005920Y020684D01*
X005920Y020516D01*
X005984Y020362D01*
X006102Y020244D01*
X006256Y020180D01*
X006944Y020180D01*
X007098Y020244D01*
X007216Y020362D01*
X007228Y020390D01*
X008513Y020390D01*
X008890Y020013D01*
X009013Y019890D01*
X009036Y019890D01*
X008984Y019838D01*
X008920Y019684D01*
X008920Y019516D01*
X008984Y019362D01*
X009102Y019244D01*
X009256Y019180D01*
X009944Y019180D01*
X010098Y019244D01*
X010216Y019362D01*
X010280Y019516D01*
X010280Y019684D01*
X010216Y019838D01*
X010164Y019890D01*
X010513Y019890D01*
X012390Y018013D01*
X012513Y017890D01*
X016013Y017890D01*
X016890Y017013D01*
X017013Y016890D01*
X026536Y016890D01*
X026484Y016838D01*
X026420Y016684D01*
X026420Y016516D01*
X026484Y016362D01*
X026602Y016244D01*
X026756Y016180D01*
X027444Y016180D01*
X027598Y016244D01*
X027716Y016362D01*
X027780Y016516D01*
X027780Y016684D01*
X027716Y016838D01*
X027664Y016890D01*
X029536Y016890D01*
X029484Y016838D01*
X029444Y016741D01*
X029390Y016687D01*
X028013Y015310D01*
X027664Y015310D01*
X027716Y015362D01*
X027780Y015516D01*
X027780Y015684D01*
X027716Y015838D01*
X027598Y015956D01*
X027444Y016020D01*
X026756Y016020D01*
X026602Y015956D01*
X026484Y015838D01*
X026472Y015810D01*
X023687Y015810D01*
X023460Y016037D01*
X023460Y016172D01*
X023405Y016304D01*
X023304Y016405D01*
X023172Y016460D01*
X023028Y016460D01*
X022896Y016405D01*
X022795Y016304D01*
X022740Y016172D01*
X022740Y016028D01*
X022795Y015896D01*
X022896Y015795D01*
X023028Y015740D01*
X023163Y015740D01*
X023513Y015390D01*
X026472Y015390D01*
X026484Y015362D01*
X026536Y015310D01*
X021904Y015310D01*
X022020Y015426D01*
X022020Y015774D01*
X021774Y016020D01*
X021426Y016020D01*
X021180Y015774D01*
X021180Y015426D01*
X021296Y015310D01*
X017904Y015310D01*
X018020Y015426D01*
X018020Y015774D01*
X017774Y016020D01*
X017426Y016020D01*
X017180Y015774D01*
X017180Y015426D01*
X017296Y015310D01*
X005810Y015310D01*
X005810Y021013D01*
X006072Y021275D01*
X006102Y021244D01*
X006256Y021180D01*
X006944Y021180D01*
X007098Y021244D01*
X007216Y021362D01*
X007280Y021516D01*
X007280Y021684D01*
X007216Y021838D01*
X007098Y021956D01*
X006944Y022020D01*
X006256Y022020D01*
X006102Y021956D01*
X005984Y021838D01*
X005944Y021741D01*
X005513Y021310D01*
X005390Y021187D01*
X005390Y015013D01*
X005513Y014890D01*
X025381Y014890D01*
X025295Y014804D01*
X025265Y014732D01*
X025187Y014810D01*
X004984Y014810D01*
X004774Y015020D01*
X004477Y015020D01*
X003810Y015687D01*
X003687Y015810D01*
X003311Y015810D01*
X003290Y015861D01*
X003161Y015990D01*
X002991Y016060D01*
X002208Y016060D01*
X002039Y015990D01*
X001910Y015861D01*
X001840Y015691D01*
X001840Y015508D01*
X001910Y015339D01*
X002039Y015210D01*
X002208Y015140D01*
X002991Y015140D01*
X003161Y015210D01*
X003290Y015339D01*
X003311Y015390D01*
X003513Y015390D01*
X004180Y014723D01*
X004180Y014426D01*
X004426Y014180D01*
X004774Y014180D01*
X004984Y014390D01*
X025013Y014390D01*
X026013Y013390D01*
X027687Y013390D01*
X027810Y013513D01*
X029037Y014740D01*
X029172Y014740D01*
X029304Y014795D01*
X029405Y014896D01*
X029460Y015028D01*
X029460Y015172D01*
X029405Y015304D01*
X029304Y015405D01*
X029172Y015460D01*
X029028Y015460D01*
X028896Y015405D01*
X028795Y015304D01*
X028740Y015172D01*
X028740Y015037D01*
X027513Y013810D01*
X026187Y013810D01*
X025732Y014265D01*
X025804Y014295D01*
X025899Y014390D01*
X026472Y014390D01*
X026484Y014362D01*
X026602Y014244D01*
X026756Y014180D01*
X027444Y014180D01*
X027598Y014244D01*
X027716Y014362D01*
X027780Y014516D01*
X027780Y014684D01*
X027716Y014838D01*
X027664Y014890D01*
X028187Y014890D01*
X029572Y016275D01*
X029602Y016244D01*
X029756Y016180D01*
X030444Y016180D01*
X030598Y016244D01*
X030716Y016362D01*
X030780Y016516D01*
X030780Y016623D01*
X030890Y016513D01*
X030890Y015810D01*
X030728Y015810D01*
X030716Y015838D01*
X030598Y015956D01*
X030444Y016020D01*
X029756Y016020D01*
X029602Y015956D01*
X029484Y015838D01*
X029420Y015684D01*
X029420Y015516D01*
X029484Y015362D01*
X029602Y015244D01*
X029756Y015180D01*
X030444Y015180D01*
X030598Y015244D01*
X030716Y015362D01*
X030728Y015390D01*
X031187Y015390D01*
X031310Y015513D01*
X031310Y016687D01*
X031187Y016810D01*
X030687Y017310D01*
X030664Y017310D01*
X030716Y017362D01*
X030780Y017516D01*
X030780Y017623D01*
X031390Y017013D01*
X031390Y013810D01*
X031187Y013810D01*
X030675Y014322D01*
X030716Y014362D01*
X030780Y014516D01*
X030780Y014684D01*
X030716Y014838D01*
X030598Y014956D01*
X030444Y015020D01*
X029756Y015020D01*
X029602Y014956D01*
X029484Y014838D01*
X029420Y014684D01*
X029420Y014516D01*
X029484Y014362D01*
X029602Y014244D01*
X029756Y014180D01*
X030223Y014180D01*
X030890Y013513D01*
X031013Y013390D01*
X034013Y013390D01*
X034180Y013223D01*
X034180Y012926D01*
X034426Y012680D01*
X034774Y012680D01*
X035020Y012926D01*
X035020Y013274D01*
X034774Y013520D01*
X034477Y013520D01*
X034187Y013810D01*
X031810Y013810D01*
X031810Y017187D01*
X031687Y017310D01*
X030687Y018310D01*
X030664Y018310D01*
X030716Y018362D01*
X030780Y018516D01*
X030780Y018684D01*
X030716Y018838D01*
X030664Y018890D01*
X031013Y018890D01*
X034390Y015513D01*
X034513Y015390D01*
X036101Y015390D01*
X036140Y015295D01*
X036296Y015139D01*
X036500Y015055D01*
X036720Y015055D01*
X036923Y015139D01*
X037079Y015295D01*
X037164Y015498D01*
X037164Y015718D01*
X037079Y015922D01*
X036923Y016078D01*
X036720Y016162D01*
X036500Y016162D01*
X036296Y016078D01*
X036140Y015922D01*
X036094Y015810D01*
X034687Y015810D01*
X031187Y019310D01*
X030664Y019310D01*
X030716Y019362D01*
X030780Y019516D01*
X030780Y019684D01*
X030716Y019838D01*
X030598Y019956D01*
X030444Y020020D01*
X029756Y020020D01*
X029602Y019956D01*
X029572Y019925D01*
X029310Y020187D01*
X029187Y020310D01*
X027692Y020310D01*
X027696Y020313D01*
X027736Y020369D01*
X027768Y020431D01*
X027789Y020497D01*
X027800Y020565D01*
X027800Y020600D01*
X027800Y020635D01*
X027789Y020703D01*
X027768Y020769D01*
X027736Y020831D01*
X027696Y020887D01*
X027647Y020936D01*
X027591Y020976D01*
X027529Y021008D01*
X027463Y021029D01*
X027395Y021040D01*
X027100Y021040D01*
X027100Y020600D01*
X027100Y020600D01*
X027800Y020600D01*
X027100Y020600D01*
X027100Y020600D01*
X027100Y020600D01*
X026400Y020600D01*
X026400Y020635D01*
X026411Y020703D01*
X026432Y020769D01*
X026464Y020831D01*
X026504Y020887D01*
X026553Y020936D01*
X026609Y020976D01*
X026671Y021008D01*
X026737Y021029D01*
X026805Y021040D01*
X027100Y021040D01*
X027100Y020600D01*
X026400Y020600D01*
X026400Y020565D01*
X026411Y020497D01*
X026432Y020431D01*
X026464Y020369D01*
X026504Y020313D01*
X026508Y020310D01*
X025107Y020310D01*
X026037Y021240D01*
X026172Y021240D01*
X026304Y021295D01*
X026405Y021396D01*
X026438Y021474D01*
X026484Y021362D01*
X026602Y021244D01*
X026756Y021180D01*
X027444Y021180D01*
X027598Y021244D01*
X027716Y021362D01*
X027780Y021516D01*
X027780Y021684D01*
X027716Y021838D01*
X027664Y021890D01*
X028187Y021890D01*
X028310Y022013D01*
X028310Y023013D01*
X029572Y024275D01*
X029602Y024244D01*
X029756Y024180D01*
X030444Y024180D01*
X030598Y024244D01*
X030716Y024362D01*
X030780Y024516D01*
X030780Y024684D01*
X030716Y024838D01*
X030598Y024956D01*
X030444Y025020D01*
X029756Y025020D01*
X029602Y024956D01*
X029484Y024838D01*
X029444Y024741D01*
X028935Y024232D01*
X028905Y024304D01*
X028804Y024405D01*
X028672Y024460D01*
X028528Y024460D01*
X028396Y024405D01*
X028295Y024304D01*
X028240Y024172D01*
X028240Y024037D01*
X027780Y023577D01*
X027780Y023684D01*
X027716Y023838D01*
X027598Y023956D01*
X027444Y024020D01*
X026756Y024020D01*
X026602Y023956D01*
X026484Y023838D01*
X026472Y023810D01*
X025687Y023810D01*
X025310Y024187D01*
X025187Y024310D01*
X024956Y024310D01*
X025057Y024411D01*
X025057Y024789D01*
X024789Y025057D01*
X024411Y025057D01*
X024143Y024789D01*
X024143Y024411D01*
X024244Y024310D01*
X024187Y024310D01*
X024057Y024440D01*
X024057Y024789D01*
X023789Y025057D01*
X023411Y025057D01*
X023143Y024789D01*
X023143Y024411D01*
X023411Y024143D01*
X023760Y024143D01*
X024013Y023890D01*
X024216Y023890D01*
X024123Y023798D01*
X024123Y023618D01*
X024582Y023618D01*
X024582Y023582D01*
X024618Y023582D01*
X024618Y023618D01*
X025077Y023618D01*
X025077Y023798D01*
X024984Y023890D01*
X025013Y023890D01*
X025513Y023390D01*
X026472Y023390D01*
X026484Y023362D01*
X026536Y023310D01*
X025513Y023310D01*
X025013Y022810D01*
X022187Y022810D01*
X020310Y024687D01*
X020187Y024810D01*
X006013Y024810D01*
X001013Y019810D01*
X000890Y019687D01*
X000890Y008513D01*
X001013Y008390D01*
X001513Y008390D01*
X001840Y008063D01*
X001840Y008008D01*
X001910Y007839D01*
X002039Y007710D01*
X002208Y007640D01*
X002991Y007640D01*
X003161Y007710D01*
X003290Y007839D01*
X003311Y007890D01*
X004013Y007890D01*
X004180Y007723D01*
X004180Y007426D01*
X004426Y007180D01*
X004774Y007180D01*
X004985Y007391D02*
X010080Y007391D01*
X010143Y007550D02*
X005020Y007550D01*
X005020Y007708D02*
X010263Y007708D01*
X010542Y007867D02*
X004927Y007867D01*
X004472Y008025D02*
X011390Y008025D01*
X011390Y008184D02*
X004313Y008184D01*
X004310Y008187D02*
X004310Y008187D01*
X004037Y007867D02*
X003301Y007867D01*
X003156Y007708D02*
X004180Y007708D01*
X004180Y007550D02*
X000600Y007550D01*
X000600Y007708D02*
X002044Y007708D01*
X001899Y007867D02*
X000600Y007867D01*
X000600Y008025D02*
X001840Y008025D01*
X001720Y008184D02*
X000600Y008184D01*
X000600Y008342D02*
X001561Y008342D01*
X001838Y008659D02*
X002163Y008659D01*
X002208Y008640D02*
X002039Y008710D01*
X001910Y008839D01*
X001840Y009008D01*
X001840Y009191D01*
X001910Y009361D01*
X002039Y009490D01*
X002208Y009560D01*
X002991Y009560D01*
X003161Y009490D01*
X003290Y009361D01*
X003360Y009191D01*
X003360Y009008D01*
X003290Y008839D01*
X003161Y008710D01*
X002991Y008640D01*
X002208Y008640D01*
X002065Y008501D02*
X001996Y008501D01*
X001932Y008818D02*
X001310Y008818D01*
X001310Y008976D02*
X001853Y008976D01*
X001840Y009135D02*
X001310Y009135D01*
X001310Y009293D02*
X001882Y009293D01*
X002001Y009452D02*
X001310Y009452D01*
X001310Y009610D02*
X012813Y009610D01*
X012655Y009452D02*
X003199Y009452D01*
X003318Y009293D02*
X012496Y009293D01*
X012338Y009135D02*
X003360Y009135D01*
X003347Y008976D02*
X012179Y008976D01*
X012021Y008818D02*
X003268Y008818D01*
X003037Y008659D02*
X011862Y008659D01*
X011704Y008501D02*
X003135Y008501D01*
X003298Y008342D02*
X011545Y008342D01*
X011822Y008025D02*
X016050Y008025D01*
X016066Y008028D02*
X016000Y008017D01*
X015936Y007996D01*
X015876Y007966D01*
X015821Y007926D01*
X015774Y007879D01*
X015734Y007824D01*
X015704Y007764D01*
X015683Y007700D01*
X015672Y007634D01*
X015672Y007600D01*
X015672Y007566D01*
X015683Y007500D01*
X015704Y007436D01*
X015734Y007376D01*
X015774Y007321D01*
X015821Y007274D01*
X015876Y007234D01*
X015936Y007204D01*
X016000Y007183D01*
X016066Y007172D01*
X016100Y007172D01*
X016134Y007172D01*
X016200Y007183D01*
X016264Y007204D01*
X016324Y007234D01*
X016379Y007274D01*
X016426Y007321D01*
X016466Y007376D01*
X016496Y007436D01*
X016517Y007500D01*
X016528Y007566D01*
X016528Y007600D01*
X016528Y007634D01*
X016517Y007700D01*
X016496Y007764D01*
X016466Y007824D01*
X016426Y007879D01*
X016379Y007926D01*
X016324Y007966D01*
X016264Y007996D01*
X016200Y008017D01*
X016134Y008028D01*
X016100Y008028D01*
X016066Y008028D01*
X016100Y008028D02*
X016100Y007600D01*
X016528Y007600D01*
X016100Y007600D01*
X016100Y007600D01*
X016100Y007600D01*
X016100Y008028D01*
X016100Y008025D02*
X016100Y008025D01*
X016150Y008025D02*
X027660Y008025D01*
X027660Y008100D02*
X027660Y007918D01*
X027918Y007660D01*
X028100Y007660D01*
X028282Y007660D01*
X028540Y007918D01*
X028540Y008100D01*
X028540Y008282D01*
X028282Y008540D01*
X028100Y008540D01*
X028100Y008100D01*
X028100Y008100D01*
X028540Y008100D01*
X028100Y008100D01*
X028100Y008100D01*
X028100Y008100D01*
X027660Y008100D01*
X027660Y008282D01*
X027918Y008540D01*
X028100Y008540D01*
X028100Y008100D01*
X028100Y007660D01*
X028100Y008100D01*
X028100Y008100D01*
X027660Y008100D01*
X027660Y008184D02*
X011980Y008184D01*
X012139Y008342D02*
X027720Y008342D01*
X027878Y008501D02*
X012297Y008501D01*
X012456Y008659D02*
X033744Y008659D01*
X033903Y008501D02*
X029822Y008501D01*
X029782Y008540D02*
X029600Y008540D01*
X029600Y008100D01*
X029600Y008100D01*
X030040Y008100D01*
X030040Y008282D01*
X029782Y008540D01*
X029600Y008540D02*
X029600Y008100D01*
X029600Y008100D01*
X029600Y008100D01*
X029160Y008100D01*
X029160Y008282D01*
X029418Y008540D01*
X029600Y008540D01*
X029600Y008501D02*
X029600Y008501D01*
X029600Y008342D02*
X029600Y008342D01*
X029600Y008184D02*
X029600Y008184D01*
X029600Y008100D02*
X029160Y008100D01*
X029160Y007918D01*
X029418Y007660D01*
X029600Y007660D01*
X029782Y007660D01*
X030040Y007918D01*
X030040Y008100D01*
X029600Y008100D01*
X029600Y007660D01*
X029600Y008100D01*
X029600Y008100D01*
X029600Y008025D02*
X029600Y008025D01*
X029600Y007867D02*
X029600Y007867D01*
X029600Y007708D02*
X029600Y007708D01*
X029830Y007708D02*
X030660Y007708D01*
X030660Y007782D02*
X030660Y007600D01*
X031100Y007600D01*
X031540Y007600D01*
X031540Y007782D01*
X031282Y008040D01*
X031100Y008040D01*
X031100Y007600D01*
X031100Y007600D01*
X031100Y007600D01*
X031540Y007600D01*
X031540Y007418D01*
X031282Y007160D01*
X031100Y007160D01*
X031100Y007600D01*
X031100Y007600D01*
X031100Y007600D01*
X031100Y008040D01*
X030918Y008040D01*
X030660Y007782D01*
X030744Y007867D02*
X029989Y007867D01*
X030040Y008025D02*
X030903Y008025D01*
X031100Y008025D02*
X031100Y008025D01*
X031100Y007867D02*
X031100Y007867D01*
X031100Y007708D02*
X031100Y007708D01*
X031100Y007600D02*
X030660Y007600D01*
X030660Y007418D01*
X030918Y007160D01*
X031100Y007160D01*
X031100Y007600D01*
X031100Y007550D02*
X031100Y007550D01*
X031100Y007391D02*
X031100Y007391D01*
X031100Y007233D02*
X031100Y007233D01*
X031355Y007233D02*
X034874Y007233D01*
X034926Y007180D02*
X035274Y007180D01*
X035520Y007426D01*
X035520Y007774D01*
X035274Y008020D01*
X034977Y008020D01*
X033810Y009187D01*
X033687Y009310D01*
X031687Y009310D01*
X031470Y009527D01*
X031487Y009544D01*
X031557Y009712D01*
X031557Y010488D01*
X031487Y010656D01*
X031359Y010784D01*
X031191Y010854D01*
X031009Y010854D01*
X030841Y010784D01*
X030713Y010656D01*
X030643Y010488D01*
X030643Y010310D01*
X028687Y010310D01*
X026460Y012537D01*
X026460Y012672D01*
X026405Y012804D01*
X026304Y012905D01*
X026172Y012960D01*
X026028Y012960D01*
X025896Y012905D01*
X025795Y012804D01*
X025740Y012672D01*
X025740Y012528D01*
X025795Y012396D01*
X025896Y012295D01*
X026028Y012240D01*
X026163Y012240D01*
X028390Y010013D01*
X028513Y009890D01*
X030643Y009890D01*
X030643Y009712D01*
X030713Y009544D01*
X030841Y009416D01*
X031009Y009346D01*
X031057Y009346D01*
X031513Y008890D01*
X033513Y008890D01*
X034680Y007723D01*
X034680Y007426D01*
X034926Y007180D01*
X034918Y007040D02*
X034660Y006782D01*
X034660Y006600D01*
X035100Y006600D01*
X035540Y006600D01*
X035540Y006782D01*
X035282Y007040D01*
X035100Y007040D01*
X035100Y006600D01*
X035100Y006600D01*
X035100Y006600D01*
X035540Y006600D01*
X035540Y006418D01*
X035282Y006160D01*
X035100Y006160D01*
X035100Y006600D01*
X035100Y006600D01*
X035100Y006600D01*
X035100Y007040D01*
X034918Y007040D01*
X034793Y006916D02*
X031378Y006916D01*
X031274Y007020D02*
X030926Y007020D01*
X030680Y006774D01*
X030680Y006426D01*
X030926Y006180D01*
X031274Y006180D01*
X031520Y006426D01*
X031520Y006774D01*
X031274Y007020D01*
X031520Y006757D02*
X034660Y006757D01*
X034660Y006600D02*
X034660Y006418D01*
X034918Y006160D01*
X035100Y006160D01*
X035100Y006600D01*
X034660Y006600D01*
X034660Y006599D02*
X031520Y006599D01*
X031520Y006440D02*
X034660Y006440D01*
X034796Y006282D02*
X031375Y006282D01*
X030825Y006282D02*
X029904Y006282D01*
X029782Y006160D02*
X030040Y006418D01*
X030040Y006600D01*
X030040Y006782D01*
X029782Y007040D01*
X029600Y007040D01*
X029600Y006600D01*
X029600Y006600D01*
X030040Y006600D01*
X029600Y006600D01*
X029600Y006600D01*
X029600Y006600D01*
X029160Y006600D01*
X029160Y006782D01*
X029418Y007040D01*
X029600Y007040D01*
X029600Y006600D01*
X029600Y006160D01*
X029782Y006160D01*
X029600Y006160D02*
X029600Y006600D01*
X029600Y006600D01*
X029160Y006600D01*
X029160Y006418D01*
X029418Y006160D01*
X029600Y006160D01*
X029600Y006282D02*
X029600Y006282D01*
X029600Y006440D02*
X029600Y006440D01*
X029600Y006599D02*
X029600Y006599D01*
X029600Y006757D02*
X029600Y006757D01*
X029600Y006916D02*
X029600Y006916D01*
X029907Y006916D02*
X030822Y006916D01*
X030680Y006757D02*
X030040Y006757D01*
X030040Y006599D02*
X030680Y006599D01*
X030680Y006440D02*
X030040Y006440D01*
X029296Y006282D02*
X028404Y006282D01*
X028282Y006160D02*
X028540Y006418D01*
X028540Y006600D01*
X028540Y006782D01*
X028282Y007040D01*
X028100Y007040D01*
X028100Y006600D01*
X028100Y006600D01*
X028540Y006600D01*
X028100Y006600D01*
X028100Y006600D01*
X028100Y006600D01*
X027660Y006600D01*
X027660Y006782D01*
X027918Y007040D01*
X028100Y007040D01*
X028100Y006600D01*
X028100Y006160D01*
X028282Y006160D01*
X028100Y006160D02*
X028100Y006600D01*
X028100Y006600D01*
X027660Y006600D01*
X027660Y006418D01*
X027918Y006160D01*
X028100Y006160D01*
X028100Y006282D02*
X028100Y006282D01*
X028100Y006440D02*
X028100Y006440D01*
X028100Y006599D02*
X028100Y006599D01*
X028100Y006757D02*
X028100Y006757D01*
X028100Y006916D02*
X028100Y006916D01*
X028407Y006916D02*
X029293Y006916D01*
X029160Y006757D02*
X028540Y006757D01*
X028540Y006599D02*
X029160Y006599D01*
X029160Y006440D02*
X028540Y006440D01*
X027796Y006282D02*
X013580Y006282D01*
X013580Y006440D02*
X027660Y006440D01*
X027660Y006599D02*
X013580Y006599D01*
X013534Y006757D02*
X027660Y006757D01*
X027793Y006916D02*
X013439Y006916D01*
X013218Y007074D02*
X038990Y007074D01*
X038990Y006916D02*
X035407Y006916D01*
X035540Y006757D02*
X038990Y006757D01*
X038990Y006599D02*
X035540Y006599D01*
X035540Y006440D02*
X038990Y006440D01*
X038990Y006282D02*
X035404Y006282D01*
X035100Y006282D02*
X035100Y006282D01*
X035100Y006440D02*
X035100Y006440D01*
X035100Y006599D02*
X035100Y006599D01*
X035100Y006757D02*
X035100Y006757D01*
X035100Y006916D02*
X035100Y006916D01*
X035326Y007233D02*
X038990Y007233D01*
X038990Y007391D02*
X035485Y007391D01*
X035520Y007550D02*
X038990Y007550D01*
X038990Y007708D02*
X035520Y007708D01*
X035427Y007867D02*
X038990Y007867D01*
X038990Y008025D02*
X034972Y008025D01*
X034813Y008184D02*
X035923Y008184D01*
X035926Y008180D02*
X036274Y008180D01*
X036520Y008426D01*
X036520Y008774D01*
X036274Y009020D01*
X035926Y009020D01*
X035680Y008774D01*
X035680Y008426D01*
X035926Y008180D01*
X035764Y008342D02*
X034655Y008342D01*
X034496Y008501D02*
X035680Y008501D01*
X035680Y008659D02*
X034338Y008659D01*
X034179Y008818D02*
X035724Y008818D01*
X035882Y008976D02*
X034021Y008976D01*
X033862Y009135D02*
X038990Y009135D01*
X038990Y009293D02*
X033704Y009293D01*
X033691Y009346D02*
X033859Y009416D01*
X033987Y009544D01*
X034057Y009712D01*
X034057Y010488D01*
X033987Y010656D01*
X033859Y010784D01*
X033691Y010854D01*
X033509Y010854D01*
X033341Y010784D01*
X033213Y010656D01*
X033143Y010488D01*
X033143Y009712D01*
X033213Y009544D01*
X033341Y009416D01*
X033509Y009346D01*
X033691Y009346D01*
X033894Y009452D02*
X034306Y009452D01*
X034341Y009416D02*
X034509Y009346D01*
X034691Y009346D01*
X034859Y009416D01*
X034987Y009544D01*
X035057Y009712D01*
X035057Y010488D01*
X034987Y010656D01*
X034859Y010784D01*
X034691Y010854D01*
X034643Y010854D01*
X034187Y011310D01*
X029187Y011310D01*
X028520Y011977D01*
X028520Y012274D01*
X028274Y012520D01*
X027926Y012520D01*
X027680Y012274D01*
X027680Y011926D01*
X027926Y011680D01*
X028223Y011680D01*
X028890Y011013D01*
X029013Y010890D01*
X034013Y010890D01*
X034230Y010673D01*
X034213Y010656D01*
X034143Y010488D01*
X034143Y009712D01*
X034213Y009544D01*
X034341Y009416D01*
X034186Y009610D02*
X034014Y009610D01*
X034057Y009769D02*
X034143Y009769D01*
X034143Y009927D02*
X034057Y009927D01*
X034057Y010086D02*
X034143Y010086D01*
X034143Y010244D02*
X034057Y010244D01*
X034057Y010403D02*
X034143Y010403D01*
X034174Y010561D02*
X034026Y010561D01*
X033923Y010720D02*
X034183Y010720D01*
X034025Y010878D02*
X028119Y010878D01*
X028277Y010720D02*
X030777Y010720D01*
X030674Y010561D02*
X028436Y010561D01*
X028594Y010403D02*
X030643Y010403D01*
X030643Y009769D02*
X013565Y009769D01*
X013407Y009610D02*
X030686Y009610D01*
X030806Y009452D02*
X013248Y009452D01*
X013090Y009293D02*
X031110Y009293D01*
X031269Y009135D02*
X012931Y009135D01*
X012773Y008976D02*
X031427Y008976D01*
X031545Y009452D02*
X031806Y009452D01*
X031841Y009416D02*
X032009Y009346D01*
X032191Y009346D01*
X032359Y009416D01*
X032487Y009544D01*
X032557Y009712D01*
X032557Y010488D01*
X032487Y010656D01*
X032359Y010784D01*
X032191Y010854D01*
X032009Y010854D01*
X031841Y010784D01*
X031713Y010656D01*
X031643Y010488D01*
X031643Y009712D01*
X031713Y009544D01*
X031841Y009416D01*
X031686Y009610D02*
X031514Y009610D01*
X031557Y009769D02*
X031643Y009769D01*
X031643Y009927D02*
X031557Y009927D01*
X031557Y010086D02*
X031643Y010086D01*
X031643Y010244D02*
X031557Y010244D01*
X031557Y010403D02*
X031643Y010403D01*
X031674Y010561D02*
X031526Y010561D01*
X031423Y010720D02*
X031777Y010720D01*
X032423Y010720D02*
X033277Y010720D01*
X033174Y010561D02*
X032526Y010561D01*
X032557Y010403D02*
X033143Y010403D01*
X033143Y010244D02*
X032557Y010244D01*
X032557Y010086D02*
X033143Y010086D01*
X033143Y009927D02*
X032557Y009927D01*
X032557Y009769D02*
X033143Y009769D01*
X033186Y009610D02*
X032514Y009610D01*
X032394Y009452D02*
X033306Y009452D01*
X033586Y008818D02*
X012614Y008818D01*
X012972Y009769D02*
X003247Y009769D01*
X003266Y009787D02*
X003311Y009848D01*
X003345Y009916D01*
X003368Y009988D01*
X003380Y010062D01*
X003380Y010080D01*
X002620Y010080D01*
X002620Y010120D01*
X002580Y010120D01*
X002580Y010580D01*
X002262Y010580D01*
X002188Y010568D01*
X002116Y010545D01*
X002048Y010511D01*
X001987Y010466D01*
X001934Y010413D01*
X001889Y010352D01*
X001855Y010284D01*
X001832Y010212D01*
X001820Y010138D01*
X001820Y010120D01*
X002580Y010120D01*
X002580Y010080D01*
X002620Y010080D01*
X002620Y009620D01*
X002938Y009620D01*
X003012Y009632D01*
X003084Y009655D01*
X003152Y009689D01*
X003213Y009734D01*
X003266Y009787D01*
X003348Y009927D02*
X013130Y009927D01*
X013289Y010086D02*
X002620Y010086D01*
X002620Y010120D02*
X003380Y010120D01*
X003380Y010138D01*
X003368Y010212D01*
X003345Y010284D01*
X003311Y010352D01*
X003266Y010413D01*
X003213Y010466D01*
X003152Y010511D01*
X003084Y010545D01*
X003012Y010568D01*
X002938Y010580D01*
X002620Y010580D01*
X002620Y010120D01*
X002580Y010086D02*
X001310Y010086D01*
X001310Y010244D02*
X001842Y010244D01*
X001820Y010080D02*
X001820Y010062D01*
X001832Y009988D01*
X001855Y009916D01*
X001889Y009848D01*
X001934Y009787D01*
X001987Y009734D01*
X002048Y009689D01*
X002116Y009655D01*
X002188Y009632D01*
X002262Y009620D01*
X002580Y009620D01*
X002580Y010080D01*
X001820Y010080D01*
X001852Y009927D02*
X001310Y009927D01*
X001310Y009769D02*
X001953Y009769D01*
X002580Y009769D02*
X002620Y009769D01*
X002620Y009927D02*
X002580Y009927D01*
X002580Y010244D02*
X002620Y010244D01*
X002620Y010403D02*
X002580Y010403D01*
X002580Y010561D02*
X002620Y010561D01*
X003034Y010561D02*
X013764Y010561D01*
X013606Y010403D02*
X003274Y010403D01*
X003358Y010244D02*
X013447Y010244D01*
X013724Y009927D02*
X028476Y009927D01*
X028317Y010086D02*
X013882Y010086D01*
X014041Y010244D02*
X028159Y010244D01*
X028000Y010403D02*
X014199Y010403D01*
X014358Y010561D02*
X027842Y010561D01*
X027683Y010720D02*
X014516Y010720D01*
X014675Y010878D02*
X027525Y010878D01*
X027366Y011037D02*
X014834Y011037D01*
X014992Y011195D02*
X027208Y011195D01*
X027049Y011354D02*
X015151Y011354D01*
X015309Y011512D02*
X026891Y011512D01*
X026732Y011671D02*
X015468Y011671D01*
X015626Y011829D02*
X026574Y011829D01*
X026415Y011988D02*
X015785Y011988D01*
X015943Y012146D02*
X026257Y012146D01*
X025886Y012305D02*
X016102Y012305D01*
X016260Y012463D02*
X025767Y012463D01*
X025740Y012622D02*
X016419Y012622D01*
X016577Y012780D02*
X025785Y012780D01*
X025977Y012939D02*
X016736Y012939D01*
X016894Y013097D02*
X030180Y013097D01*
X030180Y012939D02*
X026223Y012939D01*
X026415Y012780D02*
X030326Y012780D01*
X030426Y012680D02*
X030774Y012680D01*
X031020Y012926D01*
X031020Y013274D01*
X030774Y013520D01*
X030426Y013520D01*
X030180Y013274D01*
X030180Y012926D01*
X030426Y012680D01*
X030020Y012274D02*
X029774Y012520D01*
X029426Y012520D01*
X029180Y012274D01*
X029180Y011926D01*
X029426Y011680D01*
X029723Y011680D01*
X030013Y011390D01*
X034187Y011390D01*
X034310Y011513D01*
X036187Y013390D01*
X037687Y013390D01*
X037810Y013513D01*
X037810Y018187D01*
X037687Y018310D01*
X037187Y018810D01*
X036810Y018810D01*
X036810Y019592D01*
X036923Y019639D01*
X037079Y019795D01*
X037164Y019998D01*
X037164Y020218D01*
X037079Y020422D01*
X036923Y020578D01*
X036720Y020662D01*
X036500Y020662D01*
X036296Y020578D01*
X036140Y020422D01*
X036056Y020218D01*
X036056Y019998D01*
X036140Y019795D01*
X036296Y019639D01*
X036390Y019600D01*
X036390Y018513D01*
X036513Y018390D01*
X037013Y018390D01*
X037390Y018013D01*
X037390Y013810D01*
X036013Y013810D01*
X034013Y011810D01*
X030187Y011810D01*
X030020Y011977D01*
X030020Y012274D01*
X029989Y012305D02*
X034508Y012305D01*
X034666Y012463D02*
X029831Y012463D01*
X030020Y012146D02*
X034349Y012146D01*
X034191Y011988D02*
X030020Y011988D01*
X030168Y011829D02*
X034032Y011829D01*
X034309Y011512D02*
X038990Y011512D01*
X038990Y011354D02*
X029143Y011354D01*
X028985Y011512D02*
X029891Y011512D01*
X029732Y011671D02*
X028826Y011671D01*
X028668Y011829D02*
X029277Y011829D01*
X029180Y011988D02*
X028520Y011988D01*
X028520Y012146D02*
X029180Y012146D01*
X029211Y012305D02*
X028489Y012305D01*
X028331Y012463D02*
X029369Y012463D01*
X030180Y013256D02*
X025332Y013256D01*
X025331Y013254D02*
X025446Y013369D01*
X025508Y013519D01*
X025508Y013681D01*
X025446Y013831D01*
X025331Y013946D01*
X025181Y014008D01*
X025019Y014008D01*
X024869Y013946D01*
X024754Y013831D01*
X024692Y013681D01*
X024692Y013519D01*
X024754Y013369D01*
X024869Y013254D01*
X025019Y013192D01*
X025181Y013192D01*
X025331Y013254D01*
X025464Y013414D02*
X025989Y013414D01*
X025830Y013573D02*
X025508Y013573D01*
X025487Y013731D02*
X025672Y013731D01*
X025513Y013890D02*
X025387Y013890D01*
X025355Y014048D02*
X001310Y014048D01*
X001310Y013890D02*
X015813Y013890D01*
X015869Y013946D02*
X015754Y013831D01*
X015692Y013681D01*
X015692Y013519D01*
X015754Y013369D01*
X015869Y013254D01*
X016019Y013192D01*
X016181Y013192D01*
X016331Y013254D01*
X016446Y013369D01*
X016508Y013519D01*
X016508Y013681D01*
X016446Y013831D01*
X016331Y013946D01*
X016181Y014008D01*
X016019Y014008D01*
X015869Y013946D01*
X015713Y013731D02*
X001310Y013731D01*
X001310Y013573D02*
X015692Y013573D01*
X015736Y013414D02*
X001310Y013414D01*
X001310Y013256D02*
X015868Y013256D01*
X016142Y012939D02*
X001310Y012939D01*
X001310Y013097D02*
X016300Y013097D01*
X016332Y013256D02*
X016459Y013256D01*
X016464Y013414D02*
X016617Y013414D01*
X016692Y013573D02*
X016508Y013573D01*
X016487Y013731D02*
X016713Y013731D01*
X016813Y013890D02*
X016387Y013890D01*
X017387Y013890D02*
X022785Y013890D01*
X022774Y013879D02*
X022734Y013824D01*
X022704Y013764D01*
X022683Y013700D01*
X022672Y013634D01*
X022672Y013600D01*
X022672Y013566D01*
X022683Y013500D01*
X022704Y013436D01*
X022734Y013376D01*
X022774Y013321D01*
X022821Y013274D01*
X022876Y013234D01*
X022936Y013204D01*
X023000Y013183D01*
X023066Y013172D01*
X023100Y013172D01*
X023134Y013172D01*
X023200Y013183D01*
X023264Y013204D01*
X023324Y013234D01*
X023379Y013274D01*
X023426Y013321D01*
X023466Y013376D01*
X023496Y013436D01*
X023517Y013500D01*
X023528Y013566D01*
X023528Y013600D01*
X023528Y013634D01*
X023517Y013700D01*
X023496Y013764D01*
X023466Y013824D01*
X023426Y013879D01*
X023379Y013926D01*
X023324Y013966D01*
X023264Y013996D01*
X023200Y014017D01*
X023134Y014028D01*
X023100Y014028D01*
X023066Y014028D01*
X023000Y014017D01*
X022936Y013996D01*
X022876Y013966D01*
X022821Y013926D01*
X022774Y013879D01*
X022693Y013731D02*
X017487Y013731D01*
X017508Y013573D02*
X022672Y013573D01*
X022672Y013600D02*
X023100Y013600D01*
X023528Y013600D01*
X023100Y013600D01*
X023100Y013600D01*
X023100Y013600D01*
X023100Y014028D01*
X023100Y013600D01*
X023100Y013172D01*
X023100Y013600D01*
X023100Y013600D01*
X023100Y013600D01*
X022672Y013600D01*
X022715Y013414D02*
X017464Y013414D01*
X017332Y013256D02*
X022847Y013256D01*
X023100Y013256D02*
X023100Y013256D01*
X023100Y013414D02*
X023100Y013414D01*
X023100Y013573D02*
X023100Y013573D01*
X023100Y013731D02*
X023100Y013731D01*
X023100Y013890D02*
X023100Y013890D01*
X023415Y013890D02*
X024813Y013890D01*
X024713Y013731D02*
X023507Y013731D01*
X023528Y013573D02*
X024692Y013573D01*
X024736Y013414D02*
X023485Y013414D01*
X023353Y013256D02*
X024868Y013256D01*
X025196Y014207D02*
X004800Y014207D01*
X004959Y014365D02*
X025038Y014365D01*
X025331Y014841D02*
X004953Y014841D01*
X004795Y014999D02*
X005404Y014999D01*
X005390Y015158D02*
X004339Y015158D01*
X004181Y015316D02*
X005390Y015316D01*
X005390Y015475D02*
X004022Y015475D01*
X003864Y015633D02*
X005390Y015633D01*
X005390Y015792D02*
X003705Y015792D01*
X003587Y015316D02*
X003267Y015316D01*
X003034Y015158D02*
X003745Y015158D01*
X003904Y014999D02*
X001310Y014999D01*
X001310Y014841D02*
X004062Y014841D01*
X004180Y014682D02*
X001310Y014682D01*
X001310Y014524D02*
X004180Y014524D01*
X004241Y014365D02*
X001310Y014365D01*
X001310Y014207D02*
X004400Y014207D01*
X005810Y015316D02*
X017290Y015316D01*
X017180Y015475D02*
X005810Y015475D01*
X005810Y015633D02*
X017180Y015633D01*
X017198Y015792D02*
X005810Y015792D01*
X005810Y015950D02*
X017356Y015950D01*
X017844Y015950D02*
X021356Y015950D01*
X021198Y015792D02*
X018002Y015792D01*
X018020Y015633D02*
X021180Y015633D01*
X021180Y015475D02*
X018020Y015475D01*
X017910Y015316D02*
X021290Y015316D01*
X021910Y015316D02*
X026530Y015316D01*
X026596Y015950D02*
X023547Y015950D01*
X023460Y016109D02*
X028812Y016109D01*
X028970Y016267D02*
X027621Y016267D01*
X027742Y016426D02*
X029129Y016426D01*
X029287Y016584D02*
X027780Y016584D01*
X027756Y016743D02*
X029444Y016743D01*
X029564Y016267D02*
X029579Y016267D01*
X029406Y016109D02*
X030890Y016109D01*
X030890Y016267D02*
X030621Y016267D01*
X030742Y016426D02*
X030890Y016426D01*
X030819Y016584D02*
X030780Y016584D01*
X031096Y016901D02*
X031390Y016901D01*
X031390Y016743D02*
X031254Y016743D01*
X031310Y016584D02*
X031390Y016584D01*
X031390Y016426D02*
X031310Y016426D01*
X031310Y016267D02*
X031390Y016267D01*
X031390Y016109D02*
X031310Y016109D01*
X031310Y015950D02*
X031390Y015950D01*
X031390Y015792D02*
X031310Y015792D01*
X031310Y015633D02*
X031390Y015633D01*
X031390Y015475D02*
X031272Y015475D01*
X031390Y015316D02*
X030670Y015316D01*
X030494Y014999D02*
X031390Y014999D01*
X031390Y014841D02*
X030713Y014841D01*
X030780Y014682D02*
X031390Y014682D01*
X031390Y014524D02*
X030780Y014524D01*
X030717Y014365D02*
X031390Y014365D01*
X031390Y014207D02*
X030790Y014207D01*
X030949Y014048D02*
X031390Y014048D01*
X031390Y013890D02*
X031107Y013890D01*
X030830Y013573D02*
X027870Y013573D01*
X028028Y013731D02*
X030672Y013731D01*
X030513Y013890D02*
X028187Y013890D01*
X028345Y014048D02*
X030355Y014048D01*
X029692Y014207D02*
X028504Y014207D01*
X028662Y014365D02*
X029483Y014365D01*
X029420Y014524D02*
X028821Y014524D01*
X028979Y014682D02*
X029420Y014682D01*
X029487Y014841D02*
X029350Y014841D01*
X029448Y014999D02*
X029706Y014999D01*
X029460Y015158D02*
X031390Y015158D01*
X031810Y015158D02*
X032392Y015158D01*
X032409Y015140D02*
X032140Y015409D01*
X032140Y015590D01*
X032590Y015590D01*
X032590Y015610D01*
X032590Y016060D01*
X032409Y016060D01*
X032140Y015791D01*
X032140Y015610D01*
X032590Y015610D01*
X032610Y015610D01*
X032610Y016060D01*
X032791Y016060D01*
X033060Y015791D01*
X033060Y015610D01*
X032610Y015610D01*
X032610Y015590D01*
X033060Y015590D01*
X033060Y015409D01*
X032791Y015140D01*
X032610Y015140D01*
X032610Y015590D01*
X032590Y015590D01*
X032590Y015140D01*
X032409Y015140D01*
X032590Y015158D02*
X032610Y015158D01*
X032610Y015316D02*
X032590Y015316D01*
X032590Y015475D02*
X032610Y015475D01*
X032610Y015633D02*
X032590Y015633D01*
X032590Y015792D02*
X032610Y015792D01*
X032610Y015950D02*
X032590Y015950D01*
X032299Y015950D02*
X031810Y015950D01*
X031810Y015792D02*
X032141Y015792D01*
X032140Y015633D02*
X031810Y015633D01*
X031810Y015475D02*
X032140Y015475D01*
X032233Y015316D02*
X031810Y015316D01*
X031810Y014999D02*
X037390Y014999D01*
X037390Y014841D02*
X031810Y014841D01*
X031810Y014682D02*
X037390Y014682D01*
X037390Y014524D02*
X031810Y014524D01*
X031810Y014365D02*
X037390Y014365D01*
X037390Y014207D02*
X031810Y014207D01*
X031810Y014048D02*
X037390Y014048D01*
X037390Y013890D02*
X031810Y013890D01*
X030989Y013414D02*
X030880Y013414D01*
X031020Y013256D02*
X034147Y013256D01*
X034180Y013097D02*
X031020Y013097D01*
X031020Y012939D02*
X034180Y012939D01*
X034326Y012780D02*
X030874Y012780D01*
X030320Y013414D02*
X027711Y013414D01*
X027593Y013890D02*
X026107Y013890D01*
X025949Y014048D02*
X027751Y014048D01*
X027910Y014207D02*
X027508Y014207D01*
X027717Y014365D02*
X028068Y014365D01*
X028227Y014524D02*
X027780Y014524D01*
X027780Y014682D02*
X028385Y014682D01*
X028544Y014841D02*
X027713Y014841D01*
X027670Y015316D02*
X028019Y015316D01*
X028178Y015475D02*
X027763Y015475D01*
X027780Y015633D02*
X028336Y015633D01*
X028495Y015792D02*
X027735Y015792D01*
X027604Y015950D02*
X028653Y015950D01*
X028930Y015633D02*
X029420Y015633D01*
X029437Y015475D02*
X028772Y015475D01*
X028807Y015316D02*
X028613Y015316D01*
X028740Y015158D02*
X028455Y015158D01*
X028296Y014999D02*
X028702Y014999D01*
X029393Y015316D02*
X029530Y015316D01*
X029465Y015792D02*
X029089Y015792D01*
X029247Y015950D02*
X029596Y015950D01*
X030604Y015950D02*
X030890Y015950D01*
X031810Y016109D02*
X033794Y016109D01*
X033636Y016267D02*
X031810Y016267D01*
X031810Y016426D02*
X033477Y016426D01*
X033319Y016584D02*
X031810Y016584D01*
X031810Y016743D02*
X033160Y016743D01*
X033002Y016901D02*
X031810Y016901D01*
X031810Y017060D02*
X032843Y017060D01*
X032685Y017218D02*
X031779Y017218D01*
X031620Y017377D02*
X032526Y017377D01*
X032368Y017535D02*
X031462Y017535D01*
X031303Y017694D02*
X032209Y017694D01*
X032051Y017852D02*
X031145Y017852D01*
X030986Y018011D02*
X031892Y018011D01*
X031734Y018169D02*
X030828Y018169D01*
X030681Y018328D02*
X031575Y018328D01*
X031417Y018486D02*
X030767Y018486D01*
X030780Y018645D02*
X031258Y018645D01*
X031100Y018803D02*
X030731Y018803D01*
X031218Y019279D02*
X036390Y019279D01*
X036390Y019437D02*
X030747Y019437D01*
X030780Y019596D02*
X036390Y019596D01*
X036181Y019754D02*
X030751Y019754D01*
X030641Y019913D02*
X036092Y019913D01*
X036056Y020071D02*
X029426Y020071D01*
X029310Y020187D02*
X029310Y020187D01*
X029267Y020230D02*
X029637Y020230D01*
X029602Y020244D02*
X029756Y020180D01*
X030444Y020180D01*
X030598Y020244D01*
X030716Y020362D01*
X030780Y020516D01*
X030780Y020684D01*
X030716Y020838D01*
X030598Y020956D01*
X030444Y021020D01*
X029756Y021020D01*
X029602Y020956D01*
X029484Y020838D01*
X029420Y020684D01*
X029420Y020516D01*
X029484Y020362D01*
X029602Y020244D01*
X029473Y020388D02*
X027746Y020388D01*
X027797Y020547D02*
X029420Y020547D01*
X029429Y020705D02*
X027789Y020705D01*
X027712Y020864D02*
X029510Y020864D01*
X029671Y021192D02*
X029737Y021171D01*
X029805Y021160D01*
X030100Y021160D01*
X030395Y021160D01*
X030463Y021171D01*
X030529Y021192D01*
X030591Y021224D01*
X030647Y021264D01*
X030696Y021313D01*
X030736Y021369D01*
X030768Y021431D01*
X030789Y021497D01*
X030800Y021565D01*
X030800Y021600D01*
X030800Y021635D01*
X030789Y021703D01*
X030768Y021769D01*
X030736Y021831D01*
X030696Y021887D01*
X030647Y021936D01*
X030591Y021976D01*
X030529Y022008D01*
X030463Y022029D01*
X030395Y022040D01*
X030100Y022040D01*
X030100Y021600D01*
X030100Y021600D01*
X030800Y021600D01*
X030100Y021600D01*
X030100Y021600D01*
X030100Y022040D01*
X029805Y022040D01*
X029737Y022029D01*
X029671Y022008D01*
X029609Y021976D01*
X029553Y021936D01*
X029504Y021887D01*
X029464Y021831D01*
X029432Y021769D01*
X029411Y021703D01*
X029400Y021635D01*
X029400Y021600D01*
X030100Y021600D01*
X030100Y021160D01*
X030100Y021600D01*
X030100Y021600D01*
X030100Y021600D01*
X029400Y021600D01*
X029400Y021565D01*
X029411Y021497D01*
X029432Y021431D01*
X029464Y021369D01*
X029504Y021313D01*
X029553Y021264D01*
X029609Y021224D01*
X029671Y021192D01*
X029707Y021181D02*
X027445Y021181D01*
X027485Y021022D02*
X038990Y021022D01*
X038990Y020864D02*
X030690Y020864D01*
X030771Y020705D02*
X038990Y020705D01*
X038990Y020547D02*
X036955Y020547D01*
X037093Y020388D02*
X038990Y020388D01*
X038990Y020230D02*
X037159Y020230D01*
X037164Y020071D02*
X038990Y020071D01*
X038990Y019913D02*
X037128Y019913D01*
X037039Y019754D02*
X038990Y019754D01*
X038990Y019596D02*
X036819Y019596D01*
X036810Y019437D02*
X038990Y019437D01*
X038990Y019279D02*
X036810Y019279D01*
X036810Y019120D02*
X038990Y019120D01*
X038990Y018962D02*
X036810Y018962D01*
X037194Y018803D02*
X038990Y018803D01*
X038990Y018645D02*
X037352Y018645D01*
X037511Y018486D02*
X038990Y018486D01*
X038990Y018328D02*
X037669Y018328D01*
X037810Y018169D02*
X038990Y018169D01*
X038990Y018011D02*
X037810Y018011D01*
X037810Y017852D02*
X038990Y017852D01*
X038990Y017694D02*
X037810Y017694D01*
X037810Y017535D02*
X038990Y017535D01*
X038990Y017377D02*
X037810Y017377D01*
X037810Y017218D02*
X038990Y017218D01*
X038990Y017060D02*
X037810Y017060D01*
X037810Y016901D02*
X038990Y016901D01*
X038990Y016743D02*
X037810Y016743D01*
X037810Y016584D02*
X038990Y016584D01*
X038990Y016426D02*
X037810Y016426D01*
X037810Y016267D02*
X038990Y016267D01*
X038990Y016109D02*
X037810Y016109D01*
X037810Y015950D02*
X038990Y015950D01*
X038990Y015792D02*
X037810Y015792D01*
X037810Y015633D02*
X038990Y015633D01*
X038990Y015475D02*
X037810Y015475D01*
X037810Y015316D02*
X038990Y015316D01*
X038990Y015158D02*
X037810Y015158D01*
X037810Y014999D02*
X038990Y014999D01*
X038990Y014841D02*
X037810Y014841D01*
X037810Y014682D02*
X038990Y014682D01*
X038990Y014524D02*
X037810Y014524D01*
X037810Y014365D02*
X038990Y014365D01*
X038990Y014207D02*
X037810Y014207D01*
X037810Y014048D02*
X038990Y014048D01*
X038990Y013890D02*
X037810Y013890D01*
X037810Y013731D02*
X038990Y013731D01*
X038990Y013573D02*
X037810Y013573D01*
X037711Y013414D02*
X038990Y013414D01*
X038990Y013256D02*
X036053Y013256D01*
X036100Y013040D02*
X035918Y013040D01*
X035660Y012782D01*
X035660Y012600D01*
X036100Y012600D01*
X036100Y012600D01*
X036100Y013040D01*
X036282Y013040D01*
X036540Y012782D01*
X036540Y012600D01*
X036100Y012600D01*
X036100Y012600D01*
X036100Y012600D01*
X036100Y013040D01*
X036100Y012939D02*
X036100Y012939D01*
X036100Y012780D02*
X036100Y012780D01*
X036100Y012622D02*
X036100Y012622D01*
X036100Y012600D02*
X035660Y012600D01*
X035660Y012418D01*
X035918Y012160D01*
X036100Y012160D01*
X036282Y012160D01*
X036540Y012418D01*
X036540Y012600D01*
X036100Y012600D01*
X036100Y012160D01*
X036100Y012600D01*
X036100Y012600D01*
X036100Y012463D02*
X036100Y012463D01*
X036100Y012305D02*
X036100Y012305D01*
X036427Y012305D02*
X037302Y012305D01*
X037180Y012426D02*
X037180Y012774D01*
X037426Y013020D01*
X037774Y013020D01*
X038020Y012774D01*
X038020Y012426D01*
X037774Y012180D01*
X037426Y012180D01*
X037180Y012426D01*
X037180Y012463D02*
X036540Y012463D01*
X036540Y012622D02*
X037180Y012622D01*
X037186Y012780D02*
X036540Y012780D01*
X036384Y012939D02*
X037345Y012939D01*
X037855Y012939D02*
X038990Y012939D01*
X038990Y013097D02*
X035894Y013097D01*
X035816Y012939D02*
X035736Y012939D01*
X035660Y012780D02*
X035577Y012780D01*
X035660Y012622D02*
X035419Y012622D01*
X035260Y012463D02*
X035660Y012463D01*
X035773Y012305D02*
X035102Y012305D01*
X034943Y012146D02*
X038990Y012146D01*
X038990Y011988D02*
X034785Y011988D01*
X034626Y011829D02*
X038990Y011829D01*
X038990Y011671D02*
X034468Y011671D01*
X034302Y011195D02*
X038990Y011195D01*
X038990Y011037D02*
X034460Y011037D01*
X034619Y010878D02*
X038990Y010878D01*
X038990Y010720D02*
X034923Y010720D01*
X035026Y010561D02*
X038990Y010561D01*
X038990Y010403D02*
X035057Y010403D01*
X035057Y010244D02*
X038990Y010244D01*
X038990Y010086D02*
X035057Y010086D01*
X035057Y009927D02*
X038990Y009927D01*
X038990Y009769D02*
X035057Y009769D01*
X035014Y009610D02*
X038990Y009610D01*
X038990Y009452D02*
X034894Y009452D01*
X034061Y008342D02*
X029980Y008342D01*
X030040Y008184D02*
X034220Y008184D01*
X034378Y008025D02*
X031297Y008025D01*
X031456Y007867D02*
X034537Y007867D01*
X034680Y007708D02*
X031540Y007708D01*
X031540Y007550D02*
X034680Y007550D01*
X034715Y007391D02*
X031513Y007391D01*
X030845Y007233D02*
X025278Y007233D01*
X025331Y007254D02*
X025181Y007192D01*
X025019Y007192D01*
X024869Y007254D01*
X024754Y007369D01*
X024692Y007519D01*
X024692Y007681D01*
X024754Y007831D01*
X024869Y007946D01*
X025019Y008008D01*
X025181Y008008D01*
X025331Y007946D01*
X025446Y007831D01*
X025508Y007681D01*
X025508Y007519D01*
X025446Y007369D01*
X025331Y007254D01*
X025455Y007391D02*
X030687Y007391D01*
X030660Y007550D02*
X025508Y007550D01*
X025496Y007708D02*
X027870Y007708D01*
X027711Y007867D02*
X025410Y007867D01*
X024790Y007867D02*
X023410Y007867D01*
X023446Y007831D02*
X023331Y007946D01*
X023181Y008008D01*
X023019Y008008D01*
X022869Y007946D01*
X022754Y007831D01*
X022692Y007681D01*
X022692Y007519D01*
X022754Y007369D01*
X022869Y007254D01*
X023019Y007192D01*
X023181Y007192D01*
X023331Y007254D01*
X023446Y007369D01*
X023508Y007519D01*
X023508Y007681D01*
X023446Y007831D01*
X023496Y007708D02*
X024704Y007708D01*
X024692Y007550D02*
X023508Y007550D01*
X023455Y007391D02*
X024745Y007391D01*
X024922Y007233D02*
X023278Y007233D01*
X022922Y007233D02*
X017278Y007233D01*
X017331Y007254D02*
X017446Y007369D01*
X017508Y007519D01*
X017508Y007681D01*
X017446Y007831D01*
X017331Y007946D01*
X017181Y008008D01*
X017019Y008008D01*
X016869Y007946D01*
X016754Y007831D01*
X016692Y007681D01*
X016692Y007519D01*
X016754Y007369D01*
X016869Y007254D01*
X017019Y007192D01*
X017181Y007192D01*
X017331Y007254D01*
X017455Y007391D02*
X022745Y007391D01*
X022692Y007550D02*
X017508Y007550D01*
X017496Y007708D02*
X022704Y007708D01*
X022790Y007867D02*
X017410Y007867D01*
X016790Y007867D02*
X016435Y007867D01*
X016515Y007708D02*
X016704Y007708D01*
X016692Y007550D02*
X016525Y007550D01*
X016473Y007391D02*
X016745Y007391D01*
X016922Y007233D02*
X016321Y007233D01*
X016100Y007233D02*
X016100Y007233D01*
X016100Y007172D02*
X016100Y007600D01*
X016100Y007600D01*
X016100Y007600D01*
X015672Y007600D01*
X016100Y007600D01*
X016100Y007172D01*
X016100Y007391D02*
X016100Y007391D01*
X016100Y007550D02*
X016100Y007550D01*
X016100Y007708D02*
X016100Y007708D01*
X016100Y007867D02*
X016100Y007867D01*
X015765Y007867D02*
X011810Y007867D01*
X011937Y007708D02*
X015685Y007708D01*
X015675Y007550D02*
X012057Y007550D01*
X012120Y007391D02*
X015727Y007391D01*
X015879Y007233D02*
X012120Y007233D01*
X012083Y007074D02*
X012761Y007074D01*
X012541Y006916D02*
X011999Y006916D01*
X011806Y006757D02*
X012445Y006757D01*
X013580Y006123D02*
X038990Y006123D01*
X038990Y005965D02*
X013580Y005965D01*
X013580Y005806D02*
X038990Y005806D01*
X038990Y005648D02*
X013580Y005648D01*
X013553Y005489D02*
X038990Y005489D01*
X038990Y005331D02*
X013485Y005331D01*
X013326Y005172D02*
X038990Y005172D01*
X038990Y008184D02*
X037806Y008184D01*
X037782Y008160D02*
X038040Y008418D01*
X038040Y008600D01*
X038040Y008782D01*
X037782Y009040D01*
X037600Y009040D01*
X037600Y008600D01*
X037600Y008600D01*
X038040Y008600D01*
X037600Y008600D01*
X037600Y008600D01*
X037600Y008600D01*
X037160Y008600D01*
X037160Y008782D01*
X037418Y009040D01*
X037600Y009040D01*
X037600Y008600D01*
X037600Y008160D01*
X037782Y008160D01*
X037600Y008160D02*
X037600Y008600D01*
X037600Y008600D01*
X037160Y008600D01*
X037160Y008418D01*
X037418Y008160D01*
X037600Y008160D01*
X037600Y008184D02*
X037600Y008184D01*
X037600Y008342D02*
X037600Y008342D01*
X037600Y008501D02*
X037600Y008501D01*
X037600Y008659D02*
X037600Y008659D01*
X037600Y008818D02*
X037600Y008818D01*
X037600Y008976D02*
X037600Y008976D01*
X037846Y008976D02*
X038990Y008976D01*
X038990Y008818D02*
X038005Y008818D01*
X038040Y008659D02*
X038990Y008659D01*
X038990Y008501D02*
X038040Y008501D01*
X037964Y008342D02*
X038990Y008342D01*
X037394Y008184D02*
X036277Y008184D01*
X036436Y008342D02*
X037236Y008342D01*
X037160Y008501D02*
X036520Y008501D01*
X036520Y008659D02*
X037160Y008659D01*
X037195Y008818D02*
X036476Y008818D01*
X036318Y008976D02*
X037354Y008976D01*
X037898Y012305D02*
X038990Y012305D01*
X038990Y012463D02*
X038020Y012463D01*
X038020Y012622D02*
X038990Y012622D01*
X038990Y012780D02*
X038014Y012780D01*
X035934Y013731D02*
X034266Y013731D01*
X034424Y013573D02*
X035776Y013573D01*
X035617Y013414D02*
X034880Y013414D01*
X035020Y013256D02*
X035459Y013256D01*
X035300Y013097D02*
X035020Y013097D01*
X035020Y012939D02*
X035142Y012939D01*
X034983Y012780D02*
X034874Y012780D01*
X034825Y012622D02*
X026460Y012622D01*
X026534Y012463D02*
X027869Y012463D01*
X027711Y012305D02*
X026692Y012305D01*
X026851Y012146D02*
X027680Y012146D01*
X027680Y011988D02*
X027009Y011988D01*
X027168Y011829D02*
X027777Y011829D01*
X027485Y011512D02*
X028391Y011512D01*
X028549Y011354D02*
X027643Y011354D01*
X027802Y011195D02*
X028708Y011195D01*
X028866Y011037D02*
X027960Y011037D01*
X028232Y011671D02*
X027326Y011671D01*
X026692Y014207D02*
X025790Y014207D01*
X025874Y014365D02*
X026483Y014365D01*
X026579Y016267D02*
X023420Y016267D01*
X023255Y016426D02*
X026458Y016426D01*
X026420Y016584D02*
X010280Y016584D01*
X010280Y016516D02*
X010280Y016684D01*
X010216Y016838D01*
X010098Y016956D01*
X009944Y017020D01*
X009256Y017020D01*
X009102Y016956D01*
X008984Y016838D01*
X008920Y016684D01*
X008920Y016516D01*
X008984Y016362D01*
X009102Y016244D01*
X009256Y016180D01*
X009944Y016180D01*
X010098Y016244D01*
X010216Y016362D01*
X010280Y016516D01*
X010242Y016426D02*
X022945Y016426D01*
X022780Y016267D02*
X010121Y016267D01*
X010256Y016743D02*
X014864Y016743D01*
X014926Y016680D02*
X015274Y016680D01*
X015520Y016926D01*
X015520Y017274D01*
X015274Y017520D01*
X014926Y017520D01*
X014680Y017274D01*
X014680Y016926D01*
X014926Y016680D01*
X014705Y016901D02*
X010153Y016901D01*
X010035Y017218D02*
X014680Y017218D01*
X014680Y017060D02*
X005810Y017060D01*
X005810Y017218D02*
X006120Y017218D01*
X006109Y017224D02*
X006171Y017192D01*
X006237Y017171D01*
X006305Y017160D01*
X006600Y017160D01*
X006895Y017160D01*
X006963Y017171D01*
X007029Y017192D01*
X007091Y017224D01*
X007147Y017264D01*
X007196Y017313D01*
X007236Y017369D01*
X007268Y017431D01*
X007289Y017497D01*
X007300Y017565D01*
X007300Y017600D01*
X007300Y017635D01*
X007289Y017703D01*
X007268Y017769D01*
X007236Y017831D01*
X007196Y017887D01*
X007147Y017936D01*
X007091Y017976D01*
X007029Y018008D01*
X006963Y018029D01*
X006895Y018040D01*
X006600Y018040D01*
X006600Y017600D01*
X006600Y017600D01*
X007300Y017600D01*
X006600Y017600D01*
X006600Y017600D01*
X006600Y018040D01*
X006305Y018040D01*
X006237Y018029D01*
X006171Y018008D01*
X006109Y017976D01*
X006053Y017936D01*
X006004Y017887D01*
X005964Y017831D01*
X005932Y017769D01*
X005911Y017703D01*
X005900Y017635D01*
X005900Y017600D01*
X006600Y017600D01*
X006600Y017160D01*
X006600Y017600D01*
X006600Y017600D01*
X006600Y017600D01*
X005900Y017600D01*
X005900Y017565D01*
X005911Y017497D01*
X005932Y017431D01*
X005964Y017369D01*
X006004Y017313D01*
X006053Y017264D01*
X006109Y017224D01*
X005960Y017377D02*
X005810Y017377D01*
X005810Y017535D02*
X005905Y017535D01*
X005909Y017694D02*
X005810Y017694D01*
X005810Y017852D02*
X005979Y017852D01*
X005810Y018011D02*
X006180Y018011D01*
X006256Y018180D02*
X006102Y018244D01*
X005984Y018362D01*
X005920Y018516D01*
X005920Y018684D01*
X005984Y018838D01*
X006102Y018956D01*
X006256Y019020D01*
X006944Y019020D01*
X007098Y018956D01*
X007216Y018838D01*
X007280Y018684D01*
X007280Y018516D01*
X007216Y018362D01*
X007098Y018244D01*
X006944Y018180D01*
X006256Y018180D01*
X006019Y018328D02*
X005810Y018328D01*
X005810Y018486D02*
X005933Y018486D01*
X005920Y018645D02*
X005810Y018645D01*
X005810Y018803D02*
X005969Y018803D01*
X006115Y018962D02*
X005810Y018962D01*
X005810Y019120D02*
X011283Y019120D01*
X011441Y018962D02*
X010085Y018962D01*
X010098Y018956D02*
X009944Y019020D01*
X009256Y019020D01*
X009102Y018956D01*
X008984Y018838D01*
X008920Y018684D01*
X008920Y018516D01*
X008984Y018362D01*
X009102Y018244D01*
X009256Y018180D01*
X009944Y018180D01*
X010098Y018244D01*
X010216Y018362D01*
X010280Y018516D01*
X010280Y018684D01*
X010216Y018838D01*
X010098Y018956D01*
X010231Y018803D02*
X011600Y018803D01*
X011758Y018645D02*
X010280Y018645D01*
X010267Y018486D02*
X011917Y018486D01*
X012075Y018328D02*
X010181Y018328D01*
X010098Y017956D02*
X009944Y018020D01*
X009256Y018020D01*
X009102Y017956D01*
X008984Y017838D01*
X008920Y017684D01*
X008920Y017516D01*
X008984Y017362D01*
X009102Y017244D01*
X009256Y017180D01*
X009944Y017180D01*
X010098Y017244D01*
X010216Y017362D01*
X010280Y017516D01*
X010280Y017684D01*
X010216Y017838D01*
X010098Y017956D01*
X009966Y018011D02*
X012392Y018011D01*
X012234Y018169D02*
X005810Y018169D01*
X005390Y018169D02*
X004791Y018169D01*
X004782Y018160D02*
X005040Y018418D01*
X005040Y018600D01*
X005040Y018782D01*
X004782Y019040D01*
X004600Y019040D01*
X004600Y018600D01*
X004600Y018600D01*
X005040Y018600D01*
X004600Y018600D01*
X004600Y018600D01*
X004600Y018600D01*
X004160Y018600D01*
X004160Y018782D01*
X004418Y019040D01*
X004600Y019040D01*
X004600Y018600D01*
X004600Y018160D01*
X004782Y018160D01*
X004600Y018160D02*
X004600Y018600D01*
X004600Y018600D01*
X004160Y018600D01*
X004160Y018418D01*
X004418Y018160D01*
X004600Y018160D01*
X004600Y018169D02*
X004600Y018169D01*
X004600Y018328D02*
X004600Y018328D01*
X004600Y018486D02*
X004600Y018486D01*
X004600Y018645D02*
X004600Y018645D01*
X004600Y018803D02*
X004600Y018803D01*
X004600Y018962D02*
X004600Y018962D01*
X004861Y018962D02*
X005390Y018962D01*
X005390Y019120D02*
X001310Y019120D01*
X001310Y018962D02*
X004339Y018962D01*
X004181Y018803D02*
X001310Y018803D01*
X001310Y018645D02*
X004160Y018645D01*
X004160Y018486D02*
X001310Y018486D01*
X001310Y018328D02*
X004250Y018328D01*
X004409Y018169D02*
X001310Y018169D01*
X001310Y018011D02*
X002048Y018011D01*
X001987Y017966D01*
X001934Y017913D01*
X001889Y017852D01*
X001855Y017784D01*
X001832Y017712D01*
X001820Y017638D01*
X001820Y017620D01*
X002580Y017620D01*
X002580Y018080D01*
X002262Y018080D01*
X002188Y018068D01*
X002116Y018045D01*
X002048Y018011D01*
X001890Y017852D02*
X001310Y017852D01*
X001310Y017694D02*
X001829Y017694D01*
X001820Y017580D02*
X001820Y017562D01*
X001832Y017488D01*
X001855Y017416D01*
X001889Y017348D01*
X001934Y017287D01*
X001987Y017234D01*
X002048Y017189D01*
X002116Y017155D01*
X002188Y017132D01*
X002262Y017120D01*
X002580Y017120D01*
X002580Y017580D01*
X002620Y017580D01*
X002620Y017620D01*
X002580Y017620D01*
X002580Y017580D01*
X001820Y017580D01*
X001824Y017535D02*
X001310Y017535D01*
X001310Y017377D02*
X001875Y017377D01*
X002009Y017218D02*
X001310Y017218D01*
X001310Y017060D02*
X002207Y017060D01*
X002208Y017060D02*
X002039Y016990D01*
X001910Y016861D01*
X001840Y016691D01*
X001840Y016508D01*
X001910Y016339D01*
X002039Y016210D01*
X002208Y016140D01*
X002991Y016140D01*
X003161Y016210D01*
X003290Y016339D01*
X003360Y016508D01*
X003360Y016691D01*
X003290Y016861D01*
X003161Y016990D01*
X002991Y017060D01*
X002208Y017060D01*
X001950Y016901D02*
X001310Y016901D01*
X001310Y016743D02*
X001861Y016743D01*
X001840Y016584D02*
X001310Y016584D01*
X001310Y016426D02*
X001874Y016426D01*
X001982Y016267D02*
X001310Y016267D01*
X001310Y016109D02*
X005390Y016109D01*
X005390Y016267D02*
X003218Y016267D01*
X003326Y016426D02*
X005390Y016426D01*
X005390Y016584D02*
X003360Y016584D01*
X003339Y016743D02*
X005390Y016743D01*
X005390Y016901D02*
X003250Y016901D01*
X002993Y017060D02*
X005390Y017060D01*
X005390Y017218D02*
X003191Y017218D01*
X003213Y017234D02*
X003266Y017287D01*
X003311Y017348D01*
X003345Y017416D01*
X003368Y017488D01*
X003380Y017562D01*
X003380Y017580D01*
X002620Y017580D01*
X002620Y017120D01*
X002938Y017120D01*
X003012Y017132D01*
X003084Y017155D01*
X003152Y017189D01*
X003213Y017234D01*
X003325Y017377D02*
X005390Y017377D01*
X005390Y017535D02*
X003376Y017535D01*
X003380Y017620D02*
X003380Y017638D01*
X003368Y017712D01*
X003345Y017784D01*
X003311Y017852D01*
X003266Y017913D01*
X003213Y017966D01*
X003152Y018011D01*
X005390Y018011D01*
X005390Y017852D02*
X003310Y017852D01*
X003371Y017694D02*
X005390Y017694D01*
X005390Y018328D02*
X004950Y018328D01*
X005040Y018486D02*
X005390Y018486D01*
X005390Y018645D02*
X005040Y018645D01*
X005019Y018803D02*
X005390Y018803D01*
X005390Y019279D02*
X001310Y019279D01*
X001310Y019437D02*
X005390Y019437D01*
X005390Y019596D02*
X001393Y019596D01*
X001551Y019754D02*
X005390Y019754D01*
X005390Y019913D02*
X001710Y019913D01*
X001868Y020071D02*
X005390Y020071D01*
X005390Y020230D02*
X002027Y020230D01*
X002185Y020388D02*
X005390Y020388D01*
X005390Y020547D02*
X002344Y020547D01*
X002502Y020705D02*
X005390Y020705D01*
X005390Y020864D02*
X002661Y020864D01*
X002819Y021022D02*
X005390Y021022D01*
X005390Y021181D02*
X002978Y021181D01*
X003136Y021339D02*
X005542Y021339D01*
X005701Y021498D02*
X003295Y021498D01*
X003453Y021656D02*
X005859Y021656D01*
X005974Y021815D02*
X003612Y021815D01*
X003770Y021973D02*
X006143Y021973D01*
X006256Y022180D02*
X006102Y022244D01*
X005984Y022362D01*
X005920Y022516D01*
X005920Y022684D01*
X005984Y022838D01*
X006102Y022956D01*
X006256Y023020D01*
X006944Y023020D01*
X007098Y022956D01*
X007216Y022838D01*
X007280Y022684D01*
X007280Y022516D01*
X007216Y022362D01*
X007098Y022244D01*
X006944Y022180D01*
X006256Y022180D01*
X006056Y022290D02*
X004087Y022290D01*
X003929Y022132D02*
X017271Y022132D01*
X017390Y022013D02*
X017390Y022013D01*
X017430Y021973D02*
X010057Y021973D01*
X010098Y021956D02*
X009944Y022020D01*
X009256Y022020D01*
X009102Y021956D01*
X008984Y021838D01*
X008920Y021684D01*
X008920Y021516D01*
X008984Y021362D01*
X009102Y021244D01*
X009256Y021180D01*
X009944Y021180D01*
X010098Y021244D01*
X010216Y021362D01*
X010280Y021516D01*
X010280Y021684D01*
X010216Y021838D01*
X010098Y021956D01*
X010226Y021815D02*
X025805Y021815D01*
X025740Y021656D02*
X010280Y021656D01*
X010272Y021498D02*
X014904Y021498D01*
X014926Y021520D02*
X014680Y021274D01*
X014680Y020926D01*
X014926Y020680D01*
X015274Y020680D01*
X015520Y020926D01*
X015520Y021274D01*
X015274Y021520D01*
X014926Y021520D01*
X014745Y021339D02*
X010193Y021339D01*
X009945Y021181D02*
X014680Y021181D01*
X014680Y021022D02*
X005819Y021022D01*
X005810Y020864D02*
X006010Y020864D01*
X005929Y020705D02*
X005810Y020705D01*
X005810Y020547D02*
X005920Y020547D01*
X005973Y020388D02*
X005810Y020388D01*
X005810Y020230D02*
X006137Y020230D01*
X006256Y020020D02*
X006102Y019956D01*
X005984Y019838D01*
X005920Y019684D01*
X005920Y019516D01*
X005984Y019362D01*
X006102Y019244D01*
X006256Y019180D01*
X006944Y019180D01*
X007098Y019244D01*
X007216Y019362D01*
X007280Y019516D01*
X007280Y019684D01*
X007216Y019838D01*
X007098Y019956D01*
X006944Y020020D01*
X006256Y020020D01*
X006059Y019913D02*
X005810Y019913D01*
X005810Y020071D02*
X008832Y020071D01*
X008990Y019913D02*
X007141Y019913D01*
X007251Y019754D02*
X008949Y019754D01*
X008920Y019596D02*
X007280Y019596D01*
X007247Y019437D02*
X008953Y019437D01*
X009068Y019279D02*
X007132Y019279D01*
X007085Y018962D02*
X009115Y018962D01*
X008969Y018803D02*
X007231Y018803D01*
X007280Y018645D02*
X008920Y018645D01*
X008933Y018486D02*
X007267Y018486D01*
X007181Y018328D02*
X009019Y018328D01*
X009234Y018011D02*
X007020Y018011D01*
X007221Y017852D02*
X008998Y017852D01*
X008924Y017694D02*
X007291Y017694D01*
X007295Y017535D02*
X008920Y017535D01*
X008978Y017377D02*
X007240Y017377D01*
X007080Y017218D02*
X009165Y017218D01*
X009047Y016901D02*
X007153Y016901D01*
X007098Y016956D02*
X007216Y016838D01*
X007280Y016684D01*
X007280Y016516D01*
X007216Y016362D01*
X007098Y016244D01*
X006944Y016180D01*
X006256Y016180D01*
X006102Y016244D01*
X005984Y016362D01*
X005920Y016516D01*
X005920Y016684D01*
X005984Y016838D01*
X006102Y016956D01*
X006256Y017020D01*
X006944Y017020D01*
X007098Y016956D01*
X007256Y016743D02*
X008944Y016743D01*
X008920Y016584D02*
X007280Y016584D01*
X007242Y016426D02*
X008958Y016426D01*
X009079Y016267D02*
X007121Y016267D01*
X006079Y016267D02*
X005810Y016267D01*
X005810Y016109D02*
X022740Y016109D01*
X022772Y015950D02*
X021844Y015950D01*
X022002Y015792D02*
X022904Y015792D01*
X023270Y015633D02*
X022020Y015633D01*
X022020Y015475D02*
X023428Y015475D01*
X026444Y016743D02*
X015336Y016743D01*
X015495Y016901D02*
X017002Y016901D01*
X016843Y017060D02*
X015520Y017060D01*
X015520Y017218D02*
X016685Y017218D01*
X016526Y017377D02*
X015417Y017377D01*
X014783Y017377D02*
X010222Y017377D01*
X010280Y017535D02*
X016368Y017535D01*
X016209Y017694D02*
X010276Y017694D01*
X010202Y017852D02*
X016051Y017852D01*
X016328Y018169D02*
X019234Y018169D01*
X019392Y018011D02*
X016486Y018011D01*
X016645Y017852D02*
X026498Y017852D01*
X026424Y017694D02*
X016803Y017694D01*
X016962Y017535D02*
X026420Y017535D01*
X026478Y017377D02*
X017120Y017377D01*
X017417Y018361D02*
X017350Y018395D01*
X017289Y018439D01*
X017236Y018493D01*
X017192Y018553D01*
X017158Y018620D01*
X017135Y018691D01*
X017123Y018766D01*
X017123Y019082D01*
X017582Y019082D01*
X017582Y019118D01*
X017123Y019118D01*
X017123Y019434D01*
X017135Y019509D01*
X017158Y019580D01*
X017192Y019647D01*
X017236Y019707D01*
X017289Y019761D01*
X017350Y019805D01*
X017417Y019839D01*
X017488Y019862D01*
X017562Y019874D01*
X017582Y019874D01*
X017582Y019118D01*
X017618Y019118D01*
X017618Y019874D01*
X017638Y019874D01*
X017712Y019862D01*
X017783Y019839D01*
X017850Y019805D01*
X017911Y019761D01*
X017964Y019707D01*
X018008Y019647D01*
X018042Y019580D01*
X018065Y019509D01*
X018077Y019434D01*
X018077Y019118D01*
X017618Y019118D01*
X017618Y019082D01*
X018077Y019082D01*
X018077Y018766D01*
X018065Y018691D01*
X018042Y018620D01*
X018008Y018553D01*
X017964Y018493D01*
X017911Y018439D01*
X017850Y018395D01*
X017783Y018361D01*
X017712Y018338D01*
X017638Y018326D01*
X017618Y018326D01*
X017618Y019082D01*
X017582Y019082D01*
X017582Y018326D01*
X017562Y018326D01*
X017488Y018338D01*
X017417Y018361D01*
X017555Y018328D02*
X012669Y018328D01*
X012511Y018486D02*
X016271Y018486D01*
X016171Y018645D02*
X012352Y018645D01*
X012194Y018803D02*
X016143Y018803D01*
X016143Y018962D02*
X012035Y018962D01*
X011877Y019120D02*
X016143Y019120D01*
X016143Y019279D02*
X011718Y019279D01*
X011560Y019437D02*
X016143Y019437D01*
X016188Y019596D02*
X011401Y019596D01*
X011243Y019754D02*
X016311Y019754D01*
X016616Y019913D02*
X011084Y019913D01*
X010926Y020071D02*
X016774Y020071D01*
X016933Y020230D02*
X010767Y020230D01*
X010649Y019754D02*
X010251Y019754D01*
X010280Y019596D02*
X010807Y019596D01*
X010966Y019437D02*
X010247Y019437D01*
X010132Y019279D02*
X011124Y019279D01*
X010227Y020388D02*
X017091Y020388D01*
X017250Y020547D02*
X010280Y020547D01*
X010271Y020705D02*
X014901Y020705D01*
X014742Y020864D02*
X010190Y020864D01*
X009255Y021181D02*
X006945Y021181D01*
X007193Y021339D02*
X009007Y021339D01*
X008928Y021498D02*
X007272Y021498D01*
X007280Y021656D02*
X008920Y021656D01*
X008974Y021815D02*
X007226Y021815D01*
X007057Y021973D02*
X009143Y021973D01*
X009256Y022180D02*
X009102Y022244D01*
X008984Y022362D01*
X008920Y022516D01*
X008920Y022684D01*
X008984Y022838D01*
X009102Y022956D01*
X009256Y023020D01*
X009944Y023020D01*
X010098Y022956D01*
X010216Y022838D01*
X010280Y022684D01*
X010280Y022516D01*
X010216Y022362D01*
X010098Y022244D01*
X009944Y022180D01*
X009256Y022180D01*
X009056Y022290D02*
X007144Y022290D01*
X007252Y022449D02*
X008948Y022449D01*
X008920Y022607D02*
X007280Y022607D01*
X007246Y022766D02*
X008954Y022766D01*
X009070Y022924D02*
X007130Y022924D01*
X006944Y023180D02*
X007098Y023244D01*
X007216Y023362D01*
X007280Y023516D01*
X007280Y023684D01*
X007216Y023838D01*
X007098Y023956D01*
X006944Y024020D01*
X006256Y024020D01*
X006102Y023956D01*
X005984Y023838D01*
X005920Y023684D01*
X005920Y023516D01*
X005984Y023362D01*
X006102Y023244D01*
X006256Y023180D01*
X006944Y023180D01*
X007091Y023241D02*
X009109Y023241D01*
X009102Y023244D02*
X009256Y023180D01*
X009944Y023180D01*
X010098Y023244D01*
X010216Y023362D01*
X010280Y023516D01*
X010280Y023684D01*
X010216Y023838D01*
X010098Y023956D01*
X009944Y024020D01*
X009256Y024020D01*
X009102Y023956D01*
X008984Y023838D01*
X008920Y023684D01*
X008920Y023516D01*
X008984Y023362D01*
X009102Y023244D01*
X008968Y023400D02*
X007232Y023400D01*
X007280Y023558D02*
X008920Y023558D01*
X008934Y023717D02*
X007266Y023717D01*
X007179Y023875D02*
X009021Y023875D01*
X010179Y023875D02*
X017102Y023875D01*
X017232Y024034D02*
X005831Y024034D01*
X005989Y024192D02*
X020211Y024192D01*
X020369Y024034D02*
X019979Y024034D01*
X019965Y024047D02*
X019892Y024101D01*
X019812Y024142D01*
X019726Y024169D01*
X019640Y024183D01*
X019640Y023658D01*
X020165Y023658D01*
X020151Y023744D01*
X020123Y023830D01*
X020082Y023911D01*
X020029Y023984D01*
X019965Y024047D01*
X020100Y023875D02*
X020528Y023875D01*
X020686Y023717D02*
X020156Y023717D01*
X020165Y023562D02*
X019640Y023562D01*
X019640Y023658D01*
X019544Y023658D01*
X019544Y024183D01*
X019457Y024169D01*
X019371Y024142D01*
X019291Y024101D01*
X019218Y024047D01*
X019154Y023984D01*
X019101Y023911D01*
X019060Y023830D01*
X019032Y023744D01*
X019018Y023658D01*
X019544Y023658D01*
X019544Y023562D01*
X019640Y023562D01*
X019640Y023037D01*
X019726Y023050D01*
X019812Y023078D01*
X019892Y023119D01*
X019965Y023172D01*
X020029Y023236D01*
X020082Y023309D01*
X020123Y023390D01*
X020151Y023475D01*
X020165Y023562D01*
X020164Y023558D02*
X020845Y023558D01*
X021003Y023400D02*
X020127Y023400D01*
X020033Y023241D02*
X021162Y023241D01*
X021320Y023083D02*
X019820Y023083D01*
X019640Y023083D02*
X019544Y023083D01*
X019544Y023037D02*
X019544Y023562D01*
X019018Y023562D01*
X019032Y023475D01*
X019060Y023390D01*
X019101Y023309D01*
X019154Y023236D01*
X019218Y023172D01*
X019291Y023119D01*
X019371Y023078D01*
X019457Y023050D01*
X019544Y023037D01*
X019363Y023083D02*
X017766Y023083D01*
X018006Y023241D02*
X019151Y023241D01*
X019057Y023400D02*
X018104Y023400D01*
X018145Y023558D02*
X019019Y023558D01*
X019028Y023717D02*
X018145Y023717D01*
X018081Y023875D02*
X019083Y023875D01*
X019204Y024034D02*
X017951Y024034D01*
X017418Y023083D02*
X016914Y023083D01*
X016756Y023241D02*
X017177Y023241D01*
X017073Y022924D02*
X021479Y022924D01*
X021637Y022766D02*
X017231Y022766D01*
X017390Y022607D02*
X021796Y022607D01*
X021954Y022449D02*
X017548Y022449D01*
X017113Y022290D02*
X010144Y022290D01*
X010252Y022449D02*
X016954Y022449D01*
X016796Y022607D02*
X010280Y022607D01*
X010246Y022766D02*
X014840Y022766D01*
X014682Y022924D02*
X010130Y022924D01*
X010091Y023241D02*
X014680Y023241D01*
X014680Y023083D02*
X004880Y023083D01*
X005038Y023241D02*
X006109Y023241D01*
X005968Y023400D02*
X005197Y023400D01*
X005355Y023558D02*
X005920Y023558D01*
X005934Y023717D02*
X005514Y023717D01*
X005672Y023875D02*
X006021Y023875D01*
X006148Y024351D02*
X020052Y024351D01*
X020329Y024668D02*
X022143Y024668D01*
X022143Y024789D02*
X022143Y024411D01*
X022411Y024143D01*
X022789Y024143D01*
X023057Y024411D01*
X023057Y024760D01*
X023687Y025390D01*
X024513Y025390D01*
X025513Y024390D01*
X026472Y024390D01*
X026484Y024362D01*
X026602Y024244D01*
X026756Y024180D01*
X027444Y024180D01*
X027598Y024244D01*
X027716Y024362D01*
X027780Y024516D01*
X027780Y024684D01*
X027716Y024838D01*
X027598Y024956D01*
X027444Y025020D01*
X026756Y025020D01*
X026602Y024956D01*
X026484Y024838D01*
X026472Y024810D01*
X025687Y024810D01*
X025232Y025265D01*
X025304Y025295D01*
X025399Y025390D01*
X026472Y025390D01*
X026484Y025362D01*
X026602Y025244D01*
X026756Y025180D01*
X027444Y025180D01*
X027598Y025244D01*
X027716Y025362D01*
X027780Y025516D01*
X027780Y025684D01*
X027716Y025838D01*
X027598Y025956D01*
X027444Y026020D01*
X026756Y026020D01*
X026602Y025956D01*
X026484Y025838D01*
X026472Y025810D01*
X025399Y025810D01*
X025304Y025905D01*
X025172Y025960D01*
X025028Y025960D01*
X024896Y025905D01*
X024795Y025804D01*
X024765Y025732D01*
X024687Y025810D01*
X023904Y025810D01*
X024020Y025926D01*
X024020Y026274D01*
X023774Y026520D01*
X023477Y026520D01*
X022687Y027310D01*
X019310Y027310D01*
X019310Y027396D01*
X019359Y027416D01*
X019487Y027544D01*
X019557Y027712D01*
X019557Y028488D01*
X019487Y028656D01*
X019359Y028784D01*
X019191Y028854D01*
X019009Y028854D01*
X018841Y028784D01*
X018713Y028656D01*
X018643Y028488D01*
X018643Y027712D01*
X018713Y027544D01*
X018841Y027416D01*
X018890Y027396D01*
X018890Y027013D01*
X019013Y026890D01*
X022513Y026890D01*
X023180Y026223D01*
X023180Y025926D01*
X023405Y025702D01*
X022760Y025057D01*
X022411Y025057D01*
X022143Y024789D01*
X022180Y024826D02*
X000600Y024826D01*
X000600Y024668D02*
X005871Y024668D01*
X005712Y024509D02*
X000600Y024509D01*
X000600Y024351D02*
X005554Y024351D01*
X005395Y024192D02*
X000600Y024192D01*
X000600Y024034D02*
X005237Y024034D01*
X005078Y023875D02*
X000600Y023875D01*
X000600Y023717D02*
X004920Y023717D01*
X004761Y023558D02*
X000600Y023558D01*
X000600Y023400D02*
X004603Y023400D01*
X004444Y023241D02*
X000600Y023241D01*
X000600Y023083D02*
X004286Y023083D01*
X004127Y022924D02*
X000600Y022924D01*
X000600Y022766D02*
X003969Y022766D01*
X003810Y022607D02*
X000600Y022607D01*
X000600Y022449D02*
X003652Y022449D01*
X003493Y022290D02*
X000600Y022290D01*
X000600Y022132D02*
X003335Y022132D01*
X003176Y021973D02*
X000600Y021973D01*
X000600Y021815D02*
X003018Y021815D01*
X002859Y021656D02*
X000600Y021656D01*
X000600Y021498D02*
X002701Y021498D01*
X002542Y021339D02*
X000600Y021339D01*
X000600Y021181D02*
X002384Y021181D01*
X002225Y021022D02*
X000600Y021022D01*
X000600Y020864D02*
X002067Y020864D01*
X001908Y020705D02*
X000600Y020705D01*
X000600Y020547D02*
X001750Y020547D01*
X001591Y020388D02*
X000600Y020388D01*
X000600Y020230D02*
X001433Y020230D01*
X001274Y020071D02*
X000600Y020071D01*
X000600Y019913D02*
X001116Y019913D01*
X000957Y019754D02*
X000600Y019754D01*
X000600Y019596D02*
X000890Y019596D01*
X000890Y019437D02*
X000600Y019437D01*
X000600Y019279D02*
X000890Y019279D01*
X000890Y019120D02*
X000600Y019120D01*
X000600Y018962D02*
X000890Y018962D01*
X000890Y018803D02*
X000600Y018803D01*
X000600Y018645D02*
X000890Y018645D01*
X000890Y018486D02*
X000600Y018486D01*
X000600Y018328D02*
X000890Y018328D01*
X000890Y018169D02*
X000600Y018169D01*
X000600Y018011D02*
X000890Y018011D01*
X000890Y017852D02*
X000600Y017852D01*
X000600Y017694D02*
X000890Y017694D01*
X000890Y017535D02*
X000600Y017535D01*
X000600Y017377D02*
X000890Y017377D01*
X000890Y017218D02*
X000600Y017218D01*
X000600Y017060D02*
X000890Y017060D01*
X000890Y016901D02*
X000600Y016901D01*
X000600Y016743D02*
X000890Y016743D01*
X000890Y016584D02*
X000600Y016584D01*
X000600Y016426D02*
X000890Y016426D01*
X000890Y016267D02*
X000600Y016267D01*
X000600Y016109D02*
X000890Y016109D01*
X000890Y015950D02*
X000600Y015950D01*
X000600Y015792D02*
X000890Y015792D01*
X000890Y015633D02*
X000600Y015633D01*
X000600Y015475D02*
X000890Y015475D01*
X000890Y015316D02*
X000600Y015316D01*
X000600Y015158D02*
X000890Y015158D01*
X000890Y014999D02*
X000600Y014999D01*
X000600Y014841D02*
X000890Y014841D01*
X000890Y014682D02*
X000600Y014682D01*
X000600Y014524D02*
X000890Y014524D01*
X000890Y014365D02*
X000600Y014365D01*
X000600Y014207D02*
X000890Y014207D01*
X000890Y014048D02*
X000600Y014048D01*
X000600Y013890D02*
X000890Y013890D01*
X000890Y013731D02*
X000600Y013731D01*
X000600Y013573D02*
X000890Y013573D01*
X000890Y013414D02*
X000600Y013414D01*
X000600Y013256D02*
X000890Y013256D01*
X000890Y013097D02*
X000600Y013097D01*
X000600Y012939D02*
X000890Y012939D01*
X000890Y012780D02*
X000600Y012780D01*
X000600Y012622D02*
X000890Y012622D01*
X000890Y012463D02*
X000600Y012463D01*
X000600Y012305D02*
X000890Y012305D01*
X000890Y012146D02*
X000600Y012146D01*
X000600Y011988D02*
X000890Y011988D01*
X000890Y011829D02*
X000600Y011829D01*
X000600Y011671D02*
X000890Y011671D01*
X000890Y011512D02*
X000600Y011512D01*
X000600Y011354D02*
X000890Y011354D01*
X000890Y011195D02*
X000600Y011195D01*
X000600Y011037D02*
X000890Y011037D01*
X000890Y010878D02*
X000600Y010878D01*
X000600Y010720D02*
X000890Y010720D01*
X000890Y010561D02*
X000600Y010561D01*
X000600Y010403D02*
X000890Y010403D01*
X000890Y010244D02*
X000600Y010244D01*
X000600Y010086D02*
X000890Y010086D01*
X000890Y009927D02*
X000600Y009927D01*
X000600Y009769D02*
X000890Y009769D01*
X000890Y009610D02*
X000600Y009610D01*
X000600Y009452D02*
X000890Y009452D01*
X000890Y009293D02*
X000600Y009293D01*
X000600Y009135D02*
X000890Y009135D01*
X000890Y008976D02*
X000600Y008976D01*
X000600Y008818D02*
X000890Y008818D01*
X000890Y008659D02*
X000600Y008659D01*
X000600Y008501D02*
X000903Y008501D01*
X000600Y007391D02*
X004215Y007391D01*
X004374Y007233D02*
X000600Y007233D01*
X000600Y005489D02*
X010451Y005489D01*
X010219Y005331D02*
X000600Y005331D01*
X000600Y005172D02*
X010114Y005172D01*
X010067Y005014D02*
X000600Y005014D01*
X000600Y004855D02*
X010063Y004855D01*
X010101Y004697D02*
X000600Y004697D01*
X000600Y004538D02*
X010193Y004538D01*
X010385Y004380D02*
X000600Y004380D01*
X001310Y010403D02*
X001926Y010403D01*
X002166Y010561D02*
X001310Y010561D01*
X001310Y010720D02*
X013923Y010720D01*
X014081Y010878D02*
X001310Y010878D01*
X001310Y011037D02*
X014240Y011037D01*
X014398Y011195D02*
X004817Y011195D01*
X004782Y011160D02*
X005040Y011418D01*
X005040Y011600D01*
X005040Y011782D01*
X004782Y012040D01*
X004600Y012040D01*
X004600Y011600D01*
X004600Y011600D01*
X005040Y011600D01*
X004600Y011600D01*
X004600Y011600D01*
X004600Y011600D01*
X004160Y011600D01*
X004160Y011782D01*
X004418Y012040D01*
X004600Y012040D01*
X004600Y011600D01*
X004600Y011160D01*
X004782Y011160D01*
X004600Y011160D02*
X004600Y011600D01*
X004600Y011600D01*
X004160Y011600D01*
X004160Y011418D01*
X004418Y011160D01*
X004600Y011160D01*
X004600Y011195D02*
X004600Y011195D01*
X004600Y011354D02*
X004600Y011354D01*
X004600Y011512D02*
X004600Y011512D01*
X004600Y011671D02*
X004600Y011671D01*
X004600Y011829D02*
X004600Y011829D01*
X004600Y011988D02*
X004600Y011988D01*
X004835Y011988D02*
X015191Y011988D01*
X015349Y012146D02*
X001310Y012146D01*
X001310Y011988D02*
X004365Y011988D01*
X004207Y011829D02*
X001310Y011829D01*
X001310Y011671D02*
X004160Y011671D01*
X004160Y011512D02*
X001310Y011512D01*
X001310Y011354D02*
X004224Y011354D01*
X004383Y011195D02*
X001310Y011195D01*
X001310Y012305D02*
X015508Y012305D01*
X015666Y012463D02*
X001310Y012463D01*
X001310Y012622D02*
X015825Y012622D01*
X015983Y012780D02*
X001310Y012780D01*
X001310Y015158D02*
X002166Y015158D01*
X001933Y015316D02*
X001310Y015316D01*
X001310Y015475D02*
X001854Y015475D01*
X001840Y015633D02*
X001310Y015633D01*
X001310Y015792D02*
X001881Y015792D01*
X001999Y015950D02*
X001310Y015950D01*
X002580Y017218D02*
X002620Y017218D01*
X002620Y017377D02*
X002580Y017377D01*
X002580Y017535D02*
X002620Y017535D01*
X002620Y017620D02*
X003380Y017620D01*
X003152Y018011D02*
X003084Y018045D01*
X003012Y018068D01*
X002938Y018080D01*
X002620Y018080D01*
X002620Y017620D01*
X002620Y017694D02*
X002580Y017694D01*
X002580Y017852D02*
X002620Y017852D01*
X002620Y018011D02*
X002580Y018011D01*
X003201Y015950D02*
X005390Y015950D01*
X005810Y016426D02*
X005958Y016426D01*
X005920Y016584D02*
X005810Y016584D01*
X005810Y016743D02*
X005944Y016743D01*
X006047Y016901D02*
X005810Y016901D01*
X006600Y017218D02*
X006600Y017218D01*
X006600Y017377D02*
X006600Y017377D01*
X006600Y017535D02*
X006600Y017535D01*
X006600Y017694D02*
X006600Y017694D01*
X006600Y017852D02*
X006600Y017852D01*
X006600Y018011D02*
X006600Y018011D01*
X006068Y019279D02*
X005810Y019279D01*
X005810Y019437D02*
X005953Y019437D01*
X005920Y019596D02*
X005810Y019596D01*
X005810Y019754D02*
X005949Y019754D01*
X007063Y020230D02*
X008673Y020230D01*
X008515Y020388D02*
X007227Y020388D01*
X007190Y020864D02*
X009010Y020864D01*
X008929Y020705D02*
X008792Y020705D01*
X006255Y021181D02*
X005978Y021181D01*
X005948Y022449D02*
X004246Y022449D01*
X004404Y022607D02*
X005920Y022607D01*
X005954Y022766D02*
X004563Y022766D01*
X004721Y022924D02*
X006070Y022924D01*
X008013Y025390D02*
X016187Y025390D01*
X016310Y025513D01*
X016310Y028513D01*
X017187Y029390D01*
X020796Y029390D01*
X020680Y029274D01*
X020680Y028926D01*
X020926Y028680D01*
X021274Y028680D01*
X021520Y028926D01*
X021520Y029274D01*
X021404Y029390D01*
X024796Y029390D01*
X024680Y029274D01*
X024680Y028926D01*
X024926Y028680D01*
X025274Y028680D01*
X025520Y028926D01*
X025520Y029274D01*
X025404Y029390D01*
X027890Y029390D01*
X027890Y027013D01*
X028013Y026890D01*
X028013Y026890D01*
X029390Y025513D01*
X029444Y025459D01*
X029484Y025362D01*
X029602Y025244D01*
X029756Y025180D01*
X030444Y025180D01*
X030598Y025244D01*
X030716Y025362D01*
X030780Y025516D01*
X030780Y025684D01*
X030716Y025838D01*
X030598Y025956D01*
X030444Y026020D01*
X029756Y026020D01*
X029602Y025956D01*
X029572Y025925D01*
X028310Y027187D01*
X028310Y029687D01*
X028187Y029810D01*
X017013Y029810D01*
X016013Y028810D01*
X015890Y028687D01*
X015890Y025810D01*
X008187Y025810D01*
X006520Y027477D01*
X006520Y027774D01*
X006274Y028020D01*
X005977Y028020D01*
X005423Y028574D01*
X005490Y028546D01*
X005871Y028546D01*
X007786Y026631D01*
X007990Y026546D01*
X013371Y026546D01*
X013786Y026131D01*
X013990Y026046D01*
X014210Y026046D01*
X014414Y026131D01*
X014569Y026286D01*
X014654Y026490D01*
X014654Y026710D01*
X014569Y026914D01*
X014069Y027414D01*
X013914Y027569D01*
X013710Y027654D01*
X008329Y027654D01*
X006569Y029414D01*
X006414Y029569D01*
X006340Y029600D01*
X006414Y029631D01*
X007914Y031131D01*
X008069Y031286D01*
X008154Y031490D01*
X008154Y036577D01*
X008161Y036663D01*
X008154Y036686D01*
X008154Y036710D01*
X008120Y036790D01*
X008094Y036873D01*
X008079Y036891D01*
X008069Y036914D01*
X008062Y036921D01*
X008061Y036923D01*
X008000Y036985D01*
X007944Y037051D01*
X007922Y037062D01*
X007905Y037079D01*
X007825Y037112D01*
X007748Y037152D01*
X007724Y037154D01*
X007702Y037164D01*
X007615Y037164D01*
X007529Y037171D01*
X007506Y037164D01*
X007482Y037164D01*
X007401Y037130D01*
X007319Y037104D01*
X007300Y037088D01*
X007278Y037079D01*
X007217Y037018D01*
X007150Y036962D01*
X007139Y036941D01*
X007122Y036923D01*
X007089Y036843D01*
X007049Y036766D01*
X007047Y036742D01*
X007038Y036720D01*
X007038Y036633D01*
X007031Y036547D01*
X007038Y036524D01*
X007038Y036500D01*
X007046Y036480D01*
X007046Y031829D01*
X005871Y030654D01*
X004080Y030654D01*
X004084Y030655D01*
X004152Y030689D01*
X004213Y030734D01*
X004266Y030787D01*
X004311Y030848D01*
X004345Y030916D01*
X004368Y030988D01*
X004380Y031062D01*
X004380Y031080D01*
X003620Y031080D01*
X003620Y031120D01*
X003580Y031120D01*
X003580Y031580D01*
X003262Y031580D01*
X003188Y031568D01*
X003116Y031545D01*
X003048Y031511D01*
X002987Y031466D01*
X002934Y031413D01*
X002889Y031352D01*
X002855Y031284D01*
X002832Y031212D01*
X002820Y031138D01*
X002820Y031120D01*
X003580Y031120D01*
X003580Y031080D01*
X002820Y031080D01*
X002820Y031062D01*
X002832Y030988D01*
X002855Y030916D01*
X002889Y030848D01*
X002934Y030787D01*
X002987Y030734D01*
X003048Y030689D01*
X003116Y030655D01*
X003188Y030632D01*
X003262Y030620D01*
X003409Y030620D01*
X003286Y030569D01*
X003277Y030560D01*
X003208Y030560D01*
X003039Y030490D01*
X002910Y030361D01*
X002840Y030191D01*
X002840Y030008D01*
X002910Y029839D01*
X003039Y029710D01*
X003208Y029640D01*
X003277Y029640D01*
X003286Y029631D01*
X003457Y029560D01*
X003208Y029560D01*
X003039Y029490D01*
X002910Y029361D01*
X002840Y029191D01*
X002840Y029008D01*
X002910Y028839D01*
X003039Y028710D01*
X003208Y028640D01*
X003991Y028640D01*
X004161Y028710D01*
X004290Y028839D01*
X004311Y028890D01*
X004513Y028890D01*
X005680Y027723D01*
X005680Y027426D01*
X005926Y027180D01*
X006223Y027180D01*
X008013Y025390D01*
X007943Y025460D02*
X000600Y025460D01*
X000600Y025302D02*
X023005Y025302D01*
X023163Y025460D02*
X016257Y025460D01*
X016310Y025619D02*
X023322Y025619D01*
X023329Y025777D02*
X019899Y025777D01*
X019782Y025660D02*
X020040Y025918D01*
X020040Y026100D01*
X020040Y026282D01*
X019782Y026540D01*
X019600Y026540D01*
X019600Y026100D01*
X020040Y026100D01*
X019600Y026100D01*
X019600Y026100D01*
X019600Y026100D01*
X019600Y025660D01*
X019782Y025660D01*
X019600Y025660D02*
X019600Y026100D01*
X019600Y026100D01*
X019600Y026100D01*
X019160Y026100D01*
X019160Y026282D01*
X019418Y026540D01*
X019600Y026540D01*
X019600Y026100D01*
X019160Y026100D01*
X019160Y025918D01*
X019418Y025660D01*
X019600Y025660D01*
X019600Y025777D02*
X019600Y025777D01*
X019600Y025936D02*
X019600Y025936D01*
X019600Y026094D02*
X019600Y026094D01*
X019600Y026253D02*
X019600Y026253D01*
X019600Y026411D02*
X019600Y026411D01*
X019911Y026411D02*
X022992Y026411D01*
X023150Y026253D02*
X020040Y026253D01*
X020040Y026094D02*
X023180Y026094D01*
X023180Y025936D02*
X020040Y025936D01*
X019301Y025777D02*
X016310Y025777D01*
X016310Y025936D02*
X019160Y025936D01*
X019160Y026094D02*
X016310Y026094D01*
X016310Y026253D02*
X019160Y026253D01*
X019289Y026411D02*
X016310Y026411D01*
X016310Y026570D02*
X022833Y026570D01*
X022675Y026728D02*
X016310Y026728D01*
X016310Y026887D02*
X022516Y026887D01*
X022793Y027204D02*
X024699Y027204D01*
X024541Y027362D02*
X019310Y027362D01*
X019463Y027521D02*
X024382Y027521D01*
X024224Y027679D02*
X019543Y027679D01*
X019557Y027838D02*
X020768Y027838D01*
X020680Y027926D02*
X020926Y027680D01*
X021274Y027680D01*
X021520Y027926D01*
X021520Y028274D01*
X021274Y028520D01*
X020926Y028520D01*
X020680Y028274D01*
X020680Y027926D01*
X020680Y027996D02*
X019557Y027996D01*
X019557Y028155D02*
X020680Y028155D01*
X020719Y028313D02*
X019557Y028313D01*
X019557Y028472D02*
X020878Y028472D01*
X020817Y028789D02*
X019348Y028789D01*
X019498Y028630D02*
X023240Y028630D01*
X023240Y028672D02*
X023240Y028528D01*
X023295Y028396D01*
X023396Y028295D01*
X023528Y028240D01*
X023663Y028240D01*
X025513Y026390D01*
X026472Y026390D01*
X026484Y026362D01*
X026602Y026244D01*
X026756Y026180D01*
X027444Y026180D01*
X027598Y026244D01*
X027716Y026362D01*
X027780Y026516D01*
X027780Y026684D01*
X027716Y026838D01*
X027598Y026956D01*
X027444Y027020D01*
X026756Y027020D01*
X026602Y026956D01*
X026484Y026838D01*
X026472Y026810D01*
X025687Y026810D01*
X023960Y028537D01*
X023960Y028672D01*
X023905Y028804D01*
X023804Y028905D01*
X023672Y028960D01*
X023528Y028960D01*
X023396Y028905D01*
X023295Y028804D01*
X023240Y028672D01*
X023288Y028789D02*
X021383Y028789D01*
X021520Y028947D02*
X023497Y028947D01*
X023703Y028947D02*
X024680Y028947D01*
X024680Y029106D02*
X021520Y029106D01*
X021520Y029264D02*
X024680Y029264D01*
X024817Y028789D02*
X023912Y028789D01*
X023960Y028630D02*
X027890Y028630D01*
X027890Y028472D02*
X025322Y028472D01*
X025274Y028520D02*
X024926Y028520D01*
X024680Y028274D01*
X024680Y027926D01*
X024926Y027680D01*
X025274Y027680D01*
X025520Y027926D01*
X025520Y028274D01*
X025274Y028520D01*
X025383Y028789D02*
X027890Y028789D01*
X027890Y028947D02*
X025520Y028947D01*
X025520Y029106D02*
X027890Y029106D01*
X027890Y029264D02*
X025520Y029264D01*
X025481Y028313D02*
X027890Y028313D01*
X027890Y028155D02*
X025520Y028155D01*
X025520Y027996D02*
X026699Y027996D01*
X026756Y028020D02*
X026602Y027956D01*
X026484Y027838D01*
X026420Y027684D01*
X026420Y027516D01*
X026484Y027362D01*
X025135Y027362D01*
X025293Y027204D02*
X026700Y027204D01*
X026756Y027180D02*
X026602Y027244D01*
X026484Y027362D01*
X026420Y027521D02*
X024976Y027521D01*
X024818Y027679D02*
X026420Y027679D01*
X026484Y027838D02*
X025432Y027838D01*
X024768Y027838D02*
X024659Y027838D01*
X024680Y027996D02*
X024501Y027996D01*
X024342Y028155D02*
X024680Y028155D01*
X024719Y028313D02*
X024184Y028313D01*
X024025Y028472D02*
X024878Y028472D01*
X024065Y027838D02*
X021432Y027838D01*
X021520Y027996D02*
X023907Y027996D01*
X023748Y028155D02*
X021520Y028155D01*
X021481Y028313D02*
X023378Y028313D01*
X023264Y028472D02*
X021322Y028472D01*
X020680Y028947D02*
X016744Y028947D01*
X016850Y028805D02*
X016789Y028761D01*
X016736Y028707D01*
X016692Y028647D01*
X016658Y028580D01*
X016635Y028509D01*
X016623Y028434D01*
X016623Y028118D01*
X017082Y028118D01*
X017082Y028082D01*
X017118Y028082D01*
X017118Y028118D01*
X017577Y028118D01*
X017577Y028434D01*
X017565Y028509D01*
X017542Y028580D01*
X017508Y028647D01*
X017464Y028707D01*
X017411Y028761D01*
X017350Y028805D01*
X017283Y028839D01*
X017212Y028862D01*
X017138Y028874D01*
X017118Y028874D01*
X017118Y028118D01*
X017082Y028118D01*
X017082Y028874D01*
X017062Y028874D01*
X016988Y028862D01*
X016917Y028839D01*
X016850Y028805D01*
X016828Y028789D02*
X016586Y028789D01*
X016684Y028630D02*
X016427Y028630D01*
X016310Y028472D02*
X016629Y028472D01*
X016623Y028313D02*
X016310Y028313D01*
X016310Y028155D02*
X016623Y028155D01*
X016623Y028082D02*
X016623Y027766D01*
X016635Y027691D01*
X016658Y027620D01*
X016692Y027553D01*
X016736Y027493D01*
X016789Y027439D01*
X016850Y027395D01*
X016917Y027361D01*
X016988Y027338D01*
X017062Y027326D01*
X017082Y027326D01*
X017082Y028082D01*
X016623Y028082D01*
X016623Y027996D02*
X016310Y027996D01*
X016310Y027838D02*
X016623Y027838D01*
X016639Y027679D02*
X016310Y027679D01*
X016310Y027521D02*
X016716Y027521D01*
X016915Y027362D02*
X016310Y027362D01*
X016310Y027204D02*
X018890Y027204D01*
X018890Y027362D02*
X018229Y027362D01*
X018191Y027346D02*
X018359Y027416D01*
X018487Y027544D01*
X018557Y027712D01*
X018557Y028488D01*
X018487Y028656D01*
X018359Y028784D01*
X018191Y028854D01*
X018009Y028854D01*
X017841Y028784D01*
X017713Y028656D01*
X017643Y028488D01*
X017643Y027712D01*
X017713Y027544D01*
X017841Y027416D01*
X018009Y027346D01*
X018191Y027346D01*
X017971Y027362D02*
X017285Y027362D01*
X017283Y027361D02*
X017350Y027395D01*
X017411Y027439D01*
X017464Y027493D01*
X017508Y027553D01*
X017542Y027620D01*
X017565Y027691D01*
X017577Y027766D01*
X017577Y028082D01*
X017118Y028082D01*
X017118Y027326D01*
X017138Y027326D01*
X017212Y027338D01*
X017283Y027361D01*
X017118Y027362D02*
X017082Y027362D01*
X017082Y027521D02*
X017118Y027521D01*
X017118Y027679D02*
X017082Y027679D01*
X017082Y027838D02*
X017118Y027838D01*
X017118Y027996D02*
X017082Y027996D01*
X017082Y028155D02*
X017118Y028155D01*
X017118Y028313D02*
X017082Y028313D01*
X017082Y028472D02*
X017118Y028472D01*
X017118Y028630D02*
X017082Y028630D01*
X017082Y028789D02*
X017118Y028789D01*
X017372Y028789D02*
X017852Y028789D01*
X017702Y028630D02*
X017516Y028630D01*
X017571Y028472D02*
X017643Y028472D01*
X017643Y028313D02*
X017577Y028313D01*
X017577Y028155D02*
X017643Y028155D01*
X017643Y027996D02*
X017577Y027996D01*
X017577Y027838D02*
X017643Y027838D01*
X017657Y027679D02*
X017561Y027679D01*
X017484Y027521D02*
X017737Y027521D01*
X018463Y027521D02*
X018737Y027521D01*
X018657Y027679D02*
X018543Y027679D01*
X018557Y027838D02*
X018643Y027838D01*
X018643Y027996D02*
X018557Y027996D01*
X018557Y028155D02*
X018643Y028155D01*
X018643Y028313D02*
X018557Y028313D01*
X018557Y028472D02*
X018643Y028472D01*
X018702Y028630D02*
X018498Y028630D01*
X018348Y028789D02*
X018852Y028789D01*
X018890Y027045D02*
X016310Y027045D01*
X015890Y027045D02*
X015520Y027045D01*
X015520Y026926D02*
X015274Y026680D01*
X014926Y026680D01*
X014680Y026926D01*
X014680Y027274D01*
X014926Y027520D01*
X015274Y027520D01*
X015520Y027274D01*
X015520Y026926D01*
X015481Y026887D02*
X015890Y026887D01*
X015890Y026728D02*
X015322Y026728D01*
X014878Y026728D02*
X014646Y026728D01*
X014654Y026570D02*
X015890Y026570D01*
X015890Y026411D02*
X014621Y026411D01*
X014536Y026253D02*
X015890Y026253D01*
X015890Y026094D02*
X014325Y026094D01*
X013875Y026094D02*
X007903Y026094D01*
X008061Y025936D02*
X015890Y025936D01*
X015890Y027204D02*
X015520Y027204D01*
X015432Y027362D02*
X015890Y027362D01*
X015890Y027521D02*
X013963Y027521D01*
X014121Y027362D02*
X014768Y027362D01*
X014680Y027204D02*
X014280Y027204D01*
X014438Y027045D02*
X014680Y027045D01*
X014719Y026887D02*
X014581Y026887D01*
X013664Y026253D02*
X007744Y026253D01*
X007586Y026411D02*
X013506Y026411D01*
X013203Y027911D02*
X013269Y027932D01*
X013331Y027964D01*
X013387Y028004D01*
X013436Y028053D01*
X013476Y028109D01*
X013508Y028171D01*
X013529Y028237D01*
X013540Y028305D01*
X013540Y028600D01*
X013540Y028895D01*
X013529Y028963D01*
X013508Y029029D01*
X013476Y029091D01*
X013436Y029147D01*
X013387Y029196D01*
X013331Y029236D01*
X013269Y029268D01*
X013203Y029289D01*
X013135Y029300D01*
X013100Y029300D01*
X013100Y028600D01*
X013540Y028600D01*
X013100Y028600D01*
X013100Y028600D01*
X013100Y028600D01*
X013100Y027900D01*
X013135Y027900D01*
X013203Y027911D01*
X013100Y027900D02*
X013100Y028600D01*
X013100Y028600D01*
X013100Y028600D01*
X012660Y028600D01*
X012660Y028895D01*
X012671Y028963D01*
X012692Y029029D01*
X012724Y029091D01*
X012764Y029147D01*
X012813Y029196D01*
X012869Y029236D01*
X012931Y029268D01*
X012997Y029289D01*
X013065Y029300D01*
X013100Y029300D01*
X013100Y028600D01*
X012660Y028600D01*
X012660Y028305D01*
X012671Y028237D01*
X012692Y028171D01*
X012724Y028109D01*
X012764Y028053D01*
X012813Y028004D01*
X012869Y027964D01*
X012931Y027932D01*
X012997Y027911D01*
X013065Y027900D01*
X013100Y027900D01*
X013100Y027996D02*
X013100Y027996D01*
X013100Y028155D02*
X013100Y028155D01*
X013100Y028313D02*
X013100Y028313D01*
X013100Y028472D02*
X013100Y028472D01*
X013100Y028630D02*
X013100Y028630D01*
X013100Y028789D02*
X013100Y028789D01*
X013100Y028947D02*
X013100Y028947D01*
X013100Y029106D02*
X013100Y029106D01*
X013100Y029264D02*
X013100Y029264D01*
X013276Y029264D02*
X014978Y029264D01*
X015016Y029280D02*
X014862Y029216D01*
X014744Y029098D01*
X014680Y028944D01*
X014680Y028256D01*
X014744Y028102D01*
X014862Y027984D01*
X015016Y027920D01*
X015184Y027920D01*
X015338Y027984D01*
X015456Y028102D01*
X015520Y028256D01*
X015520Y028944D01*
X015456Y029098D01*
X015338Y029216D01*
X015184Y029280D01*
X015016Y029280D01*
X015222Y029264D02*
X016467Y029264D01*
X016309Y029106D02*
X015448Y029106D01*
X015519Y028947D02*
X016150Y028947D01*
X015992Y028789D02*
X015520Y028789D01*
X015520Y028630D02*
X015890Y028630D01*
X015890Y028472D02*
X015520Y028472D01*
X015520Y028313D02*
X015890Y028313D01*
X015890Y028155D02*
X015478Y028155D01*
X015350Y027996D02*
X015890Y027996D01*
X015890Y027838D02*
X008146Y027838D01*
X008304Y027679D02*
X015890Y027679D01*
X014850Y027996D02*
X013375Y027996D01*
X013499Y028155D02*
X014722Y028155D01*
X014680Y028313D02*
X013540Y028313D01*
X013540Y028472D02*
X014680Y028472D01*
X014680Y028630D02*
X013540Y028630D01*
X013540Y028789D02*
X014680Y028789D01*
X014681Y028947D02*
X013532Y028947D01*
X013465Y029106D02*
X014752Y029106D01*
X016029Y030374D02*
X009411Y030374D01*
X009422Y030385D02*
X009424Y030390D01*
X016013Y030390D01*
X016390Y030013D01*
X016513Y029890D01*
X017187Y029890D01*
X017940Y030643D01*
X018289Y030643D01*
X018557Y030911D01*
X018557Y031289D01*
X018289Y031557D01*
X017911Y031557D01*
X017643Y031289D01*
X017643Y030940D01*
X017013Y030310D01*
X016687Y030310D01*
X016187Y030810D01*
X009424Y030810D01*
X009422Y030815D01*
X009315Y030922D01*
X009176Y030980D01*
X009024Y030980D01*
X008885Y030922D01*
X008778Y030815D01*
X008720Y030676D01*
X008720Y030524D01*
X008778Y030385D01*
X008885Y030278D01*
X009024Y030220D01*
X009176Y030220D01*
X009315Y030278D01*
X009422Y030385D01*
X009388Y030849D02*
X016677Y030849D01*
X016623Y030902D02*
X016902Y030623D01*
X017082Y030623D01*
X017082Y031082D01*
X017118Y031082D01*
X017118Y031118D01*
X017577Y031118D01*
X017577Y031298D01*
X017298Y031577D01*
X017118Y031577D01*
X017118Y031118D01*
X017082Y031118D01*
X017082Y031082D01*
X016623Y031082D01*
X016623Y030902D01*
X016623Y031008D02*
X007791Y031008D01*
X007949Y031166D02*
X016623Y031166D01*
X016623Y031118D02*
X017082Y031118D01*
X017082Y031577D01*
X016902Y031577D01*
X016623Y031298D01*
X016623Y031118D01*
X016650Y031325D02*
X011334Y031325D01*
X011304Y031295D02*
X011405Y031396D01*
X011460Y031528D01*
X011460Y031663D01*
X012680Y032883D01*
X012680Y032256D01*
X012744Y032102D01*
X012862Y031984D01*
X013016Y031920D01*
X013184Y031920D01*
X013338Y031984D01*
X013456Y032102D01*
X013520Y032256D01*
X013520Y032390D01*
X014680Y032390D01*
X014680Y032256D01*
X014744Y032102D01*
X014862Y031984D01*
X015016Y031920D01*
X015184Y031920D01*
X015338Y031984D01*
X015456Y032102D01*
X015520Y032256D01*
X015520Y032944D01*
X015456Y033098D01*
X015338Y033216D01*
X015184Y033280D01*
X015016Y033280D01*
X014862Y033216D01*
X014744Y033098D01*
X014680Y032944D01*
X014680Y032810D01*
X013520Y032810D01*
X013520Y032944D01*
X013456Y033098D01*
X013338Y033216D01*
X013184Y033280D01*
X013077Y033280D01*
X013687Y033890D01*
X016796Y033890D01*
X016680Y033774D01*
X016680Y033426D01*
X016926Y033180D01*
X017274Y033180D01*
X017520Y033426D01*
X017520Y033774D01*
X017404Y033890D01*
X020768Y033890D01*
X020660Y033782D01*
X020660Y033600D01*
X021100Y033600D01*
X021540Y033600D01*
X021540Y033782D01*
X021432Y033890D01*
X022768Y033890D01*
X022660Y033782D01*
X022660Y033600D01*
X023100Y033600D01*
X023540Y033600D01*
X023540Y033782D01*
X023432Y033890D01*
X024513Y033890D01*
X026890Y031513D01*
X027013Y031390D01*
X027244Y031390D01*
X027143Y031289D01*
X027143Y030960D01*
X027037Y030960D01*
X024810Y033187D01*
X024687Y033310D01*
X023513Y033310D01*
X023013Y032810D01*
X022513Y032810D01*
X022390Y032687D01*
X022390Y032687D01*
X022260Y032557D01*
X021911Y032557D01*
X021643Y032289D01*
X021643Y031911D01*
X021911Y031643D01*
X022289Y031643D01*
X022557Y031911D01*
X022557Y032260D01*
X022687Y032390D01*
X022744Y032390D01*
X022643Y032289D01*
X022643Y031911D01*
X022911Y031643D01*
X023289Y031643D01*
X023557Y031911D01*
X023557Y032289D01*
X023322Y032525D01*
X023687Y032890D01*
X024513Y032890D01*
X026740Y030663D01*
X026740Y030528D01*
X026795Y030396D01*
X026881Y030310D01*
X023187Y030310D01*
X022557Y030940D01*
X022557Y031289D01*
X022289Y031557D01*
X021911Y031557D01*
X021643Y031289D01*
X021643Y030911D01*
X021911Y030643D01*
X022260Y030643D01*
X023013Y029890D01*
X029890Y029890D01*
X029890Y028020D01*
X029756Y028020D01*
X029602Y027956D01*
X029484Y027838D01*
X029420Y027684D01*
X029420Y027516D01*
X029484Y027362D01*
X028310Y027362D01*
X028310Y027204D02*
X029700Y027204D01*
X029756Y027180D02*
X030444Y027180D01*
X030598Y027244D01*
X030716Y027362D01*
X038990Y027362D01*
X038990Y027204D02*
X030500Y027204D01*
X030444Y027020D02*
X030598Y026956D01*
X030716Y026838D01*
X030780Y026684D01*
X030780Y026516D01*
X030716Y026362D01*
X030598Y026244D01*
X030444Y026180D01*
X029756Y026180D01*
X029602Y026244D01*
X029484Y026362D01*
X029420Y026516D01*
X029420Y026684D01*
X029484Y026838D01*
X029602Y026956D01*
X029756Y027020D01*
X030444Y027020D01*
X030667Y026887D02*
X036126Y026887D01*
X036140Y026922D02*
X036056Y026718D01*
X036056Y026498D01*
X036140Y026295D01*
X036296Y026139D01*
X036500Y026055D01*
X036720Y026055D01*
X036923Y026139D01*
X037079Y026295D01*
X037164Y026498D01*
X037164Y026718D01*
X037079Y026922D01*
X036923Y027078D01*
X036720Y027162D01*
X036500Y027162D01*
X036296Y027078D01*
X036140Y026922D01*
X036264Y027045D02*
X028452Y027045D01*
X028610Y026887D02*
X029533Y026887D01*
X029438Y026728D02*
X028769Y026728D01*
X028927Y026570D02*
X029420Y026570D01*
X029464Y026411D02*
X029086Y026411D01*
X029244Y026253D02*
X029593Y026253D01*
X029403Y026094D02*
X032160Y026094D01*
X032160Y025936D02*
X030618Y025936D01*
X030741Y025777D02*
X032301Y025777D01*
X032418Y025660D02*
X032160Y025918D01*
X032160Y026282D01*
X032418Y026540D01*
X032782Y026540D01*
X033040Y026282D01*
X033040Y025918D01*
X032782Y025660D01*
X032418Y025660D01*
X032899Y025777D02*
X038990Y025777D01*
X038990Y025619D02*
X030780Y025619D01*
X030757Y025460D02*
X038990Y025460D01*
X038990Y025302D02*
X030656Y025302D01*
X030529Y024985D02*
X036203Y024985D01*
X036140Y024922D02*
X036296Y025078D01*
X036500Y025162D01*
X036720Y025162D01*
X036923Y025078D01*
X037079Y024922D01*
X037164Y024718D01*
X037164Y024498D01*
X037079Y024295D01*
X036923Y024139D01*
X036720Y024055D01*
X036500Y024055D01*
X036296Y024139D01*
X036140Y024295D01*
X036056Y024498D01*
X036056Y024718D01*
X036140Y024922D01*
X036101Y024826D02*
X030721Y024826D01*
X030780Y024668D02*
X036056Y024668D01*
X036056Y024509D02*
X030777Y024509D01*
X030705Y024351D02*
X036117Y024351D01*
X036243Y024192D02*
X030473Y024192D01*
X030444Y024020D02*
X029756Y024020D01*
X029602Y023956D01*
X029484Y023838D01*
X029420Y023684D01*
X029420Y023516D01*
X029484Y023362D01*
X029602Y023244D01*
X029756Y023180D01*
X030444Y023180D01*
X030598Y023244D01*
X030716Y023362D01*
X030780Y023516D01*
X030780Y023684D01*
X030716Y023838D01*
X030598Y023956D01*
X030444Y024020D01*
X030679Y023875D02*
X032118Y023875D01*
X032165Y023922D02*
X032058Y023815D01*
X032000Y023676D01*
X032000Y023524D01*
X032058Y023385D01*
X032165Y023278D01*
X032304Y023220D01*
X032896Y023220D01*
X033035Y023278D01*
X033142Y023385D01*
X033200Y023524D01*
X033200Y023676D01*
X033142Y023815D01*
X033035Y023922D01*
X032896Y023980D01*
X032304Y023980D01*
X032165Y023922D01*
X032017Y023717D02*
X030766Y023717D01*
X030780Y023558D02*
X032000Y023558D01*
X032052Y023400D02*
X030732Y023400D01*
X030591Y023241D02*
X032254Y023241D01*
X032687Y022810D02*
X030728Y022810D01*
X030716Y022838D01*
X030598Y022956D01*
X030444Y023020D01*
X029756Y023020D01*
X029602Y022956D01*
X029484Y022838D01*
X029420Y022684D01*
X029420Y022516D01*
X029484Y022362D01*
X029602Y022244D01*
X029756Y022180D01*
X030444Y022180D01*
X030598Y022244D01*
X030716Y022362D01*
X030728Y022390D01*
X032390Y022390D01*
X032390Y021980D01*
X032304Y021980D01*
X032165Y021922D01*
X032058Y021815D01*
X032000Y021676D01*
X032000Y021524D01*
X032058Y021385D01*
X032165Y021278D01*
X032304Y021220D01*
X032896Y021220D01*
X033035Y021278D01*
X033142Y021385D01*
X033200Y021524D01*
X033200Y021676D01*
X033142Y021815D01*
X033035Y021922D01*
X032896Y021980D01*
X032810Y021980D01*
X032810Y022687D01*
X032687Y022810D01*
X032731Y022766D02*
X038990Y022766D01*
X038990Y022924D02*
X030630Y022924D01*
X030644Y022290D02*
X032390Y022290D01*
X032390Y022132D02*
X028310Y022132D01*
X028310Y022290D02*
X029556Y022290D01*
X029448Y022449D02*
X028310Y022449D01*
X028310Y022607D02*
X029420Y022607D01*
X029454Y022766D02*
X028310Y022766D01*
X028310Y022924D02*
X029570Y022924D01*
X029609Y023241D02*
X028538Y023241D01*
X028380Y023083D02*
X038990Y023083D01*
X038990Y023241D02*
X032946Y023241D01*
X033148Y023400D02*
X038990Y023400D01*
X038990Y023558D02*
X033200Y023558D01*
X033183Y023717D02*
X038990Y023717D01*
X038990Y023875D02*
X033082Y023875D01*
X032810Y022607D02*
X036367Y022607D01*
X036296Y022578D02*
X036140Y022422D01*
X036056Y022218D01*
X036056Y021998D01*
X036140Y021795D01*
X036296Y021639D01*
X036500Y021555D01*
X036720Y021555D01*
X036923Y021639D01*
X037079Y021795D01*
X037164Y021998D01*
X037164Y022218D01*
X037079Y022422D01*
X036923Y022578D01*
X036720Y022662D01*
X036500Y022662D01*
X036296Y022578D01*
X036167Y022449D02*
X032810Y022449D01*
X032810Y022290D02*
X036086Y022290D01*
X036056Y022132D02*
X032810Y022132D01*
X032912Y021973D02*
X036067Y021973D01*
X036132Y021815D02*
X033142Y021815D01*
X033200Y021656D02*
X036279Y021656D01*
X036941Y021656D02*
X038990Y021656D01*
X038990Y021498D02*
X033189Y021498D01*
X033096Y021339D02*
X038990Y021339D01*
X038990Y021181D02*
X030493Y021181D01*
X030714Y021339D02*
X032104Y021339D01*
X032011Y021498D02*
X030789Y021498D01*
X030797Y021656D02*
X032000Y021656D01*
X032058Y021815D02*
X030745Y021815D01*
X030595Y021973D02*
X032288Y021973D01*
X030780Y020547D02*
X036265Y020547D01*
X036126Y020388D02*
X030727Y020388D01*
X030563Y020230D02*
X036061Y020230D01*
X036390Y019120D02*
X031377Y019120D01*
X031535Y018962D02*
X032339Y018962D01*
X032418Y019040D02*
X032160Y018782D01*
X032160Y018418D01*
X032418Y018160D01*
X032782Y018160D01*
X033040Y018418D01*
X033040Y018782D01*
X032782Y019040D01*
X032418Y019040D01*
X032181Y018803D02*
X031694Y018803D01*
X031852Y018645D02*
X032160Y018645D01*
X032160Y018486D02*
X032011Y018486D01*
X032169Y018328D02*
X032250Y018328D01*
X032328Y018169D02*
X032409Y018169D01*
X032486Y018011D02*
X036229Y018011D01*
X036296Y018078D02*
X036140Y017922D01*
X036056Y017718D01*
X036056Y017498D01*
X036140Y017295D01*
X036296Y017139D01*
X036500Y017055D01*
X036720Y017055D01*
X036923Y017139D01*
X037079Y017295D01*
X037164Y017498D01*
X037164Y017718D01*
X037079Y017922D01*
X036923Y018078D01*
X036720Y018162D01*
X036500Y018162D01*
X036296Y018078D01*
X036111Y017852D02*
X032645Y017852D01*
X032803Y017694D02*
X036056Y017694D01*
X036056Y017535D02*
X032962Y017535D01*
X033120Y017377D02*
X036107Y017377D01*
X036217Y017218D02*
X033279Y017218D01*
X033437Y017060D02*
X036488Y017060D01*
X036732Y017060D02*
X037390Y017060D01*
X037390Y017218D02*
X037003Y017218D01*
X037113Y017377D02*
X037390Y017377D01*
X037390Y017535D02*
X037164Y017535D01*
X037164Y017694D02*
X037390Y017694D01*
X037390Y017852D02*
X037108Y017852D01*
X036991Y018011D02*
X037390Y018011D01*
X037234Y018169D02*
X032791Y018169D01*
X032950Y018328D02*
X037075Y018328D01*
X036417Y018486D02*
X033040Y018486D01*
X033040Y018645D02*
X036390Y018645D01*
X036390Y018803D02*
X033019Y018803D01*
X032861Y018962D02*
X036390Y018962D01*
X037390Y016901D02*
X033596Y016901D01*
X033754Y016743D02*
X037390Y016743D01*
X037390Y016584D02*
X033913Y016584D01*
X034071Y016426D02*
X037390Y016426D01*
X037390Y016267D02*
X034230Y016267D01*
X034388Y016109D02*
X036371Y016109D01*
X036169Y015950D02*
X034547Y015950D01*
X034270Y015633D02*
X033060Y015633D01*
X033060Y015475D02*
X034428Y015475D01*
X034111Y015792D02*
X033059Y015792D01*
X032901Y015950D02*
X033953Y015950D01*
X032967Y015316D02*
X036132Y015316D01*
X036278Y015158D02*
X032808Y015158D01*
X031343Y017060D02*
X030937Y017060D01*
X030779Y017218D02*
X031185Y017218D01*
X031026Y017377D02*
X030722Y017377D01*
X030780Y017535D02*
X030868Y017535D01*
X030100Y021181D02*
X030100Y021181D01*
X030100Y021339D02*
X030100Y021339D01*
X030100Y021498D02*
X030100Y021498D01*
X030100Y021656D02*
X030100Y021656D01*
X030100Y021815D02*
X030100Y021815D01*
X030100Y021973D02*
X030100Y021973D01*
X029605Y021973D02*
X028270Y021973D01*
X027726Y021815D02*
X029455Y021815D01*
X029403Y021656D02*
X027780Y021656D01*
X027772Y021498D02*
X029411Y021498D01*
X029486Y021339D02*
X027693Y021339D01*
X027100Y021022D02*
X027100Y021022D01*
X027100Y020864D02*
X027100Y020864D01*
X027100Y020705D02*
X027100Y020705D01*
X026715Y021022D02*
X025819Y021022D01*
X025661Y020864D02*
X026488Y020864D01*
X026411Y020705D02*
X025502Y020705D01*
X025344Y020547D02*
X026403Y020547D01*
X026454Y020388D02*
X025185Y020388D01*
X024908Y020705D02*
X020292Y020705D01*
X020450Y020547D02*
X024750Y020547D01*
X024591Y020388D02*
X020609Y020388D01*
X020767Y020230D02*
X024433Y020230D01*
X024274Y020071D02*
X020926Y020071D01*
X021084Y019913D02*
X023914Y019913D01*
X023774Y019754D02*
X021243Y019754D01*
X021401Y019596D02*
X023740Y019596D01*
X023778Y019437D02*
X021560Y019437D01*
X021283Y019120D02*
X020577Y019120D01*
X020577Y019118D02*
X020577Y019434D01*
X020565Y019509D01*
X020542Y019580D01*
X020508Y019647D01*
X020464Y019707D01*
X020411Y019761D01*
X020350Y019805D01*
X020283Y019839D01*
X020212Y019862D01*
X020138Y019874D01*
X020118Y019874D01*
X020118Y019118D01*
X020082Y019118D01*
X020082Y019082D01*
X019623Y019082D01*
X019623Y018766D01*
X019635Y018691D01*
X019658Y018620D01*
X019692Y018553D01*
X019736Y018493D01*
X019789Y018439D01*
X019850Y018395D01*
X019917Y018361D01*
X019988Y018338D01*
X020062Y018326D01*
X020082Y018326D01*
X020082Y019082D01*
X020118Y019082D01*
X020118Y019118D01*
X020577Y019118D01*
X020577Y019082D02*
X020118Y019082D01*
X020118Y018326D01*
X020138Y018326D01*
X020212Y018338D01*
X020283Y018361D01*
X020350Y018395D01*
X020411Y018439D01*
X020464Y018493D01*
X020508Y018553D01*
X020542Y018620D01*
X020565Y018691D01*
X020577Y018766D01*
X020577Y019082D01*
X020577Y018962D02*
X021441Y018962D01*
X021124Y019279D02*
X020577Y019279D01*
X020576Y019437D02*
X020966Y019437D01*
X020807Y019596D02*
X020534Y019596D01*
X020649Y019754D02*
X020417Y019754D01*
X020490Y019913D02*
X017210Y019913D01*
X017283Y019754D02*
X017051Y019754D01*
X017012Y019596D02*
X017166Y019596D01*
X017124Y019437D02*
X017057Y019437D01*
X017057Y019279D02*
X017123Y019279D01*
X017123Y019120D02*
X017057Y019120D01*
X017057Y018962D02*
X017123Y018962D01*
X017123Y018803D02*
X017057Y018803D01*
X017029Y018645D02*
X017150Y018645D01*
X017243Y018486D02*
X016929Y018486D01*
X017582Y018486D02*
X017618Y018486D01*
X017618Y018328D02*
X017582Y018328D01*
X017645Y018328D02*
X019075Y018328D01*
X018771Y018486D02*
X017957Y018486D01*
X018050Y018645D02*
X018671Y018645D01*
X018643Y018803D02*
X018077Y018803D01*
X018077Y018962D02*
X018643Y018962D01*
X018643Y019120D02*
X018077Y019120D01*
X018077Y019279D02*
X018643Y019279D01*
X018643Y019437D02*
X018076Y019437D01*
X018034Y019596D02*
X018688Y019596D01*
X018811Y019754D02*
X017917Y019754D01*
X017618Y019754D02*
X017582Y019754D01*
X017582Y019596D02*
X017618Y019596D01*
X017618Y019437D02*
X017582Y019437D01*
X017582Y019279D02*
X017618Y019279D01*
X017618Y019120D02*
X017582Y019120D01*
X017582Y018962D02*
X017618Y018962D01*
X017618Y018803D02*
X017582Y018803D01*
X017582Y018645D02*
X017618Y018645D01*
X017368Y020071D02*
X020332Y020071D01*
X020173Y020230D02*
X017527Y020230D01*
X017685Y020388D02*
X020015Y020388D01*
X020062Y019874D02*
X019988Y019862D01*
X019917Y019839D01*
X019850Y019805D01*
X019789Y019761D01*
X019736Y019707D01*
X019692Y019647D01*
X019658Y019580D01*
X019635Y019509D01*
X019623Y019434D01*
X019623Y019118D01*
X020082Y019118D01*
X020082Y019874D01*
X020062Y019874D01*
X020082Y019754D02*
X020118Y019754D01*
X020118Y019596D02*
X020082Y019596D01*
X020082Y019437D02*
X020118Y019437D01*
X020118Y019279D02*
X020082Y019279D01*
X020082Y019120D02*
X020118Y019120D01*
X020118Y018962D02*
X020082Y018962D01*
X020082Y018803D02*
X020118Y018803D01*
X020118Y018645D02*
X020082Y018645D01*
X020082Y018486D02*
X020118Y018486D01*
X020118Y018328D02*
X020082Y018328D01*
X020055Y018328D02*
X019669Y018328D01*
X019743Y018486D02*
X019511Y018486D01*
X019529Y018645D02*
X019650Y018645D01*
X019623Y018803D02*
X019557Y018803D01*
X019557Y018962D02*
X019623Y018962D01*
X019623Y019120D02*
X019557Y019120D01*
X019557Y019279D02*
X019623Y019279D01*
X019624Y019437D02*
X019557Y019437D01*
X019512Y019596D02*
X019666Y019596D01*
X019783Y019754D02*
X019389Y019754D01*
X020550Y018645D02*
X026420Y018645D01*
X026433Y018486D02*
X020457Y018486D01*
X020577Y018803D02*
X026469Y018803D01*
X026441Y018962D02*
X024259Y018962D01*
X024417Y019120D02*
X026283Y019120D01*
X025935Y019279D02*
X024576Y019279D01*
X024734Y019437D02*
X025778Y019437D01*
X025740Y019596D02*
X024893Y019596D01*
X025051Y019754D02*
X025774Y019754D01*
X025067Y020864D02*
X015458Y020864D01*
X015520Y021022D02*
X025225Y021022D01*
X025384Y021181D02*
X015520Y021181D01*
X015455Y021339D02*
X025542Y021339D01*
X025701Y021498D02*
X015296Y021498D01*
X015299Y020705D02*
X017408Y020705D01*
X016637Y022766D02*
X015360Y022766D01*
X015518Y022924D02*
X016479Y022924D01*
X016320Y023083D02*
X015520Y023083D01*
X015538Y023241D02*
X016162Y023241D01*
X015420Y023717D02*
X010266Y023717D01*
X010280Y023558D02*
X015261Y023558D01*
X014806Y023400D02*
X010232Y023400D01*
X007784Y025619D02*
X000600Y025619D01*
X000600Y025777D02*
X007626Y025777D01*
X007467Y025936D02*
X000600Y025936D01*
X000600Y026094D02*
X007309Y026094D01*
X007150Y026253D02*
X000600Y026253D01*
X000600Y026411D02*
X006992Y026411D01*
X006833Y026570D02*
X000600Y026570D01*
X000600Y026728D02*
X006675Y026728D01*
X006516Y026887D02*
X000600Y026887D01*
X000600Y027045D02*
X006358Y027045D01*
X006635Y027362D02*
X007055Y027362D01*
X007213Y027204D02*
X006793Y027204D01*
X006952Y027045D02*
X007372Y027045D01*
X007530Y026887D02*
X007110Y026887D01*
X007269Y026728D02*
X007689Y026728D01*
X007934Y026570D02*
X007427Y026570D01*
X006896Y027521D02*
X006520Y027521D01*
X006520Y027679D02*
X006738Y027679D01*
X006579Y027838D02*
X006456Y027838D01*
X006421Y027996D02*
X006298Y027996D01*
X006262Y028155D02*
X005842Y028155D01*
X005684Y028313D02*
X006104Y028313D01*
X005945Y028472D02*
X005525Y028472D01*
X005248Y028155D02*
X000600Y028155D01*
X000600Y028313D02*
X005090Y028313D01*
X004931Y028472D02*
X000600Y028472D01*
X000600Y028630D02*
X004773Y028630D01*
X004614Y028789D02*
X004239Y028789D01*
X003406Y029581D02*
X000600Y029581D01*
X000600Y029423D02*
X002972Y029423D01*
X002870Y029264D02*
X000600Y029264D01*
X000600Y029106D02*
X002840Y029106D01*
X002865Y028947D02*
X000600Y028947D01*
X000600Y028789D02*
X002961Y028789D01*
X003010Y029740D02*
X000600Y029740D01*
X000600Y029898D02*
X002886Y029898D01*
X002840Y030057D02*
X000600Y030057D01*
X000600Y030215D02*
X002850Y030215D01*
X002923Y030374D02*
X000600Y030374D01*
X000600Y030532D02*
X003141Y030532D01*
X003047Y030691D02*
X000600Y030691D01*
X000600Y030849D02*
X002889Y030849D01*
X002829Y031008D02*
X000600Y031008D01*
X000600Y031166D02*
X002824Y031166D01*
X002876Y031325D02*
X000600Y031325D01*
X000600Y031483D02*
X003011Y031483D01*
X003580Y031483D02*
X003620Y031483D01*
X003620Y031580D02*
X003620Y031120D01*
X004380Y031120D01*
X004380Y031138D01*
X004368Y031212D01*
X004345Y031284D01*
X004311Y031352D01*
X004266Y031413D01*
X004213Y031466D01*
X004152Y031511D01*
X004084Y031545D01*
X004012Y031568D01*
X003938Y031580D01*
X003620Y031580D01*
X003620Y031325D02*
X003580Y031325D01*
X003580Y031166D02*
X003620Y031166D01*
X004189Y031483D02*
X005660Y031483D01*
X005660Y031418D02*
X005918Y031160D01*
X006100Y031160D01*
X006282Y031160D01*
X006540Y031418D01*
X006540Y031600D01*
X006540Y031782D01*
X006282Y032040D01*
X006100Y032040D01*
X006100Y031600D01*
X006100Y031600D01*
X006540Y031600D01*
X006100Y031600D01*
X006100Y031600D01*
X006100Y031600D01*
X005660Y031600D01*
X005660Y031782D01*
X005918Y032040D01*
X006100Y032040D01*
X006100Y031600D01*
X006100Y031160D01*
X006100Y031600D01*
X006100Y031600D01*
X005660Y031600D01*
X005660Y031418D01*
X005753Y031325D02*
X004324Y031325D01*
X004376Y031166D02*
X005912Y031166D01*
X006100Y031166D02*
X006100Y031166D01*
X006100Y031325D02*
X006100Y031325D01*
X006100Y031483D02*
X006100Y031483D01*
X006100Y031642D02*
X006100Y031642D01*
X006100Y031800D02*
X006100Y031800D01*
X006100Y031959D02*
X006100Y031959D01*
X006364Y031959D02*
X007046Y031959D01*
X007046Y032117D02*
X000600Y032117D01*
X000600Y031959D02*
X005836Y031959D01*
X005678Y031800D02*
X000600Y031800D01*
X000600Y031642D02*
X005660Y031642D01*
X006288Y031166D02*
X006383Y031166D01*
X006447Y031325D02*
X006541Y031325D01*
X006540Y031483D02*
X006700Y031483D01*
X006858Y031642D02*
X006540Y031642D01*
X006522Y031800D02*
X007017Y031800D01*
X007046Y032276D02*
X000600Y032276D01*
X000600Y032434D02*
X007046Y032434D01*
X007046Y032593D02*
X000600Y032593D01*
X000600Y032751D02*
X007046Y032751D01*
X007046Y032910D02*
X000600Y032910D01*
X000600Y033068D02*
X007046Y033068D01*
X007046Y033227D02*
X000600Y033227D01*
X000600Y033385D02*
X007046Y033385D01*
X007046Y033544D02*
X000600Y033544D01*
X000600Y033702D02*
X007046Y033702D01*
X007046Y033861D02*
X000600Y033861D01*
X000600Y034019D02*
X007046Y034019D01*
X007046Y034178D02*
X000600Y034178D01*
X000600Y034336D02*
X007046Y034336D01*
X007046Y034495D02*
X000600Y034495D01*
X000600Y034653D02*
X007046Y034653D01*
X007046Y034812D02*
X000600Y034812D01*
X000600Y034970D02*
X007046Y034970D01*
X007046Y035129D02*
X000600Y035129D01*
X000600Y035287D02*
X007046Y035287D01*
X007046Y035446D02*
X000600Y035446D01*
X000600Y035604D02*
X007046Y035604D01*
X007046Y035763D02*
X000600Y035763D01*
X000600Y035921D02*
X007046Y035921D01*
X007046Y036080D02*
X005758Y036080D01*
X005702Y036056D02*
X005905Y036140D01*
X006061Y036296D01*
X006145Y036500D01*
X006145Y036720D01*
X006061Y036923D01*
X005905Y037079D01*
X005702Y037164D01*
X005482Y037164D01*
X005278Y037079D01*
X005122Y036923D01*
X005038Y036720D01*
X005038Y036500D01*
X005122Y036296D01*
X005278Y036140D01*
X005482Y036056D01*
X005702Y036056D01*
X005425Y036080D02*
X002552Y036080D01*
X002528Y036066D02*
X002782Y036212D01*
X002988Y036418D01*
X003134Y036672D01*
X003210Y036954D01*
X003210Y037246D01*
X003134Y037528D01*
X002988Y037782D01*
X002782Y037988D01*
X002528Y038134D01*
X002246Y038210D01*
X001954Y038210D01*
X001672Y038134D01*
X001418Y037988D01*
X001212Y037782D01*
X001066Y037528D01*
X000990Y037246D01*
X000990Y036954D01*
X001066Y036672D01*
X001212Y036418D01*
X001418Y036212D01*
X001672Y036066D01*
X001954Y035990D01*
X002246Y035990D01*
X002528Y036066D01*
X002808Y036238D02*
X005180Y036238D01*
X005081Y036397D02*
X002966Y036397D01*
X003067Y036555D02*
X005038Y036555D01*
X005038Y036714D02*
X003146Y036714D01*
X003188Y036872D02*
X005101Y036872D01*
X005229Y037031D02*
X003210Y037031D01*
X003210Y037189D02*
X009390Y037189D01*
X009390Y037126D02*
X009278Y037079D01*
X009122Y036923D01*
X009038Y036720D01*
X009038Y036500D01*
X009122Y036296D01*
X009278Y036140D01*
X009482Y036056D01*
X009702Y036056D01*
X009905Y036140D01*
X010061Y036296D01*
X010145Y036500D01*
X010145Y036720D01*
X010061Y036923D01*
X009905Y037079D01*
X009810Y037119D01*
X009810Y037390D01*
X012013Y037390D01*
X012890Y036513D01*
X013013Y036390D01*
X013083Y036390D01*
X013122Y036296D01*
X013278Y036140D01*
X013482Y036056D01*
X013702Y036056D01*
X013905Y036140D01*
X014061Y036296D01*
X014145Y036500D01*
X014145Y036720D01*
X014061Y036923D01*
X013905Y037079D01*
X013702Y037164D01*
X013482Y037164D01*
X013278Y037079D01*
X013122Y036923D01*
X013108Y036889D01*
X012187Y037810D01*
X009513Y037810D01*
X009390Y037687D01*
X009390Y037126D01*
X009229Y037031D02*
X007961Y037031D01*
X008094Y036872D02*
X009101Y036872D01*
X009038Y036714D02*
X008152Y036714D01*
X008154Y036555D02*
X009038Y036555D01*
X009081Y036397D02*
X008154Y036397D01*
X008154Y036238D02*
X009180Y036238D01*
X009425Y036080D02*
X008154Y036080D01*
X008154Y035921D02*
X038990Y035921D01*
X038990Y035763D02*
X008154Y035763D01*
X008154Y035604D02*
X038990Y035604D01*
X038990Y035446D02*
X008154Y035446D01*
X008154Y035287D02*
X038990Y035287D01*
X038990Y035129D02*
X008154Y035129D01*
X008154Y034970D02*
X038990Y034970D01*
X038990Y034812D02*
X008154Y034812D01*
X008154Y034653D02*
X013356Y034653D01*
X013390Y034687D02*
X011663Y032960D01*
X011528Y032960D01*
X011396Y032905D01*
X011295Y032804D01*
X011240Y032672D01*
X011240Y032528D01*
X011295Y032396D01*
X011396Y032295D01*
X011468Y032265D01*
X011163Y031960D01*
X011028Y031960D01*
X010896Y031905D01*
X010795Y031804D01*
X010740Y031672D01*
X010740Y031528D01*
X010795Y031396D01*
X010896Y031295D01*
X011028Y031240D01*
X011172Y031240D01*
X011304Y031295D01*
X011441Y031483D02*
X016809Y031483D01*
X016911Y031643D02*
X017289Y031643D01*
X017557Y031911D01*
X017557Y032289D01*
X017289Y032557D01*
X016911Y032557D01*
X016643Y032289D01*
X016643Y031911D01*
X016911Y031643D01*
X016754Y031800D02*
X011597Y031800D01*
X011460Y031642D02*
X019884Y031642D01*
X019902Y031623D02*
X020082Y031623D01*
X020082Y032082D01*
X020118Y032082D01*
X020118Y032118D01*
X020577Y032118D01*
X020577Y032298D01*
X020298Y032577D01*
X020118Y032577D01*
X020118Y032118D01*
X020082Y032118D01*
X020082Y032082D01*
X019623Y032082D01*
X019623Y031902D01*
X019902Y031623D01*
X019902Y031577D02*
X019623Y031298D01*
X019623Y031118D01*
X020082Y031118D01*
X020082Y031082D01*
X020118Y031082D01*
X020118Y031118D01*
X020577Y031118D01*
X020577Y031298D01*
X020298Y031577D01*
X020118Y031577D01*
X020118Y031118D01*
X020082Y031118D01*
X020082Y031577D01*
X019902Y031577D01*
X019809Y031483D02*
X019391Y031483D01*
X019298Y031577D02*
X019577Y031298D01*
X019577Y031118D01*
X019118Y031118D01*
X019118Y031082D01*
X019577Y031082D01*
X019577Y030902D01*
X019298Y030623D01*
X019118Y030623D01*
X019118Y031082D01*
X019082Y031082D01*
X019082Y030623D01*
X018902Y030623D01*
X018623Y030902D01*
X018623Y031082D01*
X019082Y031082D01*
X019082Y031118D01*
X018623Y031118D01*
X018623Y031298D01*
X018902Y031577D01*
X019082Y031577D01*
X019082Y031118D01*
X019118Y031118D01*
X019118Y031577D01*
X019298Y031577D01*
X019289Y031643D02*
X019557Y031911D01*
X019557Y032289D01*
X019289Y032557D01*
X018911Y032557D01*
X018643Y032289D01*
X018643Y031911D01*
X018911Y031643D01*
X019289Y031643D01*
X019446Y031800D02*
X019726Y031800D01*
X019623Y031959D02*
X019557Y031959D01*
X019557Y032117D02*
X020082Y032117D01*
X020082Y032118D02*
X019623Y032118D01*
X019623Y032298D01*
X019902Y032577D01*
X020082Y032577D01*
X020082Y032118D01*
X020118Y032117D02*
X021082Y032117D01*
X021082Y032118D02*
X021082Y032082D01*
X021118Y032082D01*
X021118Y032118D01*
X021577Y032118D01*
X021577Y032298D01*
X021298Y032577D01*
X021118Y032577D01*
X021118Y032118D01*
X021082Y032118D01*
X020623Y032118D01*
X020623Y032298D01*
X020902Y032577D01*
X021082Y032577D01*
X021082Y032118D01*
X021082Y032082D02*
X020623Y032082D01*
X020623Y031902D01*
X020902Y031623D01*
X021082Y031623D01*
X021082Y032082D01*
X021118Y032082D02*
X021118Y031623D01*
X021298Y031623D01*
X021577Y031902D01*
X021577Y032082D01*
X021118Y032082D01*
X021118Y032117D02*
X021643Y032117D01*
X021643Y031959D02*
X021577Y031959D01*
X021474Y031800D02*
X021754Y031800D01*
X021837Y031483D02*
X021391Y031483D01*
X021298Y031577D02*
X021577Y031298D01*
X021577Y031118D01*
X021118Y031118D01*
X021118Y031082D01*
X021577Y031082D01*
X021577Y030902D01*
X021298Y030623D01*
X021118Y030623D01*
X021118Y031082D01*
X021082Y031082D01*
X021082Y030623D01*
X020902Y030623D01*
X020623Y030902D01*
X020623Y031082D01*
X021082Y031082D01*
X021082Y031118D01*
X020623Y031118D01*
X020623Y031298D01*
X020902Y031577D01*
X021082Y031577D01*
X021082Y031118D01*
X021118Y031118D01*
X021118Y031577D01*
X021298Y031577D01*
X021316Y031642D02*
X023884Y031642D01*
X023902Y031623D02*
X024082Y031623D01*
X024082Y032082D01*
X024118Y032082D01*
X024118Y032118D01*
X024577Y032118D01*
X024577Y032298D01*
X024298Y032577D01*
X024118Y032577D01*
X024118Y032118D01*
X024082Y032118D01*
X024082Y032082D01*
X023623Y032082D01*
X023623Y031902D01*
X023902Y031623D01*
X023911Y031557D02*
X023643Y031289D01*
X023643Y030911D01*
X023911Y030643D01*
X024289Y030643D01*
X024557Y030911D01*
X024557Y031289D01*
X024289Y031557D01*
X023911Y031557D01*
X023837Y031483D02*
X023363Y031483D01*
X023289Y031557D02*
X023557Y031289D01*
X023557Y030911D01*
X023289Y030643D01*
X022911Y030643D01*
X022643Y030911D01*
X022643Y031289D01*
X022911Y031557D01*
X023289Y031557D01*
X023446Y031800D02*
X023726Y031800D01*
X023623Y031959D02*
X023557Y031959D01*
X023557Y032117D02*
X024082Y032117D01*
X024082Y032118D02*
X023623Y032118D01*
X023623Y032298D01*
X023902Y032577D01*
X024082Y032577D01*
X024082Y032118D01*
X024118Y032117D02*
X025286Y032117D01*
X025444Y031959D02*
X024577Y031959D01*
X024577Y031902D02*
X024577Y032082D01*
X024118Y032082D01*
X024118Y031623D01*
X024298Y031623D01*
X024577Y031902D01*
X024474Y031800D02*
X025603Y031800D01*
X025761Y031642D02*
X024316Y031642D01*
X024363Y031483D02*
X025920Y031483D01*
X026078Y031325D02*
X024522Y031325D01*
X024557Y031166D02*
X026237Y031166D01*
X026395Y031008D02*
X024557Y031008D01*
X024495Y030849D02*
X026554Y030849D01*
X026712Y030691D02*
X024337Y030691D01*
X023863Y030691D02*
X023337Y030691D01*
X023495Y030849D02*
X023705Y030849D01*
X023643Y031008D02*
X023557Y031008D01*
X023557Y031166D02*
X023643Y031166D01*
X023678Y031325D02*
X023522Y031325D01*
X024082Y031642D02*
X024118Y031642D01*
X024118Y031800D02*
X024082Y031800D01*
X024082Y031959D02*
X024118Y031959D01*
X024118Y032276D02*
X024082Y032276D01*
X024082Y032434D02*
X024118Y032434D01*
X024440Y032434D02*
X024969Y032434D01*
X025127Y032276D02*
X024577Y032276D01*
X024810Y032593D02*
X023390Y032593D01*
X023412Y032434D02*
X023760Y032434D01*
X023623Y032276D02*
X023557Y032276D01*
X023548Y032751D02*
X024652Y032751D01*
X024929Y033068D02*
X025335Y033068D01*
X025493Y032910D02*
X025087Y032910D01*
X025246Y032751D02*
X025652Y032751D01*
X025810Y032593D02*
X025404Y032593D01*
X025563Y032434D02*
X025969Y032434D01*
X026127Y032276D02*
X025721Y032276D01*
X025880Y032117D02*
X026286Y032117D01*
X026444Y031959D02*
X026038Y031959D01*
X026197Y031800D02*
X026603Y031800D01*
X026761Y031642D02*
X026355Y031642D01*
X026514Y031483D02*
X026920Y031483D01*
X026672Y031325D02*
X027178Y031325D01*
X027143Y031166D02*
X026831Y031166D01*
X026989Y031008D02*
X027143Y031008D01*
X027460Y030643D02*
X027789Y030643D01*
X028057Y030911D01*
X028057Y031289D01*
X027956Y031390D01*
X028013Y031390D01*
X028143Y031260D01*
X028143Y030911D01*
X028411Y030643D01*
X028789Y030643D01*
X029057Y030911D01*
X029057Y031289D01*
X028789Y031557D01*
X028440Y031557D01*
X028187Y031810D01*
X027956Y031810D01*
X028057Y031911D01*
X028057Y032289D01*
X027789Y032557D01*
X027440Y032557D01*
X025187Y034810D01*
X013513Y034810D01*
X013390Y034687D01*
X013198Y034495D02*
X008154Y034495D01*
X008154Y034336D02*
X013039Y034336D01*
X012881Y034178D02*
X008154Y034178D01*
X008154Y034019D02*
X012722Y034019D01*
X012564Y033861D02*
X008154Y033861D01*
X008154Y033702D02*
X012405Y033702D01*
X012247Y033544D02*
X008154Y033544D01*
X008154Y033385D02*
X012088Y033385D01*
X011930Y033227D02*
X008154Y033227D01*
X008154Y033068D02*
X011771Y033068D01*
X011407Y032910D02*
X008154Y032910D01*
X008154Y032751D02*
X011273Y032751D01*
X011240Y032593D02*
X008154Y032593D01*
X008154Y032434D02*
X011279Y032434D01*
X011443Y032276D02*
X008154Y032276D01*
X008154Y032117D02*
X011320Y032117D01*
X011025Y031959D02*
X010227Y031959D01*
X010176Y031980D02*
X010024Y031980D01*
X009885Y031922D01*
X009778Y031815D01*
X009720Y031676D01*
X009720Y031524D01*
X009778Y031385D01*
X009885Y031278D01*
X010024Y031220D01*
X010176Y031220D01*
X010315Y031278D01*
X010422Y031385D01*
X010480Y031524D01*
X010480Y031676D01*
X010422Y031815D01*
X010315Y031922D01*
X010176Y031980D01*
X009973Y031959D02*
X008154Y031959D01*
X008154Y031800D02*
X009772Y031800D01*
X009720Y031642D02*
X008154Y031642D01*
X008151Y031483D02*
X009737Y031483D01*
X009838Y031325D02*
X008085Y031325D01*
X007632Y030849D02*
X008812Y030849D01*
X008726Y030691D02*
X007474Y030691D01*
X007315Y030532D02*
X008720Y030532D01*
X008789Y030374D02*
X007157Y030374D01*
X006998Y030215D02*
X016188Y030215D01*
X016346Y030057D02*
X006840Y030057D01*
X006681Y029898D02*
X009832Y029898D01*
X009845Y029911D02*
X009789Y029855D01*
X009746Y029789D01*
X009715Y029717D01*
X009700Y029639D01*
X009700Y029600D01*
X010100Y029600D01*
X010500Y029600D01*
X010500Y029639D01*
X010485Y029717D01*
X010454Y029789D01*
X010411Y029855D01*
X010355Y029911D01*
X010289Y029954D01*
X010217Y029985D01*
X010139Y030000D01*
X010100Y030000D01*
X010100Y029600D01*
X010100Y029600D01*
X010100Y029600D01*
X010500Y029600D01*
X010500Y029561D01*
X010485Y029483D01*
X010454Y029411D01*
X010411Y029345D01*
X010355Y029289D01*
X010289Y029246D01*
X010217Y029215D01*
X010139Y029200D01*
X010100Y029200D01*
X010100Y029600D01*
X010100Y029600D01*
X010100Y029600D01*
X010100Y030000D01*
X010061Y030000D01*
X009983Y029985D01*
X009911Y029954D01*
X009845Y029911D01*
X009725Y029740D02*
X006523Y029740D01*
X006386Y029581D02*
X009700Y029581D01*
X009700Y029600D02*
X009700Y029561D01*
X009715Y029483D01*
X009746Y029411D01*
X009789Y029345D01*
X009845Y029289D01*
X009911Y029246D01*
X009983Y029215D01*
X010061Y029200D01*
X010100Y029200D01*
X010100Y029600D01*
X009700Y029600D01*
X009741Y029423D02*
X006561Y029423D01*
X006719Y029264D02*
X009883Y029264D01*
X010100Y029264D02*
X010100Y029264D01*
X010100Y029423D02*
X010100Y029423D01*
X010100Y029581D02*
X010100Y029581D01*
X010100Y029740D02*
X010100Y029740D01*
X010100Y029898D02*
X010100Y029898D01*
X010368Y029898D02*
X016505Y029898D01*
X016784Y029581D02*
X010500Y029581D01*
X010475Y029740D02*
X016943Y029740D01*
X017195Y029898D02*
X023005Y029898D01*
X022846Y030057D02*
X017354Y030057D01*
X017512Y030215D02*
X022688Y030215D01*
X022529Y030374D02*
X017671Y030374D01*
X017829Y030532D02*
X022371Y030532D01*
X022648Y030849D02*
X022705Y030849D01*
X022643Y031008D02*
X022557Y031008D01*
X022557Y031166D02*
X022643Y031166D01*
X022678Y031325D02*
X022522Y031325D01*
X022363Y031483D02*
X022837Y031483D01*
X022754Y031800D02*
X022446Y031800D01*
X022557Y031959D02*
X022643Y031959D01*
X022643Y032117D02*
X022557Y032117D01*
X022573Y032276D02*
X022643Y032276D01*
X022296Y032593D02*
X015520Y032593D01*
X015520Y032751D02*
X022454Y032751D01*
X022918Y033160D02*
X023100Y033160D01*
X023282Y033160D01*
X023540Y033418D01*
X023540Y033600D01*
X023100Y033600D01*
X023100Y033600D01*
X023100Y033160D01*
X023100Y033600D01*
X023100Y033600D01*
X023100Y033600D01*
X022660Y033600D01*
X022660Y033418D01*
X022918Y033160D01*
X022851Y033227D02*
X021349Y033227D01*
X021282Y033160D02*
X021540Y033418D01*
X021540Y033600D01*
X021100Y033600D01*
X021100Y033600D01*
X021100Y033160D01*
X021282Y033160D01*
X021100Y033160D02*
X021100Y033600D01*
X021100Y033600D01*
X021100Y033600D01*
X020660Y033600D01*
X020660Y033418D01*
X020918Y033160D01*
X021100Y033160D01*
X021100Y033227D02*
X021100Y033227D01*
X021100Y033385D02*
X021100Y033385D01*
X021100Y033544D02*
X021100Y033544D01*
X020851Y033227D02*
X017321Y033227D01*
X017479Y033385D02*
X020693Y033385D01*
X020660Y033544D02*
X017520Y033544D01*
X017520Y033702D02*
X020660Y033702D01*
X020738Y033861D02*
X017433Y033861D01*
X016767Y033861D02*
X013658Y033861D01*
X013499Y033702D02*
X016680Y033702D01*
X016680Y033544D02*
X013341Y033544D01*
X013182Y033385D02*
X016721Y033385D01*
X016879Y033227D02*
X015313Y033227D01*
X015468Y033068D02*
X023271Y033068D01*
X023349Y033227D02*
X023430Y033227D01*
X023507Y033385D02*
X025018Y033385D01*
X025176Y033227D02*
X024770Y033227D01*
X024859Y033544D02*
X023540Y033544D01*
X023540Y033702D02*
X024701Y033702D01*
X024542Y033861D02*
X023462Y033861D01*
X023100Y033544D02*
X023100Y033544D01*
X023100Y033385D02*
X023100Y033385D01*
X023100Y033227D02*
X023100Y033227D01*
X023113Y032910D02*
X015520Y032910D01*
X015520Y032434D02*
X016788Y032434D01*
X016643Y032276D02*
X015520Y032276D01*
X015462Y032117D02*
X016643Y032117D01*
X016643Y031959D02*
X015277Y031959D01*
X014923Y031959D02*
X013277Y031959D01*
X013462Y032117D02*
X014738Y032117D01*
X014680Y032276D02*
X013520Y032276D01*
X013520Y032910D02*
X014680Y032910D01*
X014732Y033068D02*
X013468Y033068D01*
X013313Y033227D02*
X014887Y033227D01*
X012680Y032751D02*
X012548Y032751D01*
X012680Y032593D02*
X012390Y032593D01*
X012231Y032434D02*
X012680Y032434D01*
X012680Y032276D02*
X012073Y032276D01*
X011914Y032117D02*
X012738Y032117D01*
X012923Y031959D02*
X011756Y031959D01*
X010793Y031800D02*
X010428Y031800D01*
X010480Y031642D02*
X010740Y031642D01*
X010759Y031483D02*
X010463Y031483D01*
X010362Y031325D02*
X010866Y031325D01*
X010459Y029423D02*
X016626Y029423D01*
X016903Y029106D02*
X020680Y029106D01*
X020680Y029264D02*
X017061Y029264D01*
X017077Y030374D02*
X016623Y030374D01*
X016465Y030532D02*
X017235Y030532D01*
X017298Y030623D02*
X017577Y030902D01*
X017577Y031082D01*
X017118Y031082D01*
X017118Y030623D01*
X017298Y030623D01*
X017365Y030691D02*
X017394Y030691D01*
X017523Y030849D02*
X017552Y030849D01*
X017577Y031008D02*
X017643Y031008D01*
X017643Y031166D02*
X017577Y031166D01*
X017550Y031325D02*
X017678Y031325D01*
X017837Y031483D02*
X017391Y031483D01*
X017118Y031483D02*
X017082Y031483D01*
X017082Y031325D02*
X017118Y031325D01*
X017118Y031166D02*
X017082Y031166D01*
X017082Y031008D02*
X017118Y031008D01*
X017118Y030849D02*
X017082Y030849D01*
X017082Y030691D02*
X017118Y030691D01*
X016835Y030691D02*
X016306Y030691D01*
X017446Y031800D02*
X017754Y031800D01*
X017643Y031911D02*
X017911Y031643D01*
X018289Y031643D01*
X018557Y031911D01*
X018557Y032289D01*
X018289Y032557D01*
X017911Y032557D01*
X017643Y032289D01*
X017643Y031911D01*
X017643Y031959D02*
X017557Y031959D01*
X017557Y032117D02*
X017643Y032117D01*
X017643Y032276D02*
X017557Y032276D01*
X017412Y032434D02*
X017788Y032434D01*
X018412Y032434D02*
X018788Y032434D01*
X018643Y032276D02*
X018557Y032276D01*
X018557Y032117D02*
X018643Y032117D01*
X018643Y031959D02*
X018557Y031959D01*
X018446Y031800D02*
X018754Y031800D01*
X018809Y031483D02*
X018363Y031483D01*
X018522Y031325D02*
X018650Y031325D01*
X018623Y031166D02*
X018557Y031166D01*
X018557Y031008D02*
X018623Y031008D01*
X018677Y030849D02*
X018495Y030849D01*
X018337Y030691D02*
X018835Y030691D01*
X019082Y030691D02*
X019118Y030691D01*
X019118Y030849D02*
X019082Y030849D01*
X019082Y031008D02*
X019118Y031008D01*
X019118Y031166D02*
X019082Y031166D01*
X019082Y031325D02*
X019118Y031325D01*
X019118Y031483D02*
X019082Y031483D01*
X019550Y031325D02*
X019650Y031325D01*
X019623Y031166D02*
X019577Y031166D01*
X019623Y031082D02*
X019623Y030902D01*
X019902Y030623D01*
X020082Y030623D01*
X020082Y031082D01*
X019623Y031082D01*
X019623Y031008D02*
X019577Y031008D01*
X019523Y030849D02*
X019677Y030849D01*
X019835Y030691D02*
X019365Y030691D01*
X020082Y030691D02*
X020118Y030691D01*
X020118Y030623D02*
X020298Y030623D01*
X020577Y030902D01*
X020577Y031082D01*
X020118Y031082D01*
X020118Y030623D01*
X020118Y030849D02*
X020082Y030849D01*
X020082Y031008D02*
X020118Y031008D01*
X020118Y031166D02*
X020082Y031166D01*
X020082Y031325D02*
X020118Y031325D01*
X020118Y031483D02*
X020082Y031483D01*
X020118Y031623D02*
X020298Y031623D01*
X020577Y031902D01*
X020577Y032082D01*
X020118Y032082D01*
X020118Y031623D01*
X020118Y031642D02*
X020082Y031642D01*
X020082Y031800D02*
X020118Y031800D01*
X020118Y031959D02*
X020082Y031959D01*
X020082Y032276D02*
X020118Y032276D01*
X020118Y032434D02*
X020082Y032434D01*
X019760Y032434D02*
X019412Y032434D01*
X019557Y032276D02*
X019623Y032276D01*
X020440Y032434D02*
X020760Y032434D01*
X020623Y032276D02*
X020577Y032276D01*
X020577Y031959D02*
X020623Y031959D01*
X020726Y031800D02*
X020474Y031800D01*
X020316Y031642D02*
X020884Y031642D01*
X020809Y031483D02*
X020391Y031483D01*
X020550Y031325D02*
X020650Y031325D01*
X020623Y031166D02*
X020577Y031166D01*
X020577Y031008D02*
X020623Y031008D01*
X020677Y030849D02*
X020523Y030849D01*
X020365Y030691D02*
X020835Y030691D01*
X021082Y030691D02*
X021118Y030691D01*
X021118Y030849D02*
X021082Y030849D01*
X021082Y031008D02*
X021118Y031008D01*
X021118Y031166D02*
X021082Y031166D01*
X021082Y031325D02*
X021118Y031325D01*
X021118Y031483D02*
X021082Y031483D01*
X021082Y031642D02*
X021118Y031642D01*
X021118Y031800D02*
X021082Y031800D01*
X021082Y031959D02*
X021118Y031959D01*
X021118Y032276D02*
X021082Y032276D01*
X021082Y032434D02*
X021118Y032434D01*
X021440Y032434D02*
X021788Y032434D01*
X021643Y032276D02*
X021577Y032276D01*
X021550Y031325D02*
X021678Y031325D01*
X021643Y031166D02*
X021577Y031166D01*
X021577Y031008D02*
X021643Y031008D01*
X021705Y030849D02*
X021523Y030849D01*
X021365Y030691D02*
X021863Y030691D01*
X022806Y030691D02*
X022863Y030691D01*
X022965Y030532D02*
X026740Y030532D01*
X026817Y030374D02*
X023123Y030374D01*
X022693Y033385D02*
X021507Y033385D01*
X021540Y033544D02*
X022660Y033544D01*
X022660Y033702D02*
X021540Y033702D01*
X021462Y033861D02*
X022738Y033861D01*
X021758Y036080D02*
X023925Y036080D01*
X023982Y036056D02*
X024202Y036056D01*
X024405Y036140D01*
X024561Y036296D01*
X024645Y036500D01*
X024645Y036720D01*
X024561Y036923D01*
X024405Y037079D01*
X024310Y037119D01*
X024310Y037390D01*
X030390Y037390D01*
X030390Y037126D01*
X030278Y037079D01*
X030122Y036923D01*
X030038Y036720D01*
X030038Y036500D01*
X030122Y036296D01*
X030278Y036140D01*
X030482Y036056D01*
X030702Y036056D01*
X030905Y036140D01*
X031061Y036296D01*
X031145Y036500D01*
X031145Y036720D01*
X031061Y036923D01*
X030905Y037079D01*
X030810Y037119D01*
X030810Y037687D01*
X030687Y037810D01*
X019013Y037810D01*
X018080Y036877D01*
X018061Y036923D01*
X017905Y037079D01*
X017702Y037164D01*
X017482Y037164D01*
X017278Y037079D01*
X017122Y036923D01*
X017038Y036720D01*
X017038Y036500D01*
X017122Y036296D01*
X017278Y036140D01*
X017482Y036056D01*
X017702Y036056D01*
X017905Y036140D01*
X018061Y036296D01*
X018100Y036390D01*
X018187Y036390D01*
X018310Y036513D01*
X019187Y037390D01*
X023890Y037390D01*
X023890Y037126D01*
X023778Y037079D01*
X023622Y036923D01*
X023538Y036720D01*
X023538Y036500D01*
X023622Y036296D01*
X023778Y036140D01*
X023982Y036056D01*
X024258Y036080D02*
X025925Y036080D01*
X025982Y036056D02*
X026202Y036056D01*
X026405Y036140D01*
X026561Y036296D01*
X026645Y036500D01*
X026645Y036720D01*
X026561Y036923D01*
X026405Y037079D01*
X026202Y037164D01*
X025982Y037164D01*
X025778Y037079D01*
X025622Y036923D01*
X025538Y036720D01*
X025538Y036500D01*
X025622Y036296D01*
X025778Y036140D01*
X025982Y036056D01*
X026258Y036080D02*
X027925Y036080D01*
X027982Y036056D02*
X028202Y036056D01*
X028405Y036140D01*
X028561Y036296D01*
X028645Y036500D01*
X028645Y036720D01*
X028561Y036923D01*
X028405Y037079D01*
X028202Y037164D01*
X027982Y037164D01*
X027778Y037079D01*
X027622Y036923D01*
X027538Y036720D01*
X027538Y036500D01*
X027622Y036296D01*
X027778Y036140D01*
X027982Y036056D01*
X028258Y036080D02*
X030425Y036080D01*
X030180Y036238D02*
X028503Y036238D01*
X028603Y036397D02*
X030081Y036397D01*
X030038Y036555D02*
X028645Y036555D01*
X028645Y036714D02*
X030038Y036714D01*
X030101Y036872D02*
X028582Y036872D01*
X028454Y037031D02*
X030229Y037031D01*
X030390Y037189D02*
X024310Y037189D01*
X024310Y037348D02*
X030390Y037348D01*
X030810Y037348D02*
X036017Y037348D01*
X035990Y037246D02*
X036066Y037528D01*
X036212Y037782D01*
X036418Y037988D01*
X036672Y038134D01*
X036954Y038210D01*
X037246Y038210D01*
X037528Y038134D01*
X037782Y037988D01*
X037988Y037782D01*
X038134Y037528D01*
X038210Y037246D01*
X038210Y036954D01*
X038134Y036672D01*
X037988Y036418D01*
X037782Y036212D01*
X037528Y036066D01*
X037246Y035990D01*
X036954Y035990D01*
X036672Y036066D01*
X036418Y036212D01*
X036212Y036418D01*
X036066Y036672D01*
X035990Y036954D01*
X035990Y037246D01*
X035990Y037189D02*
X030810Y037189D01*
X030954Y037031D02*
X032229Y037031D01*
X032278Y037079D02*
X032122Y036923D01*
X032038Y036720D01*
X032038Y036500D01*
X032122Y036296D01*
X032278Y036140D01*
X032482Y036056D01*
X032702Y036056D01*
X032905Y036140D01*
X033061Y036296D01*
X033145Y036500D01*
X033145Y036720D01*
X033061Y036923D01*
X032905Y037079D01*
X032702Y037164D01*
X032482Y037164D01*
X032278Y037079D01*
X032101Y036872D02*
X031082Y036872D01*
X031145Y036714D02*
X032038Y036714D01*
X032038Y036555D02*
X031145Y036555D01*
X031103Y036397D02*
X032081Y036397D01*
X032180Y036238D02*
X031003Y036238D01*
X030758Y036080D02*
X032425Y036080D01*
X032758Y036080D02*
X034425Y036080D01*
X034482Y036056D02*
X034278Y036140D01*
X034122Y036296D01*
X034038Y036500D01*
X034038Y036720D01*
X034122Y036923D01*
X034278Y037079D01*
X034482Y037164D01*
X034702Y037164D01*
X034905Y037079D01*
X035061Y036923D01*
X035145Y036720D01*
X035145Y036500D01*
X035061Y036296D01*
X034905Y036140D01*
X034702Y036056D01*
X034482Y036056D01*
X034758Y036080D02*
X036648Y036080D01*
X036392Y036238D02*
X035003Y036238D01*
X035103Y036397D02*
X036234Y036397D01*
X036133Y036555D02*
X035145Y036555D01*
X035145Y036714D02*
X036054Y036714D01*
X036012Y036872D02*
X035082Y036872D01*
X034954Y037031D02*
X035990Y037031D01*
X036060Y037506D02*
X030810Y037506D01*
X030810Y037665D02*
X036144Y037665D01*
X036253Y037823D02*
X002947Y037823D01*
X003056Y037665D02*
X009390Y037665D01*
X009390Y037506D02*
X003140Y037506D01*
X003183Y037348D02*
X009390Y037348D01*
X009810Y037348D02*
X012055Y037348D01*
X012214Y037189D02*
X009810Y037189D01*
X009954Y037031D02*
X011229Y037031D01*
X011278Y037079D02*
X011122Y036923D01*
X011038Y036720D01*
X011038Y036500D01*
X011122Y036296D01*
X011278Y036140D01*
X011482Y036056D01*
X011702Y036056D01*
X011905Y036140D01*
X012061Y036296D01*
X012145Y036500D01*
X012145Y036720D01*
X012061Y036923D01*
X011905Y037079D01*
X011702Y037164D01*
X011482Y037164D01*
X011278Y037079D01*
X011101Y036872D02*
X010082Y036872D01*
X010145Y036714D02*
X011038Y036714D01*
X011038Y036555D02*
X010145Y036555D01*
X010103Y036397D02*
X011081Y036397D01*
X011180Y036238D02*
X010003Y036238D01*
X009758Y036080D02*
X011425Y036080D01*
X011758Y036080D02*
X013425Y036080D01*
X013180Y036238D02*
X012003Y036238D01*
X012103Y036397D02*
X013006Y036397D01*
X012848Y036555D02*
X012145Y036555D01*
X012145Y036714D02*
X012689Y036714D01*
X012531Y036872D02*
X012082Y036872D01*
X011954Y037031D02*
X012372Y037031D01*
X012649Y037348D02*
X018551Y037348D01*
X018709Y037506D02*
X012491Y037506D01*
X012332Y037665D02*
X018868Y037665D01*
X019145Y037348D02*
X023890Y037348D01*
X023890Y037189D02*
X018986Y037189D01*
X018828Y037031D02*
X019229Y037031D01*
X019278Y037079D02*
X019122Y036923D01*
X019038Y036720D01*
X019038Y036500D01*
X019122Y036296D01*
X019278Y036140D01*
X019482Y036056D01*
X019702Y036056D01*
X019905Y036140D01*
X020061Y036296D01*
X020145Y036500D01*
X020145Y036720D01*
X020061Y036923D01*
X019905Y037079D01*
X019702Y037164D01*
X019482Y037164D01*
X019278Y037079D01*
X019101Y036872D02*
X018669Y036872D01*
X018511Y036714D02*
X019038Y036714D01*
X019038Y036555D02*
X018352Y036555D01*
X018194Y036397D02*
X019081Y036397D01*
X019180Y036238D02*
X018003Y036238D01*
X017758Y036080D02*
X019425Y036080D01*
X019758Y036080D02*
X021425Y036080D01*
X021482Y036056D02*
X021702Y036056D01*
X021905Y036140D01*
X022061Y036296D01*
X022145Y036500D01*
X022145Y036720D01*
X022061Y036923D01*
X021905Y037079D01*
X021702Y037164D01*
X021482Y037164D01*
X021278Y037079D01*
X021122Y036923D01*
X021038Y036720D01*
X021038Y036500D01*
X021122Y036296D01*
X021278Y036140D01*
X021482Y036056D01*
X021180Y036238D02*
X020003Y036238D01*
X020103Y036397D02*
X021081Y036397D01*
X021038Y036555D02*
X020145Y036555D01*
X020145Y036714D02*
X021038Y036714D01*
X021101Y036872D02*
X020082Y036872D01*
X019954Y037031D02*
X021229Y037031D01*
X021954Y037031D02*
X023729Y037031D01*
X023601Y036872D02*
X022082Y036872D01*
X022145Y036714D02*
X023538Y036714D01*
X023538Y036555D02*
X022145Y036555D01*
X022103Y036397D02*
X023581Y036397D01*
X023680Y036238D02*
X022003Y036238D01*
X024503Y036238D02*
X025680Y036238D01*
X025581Y036397D02*
X024603Y036397D01*
X024645Y036555D02*
X025538Y036555D01*
X025538Y036714D02*
X024645Y036714D01*
X024582Y036872D02*
X025601Y036872D01*
X025729Y037031D02*
X024454Y037031D01*
X026454Y037031D02*
X027729Y037031D01*
X027601Y036872D02*
X026582Y036872D01*
X026645Y036714D02*
X027538Y036714D01*
X027538Y036555D02*
X026645Y036555D01*
X026603Y036397D02*
X027581Y036397D01*
X027680Y036238D02*
X026503Y036238D01*
X025344Y034653D02*
X038990Y034653D01*
X038990Y034495D02*
X025502Y034495D01*
X025661Y034336D02*
X038990Y034336D01*
X038990Y034178D02*
X025819Y034178D01*
X025978Y034019D02*
X026925Y034019D01*
X026926Y034020D02*
X026680Y033774D01*
X026680Y033426D01*
X026926Y033180D01*
X027274Y033180D01*
X027520Y033426D01*
X027520Y033774D01*
X027274Y034020D01*
X026926Y034020D01*
X026767Y033861D02*
X026136Y033861D01*
X026295Y033702D02*
X026680Y033702D01*
X026680Y033544D02*
X026453Y033544D01*
X026612Y033385D02*
X026721Y033385D01*
X026770Y033227D02*
X026879Y033227D01*
X026929Y033068D02*
X038990Y033068D01*
X038990Y032910D02*
X027087Y032910D01*
X027246Y032751D02*
X038990Y032751D01*
X038990Y032593D02*
X027404Y032593D01*
X027912Y032434D02*
X028288Y032434D01*
X028411Y032557D02*
X028143Y032289D01*
X028143Y031911D01*
X028411Y031643D01*
X028789Y031643D01*
X029057Y031911D01*
X029057Y032289D01*
X028789Y032557D01*
X028411Y032557D01*
X028143Y032276D02*
X028057Y032276D01*
X028057Y032117D02*
X028143Y032117D01*
X028143Y031959D02*
X028057Y031959D01*
X028197Y031800D02*
X028254Y031800D01*
X028355Y031642D02*
X036450Y031642D01*
X036500Y031662D02*
X036296Y031578D01*
X036140Y031422D01*
X036056Y031218D01*
X036056Y030998D01*
X036140Y030795D01*
X036296Y030639D01*
X036500Y030555D01*
X036720Y030555D01*
X036923Y030639D01*
X037079Y030795D01*
X037164Y030998D01*
X037164Y031218D01*
X037079Y031422D01*
X036923Y031578D01*
X036720Y031662D01*
X036500Y031662D01*
X036769Y031642D02*
X038990Y031642D01*
X038990Y031800D02*
X031946Y031800D01*
X032057Y031911D02*
X031789Y031643D01*
X031411Y031643D01*
X031143Y031911D01*
X031143Y032289D01*
X031411Y032557D01*
X031789Y032557D01*
X032057Y032289D01*
X032057Y031911D01*
X032057Y031959D02*
X038990Y031959D01*
X038990Y032117D02*
X032057Y032117D01*
X032057Y032276D02*
X038990Y032276D01*
X038990Y032434D02*
X031912Y032434D01*
X031288Y032434D02*
X030912Y032434D01*
X030789Y032557D02*
X031057Y032289D01*
X031057Y031911D01*
X030789Y031643D01*
X030411Y031643D01*
X030143Y031911D01*
X030143Y032289D01*
X030411Y032557D01*
X030789Y032557D01*
X031057Y032276D02*
X031143Y032276D01*
X031143Y032117D02*
X031057Y032117D01*
X031057Y031959D02*
X031143Y031959D01*
X031254Y031800D02*
X030946Y031800D01*
X030789Y031557D02*
X030411Y031557D01*
X030143Y031289D01*
X030143Y030911D01*
X030411Y030643D01*
X030789Y030643D01*
X031057Y030911D01*
X031057Y031289D01*
X030789Y031557D01*
X030863Y031483D02*
X031337Y031483D01*
X031411Y031557D02*
X031143Y031289D01*
X031143Y030911D01*
X031411Y030643D01*
X031789Y030643D01*
X032057Y030911D01*
X032057Y031289D01*
X031789Y031557D01*
X031411Y031557D01*
X031178Y031325D02*
X031022Y031325D01*
X031057Y031166D02*
X031143Y031166D01*
X031143Y031008D02*
X031057Y031008D01*
X030995Y030849D02*
X031205Y030849D01*
X031363Y030691D02*
X030837Y030691D01*
X030363Y030691D02*
X029865Y030691D01*
X029798Y030623D02*
X030077Y030902D01*
X030077Y031082D01*
X029618Y031082D01*
X029618Y031118D01*
X030077Y031118D01*
X030077Y031298D01*
X029798Y031577D01*
X029618Y031577D01*
X029618Y031118D01*
X029582Y031118D01*
X029582Y031082D01*
X029618Y031082D01*
X029618Y030623D01*
X029798Y030623D01*
X029618Y030691D02*
X029582Y030691D01*
X029582Y030623D02*
X029582Y031082D01*
X029123Y031082D01*
X029123Y030902D01*
X029402Y030623D01*
X029582Y030623D01*
X029582Y030849D02*
X029618Y030849D01*
X029618Y031008D02*
X029582Y031008D01*
X029582Y031118D02*
X029123Y031118D01*
X029123Y031298D01*
X029402Y031577D01*
X029582Y031577D01*
X029582Y031118D01*
X029582Y031166D02*
X029618Y031166D01*
X029618Y031325D02*
X029582Y031325D01*
X029582Y031483D02*
X029618Y031483D01*
X029789Y031643D02*
X029411Y031643D01*
X029143Y031911D01*
X029143Y032289D01*
X029411Y032557D01*
X029789Y032557D01*
X030057Y032289D01*
X030057Y031911D01*
X029789Y031643D01*
X029891Y031483D02*
X030337Y031483D01*
X030178Y031325D02*
X030050Y031325D01*
X030077Y031166D02*
X030143Y031166D01*
X030143Y031008D02*
X030077Y031008D01*
X030023Y030849D02*
X030205Y030849D01*
X030187Y030310D02*
X027319Y030310D01*
X027405Y030396D01*
X027460Y030528D01*
X027460Y030643D01*
X027460Y030532D02*
X038990Y030532D01*
X038990Y030374D02*
X027383Y030374D01*
X027837Y030691D02*
X028363Y030691D01*
X028205Y030849D02*
X027995Y030849D01*
X028057Y031008D02*
X028143Y031008D01*
X028143Y031166D02*
X028057Y031166D01*
X028078Y031325D02*
X028022Y031325D01*
X028863Y031483D02*
X029309Y031483D01*
X029150Y031325D02*
X029022Y031325D01*
X029057Y031166D02*
X029123Y031166D01*
X029123Y031008D02*
X029057Y031008D01*
X028995Y030849D02*
X029177Y030849D01*
X029335Y030691D02*
X028837Y030691D01*
X028257Y029740D02*
X029890Y029740D01*
X029890Y029581D02*
X028310Y029581D01*
X028310Y029423D02*
X029890Y029423D01*
X029890Y029264D02*
X028310Y029264D01*
X028310Y029106D02*
X029890Y029106D01*
X029890Y028947D02*
X028310Y028947D01*
X028310Y028789D02*
X029890Y028789D01*
X029890Y028630D02*
X028310Y028630D01*
X028310Y028472D02*
X029890Y028472D01*
X029890Y028313D02*
X028310Y028313D01*
X028310Y028155D02*
X029890Y028155D01*
X029699Y027996D02*
X028310Y027996D01*
X028310Y027838D02*
X029484Y027838D01*
X029420Y027679D02*
X028310Y027679D01*
X028310Y027521D02*
X029420Y027521D01*
X029484Y027362D02*
X029602Y027244D01*
X029756Y027180D01*
X030716Y027362D02*
X030780Y027516D01*
X030780Y027684D01*
X030716Y027838D01*
X030598Y027956D01*
X030444Y028020D01*
X030310Y028020D01*
X030310Y030187D01*
X030187Y030310D01*
X030282Y030215D02*
X038990Y030215D01*
X038990Y030057D02*
X030310Y030057D01*
X030310Y029898D02*
X038990Y029898D01*
X038990Y029740D02*
X030310Y029740D01*
X030310Y029581D02*
X036304Y029581D01*
X036296Y029578D02*
X036140Y029422D01*
X036056Y029218D01*
X036056Y028998D01*
X036140Y028795D01*
X036296Y028639D01*
X036500Y028555D01*
X036720Y028555D01*
X036923Y028639D01*
X037079Y028795D01*
X037164Y028998D01*
X037164Y029218D01*
X037079Y029422D01*
X036923Y029578D01*
X036720Y029662D01*
X036500Y029662D01*
X036296Y029578D01*
X036141Y029423D02*
X032928Y029423D01*
X033060Y029291D02*
X032791Y029560D01*
X032610Y029560D01*
X032610Y029110D01*
X032590Y029110D01*
X032590Y029560D01*
X032409Y029560D01*
X032140Y029291D01*
X032140Y029110D01*
X032590Y029110D01*
X032590Y029090D01*
X032140Y029090D01*
X032140Y028909D01*
X032409Y028640D01*
X032590Y028640D01*
X032590Y029090D01*
X032610Y029090D01*
X032610Y029110D01*
X033060Y029110D01*
X033060Y029291D01*
X033060Y029264D02*
X036075Y029264D01*
X036056Y029106D02*
X032610Y029106D01*
X032610Y029090D02*
X033060Y029090D01*
X033060Y028909D01*
X032791Y028640D01*
X032610Y028640D01*
X032610Y029090D01*
X032590Y029106D02*
X030310Y029106D01*
X030310Y029264D02*
X032140Y029264D01*
X032272Y029423D02*
X030310Y029423D01*
X030310Y028947D02*
X032140Y028947D01*
X032261Y028789D02*
X030310Y028789D01*
X030310Y028630D02*
X036318Y028630D01*
X036147Y028789D02*
X032939Y028789D01*
X033060Y028947D02*
X036077Y028947D01*
X036902Y028630D02*
X038990Y028630D01*
X038990Y028472D02*
X030310Y028472D01*
X030310Y028313D02*
X038990Y028313D01*
X038990Y028155D02*
X030310Y028155D01*
X030501Y027996D02*
X038990Y027996D01*
X038990Y027838D02*
X030716Y027838D01*
X030780Y027679D02*
X038990Y027679D01*
X038990Y027521D02*
X030780Y027521D01*
X030762Y026728D02*
X036060Y026728D01*
X036056Y026570D02*
X030780Y026570D01*
X030736Y026411D02*
X032289Y026411D01*
X032160Y026253D02*
X030607Y026253D01*
X029582Y025936D02*
X029561Y025936D01*
X029284Y025619D02*
X027780Y025619D01*
X027757Y025460D02*
X029443Y025460D01*
X029390Y025513D02*
X029390Y025513D01*
X029544Y025302D02*
X027656Y025302D01*
X027529Y024985D02*
X029671Y024985D01*
X029479Y024826D02*
X027721Y024826D01*
X027780Y024668D02*
X029371Y024668D01*
X029212Y024509D02*
X027777Y024509D01*
X027705Y024351D02*
X028341Y024351D01*
X028248Y024192D02*
X027473Y024192D01*
X027679Y023875D02*
X028078Y023875D01*
X027920Y023717D02*
X027766Y023717D01*
X028237Y024034D02*
X025463Y024034D01*
X025305Y024192D02*
X026727Y024192D01*
X026495Y024351D02*
X024997Y024351D01*
X025057Y024509D02*
X025394Y024509D01*
X025235Y024668D02*
X025057Y024668D01*
X025077Y024826D02*
X025020Y024826D01*
X024918Y024985D02*
X024862Y024985D01*
X024760Y025143D02*
X023440Y025143D01*
X023338Y024985D02*
X023282Y024985D01*
X023180Y024826D02*
X023123Y024826D01*
X023143Y024668D02*
X023057Y024668D01*
X023057Y024509D02*
X023143Y024509D01*
X023203Y024351D02*
X022997Y024351D01*
X022838Y024192D02*
X023362Y024192D01*
X023411Y024057D02*
X023143Y023789D01*
X023143Y023411D01*
X023411Y023143D01*
X023789Y023143D01*
X024057Y023411D01*
X024057Y023789D01*
X023789Y024057D01*
X023411Y024057D01*
X023387Y024034D02*
X022813Y024034D01*
X022789Y024057D02*
X022411Y024057D01*
X022143Y023789D01*
X022143Y023411D01*
X022411Y023143D01*
X022789Y023143D01*
X023057Y023411D01*
X023057Y023789D01*
X022789Y024057D01*
X022971Y023875D02*
X023229Y023875D01*
X023143Y023717D02*
X023057Y023717D01*
X023057Y023558D02*
X023143Y023558D01*
X023154Y023400D02*
X023046Y023400D01*
X022887Y023241D02*
X023313Y023241D01*
X023887Y023241D02*
X024285Y023241D01*
X024402Y023123D02*
X024582Y023123D01*
X024582Y023582D01*
X024123Y023582D01*
X024123Y023402D01*
X024402Y023123D01*
X024582Y023241D02*
X024618Y023241D01*
X024618Y023123D02*
X024798Y023123D01*
X025077Y023402D01*
X025077Y023582D01*
X024618Y023582D01*
X024618Y023123D01*
X024618Y023400D02*
X024582Y023400D01*
X024582Y023558D02*
X024618Y023558D01*
X024915Y023241D02*
X025444Y023241D01*
X025503Y023400D02*
X025074Y023400D01*
X025077Y023558D02*
X025345Y023558D01*
X025186Y023717D02*
X025077Y023717D01*
X025028Y023875D02*
X024999Y023875D01*
X025622Y023875D02*
X026521Y023875D01*
X026479Y024826D02*
X025671Y024826D01*
X025512Y024985D02*
X026671Y024985D01*
X026544Y025302D02*
X025311Y025302D01*
X025354Y025143D02*
X036454Y025143D01*
X036766Y025143D02*
X038990Y025143D01*
X038990Y024985D02*
X037017Y024985D01*
X037119Y024826D02*
X038990Y024826D01*
X038990Y024668D02*
X037164Y024668D01*
X037164Y024509D02*
X038990Y024509D01*
X038990Y024351D02*
X037102Y024351D01*
X036977Y024192D02*
X038990Y024192D01*
X038990Y024034D02*
X029331Y024034D01*
X029489Y024192D02*
X029727Y024192D01*
X029521Y023875D02*
X029172Y023875D01*
X029014Y023717D02*
X029434Y023717D01*
X029420Y023558D02*
X028855Y023558D01*
X028697Y023400D02*
X029468Y023400D01*
X029054Y024351D02*
X028859Y024351D01*
X029126Y025777D02*
X027741Y025777D01*
X027618Y025936D02*
X028967Y025936D01*
X028809Y026094D02*
X024020Y026094D01*
X024020Y025936D02*
X024969Y025936D01*
X024784Y025777D02*
X024720Y025777D01*
X025231Y025936D02*
X026582Y025936D01*
X026593Y026253D02*
X024020Y026253D01*
X023883Y026411D02*
X025492Y026411D01*
X025333Y026570D02*
X023427Y026570D01*
X023269Y026728D02*
X025175Y026728D01*
X025016Y026887D02*
X023110Y026887D01*
X022952Y027045D02*
X024858Y027045D01*
X025452Y027045D02*
X027890Y027045D01*
X027890Y027204D02*
X027500Y027204D01*
X027444Y027180D02*
X027598Y027244D01*
X027716Y027362D01*
X027890Y027362D01*
X027890Y027521D02*
X027780Y027521D01*
X027780Y027516D02*
X027780Y027684D01*
X027716Y027838D01*
X027598Y027956D01*
X027444Y028020D01*
X026756Y028020D01*
X027501Y027996D02*
X027890Y027996D01*
X027890Y027838D02*
X027716Y027838D01*
X027780Y027679D02*
X027890Y027679D01*
X027780Y027516D02*
X027716Y027362D01*
X027444Y027180D02*
X026756Y027180D01*
X026533Y026887D02*
X025610Y026887D01*
X024601Y025302D02*
X023599Y025302D01*
X023862Y024985D02*
X024338Y024985D01*
X024180Y024826D02*
X024020Y024826D01*
X024057Y024668D02*
X024143Y024668D01*
X024143Y024509D02*
X024057Y024509D01*
X024146Y024351D02*
X024203Y024351D01*
X023869Y024034D02*
X023813Y024034D01*
X023971Y023875D02*
X024201Y023875D01*
X024123Y023717D02*
X024057Y023717D01*
X024057Y023558D02*
X024123Y023558D01*
X024126Y023400D02*
X024046Y023400D01*
X025127Y022924D02*
X022073Y022924D01*
X021914Y023083D02*
X025286Y023083D01*
X025563Y022766D02*
X026454Y022766D01*
X026420Y022607D02*
X025404Y022607D01*
X025246Y022449D02*
X026448Y022449D01*
X026507Y021339D02*
X026348Y021339D01*
X025978Y021181D02*
X026755Y021181D01*
X026519Y018328D02*
X020145Y018328D01*
X019640Y023241D02*
X019544Y023241D01*
X019544Y023400D02*
X019640Y023400D01*
X019640Y023558D02*
X019544Y023558D01*
X019544Y023717D02*
X019640Y023717D01*
X019640Y023875D02*
X019544Y023875D01*
X019544Y024034D02*
X019640Y024034D01*
X020488Y024509D02*
X022143Y024509D01*
X022203Y024351D02*
X020646Y024351D01*
X020805Y024192D02*
X022362Y024192D01*
X022387Y024034D02*
X020963Y024034D01*
X021122Y023875D02*
X022229Y023875D01*
X022143Y023717D02*
X021280Y023717D01*
X021439Y023558D02*
X022143Y023558D01*
X022154Y023400D02*
X021597Y023400D01*
X021756Y023241D02*
X022313Y023241D01*
X022338Y024985D02*
X000600Y024985D01*
X000600Y025143D02*
X022846Y025143D01*
X027607Y026253D02*
X028650Y026253D01*
X028492Y026411D02*
X027736Y026411D01*
X027780Y026570D02*
X028333Y026570D01*
X028175Y026728D02*
X027762Y026728D01*
X027667Y026887D02*
X028016Y026887D01*
X031837Y030691D02*
X036245Y030691D01*
X036118Y030849D02*
X031995Y030849D01*
X032057Y031008D02*
X036056Y031008D01*
X036056Y031166D02*
X032057Y031166D01*
X032022Y031325D02*
X036100Y031325D01*
X036202Y031483D02*
X031863Y031483D01*
X030254Y031800D02*
X029946Y031800D01*
X030057Y031959D02*
X030143Y031959D01*
X030143Y032117D02*
X030057Y032117D01*
X030057Y032276D02*
X030143Y032276D01*
X030288Y032434D02*
X029912Y032434D01*
X029288Y032434D02*
X028912Y032434D01*
X029057Y032276D02*
X029143Y032276D01*
X029143Y032117D02*
X029057Y032117D01*
X029057Y031959D02*
X029143Y031959D01*
X029254Y031800D02*
X028946Y031800D01*
X029418Y033160D02*
X029600Y033160D01*
X029782Y033160D01*
X030040Y033418D01*
X030040Y033600D01*
X030040Y033782D01*
X029782Y034040D01*
X029600Y034040D01*
X029600Y033600D01*
X030040Y033600D01*
X029600Y033600D01*
X029600Y033600D01*
X029600Y033600D01*
X029600Y033160D01*
X029600Y033600D01*
X029600Y033600D01*
X029600Y033600D01*
X029160Y033600D01*
X029160Y033782D01*
X029418Y034040D01*
X029600Y034040D01*
X029600Y033600D01*
X029160Y033600D01*
X029160Y033418D01*
X029418Y033160D01*
X029351Y033227D02*
X027321Y033227D01*
X027479Y033385D02*
X029193Y033385D01*
X029160Y033544D02*
X027520Y033544D01*
X027520Y033702D02*
X029160Y033702D01*
X029238Y033861D02*
X027433Y033861D01*
X027275Y034019D02*
X029397Y034019D01*
X029600Y034019D02*
X029600Y034019D01*
X029600Y033861D02*
X029600Y033861D01*
X029600Y033702D02*
X029600Y033702D01*
X029600Y033544D02*
X029600Y033544D01*
X029600Y033385D02*
X029600Y033385D01*
X029600Y033227D02*
X029600Y033227D01*
X029849Y033227D02*
X033379Y033227D01*
X033426Y033180D02*
X033774Y033180D01*
X034020Y033426D01*
X034020Y033774D01*
X033774Y034020D01*
X033426Y034020D01*
X033180Y033774D01*
X033180Y033426D01*
X033426Y033180D01*
X033221Y033385D02*
X030007Y033385D01*
X030040Y033544D02*
X033180Y033544D01*
X033180Y033702D02*
X030040Y033702D01*
X029962Y033861D02*
X033267Y033861D01*
X033425Y034019D02*
X029803Y034019D01*
X033003Y036238D02*
X034180Y036238D01*
X034081Y036397D02*
X033103Y036397D01*
X033145Y036555D02*
X034038Y036555D01*
X034038Y036714D02*
X033145Y036714D01*
X033082Y036872D02*
X034101Y036872D01*
X034229Y037031D02*
X032954Y037031D01*
X033775Y034019D02*
X038990Y034019D01*
X038990Y033861D02*
X033933Y033861D01*
X034020Y033702D02*
X038990Y033702D01*
X038990Y033544D02*
X034020Y033544D01*
X033979Y033385D02*
X038990Y033385D01*
X038990Y033227D02*
X033821Y033227D01*
X037018Y031483D02*
X038990Y031483D01*
X038990Y031325D02*
X037120Y031325D01*
X037164Y031166D02*
X038990Y031166D01*
X038990Y031008D02*
X037164Y031008D01*
X037102Y030849D02*
X038990Y030849D01*
X038990Y030691D02*
X036975Y030691D01*
X036915Y029581D02*
X038990Y029581D01*
X038990Y029423D02*
X037079Y029423D01*
X037145Y029264D02*
X038990Y029264D01*
X038990Y029106D02*
X037164Y029106D01*
X037142Y028947D02*
X038990Y028947D01*
X038990Y028789D02*
X037073Y028789D01*
X036956Y027045D02*
X038990Y027045D01*
X038990Y026887D02*
X037094Y026887D01*
X037160Y026728D02*
X038990Y026728D01*
X038990Y026570D02*
X037164Y026570D01*
X037127Y026411D02*
X038990Y026411D01*
X038990Y026253D02*
X037037Y026253D01*
X036815Y026094D02*
X038990Y026094D01*
X038990Y025936D02*
X033040Y025936D01*
X033040Y026094D02*
X036405Y026094D01*
X036183Y026253D02*
X033040Y026253D01*
X032911Y026411D02*
X036092Y026411D01*
X036853Y022607D02*
X038990Y022607D01*
X038990Y022449D02*
X037053Y022449D01*
X037134Y022290D02*
X038990Y022290D01*
X038990Y022132D02*
X037164Y022132D01*
X037153Y021973D02*
X038990Y021973D01*
X038990Y021815D02*
X037087Y021815D01*
X036849Y016109D02*
X037390Y016109D01*
X037390Y015950D02*
X037051Y015950D01*
X037133Y015792D02*
X037390Y015792D01*
X037390Y015633D02*
X037164Y015633D01*
X037154Y015475D02*
X037390Y015475D01*
X037390Y015316D02*
X037088Y015316D01*
X036942Y015158D02*
X037390Y015158D01*
X029378Y008501D02*
X028322Y008501D01*
X028100Y008501D02*
X028100Y008501D01*
X028100Y008342D02*
X028100Y008342D01*
X028100Y008184D02*
X028100Y008184D01*
X028100Y008025D02*
X028100Y008025D01*
X028100Y007867D02*
X028100Y007867D01*
X028100Y007708D02*
X028100Y007708D01*
X028330Y007708D02*
X029370Y007708D01*
X029211Y007867D02*
X028489Y007867D01*
X028540Y008025D02*
X029160Y008025D01*
X029160Y008184D02*
X028540Y008184D01*
X028480Y008342D02*
X029220Y008342D01*
X018782Y004063D02*
X017415Y004063D01*
X017578Y003904D02*
X018627Y003904D01*
X011100Y004309D02*
X011100Y004919D01*
X011100Y004919D01*
X011100Y004309D01*
X011100Y004380D02*
X011100Y004380D01*
X011100Y004538D02*
X011100Y004538D01*
X011100Y004697D02*
X011100Y004697D01*
X011100Y004855D02*
X011100Y004855D01*
X011100Y005014D02*
X011100Y005014D01*
X011100Y005172D02*
X011100Y005172D01*
X011100Y005331D02*
X011100Y005331D01*
X011100Y005489D02*
X011100Y005489D01*
X014557Y011354D02*
X004976Y011354D01*
X005040Y011512D02*
X014715Y011512D01*
X014874Y011671D02*
X005040Y011671D01*
X004993Y011829D02*
X015032Y011829D01*
X005902Y027204D02*
X000600Y027204D01*
X000600Y027362D02*
X005744Y027362D01*
X005680Y027521D02*
X000600Y027521D01*
X000600Y027679D02*
X005680Y027679D01*
X005565Y027838D02*
X000600Y027838D01*
X000600Y027996D02*
X005407Y027996D01*
X006878Y029106D02*
X012735Y029106D01*
X012668Y028947D02*
X007036Y028947D01*
X007195Y028789D02*
X012660Y028789D01*
X012660Y028630D02*
X007353Y028630D01*
X007512Y028472D02*
X012660Y028472D01*
X012660Y028313D02*
X007670Y028313D01*
X007829Y028155D02*
X012701Y028155D01*
X012825Y027996D02*
X007987Y027996D01*
X010317Y029264D02*
X012924Y029264D01*
X006224Y031008D02*
X004371Y031008D01*
X004311Y030849D02*
X006066Y030849D01*
X005907Y030691D02*
X004153Y030691D01*
X006003Y036238D02*
X007046Y036238D01*
X007046Y036397D02*
X006103Y036397D01*
X006145Y036555D02*
X007031Y036555D01*
X007038Y036714D02*
X006145Y036714D01*
X006082Y036872D02*
X007101Y036872D01*
X007229Y037031D02*
X005954Y037031D01*
X002788Y037982D02*
X036412Y037982D01*
X036693Y038140D02*
X002507Y038140D01*
X001693Y038140D02*
X000600Y038140D01*
X000600Y037982D02*
X001412Y037982D01*
X001253Y037823D02*
X000600Y037823D01*
X000600Y037665D02*
X001144Y037665D01*
X001060Y037506D02*
X000600Y037506D01*
X000600Y037348D02*
X001017Y037348D01*
X000990Y037189D02*
X000600Y037189D01*
X000600Y037031D02*
X000990Y037031D01*
X001012Y036872D02*
X000600Y036872D01*
X000600Y036714D02*
X001054Y036714D01*
X001133Y036555D02*
X000600Y036555D01*
X000600Y036397D02*
X001234Y036397D01*
X001392Y036238D02*
X000600Y036238D01*
X000600Y036080D02*
X001648Y036080D01*
X000600Y038299D02*
X038990Y038299D01*
X038990Y038457D02*
X000600Y038457D01*
X000600Y038616D02*
X038990Y038616D01*
X038990Y038774D02*
X000600Y038774D01*
X000600Y038933D02*
X038990Y038933D01*
X038990Y038140D02*
X037507Y038140D01*
X037788Y037982D02*
X038990Y037982D01*
X038990Y037823D02*
X037947Y037823D01*
X038056Y037665D02*
X038990Y037665D01*
X038990Y037506D02*
X038140Y037506D01*
X038183Y037348D02*
X038990Y037348D01*
X038990Y037189D02*
X038210Y037189D01*
X038210Y037031D02*
X038990Y037031D01*
X038990Y036872D02*
X038188Y036872D01*
X038146Y036714D02*
X038990Y036714D01*
X038990Y036555D02*
X038067Y036555D01*
X037966Y036397D02*
X038990Y036397D01*
X038990Y036238D02*
X037808Y036238D01*
X037552Y036080D02*
X038990Y036080D01*
X032610Y029423D02*
X032590Y029423D01*
X032590Y029264D02*
X032610Y029264D01*
X032590Y028947D02*
X032610Y028947D01*
X032610Y028789D02*
X032590Y028789D01*
X018392Y037189D02*
X012808Y037189D01*
X012966Y037031D02*
X013229Y037031D01*
X013954Y037031D02*
X015229Y037031D01*
X015278Y037079D02*
X015122Y036923D01*
X015038Y036720D01*
X015038Y036500D01*
X015122Y036296D01*
X015278Y036140D01*
X015482Y036056D01*
X015702Y036056D01*
X015905Y036140D01*
X016061Y036296D01*
X016145Y036500D01*
X016145Y036720D01*
X016061Y036923D01*
X015905Y037079D01*
X015702Y037164D01*
X015482Y037164D01*
X015278Y037079D01*
X015101Y036872D02*
X014082Y036872D01*
X014145Y036714D02*
X015038Y036714D01*
X015038Y036555D02*
X014145Y036555D01*
X014103Y036397D02*
X015081Y036397D01*
X015180Y036238D02*
X014003Y036238D01*
X013758Y036080D02*
X015425Y036080D01*
X015758Y036080D02*
X017425Y036080D01*
X017180Y036238D02*
X016003Y036238D01*
X016103Y036397D02*
X017081Y036397D01*
X017038Y036555D02*
X016145Y036555D01*
X016145Y036714D02*
X017038Y036714D01*
X017101Y036872D02*
X016082Y036872D01*
X015954Y037031D02*
X017229Y037031D01*
X017954Y037031D02*
X018234Y037031D01*
D22*
X018100Y036600D02*
X017600Y036600D01*
X017592Y036610D01*
X018100Y036600D02*
X019100Y037600D01*
X024100Y037600D01*
X030600Y037600D01*
X030600Y036600D01*
X030592Y036610D01*
X027600Y032100D02*
X025100Y034600D01*
X013600Y034600D01*
X011600Y032600D01*
X011100Y031600D02*
X013600Y034100D01*
X024600Y034100D01*
X027100Y031600D01*
X028100Y031600D01*
X028600Y031100D01*
X028100Y029600D02*
X017100Y029600D01*
X016100Y028600D01*
X016100Y025600D01*
X008100Y025600D01*
X006100Y027600D01*
X004600Y029100D01*
X003600Y029100D01*
X006100Y024600D02*
X001100Y019600D01*
X001100Y008600D01*
X001600Y008600D01*
X002100Y008100D01*
X002600Y008100D01*
X004100Y008100D01*
X004600Y007600D01*
X011100Y007600D02*
X011100Y007281D01*
X011100Y007600D02*
X011600Y007600D01*
X011600Y008100D01*
X017100Y013600D01*
X017100Y017100D02*
X030600Y017100D01*
X031100Y016600D01*
X031100Y015600D01*
X030100Y015600D01*
X030100Y016600D02*
X029600Y016600D01*
X028100Y015100D01*
X005600Y015100D01*
X005600Y021100D01*
X006100Y021600D01*
X006600Y021600D01*
X006600Y020600D02*
X008600Y020600D01*
X009100Y020100D01*
X010600Y020100D01*
X012600Y018100D01*
X016100Y018100D01*
X017100Y017100D01*
X016600Y019100D02*
X016600Y019600D01*
X017600Y020600D01*
X020100Y020600D01*
X021600Y019100D01*
X024100Y019100D01*
X025100Y020100D01*
X029100Y020100D01*
X029600Y019600D01*
X030100Y019600D01*
X029600Y019100D02*
X031100Y019100D01*
X034600Y015600D01*
X036600Y015600D01*
X036610Y015608D01*
X036100Y013600D02*
X034100Y011600D01*
X030100Y011600D01*
X029600Y012100D01*
X029100Y011100D02*
X034100Y011100D01*
X034600Y010600D01*
X034600Y010100D01*
X033600Y009100D02*
X031600Y009100D01*
X031100Y009600D01*
X031100Y010100D01*
X028600Y010100D01*
X026100Y012600D01*
X026100Y013600D02*
X025100Y014600D01*
X004600Y014600D01*
X003600Y015600D01*
X002600Y015600D01*
X006100Y024600D02*
X020100Y024600D01*
X022100Y022600D01*
X025100Y022600D01*
X025600Y023100D01*
X027600Y023100D01*
X028600Y024100D01*
X028100Y023100D02*
X028100Y022100D01*
X017600Y022100D01*
X016100Y023600D01*
X015600Y023600D01*
X015100Y023100D01*
X016100Y023600D02*
X017600Y023600D01*
X017592Y023610D01*
X019100Y027100D02*
X022600Y027100D01*
X023600Y026100D01*
X023600Y025600D02*
X022600Y024600D01*
X023600Y024600D02*
X024100Y024100D01*
X025100Y024100D01*
X025600Y023600D01*
X027100Y023600D01*
X027100Y024600D02*
X025600Y024600D01*
X024600Y025600D01*
X023600Y025600D01*
X025100Y025600D02*
X027100Y025600D01*
X027100Y026600D02*
X025600Y026600D01*
X023600Y028600D01*
X023100Y030100D02*
X022100Y031100D01*
X022100Y032100D02*
X022600Y032600D01*
X023100Y032600D01*
X023600Y033100D01*
X024600Y033100D01*
X027100Y030600D01*
X028100Y029600D02*
X028100Y027100D01*
X029600Y025600D01*
X030100Y025600D01*
X030100Y024600D02*
X029600Y024600D01*
X028100Y023100D01*
X030100Y022600D02*
X032600Y022600D01*
X032600Y021600D01*
X029600Y019100D02*
X029100Y019600D01*
X027100Y019600D01*
X026600Y019100D02*
X028600Y019100D01*
X029600Y018100D01*
X030600Y018100D01*
X031600Y017100D01*
X031600Y013600D01*
X031100Y013600D01*
X030100Y014600D01*
X029100Y015100D02*
X027600Y013600D01*
X026100Y013600D01*
X025600Y014600D02*
X027100Y014600D01*
X027100Y015600D02*
X023600Y015600D01*
X023100Y016100D01*
X024100Y019600D02*
X026100Y021600D01*
X026100Y019600D02*
X026600Y019100D01*
X027600Y018100D02*
X019600Y018100D01*
X019100Y018600D01*
X019100Y019100D01*
X019100Y027100D02*
X019100Y028100D01*
X017100Y030100D02*
X018100Y031100D01*
X017100Y030100D02*
X016600Y030100D01*
X016100Y030600D01*
X009100Y030600D01*
X013100Y032600D02*
X015100Y032600D01*
X013600Y036600D02*
X013100Y036600D01*
X012100Y037600D01*
X009600Y037600D01*
X009600Y036600D01*
X009592Y036610D01*
X013592Y036610D02*
X013600Y036600D01*
X023100Y030100D02*
X030100Y030100D01*
X030100Y027600D01*
X036600Y020100D02*
X036610Y020108D01*
X036600Y020100D02*
X036600Y018600D01*
X037100Y018600D01*
X037600Y018100D01*
X037600Y013600D01*
X036100Y013600D01*
X034600Y013100D02*
X034100Y013600D01*
X031600Y013600D01*
X029100Y011100D02*
X028100Y012100D01*
X033600Y009100D02*
X035100Y007600D01*
X030100Y017600D02*
X028100Y017600D01*
X027600Y018100D01*
X024100Y036600D02*
X024092Y036610D01*
X024100Y036600D02*
X024100Y037600D01*
D23*
X027100Y030600D03*
X023600Y028600D03*
X025100Y025600D03*
X028600Y024100D03*
X026100Y021600D03*
X026100Y019600D03*
X024100Y019600D03*
X023100Y016100D03*
X025600Y014600D03*
X026100Y012600D03*
X029100Y015100D03*
X014100Y026600D03*
X011100Y031600D03*
X011600Y032600D03*
X005600Y029100D03*
D24*
X006100Y029100D01*
X008100Y027100D01*
X013600Y027100D01*
X014100Y026600D01*
X007600Y031600D02*
X007600Y036600D01*
X007592Y036610D01*
X007600Y031600D02*
X006100Y030100D01*
X003600Y030100D01*
M02*
