G75*
G70*
%OFA0B0*%
%FSLAX24Y24*%
%IPPOS*%
%LPD*%
%AMOC8*
5,1,8,0,0,1.08239X$1,22.5*
%
%ADD10C,0.0520*%
%ADD11C,0.0495*%
%ADD12C,0.0440*%
%ADD13OC8,0.0560*%
%ADD14C,0.0787*%
%ADD15OC8,0.0520*%
%ADD16C,0.0600*%
%ADD17C,0.0660*%
%ADD18C,0.0440*%
%ADD19C,0.0594*%
%ADD20OC8,0.0600*%
%ADD21OC8,0.0594*%
%ADD22C,0.1065*%
%ADD23C,0.0554*%
%ADD24C,0.0860*%
%ADD25C,0.0160*%
%ADD26C,0.0100*%
%ADD27C,0.0400*%
%ADD28C,0.0787*%
D10*
X018073Y016600D02*
X018593Y016600D01*
X018593Y017600D02*
X018073Y017600D01*
X018073Y018600D02*
X018593Y018600D01*
X018593Y019600D02*
X018073Y019600D01*
X018073Y020600D02*
X018593Y020600D01*
X018593Y021600D02*
X018073Y021600D01*
X018073Y022600D02*
X018593Y022600D01*
X018593Y023600D02*
X018073Y023600D01*
X021073Y023600D02*
X021593Y023600D01*
X021593Y022600D02*
X021073Y022600D01*
X021073Y021600D02*
X021593Y021600D01*
X021593Y020600D02*
X021073Y020600D01*
X021073Y019600D02*
X021593Y019600D01*
X021593Y018600D02*
X021073Y018600D01*
X021073Y017600D02*
X021593Y017600D01*
X021593Y016600D02*
X021073Y016600D01*
X024833Y028340D02*
X024833Y028860D01*
X026833Y028860D02*
X026833Y028340D01*
X026833Y032340D02*
X026833Y032860D01*
X024833Y032860D02*
X024833Y032340D01*
X038573Y027600D02*
X039093Y027600D01*
X039093Y026600D02*
X038573Y026600D01*
X038573Y025600D02*
X039093Y025600D01*
X039093Y024600D02*
X038573Y024600D01*
X038573Y023600D02*
X039093Y023600D01*
X039093Y022600D02*
X038573Y022600D01*
X038573Y021600D02*
X039093Y021600D01*
X039093Y020600D02*
X038573Y020600D01*
X038573Y019600D02*
X039093Y019600D01*
X039093Y018600D02*
X038573Y018600D01*
X038573Y017600D02*
X039093Y017600D01*
X039093Y016600D02*
X038573Y016600D01*
X038573Y015600D02*
X039093Y015600D01*
X039093Y014600D02*
X038573Y014600D01*
X041573Y014600D02*
X042093Y014600D01*
X042093Y015600D02*
X041573Y015600D01*
X041573Y016600D02*
X042093Y016600D01*
X042093Y017600D02*
X041573Y017600D01*
X041573Y018600D02*
X042093Y018600D01*
X042093Y019600D02*
X041573Y019600D01*
X041573Y020600D02*
X042093Y020600D01*
X042093Y021600D02*
X041573Y021600D01*
X041573Y022600D02*
X042093Y022600D01*
X042093Y023600D02*
X041573Y023600D01*
X041573Y024600D02*
X042093Y024600D01*
X042093Y025600D02*
X041573Y025600D01*
X041573Y026600D02*
X042093Y026600D01*
X042093Y027600D02*
X041573Y027600D01*
D11*
X036833Y013600D03*
X034833Y013600D03*
X034833Y007600D03*
X036833Y007600D03*
X028833Y007600D03*
X027833Y007600D03*
X027833Y013600D03*
X028833Y013600D03*
D12*
X044113Y021600D02*
X044553Y021600D01*
X044553Y023600D02*
X044113Y023600D01*
D13*
X044333Y026100D03*
X044333Y029100D03*
X044333Y018600D03*
X044333Y015600D03*
D14*
X048343Y015608D03*
X048343Y017608D03*
X048343Y020108D03*
X048343Y022108D03*
X048343Y024608D03*
X048343Y026608D03*
X048343Y029108D03*
X048343Y031108D03*
X046325Y036610D03*
X044325Y036610D03*
X042325Y036610D03*
X039825Y036610D03*
X037825Y036610D03*
X035825Y036610D03*
X033325Y036610D03*
X031325Y036610D03*
X029325Y036610D03*
X027325Y036610D03*
X025325Y036610D03*
X023325Y036610D03*
X021325Y036610D03*
X019325Y036610D03*
X017325Y036610D03*
X029325Y023610D03*
X031325Y023610D03*
X030842Y003590D03*
X028842Y003590D03*
X033342Y003590D03*
X035342Y003590D03*
D15*
X039833Y002600D03*
X041333Y002600D03*
X041333Y006600D03*
X041333Y008100D03*
X039833Y008100D03*
X039833Y006600D03*
X042833Y006600D03*
X042833Y007600D03*
X041333Y012100D03*
X042333Y013100D03*
X039833Y012100D03*
X046333Y013100D03*
X047833Y012600D03*
X049333Y012600D03*
X049333Y008600D03*
X047833Y008600D03*
X046833Y007600D03*
X046833Y006600D03*
X035333Y026100D03*
X036833Y028100D03*
X036833Y029100D03*
X034833Y033600D03*
X032833Y033600D03*
X032833Y029100D03*
X032833Y028100D03*
X031333Y026100D03*
X026833Y027100D03*
X026833Y023100D03*
X026833Y021100D03*
X026833Y017100D03*
X029333Y015600D03*
X033333Y015600D03*
X028833Y033600D03*
X038833Y033600D03*
X041333Y033600D03*
X045333Y033600D03*
X017833Y031600D03*
X017833Y027600D03*
X016333Y018600D03*
X016333Y014600D03*
X016333Y011600D03*
X016333Y007600D03*
X019833Y082100D03*
X019833Y083100D03*
X021833Y083100D03*
X021833Y082100D03*
X023833Y082100D03*
X023833Y083100D03*
X025833Y083100D03*
X025833Y082100D03*
D16*
X015633Y031100D02*
X015033Y031100D01*
X015033Y030100D02*
X015633Y030100D01*
X015633Y029100D02*
X015033Y029100D01*
X014633Y017600D02*
X014033Y017600D01*
X014033Y016600D02*
X014633Y016600D01*
X014633Y015600D02*
X014033Y015600D01*
X014033Y010100D02*
X014633Y010100D01*
X014633Y009100D02*
X014033Y009100D01*
X014033Y008100D02*
X014633Y008100D01*
D17*
X028932Y044498D03*
X029932Y044498D03*
X030932Y044498D03*
X031932Y044498D03*
X032932Y044498D03*
X033932Y044498D03*
X034932Y044498D03*
X035932Y044498D03*
X036932Y044498D03*
X037932Y044498D03*
X038932Y044498D03*
X039932Y044498D03*
X040932Y044498D03*
X041932Y044498D03*
X042932Y044498D03*
X043932Y044498D03*
D18*
X021833Y031600D03*
X020833Y030600D03*
X021833Y029600D03*
X007833Y077100D03*
X007833Y078100D03*
X007833Y079100D03*
D19*
X028833Y028397D02*
X028833Y027803D01*
X029833Y027803D02*
X029833Y028397D01*
X030833Y028397D02*
X030833Y027803D01*
X030833Y019397D02*
X030833Y018803D01*
X031833Y018803D02*
X031833Y019397D01*
X029333Y019397D02*
X029333Y018803D01*
X028333Y018803D02*
X028333Y019397D01*
X042833Y010397D02*
X042833Y009803D01*
X043833Y009803D02*
X043833Y010397D01*
X045333Y010397D02*
X045333Y009803D01*
X046333Y009803D02*
X046333Y010397D01*
X046333Y004397D02*
X046333Y003803D01*
X045333Y003803D02*
X045333Y004397D01*
X043833Y004397D02*
X043833Y003803D01*
X042833Y003803D02*
X042833Y004397D01*
D20*
X022953Y065540D03*
X022413Y066660D03*
X021873Y065540D03*
X021333Y066660D03*
X020793Y065540D03*
X020253Y066660D03*
X019713Y065540D03*
X019173Y066660D03*
X023493Y066660D03*
D21*
X028833Y032100D03*
X028833Y031100D03*
X029833Y031100D03*
X029833Y032100D03*
X030833Y032100D03*
X030833Y031100D03*
X031833Y031100D03*
X031833Y032100D03*
X032833Y032100D03*
X032833Y031100D03*
X033833Y031100D03*
X033833Y032100D03*
X034833Y032100D03*
X034833Y031100D03*
X035833Y031100D03*
X035833Y032100D03*
X039333Y032100D03*
X039333Y031100D03*
X040333Y031100D03*
X040333Y032100D03*
X041333Y032100D03*
X041333Y031100D03*
X042333Y031100D03*
X042333Y032100D03*
X043333Y032100D03*
X043333Y031100D03*
X036333Y024600D03*
X036333Y023600D03*
X035333Y023600D03*
X035333Y024600D03*
X034333Y024600D03*
X034333Y023600D03*
D22*
X002366Y069250D02*
X001301Y069250D01*
X001301Y071100D02*
X002366Y071100D01*
X002366Y072950D02*
X001301Y072950D01*
D23*
X013833Y073323D02*
X013833Y073877D01*
X015833Y073877D02*
X015833Y073323D01*
X017833Y073323D02*
X017833Y073877D01*
X017833Y077323D02*
X017833Y077877D01*
X015833Y077877D02*
X015833Y077323D01*
X013833Y077323D02*
X013833Y077877D01*
X023833Y076877D02*
X023833Y076323D01*
X025833Y076323D02*
X025833Y076877D01*
X027833Y076877D02*
X027833Y076323D01*
X027833Y072877D02*
X027833Y072323D01*
X025833Y072323D02*
X025833Y072877D01*
X023833Y072877D02*
X023833Y072323D01*
D24*
X023263Y007281D02*
X022403Y007281D01*
X022403Y004919D02*
X023263Y004919D01*
X024723Y005670D02*
X024723Y006530D01*
D25*
X012333Y000600D02*
X050723Y000600D01*
X050723Y038990D01*
X012333Y038990D01*
X012333Y000600D01*
X012333Y000734D02*
X050723Y000734D01*
X050723Y000893D02*
X012333Y000893D01*
X012333Y001051D02*
X013460Y001051D01*
X013405Y001066D02*
X013687Y000990D01*
X013979Y000990D01*
X014262Y001066D01*
X014515Y001212D01*
X014721Y001418D01*
X014868Y001672D01*
X014943Y001954D01*
X014943Y002246D01*
X014868Y002528D01*
X014721Y002782D01*
X014515Y002988D01*
X014262Y003134D01*
X013979Y003210D01*
X013687Y003210D01*
X013405Y003134D01*
X013152Y002988D01*
X012945Y002782D01*
X012799Y002528D01*
X012723Y002246D01*
X012723Y001954D01*
X012799Y001672D01*
X012945Y001418D01*
X013152Y001212D01*
X013405Y001066D01*
X013156Y001210D02*
X012333Y001210D01*
X012333Y001368D02*
X012996Y001368D01*
X012883Y001527D02*
X012333Y001527D01*
X012333Y001685D02*
X012795Y001685D01*
X012753Y001844D02*
X012333Y001844D01*
X012333Y002002D02*
X012723Y002002D01*
X012723Y002161D02*
X012333Y002161D01*
X012333Y002319D02*
X012743Y002319D01*
X012785Y002478D02*
X012333Y002478D01*
X012333Y002636D02*
X012861Y002636D01*
X012958Y002795D02*
X012333Y002795D01*
X012333Y002953D02*
X013117Y002953D01*
X013365Y003112D02*
X012333Y003112D01*
X012333Y003270D02*
X028379Y003270D01*
X028372Y003277D02*
X028528Y003121D01*
X028732Y003036D01*
X028952Y003036D01*
X029155Y003121D01*
X029311Y003277D01*
X029395Y003480D01*
X029395Y003700D01*
X029311Y003904D01*
X030361Y003904D01*
X030351Y003891D02*
X030310Y003810D01*
X030282Y003724D01*
X030268Y003638D01*
X030794Y003638D01*
X030794Y004163D01*
X030707Y004150D01*
X030621Y004122D01*
X030541Y004081D01*
X030468Y004028D01*
X030404Y003964D01*
X030351Y003891D01*
X030289Y003746D02*
X029377Y003746D01*
X029395Y003587D02*
X030794Y003587D01*
X030794Y003542D02*
X030268Y003542D01*
X030282Y003456D01*
X030310Y003370D01*
X030351Y003289D01*
X030404Y003216D01*
X030468Y003153D01*
X030541Y003099D01*
X030621Y003058D01*
X030707Y003031D01*
X030794Y003017D01*
X030794Y003542D01*
X030890Y003542D01*
X030890Y003638D01*
X031415Y003638D01*
X031401Y003724D01*
X031373Y003810D01*
X031332Y003891D01*
X031279Y003964D01*
X031215Y004028D01*
X031142Y004081D01*
X031062Y004122D01*
X030976Y004150D01*
X030890Y004163D01*
X030890Y003638D01*
X030794Y003638D01*
X030794Y003542D01*
X030890Y003542D02*
X030890Y003017D01*
X030976Y003031D01*
X031062Y003058D01*
X031142Y003099D01*
X031215Y003153D01*
X031279Y003216D01*
X031332Y003289D01*
X031373Y003370D01*
X031401Y003456D01*
X031415Y003542D01*
X030890Y003542D01*
X030890Y003587D02*
X032788Y003587D01*
X032788Y003480D02*
X032788Y003700D01*
X032872Y003904D01*
X033028Y004060D01*
X033232Y004144D01*
X033452Y004144D01*
X033655Y004060D01*
X033811Y003904D01*
X034872Y003904D01*
X034788Y003700D01*
X034788Y003480D01*
X034872Y003277D01*
X035028Y003121D01*
X035232Y003036D01*
X035452Y003036D01*
X035655Y003121D01*
X035811Y003277D01*
X035895Y003480D01*
X035895Y003700D01*
X035811Y003904D01*
X042376Y003904D01*
X042376Y003746D02*
X035877Y003746D01*
X035895Y003587D02*
X042428Y003587D01*
X042446Y003544D02*
X042575Y003416D01*
X042742Y003346D01*
X042924Y003346D01*
X043092Y003416D01*
X043221Y003544D01*
X043290Y003712D01*
X043290Y004488D01*
X043221Y004656D01*
X043092Y004784D01*
X042924Y004854D01*
X042742Y004854D01*
X042575Y004784D01*
X042446Y004656D01*
X042376Y004488D01*
X042376Y003712D01*
X042446Y003544D01*
X042562Y003429D02*
X035874Y003429D01*
X035805Y003270D02*
X050723Y003270D01*
X050723Y003112D02*
X049801Y003112D01*
X049762Y003134D02*
X050015Y002988D01*
X050221Y002782D01*
X050368Y002528D01*
X050443Y002246D01*
X050443Y001954D01*
X050368Y001672D01*
X050221Y001418D01*
X050015Y001212D01*
X049762Y001066D01*
X049479Y000990D01*
X049187Y000990D01*
X048905Y001066D01*
X048652Y001212D01*
X048445Y001418D01*
X048299Y001672D01*
X048223Y001954D01*
X048223Y002246D01*
X048299Y002528D01*
X048445Y002782D01*
X048652Y002988D01*
X048905Y003134D01*
X049187Y003210D01*
X049479Y003210D01*
X049762Y003134D01*
X050050Y002953D02*
X050723Y002953D01*
X050723Y002795D02*
X050208Y002795D01*
X050305Y002636D02*
X050723Y002636D01*
X050723Y002478D02*
X050381Y002478D01*
X050424Y002319D02*
X050723Y002319D01*
X050723Y002161D02*
X050443Y002161D01*
X050443Y002002D02*
X050723Y002002D01*
X050723Y001844D02*
X050414Y001844D01*
X050371Y001685D02*
X050723Y001685D01*
X050723Y001527D02*
X050284Y001527D01*
X050171Y001368D02*
X050723Y001368D01*
X050723Y001210D02*
X050011Y001210D01*
X049707Y001051D02*
X050723Y001051D01*
X050723Y003429D02*
X046605Y003429D01*
X046592Y003416D02*
X046721Y003544D01*
X046790Y003712D01*
X046790Y004488D01*
X046721Y004656D01*
X046592Y004784D01*
X046424Y004854D01*
X046242Y004854D01*
X046075Y004784D01*
X045946Y004656D01*
X045876Y004488D01*
X045876Y003712D01*
X045946Y003544D01*
X046075Y003416D01*
X046242Y003346D01*
X046424Y003346D01*
X046592Y003416D01*
X046738Y003587D02*
X050723Y003587D01*
X050723Y003746D02*
X046790Y003746D01*
X046790Y003904D02*
X050723Y003904D01*
X050723Y004063D02*
X046790Y004063D01*
X046790Y004221D02*
X050723Y004221D01*
X050723Y004380D02*
X046790Y004380D01*
X046769Y004538D02*
X050723Y004538D01*
X050723Y004697D02*
X046680Y004697D01*
X045987Y004697D02*
X045680Y004697D01*
X045721Y004656D02*
X045592Y004784D01*
X045424Y004854D01*
X045242Y004854D01*
X045075Y004784D01*
X044946Y004656D01*
X044876Y004488D01*
X044876Y003712D01*
X044946Y003544D01*
X045075Y003416D01*
X045242Y003346D01*
X045424Y003346D01*
X045592Y003416D01*
X045721Y003544D01*
X045790Y003712D01*
X045790Y004488D01*
X045721Y004656D01*
X045769Y004538D02*
X045897Y004538D01*
X045876Y004380D02*
X045790Y004380D01*
X045790Y004221D02*
X045876Y004221D01*
X045876Y004063D02*
X045790Y004063D01*
X045790Y003904D02*
X045876Y003904D01*
X045876Y003746D02*
X045790Y003746D01*
X045738Y003587D02*
X045928Y003587D01*
X046062Y003429D02*
X045605Y003429D01*
X045062Y003429D02*
X044105Y003429D01*
X044092Y003416D02*
X044221Y003544D01*
X044290Y003712D01*
X044290Y004488D01*
X044221Y004656D01*
X044092Y004784D01*
X043924Y004854D01*
X043742Y004854D01*
X043575Y004784D01*
X043446Y004656D01*
X043376Y004488D01*
X043376Y003712D01*
X043446Y003544D01*
X043575Y003416D01*
X043742Y003346D01*
X043924Y003346D01*
X044092Y003416D01*
X044238Y003587D02*
X044928Y003587D01*
X044876Y003746D02*
X044290Y003746D01*
X044290Y003904D02*
X044876Y003904D01*
X044876Y004063D02*
X044290Y004063D01*
X044290Y004221D02*
X044876Y004221D01*
X044876Y004380D02*
X044290Y004380D01*
X044269Y004538D02*
X044897Y004538D01*
X044987Y004697D02*
X044180Y004697D01*
X043487Y004697D02*
X043180Y004697D01*
X043269Y004538D02*
X043397Y004538D01*
X043376Y004380D02*
X043290Y004380D01*
X043290Y004221D02*
X043376Y004221D01*
X043376Y004063D02*
X043290Y004063D01*
X043290Y003904D02*
X043376Y003904D01*
X043376Y003746D02*
X043290Y003746D01*
X043238Y003587D02*
X043428Y003587D01*
X043562Y003429D02*
X043105Y003429D01*
X042376Y004063D02*
X035648Y004063D01*
X035655Y004060D02*
X035452Y004144D01*
X035232Y004144D01*
X035028Y004060D01*
X034872Y003904D01*
X034807Y003746D02*
X033877Y003746D01*
X033895Y003700D02*
X033811Y003904D01*
X033895Y003700D02*
X033895Y003480D01*
X033811Y003277D01*
X033655Y003121D01*
X033452Y003036D01*
X033232Y003036D01*
X033028Y003121D01*
X032872Y003277D01*
X032788Y003480D01*
X032809Y003429D02*
X031392Y003429D01*
X031318Y003270D02*
X032879Y003270D01*
X033050Y003112D02*
X031159Y003112D01*
X030890Y003112D02*
X030794Y003112D01*
X030794Y003270D02*
X030890Y003270D01*
X030890Y003429D02*
X030794Y003429D01*
X030794Y003746D02*
X030890Y003746D01*
X030890Y003904D02*
X030794Y003904D01*
X030794Y004063D02*
X030890Y004063D01*
X031168Y004063D02*
X033035Y004063D01*
X032872Y003904D02*
X031323Y003904D01*
X031394Y003746D02*
X032807Y003746D01*
X033648Y004063D02*
X035035Y004063D01*
X034788Y003587D02*
X033895Y003587D01*
X033874Y003429D02*
X034809Y003429D01*
X034879Y003270D02*
X033805Y003270D01*
X033633Y003112D02*
X035050Y003112D01*
X035633Y003112D02*
X048865Y003112D01*
X048617Y002953D02*
X041574Y002953D01*
X041507Y003020D02*
X041753Y002774D01*
X041753Y002426D01*
X041507Y002180D01*
X041159Y002180D01*
X040913Y002426D01*
X040913Y002774D01*
X041159Y003020D01*
X041507Y003020D01*
X041733Y002795D02*
X048458Y002795D01*
X048361Y002636D02*
X041753Y002636D01*
X041753Y002478D02*
X048285Y002478D01*
X048243Y002319D02*
X041646Y002319D01*
X041092Y002953D02*
X040074Y002953D01*
X040007Y003020D02*
X040253Y002774D01*
X040253Y002426D01*
X040007Y002180D01*
X039659Y002180D01*
X039413Y002426D01*
X039413Y002774D01*
X039659Y003020D01*
X040007Y003020D01*
X040233Y002795D02*
X040934Y002795D01*
X040913Y002636D02*
X040253Y002636D01*
X040253Y002478D02*
X040913Y002478D01*
X041020Y002319D02*
X040146Y002319D01*
X039520Y002319D02*
X014924Y002319D01*
X014943Y002161D02*
X048223Y002161D01*
X048223Y002002D02*
X014943Y002002D01*
X014914Y001844D02*
X048253Y001844D01*
X048295Y001685D02*
X014871Y001685D01*
X014784Y001527D02*
X048383Y001527D01*
X048496Y001368D02*
X014671Y001368D01*
X014511Y001210D02*
X048656Y001210D01*
X048960Y001051D02*
X014207Y001051D01*
X014881Y002478D02*
X039413Y002478D01*
X039413Y002636D02*
X014805Y002636D01*
X014708Y002795D02*
X039434Y002795D01*
X039592Y002953D02*
X014550Y002953D01*
X014301Y003112D02*
X028550Y003112D01*
X028372Y003277D02*
X028288Y003480D01*
X028288Y003700D01*
X028372Y003904D01*
X028528Y004060D01*
X028732Y004144D01*
X028952Y004144D01*
X029155Y004060D01*
X029311Y003904D01*
X029148Y004063D02*
X030516Y004063D01*
X030291Y003429D02*
X029374Y003429D01*
X029305Y003270D02*
X030365Y003270D01*
X030524Y003112D02*
X029133Y003112D01*
X028309Y003429D02*
X012333Y003429D01*
X012333Y003587D02*
X028288Y003587D01*
X028307Y003746D02*
X012333Y003746D01*
X012333Y003904D02*
X028372Y003904D01*
X028535Y004063D02*
X012333Y004063D01*
X012333Y004221D02*
X042376Y004221D01*
X042376Y004380D02*
X023548Y004380D01*
X023583Y004397D02*
X023661Y004454D01*
X023729Y004522D01*
X023785Y004599D01*
X023829Y004685D01*
X023858Y004776D01*
X023873Y004871D01*
X023873Y004919D01*
X023873Y004967D01*
X023858Y005062D01*
X023829Y005153D01*
X023785Y005239D01*
X023729Y005316D01*
X023661Y005384D01*
X023583Y005441D01*
X023497Y005484D01*
X023406Y005514D01*
X023311Y005529D01*
X022833Y005529D01*
X022355Y005529D01*
X022260Y005514D01*
X022169Y005484D01*
X022084Y005441D01*
X022006Y005384D01*
X021938Y005316D01*
X021882Y005239D01*
X021838Y005153D01*
X021808Y005062D01*
X021793Y004967D01*
X021793Y004919D01*
X022833Y004919D01*
X022833Y004919D01*
X022833Y005529D01*
X022833Y004919D01*
X022833Y004919D01*
X021793Y004919D01*
X021793Y004871D01*
X021808Y004776D01*
X021838Y004685D01*
X021882Y004599D01*
X021938Y004522D01*
X022006Y004454D01*
X022084Y004397D01*
X022169Y004354D01*
X022260Y004324D01*
X022355Y004309D01*
X022833Y004309D01*
X022833Y004919D01*
X022833Y004919D01*
X022833Y004309D01*
X023311Y004309D01*
X023406Y004324D01*
X023497Y004354D01*
X023583Y004397D01*
X023741Y004538D02*
X042397Y004538D01*
X042487Y004697D02*
X023832Y004697D01*
X023871Y004855D02*
X050723Y004855D01*
X050723Y005014D02*
X023866Y005014D01*
X023873Y004919D02*
X022833Y004919D01*
X022833Y004919D01*
X023873Y004919D01*
X023819Y005172D02*
X024387Y005172D01*
X024389Y005170D02*
X024606Y005080D01*
X024840Y005080D01*
X025057Y005170D01*
X025223Y005336D01*
X025313Y005553D01*
X025313Y006647D01*
X025223Y006864D01*
X025057Y007030D01*
X024840Y007120D01*
X024606Y007120D01*
X024389Y007030D01*
X024223Y006864D01*
X024133Y006647D01*
X024133Y005553D01*
X024223Y005336D01*
X024389Y005170D01*
X024228Y005331D02*
X023714Y005331D01*
X023483Y005489D02*
X024159Y005489D01*
X024133Y005648D02*
X012333Y005648D01*
X012333Y005806D02*
X024133Y005806D01*
X024133Y005965D02*
X012333Y005965D01*
X012333Y006123D02*
X024133Y006123D01*
X024133Y006282D02*
X012333Y006282D01*
X012333Y006440D02*
X024133Y006440D01*
X024133Y006599D02*
X012333Y006599D01*
X012333Y006757D02*
X022127Y006757D01*
X022069Y006781D02*
X022286Y006691D01*
X023381Y006691D01*
X023598Y006781D01*
X023764Y006947D01*
X023853Y007164D01*
X023853Y007398D01*
X023764Y007615D01*
X023598Y007781D01*
X023543Y007804D01*
X023543Y008013D01*
X028731Y013201D01*
X028752Y013192D01*
X028914Y013192D01*
X029064Y013254D01*
X029179Y013369D01*
X029241Y013519D01*
X029241Y013681D01*
X029179Y013831D01*
X029064Y013946D01*
X028914Y014008D01*
X028752Y014008D01*
X028602Y013946D01*
X028488Y013831D01*
X028426Y013681D01*
X028426Y013519D01*
X028434Y013498D01*
X023246Y008310D01*
X023123Y008187D01*
X023123Y007871D01*
X022286Y007871D01*
X022069Y007781D01*
X021903Y007615D01*
X021813Y007398D01*
X021813Y007164D01*
X021903Y006947D01*
X022069Y006781D01*
X021935Y006916D02*
X012333Y006916D01*
X012333Y007074D02*
X021851Y007074D01*
X021813Y007233D02*
X016560Y007233D01*
X016507Y007180D02*
X016753Y007426D01*
X016753Y007774D01*
X016507Y008020D01*
X016210Y008020D01*
X016043Y008187D01*
X015920Y008310D01*
X015044Y008310D01*
X015023Y008361D01*
X014894Y008490D01*
X014725Y008560D01*
X013942Y008560D01*
X013773Y008490D01*
X013757Y008474D01*
X013420Y008810D01*
X013043Y008810D01*
X013043Y019513D01*
X017920Y024390D01*
X031746Y024390D01*
X033746Y022390D01*
X036920Y022390D01*
X037043Y022513D01*
X037420Y022890D01*
X038269Y022890D01*
X038217Y022838D01*
X038153Y022684D01*
X038153Y022516D01*
X038217Y022362D01*
X038269Y022310D01*
X029420Y022310D01*
X028340Y023390D01*
X028817Y023390D01*
X028856Y023296D01*
X029011Y023140D01*
X029215Y023056D01*
X029435Y023056D01*
X029639Y023140D01*
X029794Y023296D01*
X029879Y023500D01*
X029879Y023720D01*
X029794Y023923D01*
X029639Y024079D01*
X029435Y024164D01*
X029215Y024164D01*
X029011Y024079D01*
X028856Y023923D01*
X028809Y023810D01*
X027246Y023810D01*
X027123Y023687D01*
X026956Y023520D01*
X026659Y023520D01*
X026413Y023274D01*
X026413Y022926D01*
X026659Y022680D01*
X027007Y022680D01*
X027253Y022926D01*
X027253Y023223D01*
X027420Y023390D01*
X027746Y023390D01*
X029246Y021890D01*
X037614Y021890D01*
X037528Y021804D01*
X037473Y021672D01*
X037473Y021537D01*
X035896Y019960D01*
X035762Y019960D01*
X035629Y019905D01*
X035528Y019804D01*
X035473Y019672D01*
X035473Y019528D01*
X035528Y019396D01*
X035614Y019310D01*
X033420Y019310D01*
X032043Y020687D01*
X031920Y020810D01*
X029246Y020810D01*
X028290Y019854D01*
X028242Y019854D01*
X028075Y019784D01*
X027946Y019656D01*
X027876Y019488D01*
X027876Y018712D01*
X027946Y018544D01*
X028075Y018416D01*
X028242Y018346D01*
X028424Y018346D01*
X028592Y018416D01*
X028721Y018544D01*
X028790Y018712D01*
X028790Y019488D01*
X028721Y019656D01*
X028703Y019673D01*
X029420Y020390D01*
X031746Y020390D01*
X033123Y019013D01*
X033246Y018890D01*
X035920Y018890D01*
X036043Y019013D01*
X036920Y019890D01*
X037614Y019890D01*
X037528Y019804D01*
X037473Y019672D01*
X037473Y019528D01*
X037528Y019396D01*
X037629Y019295D01*
X037762Y019240D01*
X037896Y019240D01*
X038123Y019013D01*
X038246Y018890D01*
X038269Y018890D01*
X038217Y018838D01*
X038153Y018684D01*
X038153Y018516D01*
X038217Y018362D01*
X038269Y018310D01*
X031420Y018310D01*
X031203Y018527D01*
X031221Y018544D01*
X031290Y018712D01*
X031290Y019488D01*
X031221Y019656D01*
X031092Y019784D01*
X030924Y019854D01*
X030742Y019854D01*
X030575Y019784D01*
X030446Y019656D01*
X030376Y019488D01*
X030376Y018712D01*
X030446Y018544D01*
X030575Y018416D01*
X030742Y018346D01*
X030790Y018346D01*
X031246Y017890D01*
X038269Y017890D01*
X038217Y017838D01*
X038153Y017684D01*
X038153Y017516D01*
X038217Y017362D01*
X038269Y017310D01*
X028920Y017310D01*
X027920Y018310D01*
X024420Y018310D01*
X022420Y020310D01*
X021897Y020310D01*
X021949Y020362D01*
X022013Y020516D01*
X022013Y020684D01*
X021949Y020838D01*
X021831Y020956D01*
X021677Y021020D01*
X020990Y021020D01*
X020835Y020956D01*
X020717Y020838D01*
X020653Y020684D01*
X020653Y020577D01*
X020420Y020810D01*
X018961Y020810D01*
X018949Y020838D01*
X018831Y020956D01*
X018677Y021020D01*
X017990Y021020D01*
X017835Y020956D01*
X017717Y020838D01*
X017653Y020684D01*
X017653Y020516D01*
X017717Y020362D01*
X017835Y020244D01*
X017990Y020180D01*
X018677Y020180D01*
X018831Y020244D01*
X018949Y020362D01*
X018961Y020390D01*
X020246Y020390D01*
X020623Y020013D01*
X020746Y019890D01*
X020769Y019890D01*
X020717Y019838D01*
X020653Y019684D01*
X020653Y019516D01*
X020717Y019362D01*
X020835Y019244D01*
X020990Y019180D01*
X021677Y019180D01*
X021831Y019244D01*
X021949Y019362D01*
X022013Y019516D01*
X022013Y019684D01*
X021949Y019838D01*
X021897Y019890D01*
X022246Y019890D01*
X024123Y018013D01*
X024246Y017890D01*
X027746Y017890D01*
X028623Y017013D01*
X028746Y016890D01*
X038269Y016890D01*
X038217Y016838D01*
X038153Y016684D01*
X038153Y016516D01*
X038217Y016362D01*
X038335Y016244D01*
X038490Y016180D01*
X039177Y016180D01*
X039331Y016244D01*
X039449Y016362D01*
X039513Y016516D01*
X039513Y016684D01*
X039449Y016838D01*
X039397Y016890D01*
X041269Y016890D01*
X041217Y016838D01*
X041177Y016741D01*
X041123Y016687D01*
X039746Y015310D01*
X039397Y015310D01*
X039449Y015362D01*
X039513Y015516D01*
X039513Y015684D01*
X039449Y015838D01*
X039331Y015956D01*
X039177Y016020D01*
X038490Y016020D01*
X038335Y015956D01*
X038217Y015838D01*
X038206Y015810D01*
X035420Y015810D01*
X035193Y016037D01*
X035193Y016172D01*
X035139Y016304D01*
X035037Y016405D01*
X034905Y016460D01*
X034762Y016460D01*
X034629Y016405D01*
X034528Y016304D01*
X034473Y016172D01*
X034473Y016028D01*
X034528Y015896D01*
X034629Y015795D01*
X034762Y015740D01*
X034896Y015740D01*
X035246Y015390D01*
X038206Y015390D01*
X038217Y015362D01*
X038269Y015310D01*
X033637Y015310D01*
X033753Y015426D01*
X033753Y015774D01*
X033507Y016020D01*
X033159Y016020D01*
X032913Y015774D01*
X032913Y015426D01*
X033029Y015310D01*
X029637Y015310D01*
X029753Y015426D01*
X029753Y015774D01*
X029507Y016020D01*
X029159Y016020D01*
X028913Y015774D01*
X028913Y015426D01*
X029029Y015310D01*
X017543Y015310D01*
X017543Y021013D01*
X017805Y021275D01*
X017835Y021244D01*
X017990Y021180D01*
X018677Y021180D01*
X018831Y021244D01*
X018949Y021362D01*
X019013Y021516D01*
X019013Y021684D01*
X018949Y021838D01*
X018831Y021956D01*
X018677Y022020D01*
X017990Y022020D01*
X017835Y021956D01*
X017717Y021838D01*
X017677Y021741D01*
X017246Y021310D01*
X017123Y021187D01*
X017123Y015013D01*
X017246Y014890D01*
X037114Y014890D01*
X037028Y014804D01*
X036998Y014732D01*
X036920Y014810D01*
X016717Y014810D01*
X016507Y015020D01*
X016210Y015020D01*
X015543Y015687D01*
X015420Y015810D01*
X015044Y015810D01*
X015023Y015861D01*
X014894Y015990D01*
X014725Y016060D01*
X013942Y016060D01*
X013773Y015990D01*
X013643Y015861D01*
X013573Y015691D01*
X013573Y015508D01*
X013643Y015339D01*
X013773Y015210D01*
X013942Y015140D01*
X014725Y015140D01*
X014894Y015210D01*
X015023Y015339D01*
X015044Y015390D01*
X015246Y015390D01*
X015913Y014723D01*
X015913Y014426D01*
X016159Y014180D01*
X016507Y014180D01*
X016717Y014390D01*
X036746Y014390D01*
X037746Y013390D01*
X039420Y013390D01*
X039543Y013513D01*
X040770Y014740D01*
X040905Y014740D01*
X041037Y014795D01*
X041139Y014896D01*
X041193Y015028D01*
X041193Y015172D01*
X041139Y015304D01*
X041037Y015405D01*
X040905Y015460D01*
X040762Y015460D01*
X040629Y015405D01*
X040528Y015304D01*
X040473Y015172D01*
X040473Y015037D01*
X039246Y013810D01*
X037920Y013810D01*
X037465Y014265D01*
X037537Y014295D01*
X037632Y014390D01*
X038206Y014390D01*
X038217Y014362D01*
X038335Y014244D01*
X038490Y014180D01*
X039177Y014180D01*
X039331Y014244D01*
X039449Y014362D01*
X039513Y014516D01*
X039513Y014684D01*
X039449Y014838D01*
X039397Y014890D01*
X039920Y014890D01*
X041305Y016275D01*
X041335Y016244D01*
X041490Y016180D01*
X042177Y016180D01*
X042331Y016244D01*
X042449Y016362D01*
X042513Y016516D01*
X042513Y016623D01*
X042623Y016513D01*
X042623Y015810D01*
X042461Y015810D01*
X042449Y015838D01*
X042331Y015956D01*
X042177Y016020D01*
X041490Y016020D01*
X041335Y015956D01*
X041217Y015838D01*
X041153Y015684D01*
X041153Y015516D01*
X041217Y015362D01*
X041335Y015244D01*
X041490Y015180D01*
X042177Y015180D01*
X042331Y015244D01*
X042449Y015362D01*
X042461Y015390D01*
X042920Y015390D01*
X043043Y015513D01*
X043043Y016687D01*
X042920Y016810D01*
X042420Y017310D01*
X042397Y017310D01*
X042449Y017362D01*
X042513Y017516D01*
X042513Y017623D01*
X043123Y017013D01*
X043123Y013810D01*
X042920Y013810D01*
X042409Y014322D01*
X042449Y014362D01*
X042513Y014516D01*
X042513Y014684D01*
X042449Y014838D01*
X042331Y014956D01*
X042177Y015020D01*
X041490Y015020D01*
X041335Y014956D01*
X041217Y014838D01*
X041153Y014684D01*
X041153Y014516D01*
X041217Y014362D01*
X041335Y014244D01*
X041490Y014180D01*
X041956Y014180D01*
X042623Y013513D01*
X042746Y013390D01*
X045746Y013390D01*
X045913Y013223D01*
X045913Y012926D01*
X046159Y012680D01*
X046507Y012680D01*
X046753Y012926D01*
X046753Y013274D01*
X046507Y013520D01*
X046210Y013520D01*
X045920Y013810D01*
X043543Y013810D01*
X043543Y017187D01*
X043420Y017310D01*
X042420Y018310D01*
X042397Y018310D01*
X042449Y018362D01*
X042513Y018516D01*
X042513Y018684D01*
X042449Y018838D01*
X042397Y018890D01*
X042746Y018890D01*
X046123Y015513D01*
X046246Y015390D01*
X047834Y015390D01*
X047874Y015295D01*
X048030Y015139D01*
X048233Y015055D01*
X048453Y015055D01*
X048657Y015139D01*
X048813Y015295D01*
X048897Y015498D01*
X048897Y015718D01*
X048813Y015922D01*
X048657Y016078D01*
X048453Y016162D01*
X048233Y016162D01*
X048030Y016078D01*
X047874Y015922D01*
X047827Y015810D01*
X046420Y015810D01*
X042920Y019310D01*
X042397Y019310D01*
X042449Y019362D01*
X042513Y019516D01*
X042513Y019684D01*
X042449Y019838D01*
X042331Y019956D01*
X042177Y020020D01*
X041490Y020020D01*
X041335Y019956D01*
X041305Y019925D01*
X041043Y020187D01*
X040920Y020310D01*
X039426Y020310D01*
X039429Y020313D01*
X039470Y020369D01*
X039501Y020431D01*
X039522Y020497D01*
X039533Y020565D01*
X039533Y020600D01*
X039533Y020635D01*
X039522Y020703D01*
X039501Y020769D01*
X039470Y020831D01*
X039429Y020887D01*
X039380Y020936D01*
X039324Y020976D01*
X039262Y021008D01*
X039196Y021029D01*
X039128Y021040D01*
X038833Y021040D01*
X038539Y021040D01*
X038470Y021029D01*
X038404Y021008D01*
X038343Y020976D01*
X038287Y020936D01*
X038238Y020887D01*
X038197Y020831D01*
X038166Y020769D01*
X038144Y020703D01*
X038133Y020635D01*
X038133Y020600D01*
X038133Y020565D01*
X038144Y020497D01*
X038166Y020431D01*
X038197Y020369D01*
X038238Y020313D01*
X038241Y020310D01*
X036840Y020310D01*
X037770Y021240D01*
X037905Y021240D01*
X038037Y021295D01*
X038139Y021396D01*
X038171Y021474D01*
X038217Y021362D01*
X038335Y021244D01*
X038490Y021180D01*
X039177Y021180D01*
X039331Y021244D01*
X039449Y021362D01*
X039513Y021516D01*
X039513Y021684D01*
X039449Y021838D01*
X039397Y021890D01*
X039920Y021890D01*
X040043Y022013D01*
X040043Y023013D01*
X041305Y024275D01*
X041335Y024244D01*
X041490Y024180D01*
X042177Y024180D01*
X042331Y024244D01*
X042449Y024362D01*
X042513Y024516D01*
X042513Y024684D01*
X042449Y024838D01*
X042331Y024956D01*
X042177Y025020D01*
X041490Y025020D01*
X041335Y024956D01*
X041217Y024838D01*
X041177Y024741D01*
X040668Y024232D01*
X040639Y024304D01*
X040537Y024405D01*
X040405Y024460D01*
X040262Y024460D01*
X040129Y024405D01*
X040028Y024304D01*
X039973Y024172D01*
X039973Y024037D01*
X039513Y023577D01*
X039513Y023684D01*
X039449Y023838D01*
X039331Y023956D01*
X039177Y024020D01*
X038490Y024020D01*
X038335Y023956D01*
X038217Y023838D01*
X038206Y023810D01*
X037420Y023810D01*
X037043Y024187D01*
X036920Y024310D01*
X036689Y024310D01*
X036790Y024411D01*
X036790Y024789D01*
X036523Y025057D01*
X036144Y025057D01*
X035876Y024789D01*
X035876Y024411D01*
X035977Y024310D01*
X035920Y024310D01*
X035790Y024440D01*
X035790Y024789D01*
X035523Y025057D01*
X035144Y025057D01*
X034876Y024789D01*
X034876Y024411D01*
X035144Y024143D01*
X035493Y024143D01*
X035746Y023890D01*
X035949Y023890D01*
X035856Y023798D01*
X035856Y023618D01*
X036315Y023618D01*
X036315Y023582D01*
X035856Y023582D01*
X035856Y023402D01*
X036136Y023123D01*
X036315Y023123D01*
X036315Y023582D01*
X036352Y023582D01*
X036352Y023618D01*
X036810Y023618D01*
X036810Y023798D01*
X036718Y023890D01*
X036746Y023890D01*
X037246Y023390D01*
X038206Y023390D01*
X038217Y023362D01*
X038269Y023310D01*
X037246Y023310D01*
X037123Y023187D01*
X036746Y022810D01*
X033920Y022810D01*
X032043Y024687D01*
X031920Y024810D01*
X017746Y024810D01*
X012746Y019810D01*
X012623Y019687D01*
X012623Y008513D01*
X012746Y008390D01*
X013246Y008390D01*
X013573Y008063D01*
X013573Y008008D01*
X013643Y007839D01*
X013773Y007710D01*
X013942Y007640D01*
X014725Y007640D01*
X014894Y007710D01*
X015023Y007839D01*
X015044Y007890D01*
X015746Y007890D01*
X015913Y007723D01*
X015913Y007426D01*
X016159Y007180D01*
X016507Y007180D01*
X016718Y007391D02*
X021813Y007391D01*
X021876Y007550D02*
X016753Y007550D01*
X016753Y007708D02*
X021996Y007708D01*
X022275Y007867D02*
X016661Y007867D01*
X016205Y008025D02*
X023123Y008025D01*
X023123Y008184D02*
X016047Y008184D01*
X015770Y007867D02*
X015035Y007867D01*
X014889Y007708D02*
X015913Y007708D01*
X015913Y007550D02*
X012333Y007550D01*
X012333Y007708D02*
X013778Y007708D01*
X013632Y007867D02*
X012333Y007867D01*
X012333Y008025D02*
X013573Y008025D01*
X013453Y008184D02*
X012333Y008184D01*
X012333Y008342D02*
X013294Y008342D01*
X013571Y008659D02*
X013896Y008659D01*
X013942Y008640D02*
X013773Y008710D01*
X013643Y008839D01*
X013573Y009008D01*
X013573Y009191D01*
X013643Y009361D01*
X013773Y009490D01*
X013942Y009560D01*
X014725Y009560D01*
X014894Y009490D01*
X015023Y009361D01*
X015093Y009191D01*
X015093Y009008D01*
X015023Y008839D01*
X014894Y008710D01*
X014725Y008640D01*
X013942Y008640D01*
X013798Y008501D02*
X013730Y008501D01*
X013665Y008818D02*
X013043Y008818D01*
X013043Y008976D02*
X013587Y008976D01*
X013573Y009135D02*
X013043Y009135D01*
X013043Y009293D02*
X013615Y009293D01*
X013734Y009452D02*
X013043Y009452D01*
X013043Y009610D02*
X024546Y009610D01*
X024388Y009452D02*
X014932Y009452D01*
X015051Y009293D02*
X024229Y009293D01*
X024071Y009135D02*
X015093Y009135D01*
X015080Y008976D02*
X023912Y008976D01*
X023754Y008818D02*
X015001Y008818D01*
X014771Y008659D02*
X023595Y008659D01*
X023437Y008501D02*
X014868Y008501D01*
X015031Y008342D02*
X023278Y008342D01*
X023555Y008025D02*
X027783Y008025D01*
X027800Y008028D02*
X027733Y008017D01*
X027669Y007996D01*
X027609Y007966D01*
X027555Y007926D01*
X027507Y007879D01*
X027468Y007824D01*
X027437Y007764D01*
X027416Y007700D01*
X027406Y007634D01*
X027406Y007600D01*
X027406Y007566D01*
X027416Y007500D01*
X027437Y007436D01*
X027468Y007376D01*
X027507Y007321D01*
X027555Y007274D01*
X027609Y007234D01*
X027669Y007204D01*
X027733Y007183D01*
X027800Y007172D01*
X027833Y007172D01*
X027833Y007600D01*
X027406Y007600D01*
X027833Y007600D01*
X027833Y007600D01*
X027833Y007600D01*
X027833Y008028D01*
X027800Y008028D01*
X027833Y008028D02*
X027867Y008028D01*
X027933Y008017D01*
X027997Y007996D01*
X028057Y007966D01*
X028112Y007926D01*
X028160Y007879D01*
X028199Y007824D01*
X028230Y007764D01*
X028250Y007700D01*
X028261Y007634D01*
X028261Y007600D01*
X027833Y007600D01*
X027833Y007600D01*
X027833Y007172D01*
X027867Y007172D01*
X027933Y007183D01*
X027997Y007204D01*
X028057Y007234D01*
X028112Y007274D01*
X028160Y007321D01*
X028199Y007376D01*
X028230Y007436D01*
X028250Y007500D01*
X028261Y007566D01*
X028261Y007600D01*
X027833Y007600D01*
X027833Y008028D01*
X027833Y008025D02*
X027833Y008025D01*
X027884Y008025D02*
X039393Y008025D01*
X039393Y008100D02*
X039393Y007918D01*
X039651Y007660D01*
X039833Y007660D01*
X039833Y008100D01*
X039393Y008100D01*
X039833Y008100D01*
X039833Y008100D01*
X039833Y008540D01*
X039651Y008540D01*
X039393Y008282D01*
X039393Y008100D01*
X039393Y008184D02*
X023714Y008184D01*
X023872Y008342D02*
X039453Y008342D01*
X039612Y008501D02*
X024031Y008501D01*
X024189Y008659D02*
X045477Y008659D01*
X045319Y008818D02*
X024348Y008818D01*
X024506Y008976D02*
X043160Y008976D01*
X043246Y008890D02*
X045246Y008890D01*
X046413Y007723D01*
X046413Y007426D01*
X046659Y007180D01*
X047007Y007180D01*
X047253Y007426D01*
X047253Y007774D01*
X047007Y008020D01*
X046710Y008020D01*
X045543Y009187D01*
X045420Y009310D01*
X043420Y009310D01*
X043203Y009527D01*
X043221Y009544D01*
X043290Y009712D01*
X043290Y010488D01*
X043221Y010656D01*
X043092Y010784D01*
X042924Y010854D01*
X042742Y010854D01*
X042575Y010784D01*
X042446Y010656D01*
X042376Y010488D01*
X042376Y010310D01*
X040420Y010310D01*
X038193Y012537D01*
X038193Y012672D01*
X038139Y012804D01*
X038037Y012905D01*
X037905Y012960D01*
X037762Y012960D01*
X037629Y012905D01*
X037528Y012804D01*
X037473Y012672D01*
X037473Y012528D01*
X037528Y012396D01*
X037629Y012295D01*
X037762Y012240D01*
X037896Y012240D01*
X040123Y010013D01*
X040246Y009890D01*
X042376Y009890D01*
X042376Y009712D01*
X042446Y009544D01*
X042575Y009416D01*
X042742Y009346D01*
X042790Y009346D01*
X043246Y008890D01*
X043002Y009135D02*
X024665Y009135D01*
X024823Y009293D02*
X042843Y009293D01*
X042539Y009452D02*
X024982Y009452D01*
X025140Y009610D02*
X042419Y009610D01*
X042376Y009769D02*
X025299Y009769D01*
X025457Y009927D02*
X040209Y009927D01*
X040051Y010086D02*
X025616Y010086D01*
X025774Y010244D02*
X039892Y010244D01*
X039734Y010403D02*
X025933Y010403D01*
X026091Y010561D02*
X039575Y010561D01*
X039417Y010720D02*
X026250Y010720D01*
X026408Y010878D02*
X039258Y010878D01*
X039100Y011037D02*
X026567Y011037D01*
X026725Y011195D02*
X038941Y011195D01*
X038783Y011354D02*
X026884Y011354D01*
X027042Y011512D02*
X038624Y011512D01*
X038466Y011671D02*
X027201Y011671D01*
X027359Y011829D02*
X038307Y011829D01*
X038149Y011988D02*
X027518Y011988D01*
X027676Y012146D02*
X037990Y012146D01*
X037620Y012305D02*
X027835Y012305D01*
X027993Y012463D02*
X037500Y012463D01*
X037473Y012622D02*
X028152Y012622D01*
X028310Y012780D02*
X037518Y012780D01*
X037710Y012939D02*
X028469Y012939D01*
X028627Y013097D02*
X041913Y013097D01*
X041913Y012939D02*
X037957Y012939D01*
X038148Y012780D02*
X042059Y012780D01*
X042159Y012680D02*
X041913Y012926D01*
X041913Y013274D01*
X042159Y013520D01*
X042507Y013520D01*
X042753Y013274D01*
X042753Y012926D01*
X042507Y012680D01*
X042159Y012680D01*
X042607Y012780D02*
X046059Y012780D01*
X045913Y012939D02*
X042753Y012939D01*
X042753Y013097D02*
X045913Y013097D01*
X045881Y013256D02*
X042753Y013256D01*
X042722Y013414D02*
X042613Y013414D01*
X042623Y013513D02*
X042623Y013513D01*
X042564Y013573D02*
X039603Y013573D01*
X039761Y013731D02*
X042405Y013731D01*
X042247Y013890D02*
X039920Y013890D01*
X040078Y014048D02*
X042088Y014048D01*
X042524Y014207D02*
X043123Y014207D01*
X043123Y014365D02*
X042451Y014365D01*
X042513Y014524D02*
X043123Y014524D01*
X043123Y014682D02*
X042513Y014682D01*
X042447Y014841D02*
X043123Y014841D01*
X043123Y014999D02*
X042228Y014999D01*
X042403Y015316D02*
X043123Y015316D01*
X043123Y015158D02*
X041193Y015158D01*
X041181Y014999D02*
X041439Y014999D01*
X041220Y014841D02*
X041083Y014841D01*
X041153Y014682D02*
X040712Y014682D01*
X040554Y014524D02*
X041153Y014524D01*
X041216Y014365D02*
X040395Y014365D01*
X040237Y014207D02*
X041426Y014207D01*
X042053Y013414D02*
X039444Y013414D01*
X039326Y013890D02*
X037841Y013890D01*
X037682Y014048D02*
X039484Y014048D01*
X039643Y014207D02*
X039241Y014207D01*
X039451Y014365D02*
X039801Y014365D01*
X039960Y014524D02*
X039513Y014524D01*
X039513Y014682D02*
X040118Y014682D01*
X040277Y014841D02*
X039447Y014841D01*
X039403Y015316D02*
X039752Y015316D01*
X039911Y015475D02*
X039496Y015475D01*
X039513Y015633D02*
X040069Y015633D01*
X040228Y015792D02*
X039469Y015792D01*
X039337Y015950D02*
X040386Y015950D01*
X040545Y016109D02*
X035193Y016109D01*
X035154Y016267D02*
X038312Y016267D01*
X038191Y016426D02*
X034988Y016426D01*
X034678Y016426D02*
X021976Y016426D01*
X021949Y016362D02*
X022013Y016516D01*
X022013Y016684D01*
X021949Y016838D01*
X021831Y016956D01*
X021677Y017020D01*
X020990Y017020D01*
X020835Y016956D01*
X020717Y016838D01*
X020653Y016684D01*
X020653Y016516D01*
X020717Y016362D01*
X020835Y016244D01*
X020990Y016180D01*
X021677Y016180D01*
X021831Y016244D01*
X021949Y016362D01*
X021854Y016267D02*
X034513Y016267D01*
X034473Y016109D02*
X017543Y016109D01*
X017543Y016267D02*
X017812Y016267D01*
X017835Y016244D02*
X017990Y016180D01*
X018677Y016180D01*
X018831Y016244D01*
X018949Y016362D01*
X019013Y016516D01*
X019013Y016684D01*
X018949Y016838D01*
X018831Y016956D01*
X018677Y017020D01*
X017990Y017020D01*
X017835Y016956D01*
X017717Y016838D01*
X017653Y016684D01*
X017653Y016516D01*
X017717Y016362D01*
X017835Y016244D01*
X017691Y016426D02*
X017543Y016426D01*
X017543Y016584D02*
X017653Y016584D01*
X017678Y016743D02*
X017543Y016743D01*
X017543Y016901D02*
X017780Y016901D01*
X017543Y017060D02*
X026413Y017060D01*
X026413Y016926D02*
X026659Y016680D01*
X027007Y016680D01*
X027253Y016926D01*
X027253Y017274D01*
X027007Y017520D01*
X026659Y017520D01*
X026413Y017274D01*
X026413Y016926D01*
X026438Y016901D02*
X021886Y016901D01*
X021989Y016743D02*
X026597Y016743D01*
X027070Y016743D02*
X038178Y016743D01*
X038153Y016584D02*
X022013Y016584D01*
X021769Y017218D02*
X026413Y017218D01*
X026516Y017377D02*
X021955Y017377D01*
X021949Y017362D02*
X022013Y017516D01*
X022013Y017684D01*
X021949Y017838D01*
X021831Y017956D01*
X021677Y018020D01*
X020990Y018020D01*
X020835Y017956D01*
X020717Y017838D01*
X020653Y017684D01*
X020653Y017516D01*
X020717Y017362D01*
X020835Y017244D01*
X020990Y017180D01*
X021677Y017180D01*
X021831Y017244D01*
X021949Y017362D01*
X022013Y017535D02*
X028101Y017535D01*
X027943Y017694D02*
X022009Y017694D01*
X021935Y017852D02*
X027784Y017852D01*
X028061Y018169D02*
X030967Y018169D01*
X030809Y018328D02*
X029379Y018328D01*
X029371Y018326D02*
X029445Y018338D01*
X029516Y018361D01*
X029583Y018395D01*
X029644Y018439D01*
X029697Y018493D01*
X029741Y018553D01*
X029775Y018620D01*
X029798Y018691D01*
X029810Y018766D01*
X029810Y019082D01*
X029352Y019082D01*
X029352Y019118D01*
X029810Y019118D01*
X029810Y019434D01*
X029798Y019509D01*
X029775Y019580D01*
X029741Y019647D01*
X029697Y019707D01*
X029644Y019761D01*
X029583Y019805D01*
X029516Y019839D01*
X029445Y019862D01*
X029371Y019874D01*
X029352Y019874D01*
X029352Y019118D01*
X029315Y019118D01*
X029315Y019082D01*
X028856Y019082D01*
X028856Y018766D01*
X028868Y018691D01*
X028891Y018620D01*
X028925Y018553D01*
X028970Y018493D01*
X029023Y018439D01*
X029083Y018395D01*
X029150Y018361D01*
X029222Y018338D01*
X029296Y018326D01*
X029315Y018326D01*
X029315Y019082D01*
X029352Y019082D01*
X029352Y018326D01*
X029371Y018326D01*
X029352Y018328D02*
X029315Y018328D01*
X029288Y018328D02*
X024403Y018328D01*
X024244Y018486D02*
X028004Y018486D01*
X027905Y018645D02*
X024086Y018645D01*
X023927Y018803D02*
X027876Y018803D01*
X027876Y018962D02*
X023769Y018962D01*
X023610Y019120D02*
X027876Y019120D01*
X027876Y019279D02*
X023452Y019279D01*
X023293Y019437D02*
X027876Y019437D01*
X027921Y019596D02*
X023135Y019596D01*
X022976Y019754D02*
X028044Y019754D01*
X028349Y019913D02*
X022818Y019913D01*
X022659Y020071D02*
X028507Y020071D01*
X028666Y020230D02*
X022501Y020230D01*
X022382Y019754D02*
X021984Y019754D01*
X022013Y019596D02*
X022541Y019596D01*
X022699Y019437D02*
X021980Y019437D01*
X021866Y019279D02*
X022858Y019279D01*
X023016Y019120D02*
X017543Y019120D01*
X017543Y018962D02*
X017849Y018962D01*
X017835Y018956D02*
X017717Y018838D01*
X017653Y018684D01*
X017653Y018516D01*
X017717Y018362D01*
X017835Y018244D01*
X017990Y018180D01*
X018677Y018180D01*
X018831Y018244D01*
X018949Y018362D01*
X019013Y018516D01*
X019013Y018684D01*
X018949Y018838D01*
X018831Y018956D01*
X018677Y019020D01*
X017990Y019020D01*
X017835Y018956D01*
X017703Y018803D02*
X017543Y018803D01*
X017543Y018645D02*
X017653Y018645D01*
X017666Y018486D02*
X017543Y018486D01*
X017543Y018328D02*
X017752Y018328D01*
X017543Y018169D02*
X023967Y018169D01*
X023809Y018328D02*
X021915Y018328D01*
X021949Y018362D02*
X022013Y018516D01*
X022013Y018684D01*
X021949Y018838D01*
X021831Y018956D01*
X021677Y019020D01*
X020990Y019020D01*
X020835Y018956D01*
X020717Y018838D01*
X020653Y018684D01*
X020653Y018516D01*
X020717Y018362D01*
X020835Y018244D01*
X020990Y018180D01*
X021677Y018180D01*
X021831Y018244D01*
X021949Y018362D01*
X022001Y018486D02*
X023650Y018486D01*
X023492Y018645D02*
X022013Y018645D01*
X021964Y018803D02*
X023333Y018803D01*
X023175Y018962D02*
X021818Y018962D01*
X021700Y018011D02*
X024126Y018011D01*
X022004Y020705D02*
X026634Y020705D01*
X026659Y020680D02*
X027007Y020680D01*
X027253Y020926D01*
X027253Y021274D01*
X027007Y021520D01*
X026659Y021520D01*
X026413Y021274D01*
X026413Y020926D01*
X026659Y020680D01*
X026476Y020864D02*
X021924Y020864D01*
X022013Y020547D02*
X028983Y020547D01*
X029141Y020705D02*
X027032Y020705D01*
X027191Y020864D02*
X036800Y020864D01*
X036958Y021022D02*
X027253Y021022D01*
X027253Y021181D02*
X037117Y021181D01*
X037275Y021339D02*
X027188Y021339D01*
X027030Y021498D02*
X037434Y021498D01*
X037473Y021656D02*
X022013Y021656D01*
X022013Y021684D02*
X021949Y021838D01*
X021831Y021956D01*
X021677Y022020D01*
X020990Y022020D01*
X020835Y021956D01*
X020717Y021838D01*
X020653Y021684D01*
X020653Y021516D01*
X020717Y021362D01*
X020835Y021244D01*
X020990Y021180D01*
X021677Y021180D01*
X021831Y021244D01*
X021949Y021362D01*
X022013Y021516D01*
X022013Y021684D01*
X021959Y021815D02*
X037539Y021815D01*
X037711Y021181D02*
X038489Y021181D01*
X038448Y021022D02*
X037552Y021022D01*
X037394Y020864D02*
X038221Y020864D01*
X038145Y020705D02*
X037235Y020705D01*
X037077Y020547D02*
X038136Y020547D01*
X038133Y020600D02*
X038833Y020600D01*
X038833Y020600D01*
X038133Y020600D01*
X038188Y020388D02*
X036918Y020388D01*
X036641Y020705D02*
X032025Y020705D01*
X032043Y020687D02*
X032043Y020687D01*
X032184Y020547D02*
X036483Y020547D01*
X036324Y020388D02*
X032342Y020388D01*
X032501Y020230D02*
X036166Y020230D01*
X036007Y020071D02*
X032659Y020071D01*
X032818Y019913D02*
X035647Y019913D01*
X035507Y019754D02*
X032976Y019754D01*
X033135Y019596D02*
X035473Y019596D01*
X035511Y019437D02*
X033293Y019437D01*
X033016Y019120D02*
X032310Y019120D01*
X032310Y019118D02*
X032310Y019434D01*
X032298Y019509D01*
X032275Y019580D01*
X032241Y019647D01*
X032197Y019707D01*
X032144Y019761D01*
X032083Y019805D01*
X032016Y019839D01*
X031945Y019862D01*
X031871Y019874D01*
X031852Y019874D01*
X031852Y019118D01*
X032310Y019118D01*
X032310Y019082D02*
X031852Y019082D01*
X031852Y019118D01*
X031815Y019118D01*
X031815Y019082D01*
X031356Y019082D01*
X031356Y018766D01*
X031368Y018691D01*
X031391Y018620D01*
X031425Y018553D01*
X031470Y018493D01*
X031523Y018439D01*
X031583Y018395D01*
X031650Y018361D01*
X031722Y018338D01*
X031796Y018326D01*
X031815Y018326D01*
X031815Y019082D01*
X031852Y019082D01*
X031852Y018326D01*
X031871Y018326D01*
X031945Y018338D01*
X032016Y018361D01*
X032083Y018395D01*
X032144Y018439D01*
X032197Y018493D01*
X032241Y018553D01*
X032275Y018620D01*
X032298Y018691D01*
X032310Y018766D01*
X032310Y019082D01*
X032310Y018962D02*
X033175Y018962D01*
X033123Y019013D02*
X033123Y019013D01*
X032858Y019279D02*
X032310Y019279D01*
X032310Y019437D02*
X032699Y019437D01*
X032541Y019596D02*
X032267Y019596D01*
X032382Y019754D02*
X032151Y019754D01*
X032224Y019913D02*
X028943Y019913D01*
X029023Y019761D02*
X028970Y019707D01*
X028925Y019647D01*
X028891Y019580D01*
X028868Y019509D01*
X028856Y019434D01*
X028856Y019118D01*
X029315Y019118D01*
X029315Y019874D01*
X029296Y019874D01*
X029222Y019862D01*
X029150Y019839D01*
X029083Y019805D01*
X029023Y019761D01*
X029016Y019754D02*
X028784Y019754D01*
X028746Y019596D02*
X028899Y019596D01*
X028857Y019437D02*
X028790Y019437D01*
X028790Y019279D02*
X028856Y019279D01*
X028856Y019120D02*
X028790Y019120D01*
X028790Y018962D02*
X028856Y018962D01*
X028856Y018803D02*
X028790Y018803D01*
X028762Y018645D02*
X028883Y018645D01*
X028976Y018486D02*
X028662Y018486D01*
X028220Y018011D02*
X031126Y018011D01*
X031403Y018328D02*
X031788Y018328D01*
X031815Y018328D02*
X031852Y018328D01*
X031879Y018328D02*
X038252Y018328D01*
X038166Y018486D02*
X032191Y018486D01*
X032283Y018645D02*
X038153Y018645D01*
X038203Y018803D02*
X032310Y018803D01*
X031852Y018803D02*
X031815Y018803D01*
X031815Y018645D02*
X031852Y018645D01*
X031852Y018486D02*
X031815Y018486D01*
X031476Y018486D02*
X031244Y018486D01*
X031262Y018645D02*
X031383Y018645D01*
X031356Y018803D02*
X031290Y018803D01*
X031290Y018962D02*
X031356Y018962D01*
X031356Y019118D02*
X031815Y019118D01*
X031815Y019874D01*
X031796Y019874D01*
X031722Y019862D01*
X031650Y019839D01*
X031583Y019805D01*
X031523Y019761D01*
X031470Y019707D01*
X031425Y019647D01*
X031391Y019580D01*
X031368Y019509D01*
X031356Y019434D01*
X031356Y019118D01*
X031356Y019120D02*
X031290Y019120D01*
X031290Y019279D02*
X031356Y019279D01*
X031357Y019437D02*
X031290Y019437D01*
X031246Y019596D02*
X031399Y019596D01*
X031516Y019754D02*
X031122Y019754D01*
X030544Y019754D02*
X029651Y019754D01*
X029767Y019596D02*
X030421Y019596D01*
X030376Y019437D02*
X029810Y019437D01*
X029810Y019279D02*
X030376Y019279D01*
X030376Y019120D02*
X029810Y019120D01*
X029810Y018962D02*
X030376Y018962D01*
X030376Y018803D02*
X029810Y018803D01*
X029783Y018645D02*
X030405Y018645D01*
X030504Y018486D02*
X029691Y018486D01*
X029352Y018486D02*
X029315Y018486D01*
X029315Y018645D02*
X029352Y018645D01*
X029352Y018803D02*
X029315Y018803D01*
X029315Y018962D02*
X029352Y018962D01*
X029352Y019120D02*
X029315Y019120D01*
X029315Y019279D02*
X029352Y019279D01*
X029352Y019437D02*
X029315Y019437D01*
X029315Y019596D02*
X029352Y019596D01*
X029352Y019754D02*
X029315Y019754D01*
X029101Y020071D02*
X032065Y020071D01*
X031907Y020230D02*
X029260Y020230D01*
X029418Y020388D02*
X031748Y020388D01*
X031815Y019754D02*
X031852Y019754D01*
X031852Y019596D02*
X031815Y019596D01*
X031815Y019437D02*
X031852Y019437D01*
X031852Y019279D02*
X031815Y019279D01*
X031815Y019120D02*
X031852Y019120D01*
X031852Y018962D02*
X031815Y018962D01*
X033089Y015950D02*
X029577Y015950D01*
X029736Y015792D02*
X032931Y015792D01*
X032913Y015633D02*
X029753Y015633D01*
X029753Y015475D02*
X032913Y015475D01*
X033023Y015316D02*
X029643Y015316D01*
X029023Y015316D02*
X017543Y015316D01*
X017543Y015475D02*
X028913Y015475D01*
X028913Y015633D02*
X017543Y015633D01*
X017543Y015792D02*
X028931Y015792D01*
X029089Y015950D02*
X017543Y015950D01*
X017123Y015950D02*
X014934Y015950D01*
X014894Y016210D02*
X015023Y016339D01*
X015093Y016508D01*
X015093Y016691D01*
X015023Y016861D01*
X014894Y016990D01*
X014725Y017060D01*
X013942Y017060D01*
X013773Y016990D01*
X013643Y016861D01*
X013573Y016691D01*
X013573Y016508D01*
X013643Y016339D01*
X013773Y016210D01*
X013942Y016140D01*
X014725Y016140D01*
X014894Y016210D01*
X014951Y016267D02*
X017123Y016267D01*
X017123Y016109D02*
X013043Y016109D01*
X013043Y016267D02*
X013716Y016267D01*
X013608Y016426D02*
X013043Y016426D01*
X013043Y016584D02*
X013573Y016584D01*
X013594Y016743D02*
X013043Y016743D01*
X013043Y016901D02*
X013684Y016901D01*
X013941Y017060D02*
X013043Y017060D01*
X013043Y017218D02*
X013742Y017218D01*
X013721Y017234D02*
X013782Y017189D01*
X013849Y017155D01*
X013921Y017132D01*
X013996Y017120D01*
X014313Y017120D01*
X014313Y017580D01*
X013553Y017580D01*
X013553Y017562D01*
X013565Y017488D01*
X013588Y017416D01*
X013623Y017348D01*
X013667Y017287D01*
X013721Y017234D01*
X013608Y017377D02*
X013043Y017377D01*
X013043Y017535D02*
X013558Y017535D01*
X013553Y017620D02*
X014313Y017620D01*
X014313Y017580D01*
X014353Y017580D01*
X014353Y017120D01*
X014671Y017120D01*
X014746Y017132D01*
X014818Y017155D01*
X014885Y017189D01*
X014946Y017234D01*
X014999Y017287D01*
X015044Y017348D01*
X015078Y017416D01*
X015102Y017488D01*
X015113Y017562D01*
X015113Y017580D01*
X014353Y017580D01*
X014353Y017620D01*
X014313Y017620D01*
X014313Y018080D01*
X013996Y018080D01*
X013921Y018068D01*
X013849Y018045D01*
X013782Y018011D01*
X013721Y017966D01*
X013667Y017913D01*
X013623Y017852D01*
X013043Y017852D01*
X013043Y017694D02*
X013562Y017694D01*
X013565Y017712D02*
X013553Y017638D01*
X013553Y017620D01*
X013565Y017712D02*
X013588Y017784D01*
X013623Y017852D01*
X013782Y018011D02*
X013043Y018011D01*
X013043Y018169D02*
X016142Y018169D01*
X016151Y018160D02*
X015893Y018418D01*
X015893Y018600D01*
X016333Y018600D01*
X016333Y018600D01*
X015893Y018600D01*
X015893Y018782D01*
X016151Y019040D01*
X016333Y019040D01*
X016333Y018600D01*
X016333Y018600D01*
X016333Y018600D01*
X016333Y018160D01*
X016151Y018160D01*
X016333Y018160D02*
X016516Y018160D01*
X016773Y018418D01*
X016773Y018600D01*
X016773Y018782D01*
X016516Y019040D01*
X016333Y019040D01*
X016333Y018600D01*
X016333Y018160D01*
X016333Y018169D02*
X016333Y018169D01*
X016333Y018328D02*
X016333Y018328D01*
X016333Y018486D02*
X016333Y018486D01*
X016333Y018600D02*
X016333Y018600D01*
X016773Y018600D01*
X016333Y018600D01*
X016333Y018645D02*
X016333Y018645D01*
X016333Y018803D02*
X016333Y018803D01*
X016333Y018962D02*
X016333Y018962D01*
X016073Y018962D02*
X013043Y018962D01*
X013043Y019120D02*
X017123Y019120D01*
X017123Y018962D02*
X016594Y018962D01*
X016753Y018803D02*
X017123Y018803D01*
X017123Y018645D02*
X016773Y018645D01*
X016773Y018486D02*
X017123Y018486D01*
X017123Y018328D02*
X016683Y018328D01*
X016525Y018169D02*
X017123Y018169D01*
X017123Y018011D02*
X014885Y018011D01*
X014818Y018045D01*
X014746Y018068D01*
X014671Y018080D01*
X014353Y018080D01*
X014353Y017620D01*
X015113Y017620D01*
X015113Y017638D01*
X015102Y017712D01*
X015078Y017784D01*
X015044Y017852D01*
X014999Y017913D01*
X014946Y017966D01*
X014885Y018011D01*
X015044Y017852D02*
X017123Y017852D01*
X017123Y017694D02*
X015105Y017694D01*
X015109Y017535D02*
X017123Y017535D01*
X017123Y017377D02*
X015058Y017377D01*
X014924Y017218D02*
X017123Y017218D01*
X017123Y017060D02*
X014726Y017060D01*
X014983Y016901D02*
X017123Y016901D01*
X017123Y016743D02*
X015072Y016743D01*
X015093Y016584D02*
X017123Y016584D01*
X017123Y016426D02*
X015059Y016426D01*
X015439Y015792D02*
X017123Y015792D01*
X017123Y015633D02*
X015597Y015633D01*
X015756Y015475D02*
X017123Y015475D01*
X017123Y015316D02*
X015914Y015316D01*
X016073Y015158D02*
X017123Y015158D01*
X017137Y014999D02*
X016528Y014999D01*
X016687Y014841D02*
X037065Y014841D01*
X036771Y014365D02*
X016692Y014365D01*
X016534Y014207D02*
X036930Y014207D01*
X036914Y014008D02*
X036752Y014008D01*
X036602Y013946D01*
X036488Y013831D01*
X036426Y013681D01*
X036426Y013519D01*
X036488Y013369D01*
X036602Y013254D01*
X036752Y013192D01*
X036914Y013192D01*
X037064Y013254D01*
X037179Y013369D01*
X037241Y013519D01*
X037241Y013681D01*
X037179Y013831D01*
X037064Y013946D01*
X036914Y014008D01*
X037088Y014048D02*
X013043Y014048D01*
X013043Y013890D02*
X027546Y013890D01*
X027602Y013946D02*
X027488Y013831D01*
X027426Y013681D01*
X027426Y013519D01*
X027488Y013369D01*
X027602Y013254D01*
X027752Y013192D01*
X027914Y013192D01*
X028064Y013254D01*
X028179Y013369D01*
X028241Y013519D01*
X028241Y013681D01*
X028179Y013831D01*
X028064Y013946D01*
X027914Y014008D01*
X027752Y014008D01*
X027602Y013946D01*
X027446Y013731D02*
X013043Y013731D01*
X013043Y013573D02*
X027426Y013573D01*
X027469Y013414D02*
X013043Y013414D01*
X013043Y013256D02*
X027601Y013256D01*
X027875Y012939D02*
X013043Y012939D01*
X013043Y013097D02*
X028033Y013097D01*
X028065Y013256D02*
X028192Y013256D01*
X028198Y013414D02*
X028350Y013414D01*
X028426Y013573D02*
X028241Y013573D01*
X028220Y013731D02*
X028446Y013731D01*
X028546Y013890D02*
X028120Y013890D01*
X027716Y012780D02*
X013043Y012780D01*
X013043Y012622D02*
X027558Y012622D01*
X027399Y012463D02*
X013043Y012463D01*
X013043Y012305D02*
X027241Y012305D01*
X027082Y012146D02*
X013043Y012146D01*
X013043Y011988D02*
X016099Y011988D01*
X016151Y012040D02*
X015893Y011782D01*
X015893Y011600D01*
X015893Y011418D01*
X016151Y011160D01*
X016333Y011160D01*
X016333Y011600D01*
X015893Y011600D01*
X016333Y011600D01*
X016333Y011600D01*
X016333Y012040D01*
X016151Y012040D01*
X016333Y012040D02*
X016333Y011600D01*
X016333Y011600D01*
X016333Y011600D01*
X016333Y011160D01*
X016516Y011160D01*
X016773Y011418D01*
X016773Y011600D01*
X016773Y011782D01*
X016516Y012040D01*
X016333Y012040D01*
X016333Y011988D02*
X016333Y011988D01*
X016333Y011829D02*
X016333Y011829D01*
X016333Y011671D02*
X016333Y011671D01*
X016333Y011600D02*
X016773Y011600D01*
X016333Y011600D01*
X016333Y011600D01*
X016333Y011512D02*
X016333Y011512D01*
X016333Y011354D02*
X016333Y011354D01*
X016333Y011195D02*
X016333Y011195D01*
X016116Y011195D02*
X013043Y011195D01*
X013043Y011037D02*
X025973Y011037D01*
X026131Y011195D02*
X016551Y011195D01*
X016709Y011354D02*
X026290Y011354D01*
X026448Y011512D02*
X016773Y011512D01*
X016773Y011671D02*
X026607Y011671D01*
X026765Y011829D02*
X016727Y011829D01*
X016568Y011988D02*
X026924Y011988D01*
X025814Y010878D02*
X013043Y010878D01*
X013043Y010720D02*
X025656Y010720D01*
X025497Y010561D02*
X014768Y010561D01*
X014746Y010568D02*
X014671Y010580D01*
X014353Y010580D01*
X014353Y010120D01*
X014313Y010120D01*
X014313Y010080D01*
X013553Y010080D01*
X013553Y010062D01*
X013565Y009988D01*
X013588Y009916D01*
X013623Y009848D01*
X013667Y009787D01*
X013721Y009734D01*
X013782Y009689D01*
X013849Y009655D01*
X013921Y009632D01*
X013996Y009620D01*
X014313Y009620D01*
X014313Y010080D01*
X014353Y010080D01*
X014353Y009620D01*
X014671Y009620D01*
X014746Y009632D01*
X014818Y009655D01*
X014885Y009689D01*
X014946Y009734D01*
X014999Y009787D01*
X015044Y009848D01*
X015078Y009916D01*
X015102Y009988D01*
X015113Y010062D01*
X015113Y010080D01*
X014353Y010080D01*
X014353Y010120D01*
X015113Y010120D01*
X015113Y010138D01*
X015102Y010212D01*
X015078Y010284D01*
X015044Y010352D01*
X014999Y010413D01*
X014946Y010466D01*
X014885Y010511D01*
X014818Y010545D01*
X014746Y010568D01*
X015007Y010403D02*
X025339Y010403D01*
X025180Y010244D02*
X015091Y010244D01*
X015082Y009927D02*
X024863Y009927D01*
X024705Y009769D02*
X014981Y009769D01*
X014353Y009769D02*
X014313Y009769D01*
X014313Y009927D02*
X014353Y009927D01*
X014353Y010086D02*
X025022Y010086D01*
X023543Y007867D02*
X027498Y007867D01*
X027419Y007708D02*
X023671Y007708D01*
X023791Y007550D02*
X027408Y007550D01*
X027460Y007391D02*
X023853Y007391D01*
X023853Y007233D02*
X027613Y007233D01*
X027833Y007233D02*
X027833Y007233D01*
X027833Y007391D02*
X027833Y007391D01*
X027833Y007550D02*
X027833Y007550D01*
X027833Y007600D02*
X027833Y007600D01*
X027833Y007708D02*
X027833Y007708D01*
X027833Y007867D02*
X027833Y007867D01*
X028168Y007867D02*
X028523Y007867D01*
X028488Y007831D02*
X028602Y007946D01*
X028752Y008008D01*
X028914Y008008D01*
X029064Y007946D01*
X029179Y007831D01*
X029241Y007681D01*
X029241Y007519D01*
X029179Y007369D01*
X029064Y007254D01*
X028914Y007192D01*
X028752Y007192D01*
X028602Y007254D01*
X028488Y007369D01*
X028426Y007519D01*
X028426Y007681D01*
X028488Y007831D01*
X028437Y007708D02*
X028248Y007708D01*
X028258Y007550D02*
X028426Y007550D01*
X028479Y007391D02*
X028207Y007391D01*
X028054Y007233D02*
X028655Y007233D01*
X029011Y007233D02*
X034655Y007233D01*
X034602Y007254D02*
X034752Y007192D01*
X034914Y007192D01*
X035064Y007254D01*
X035179Y007369D01*
X035241Y007519D01*
X035241Y007681D01*
X035179Y007831D01*
X035064Y007946D01*
X034914Y008008D01*
X034752Y008008D01*
X034602Y007946D01*
X034488Y007831D01*
X034426Y007681D01*
X034426Y007519D01*
X034488Y007369D01*
X034602Y007254D01*
X034479Y007391D02*
X029188Y007391D01*
X029241Y007550D02*
X034426Y007550D01*
X034437Y007708D02*
X029230Y007708D01*
X029143Y007867D02*
X034523Y007867D01*
X035143Y007867D02*
X036523Y007867D01*
X036488Y007831D02*
X036602Y007946D01*
X036752Y008008D01*
X036914Y008008D01*
X037064Y007946D01*
X037179Y007831D01*
X037241Y007681D01*
X037241Y007519D01*
X037179Y007369D01*
X037064Y007254D01*
X036914Y007192D01*
X036752Y007192D01*
X036602Y007254D01*
X036488Y007369D01*
X036426Y007519D01*
X036426Y007681D01*
X036488Y007831D01*
X036437Y007708D02*
X035230Y007708D01*
X035241Y007550D02*
X036426Y007550D01*
X036479Y007391D02*
X035188Y007391D01*
X035011Y007233D02*
X036655Y007233D01*
X037011Y007233D02*
X042579Y007233D01*
X042651Y007160D02*
X042393Y007418D01*
X042393Y007600D01*
X042833Y007600D01*
X042833Y007600D01*
X042393Y007600D01*
X042393Y007782D01*
X042651Y008040D01*
X042833Y008040D01*
X042833Y007600D01*
X042833Y007600D01*
X042833Y007160D01*
X042651Y007160D01*
X042659Y007020D02*
X042413Y006774D01*
X042413Y006426D01*
X042659Y006180D01*
X043007Y006180D01*
X043253Y006426D01*
X043253Y006774D01*
X043007Y007020D01*
X042659Y007020D01*
X042555Y006916D02*
X041640Y006916D01*
X041516Y007040D02*
X041773Y006782D01*
X041773Y006600D01*
X041333Y006600D01*
X040893Y006600D01*
X040893Y006418D01*
X041151Y006160D01*
X041333Y006160D01*
X041333Y006600D01*
X041333Y006600D01*
X040893Y006600D01*
X040893Y006782D01*
X041151Y007040D01*
X041333Y007040D01*
X041333Y006600D01*
X041333Y006600D01*
X041333Y006600D01*
X041333Y007040D01*
X041516Y007040D01*
X041333Y006916D02*
X041333Y006916D01*
X041333Y006757D02*
X041333Y006757D01*
X041333Y006600D02*
X041333Y006600D01*
X041333Y006160D01*
X041516Y006160D01*
X041773Y006418D01*
X041773Y006600D01*
X041333Y006600D01*
X041333Y006599D02*
X041333Y006599D01*
X041333Y006440D02*
X041333Y006440D01*
X041333Y006282D02*
X041333Y006282D01*
X041030Y006282D02*
X040137Y006282D01*
X040016Y006160D02*
X040273Y006418D01*
X040273Y006600D01*
X040273Y006782D01*
X040016Y007040D01*
X039833Y007040D01*
X039651Y007040D01*
X039393Y006782D01*
X039393Y006600D01*
X039393Y006418D01*
X039651Y006160D01*
X039833Y006160D01*
X039833Y006600D01*
X039393Y006600D01*
X039833Y006600D01*
X039833Y006600D01*
X039833Y007040D01*
X039833Y006600D01*
X039833Y006600D01*
X039833Y006600D01*
X039833Y006160D01*
X040016Y006160D01*
X039833Y006282D02*
X039833Y006282D01*
X039833Y006440D02*
X039833Y006440D01*
X039833Y006599D02*
X039833Y006599D01*
X039833Y006600D02*
X039833Y006600D01*
X040273Y006600D01*
X039833Y006600D01*
X039833Y006757D02*
X039833Y006757D01*
X039833Y006916D02*
X039833Y006916D01*
X039527Y006916D02*
X025172Y006916D01*
X025268Y006757D02*
X039393Y006757D01*
X039393Y006599D02*
X025313Y006599D01*
X025313Y006440D02*
X039393Y006440D01*
X039530Y006282D02*
X025313Y006282D01*
X025313Y006123D02*
X050723Y006123D01*
X050723Y005965D02*
X025313Y005965D01*
X025313Y005806D02*
X050723Y005806D01*
X050723Y005648D02*
X025313Y005648D01*
X025287Y005489D02*
X050723Y005489D01*
X050723Y005331D02*
X025218Y005331D01*
X025059Y005172D02*
X050723Y005172D01*
X050723Y006282D02*
X047137Y006282D01*
X047016Y006160D02*
X047273Y006418D01*
X047273Y006600D01*
X047273Y006782D01*
X047016Y007040D01*
X046833Y007040D01*
X046651Y007040D01*
X046393Y006782D01*
X046393Y006600D01*
X046393Y006418D01*
X046651Y006160D01*
X046833Y006160D01*
X046833Y006600D01*
X046393Y006600D01*
X046833Y006600D01*
X046833Y006600D01*
X046833Y006600D01*
X046833Y007040D01*
X046833Y006600D01*
X046833Y006600D01*
X046833Y006160D01*
X047016Y006160D01*
X046833Y006282D02*
X046833Y006282D01*
X046833Y006440D02*
X046833Y006440D01*
X046833Y006599D02*
X046833Y006599D01*
X046833Y006600D02*
X046833Y006600D01*
X047273Y006600D01*
X046833Y006600D01*
X046833Y006757D02*
X046833Y006757D01*
X046833Y006916D02*
X046833Y006916D01*
X046527Y006916D02*
X043112Y006916D01*
X043253Y006757D02*
X046393Y006757D01*
X046393Y006599D02*
X043253Y006599D01*
X043253Y006440D02*
X046393Y006440D01*
X046530Y006282D02*
X043109Y006282D01*
X043016Y007160D02*
X043273Y007418D01*
X043273Y007600D01*
X043273Y007782D01*
X043016Y008040D01*
X042833Y008040D01*
X042833Y007600D01*
X042833Y007600D01*
X042833Y007160D01*
X043016Y007160D01*
X043088Y007233D02*
X046607Y007233D01*
X046448Y007391D02*
X043247Y007391D01*
X043273Y007550D02*
X046413Y007550D01*
X046413Y007708D02*
X043273Y007708D01*
X043273Y007600D02*
X042833Y007600D01*
X042833Y007600D01*
X043273Y007600D01*
X043189Y007867D02*
X046270Y007867D01*
X046111Y008025D02*
X043031Y008025D01*
X042833Y008025D02*
X042833Y008025D01*
X042833Y007867D02*
X042833Y007867D01*
X042833Y007708D02*
X042833Y007708D01*
X042833Y007550D02*
X042833Y007550D01*
X042833Y007391D02*
X042833Y007391D01*
X042833Y007233D02*
X042833Y007233D01*
X042420Y007391D02*
X037188Y007391D01*
X037241Y007550D02*
X042393Y007550D01*
X042393Y007708D02*
X041564Y007708D01*
X041516Y007660D02*
X041773Y007918D01*
X041773Y008100D01*
X041773Y008282D01*
X041516Y008540D01*
X041333Y008540D01*
X041151Y008540D01*
X040893Y008282D01*
X040893Y008100D01*
X040893Y007918D01*
X041151Y007660D01*
X041333Y007660D01*
X041333Y008100D01*
X040893Y008100D01*
X041333Y008100D01*
X041333Y008100D01*
X041333Y008540D01*
X041333Y008100D01*
X041333Y008100D01*
X041333Y008100D01*
X041333Y007660D01*
X041516Y007660D01*
X041333Y007708D02*
X041333Y007708D01*
X041333Y007867D02*
X041333Y007867D01*
X041333Y008025D02*
X041333Y008025D01*
X041333Y008100D02*
X041333Y008100D01*
X041773Y008100D01*
X041333Y008100D01*
X041333Y008184D02*
X041333Y008184D01*
X041333Y008342D02*
X041333Y008342D01*
X041333Y008501D02*
X041333Y008501D01*
X041112Y008501D02*
X040055Y008501D01*
X040016Y008540D02*
X040273Y008282D01*
X040273Y008100D01*
X039833Y008100D01*
X039833Y008100D01*
X039833Y008100D01*
X039833Y008540D01*
X040016Y008540D01*
X039833Y008501D02*
X039833Y008501D01*
X039833Y008342D02*
X039833Y008342D01*
X039833Y008184D02*
X039833Y008184D01*
X039833Y008100D02*
X039833Y008100D01*
X039833Y007660D01*
X040016Y007660D01*
X040273Y007918D01*
X040273Y008100D01*
X039833Y008100D01*
X039833Y008025D02*
X039833Y008025D01*
X039833Y007867D02*
X039833Y007867D01*
X039833Y007708D02*
X039833Y007708D01*
X039603Y007708D02*
X037230Y007708D01*
X037143Y007867D02*
X039445Y007867D01*
X040064Y007708D02*
X041103Y007708D01*
X040945Y007867D02*
X040222Y007867D01*
X040273Y008025D02*
X040893Y008025D01*
X040893Y008184D02*
X040273Y008184D01*
X040214Y008342D02*
X040953Y008342D01*
X041555Y008501D02*
X045636Y008501D01*
X045794Y008342D02*
X041714Y008342D01*
X041773Y008184D02*
X045953Y008184D01*
X046230Y008501D02*
X047413Y008501D01*
X047413Y008426D02*
X047659Y008180D01*
X048007Y008180D01*
X048253Y008426D01*
X048253Y008774D01*
X048007Y009020D01*
X047659Y009020D01*
X047413Y008774D01*
X047413Y008426D01*
X047497Y008342D02*
X046388Y008342D01*
X046547Y008184D02*
X047656Y008184D01*
X048011Y008184D02*
X049128Y008184D01*
X049151Y008160D02*
X048893Y008418D01*
X048893Y008600D01*
X049333Y008600D01*
X049333Y008600D01*
X048893Y008600D01*
X048893Y008782D01*
X049151Y009040D01*
X049333Y009040D01*
X049333Y008600D01*
X049333Y008600D01*
X049333Y008600D01*
X049333Y008160D01*
X049151Y008160D01*
X049333Y008160D02*
X049516Y008160D01*
X049773Y008418D01*
X049773Y008600D01*
X049773Y008782D01*
X049516Y009040D01*
X049333Y009040D01*
X049333Y008600D01*
X049333Y008160D01*
X049333Y008184D02*
X049333Y008184D01*
X049333Y008342D02*
X049333Y008342D01*
X049333Y008501D02*
X049333Y008501D01*
X049333Y008600D02*
X049333Y008600D01*
X049773Y008600D01*
X049333Y008600D01*
X049333Y008659D02*
X049333Y008659D01*
X049333Y008818D02*
X049333Y008818D01*
X049333Y008976D02*
X049333Y008976D01*
X049087Y008976D02*
X048051Y008976D01*
X048210Y008818D02*
X048929Y008818D01*
X048893Y008659D02*
X048253Y008659D01*
X048253Y008501D02*
X048893Y008501D01*
X048969Y008342D02*
X048169Y008342D01*
X047413Y008659D02*
X046071Y008659D01*
X045913Y008818D02*
X047457Y008818D01*
X047615Y008976D02*
X045754Y008976D01*
X045596Y009135D02*
X050723Y009135D01*
X050723Y009293D02*
X045437Y009293D01*
X045424Y009346D02*
X045592Y009416D01*
X045721Y009544D01*
X045790Y009712D01*
X045790Y010488D01*
X045721Y010656D01*
X045592Y010784D01*
X045424Y010854D01*
X045242Y010854D01*
X045075Y010784D01*
X044946Y010656D01*
X044876Y010488D01*
X044876Y009712D01*
X044946Y009544D01*
X045075Y009416D01*
X045242Y009346D01*
X045424Y009346D01*
X045628Y009452D02*
X046039Y009452D01*
X046075Y009416D02*
X046242Y009346D01*
X046424Y009346D01*
X046592Y009416D01*
X046721Y009544D01*
X046790Y009712D01*
X046790Y010488D01*
X046721Y010656D01*
X046592Y010784D01*
X046424Y010854D01*
X046377Y010854D01*
X045920Y011310D01*
X040920Y011310D01*
X040253Y011977D01*
X040253Y012274D01*
X040007Y012520D01*
X039659Y012520D01*
X039413Y012274D01*
X039413Y011926D01*
X039659Y011680D01*
X039956Y011680D01*
X040623Y011013D01*
X040746Y010890D01*
X045746Y010890D01*
X045963Y010673D01*
X045946Y010656D01*
X045876Y010488D01*
X045876Y009712D01*
X045946Y009544D01*
X046075Y009416D01*
X045919Y009610D02*
X045748Y009610D01*
X045790Y009769D02*
X045876Y009769D01*
X045876Y009927D02*
X045790Y009927D01*
X045790Y010086D02*
X045876Y010086D01*
X045876Y010244D02*
X045790Y010244D01*
X045790Y010403D02*
X045876Y010403D01*
X045907Y010561D02*
X045760Y010561D01*
X045657Y010720D02*
X045917Y010720D01*
X045758Y010878D02*
X039852Y010878D01*
X039694Y011037D02*
X040600Y011037D01*
X040441Y011195D02*
X039535Y011195D01*
X039377Y011354D02*
X040283Y011354D01*
X040124Y011512D02*
X039218Y011512D01*
X039060Y011671D02*
X039966Y011671D01*
X040253Y011988D02*
X040913Y011988D01*
X040913Y011926D02*
X041159Y011680D01*
X041456Y011680D01*
X041746Y011390D01*
X045920Y011390D01*
X046043Y011513D01*
X047920Y013390D01*
X049420Y013390D01*
X049543Y013513D01*
X049543Y018187D01*
X049420Y018310D01*
X048920Y018810D01*
X048543Y018810D01*
X048543Y019592D01*
X048657Y019639D01*
X048813Y019795D01*
X048897Y019998D01*
X048897Y020218D01*
X048813Y020422D01*
X048657Y020578D01*
X048453Y020662D01*
X048233Y020662D01*
X048030Y020578D01*
X047874Y020422D01*
X047789Y020218D01*
X047789Y019998D01*
X047874Y019795D01*
X048030Y019639D01*
X048123Y019600D01*
X048123Y018513D01*
X048246Y018390D01*
X048746Y018390D01*
X049123Y018013D01*
X049123Y013810D01*
X047746Y013810D01*
X045746Y011810D01*
X041920Y011810D01*
X041753Y011977D01*
X041753Y012274D01*
X041507Y012520D01*
X041159Y012520D01*
X040913Y012274D01*
X040913Y011926D01*
X041010Y011829D02*
X040401Y011829D01*
X040560Y011671D02*
X041466Y011671D01*
X041624Y011512D02*
X040718Y011512D01*
X040877Y011354D02*
X050723Y011354D01*
X050723Y011512D02*
X046042Y011512D01*
X046043Y011513D02*
X046043Y011513D01*
X046201Y011671D02*
X050723Y011671D01*
X050723Y011829D02*
X046359Y011829D01*
X046518Y011988D02*
X050723Y011988D01*
X050723Y012146D02*
X046676Y012146D01*
X046835Y012305D02*
X047507Y012305D01*
X047393Y012418D02*
X047651Y012160D01*
X047833Y012160D01*
X047833Y012600D01*
X047393Y012600D01*
X047393Y012418D01*
X047393Y012463D02*
X046993Y012463D01*
X047152Y012622D02*
X047393Y012622D01*
X047393Y012600D02*
X047833Y012600D01*
X047833Y012600D01*
X047833Y013040D01*
X047651Y013040D01*
X047393Y012782D01*
X047393Y012600D01*
X047393Y012780D02*
X047310Y012780D01*
X047469Y012939D02*
X047550Y012939D01*
X047627Y013097D02*
X050723Y013097D01*
X050723Y012939D02*
X049589Y012939D01*
X049507Y013020D02*
X049159Y013020D01*
X048913Y012774D01*
X048913Y012426D01*
X049159Y012180D01*
X049507Y012180D01*
X049753Y012426D01*
X049753Y012774D01*
X049507Y013020D01*
X049747Y012780D02*
X050723Y012780D01*
X050723Y012622D02*
X049753Y012622D01*
X049753Y012463D02*
X050723Y012463D01*
X050723Y012305D02*
X049632Y012305D01*
X049035Y012305D02*
X048160Y012305D01*
X048273Y012418D02*
X048016Y012160D01*
X047833Y012160D01*
X047833Y012600D01*
X047833Y012600D01*
X047833Y012600D01*
X047833Y013040D01*
X048016Y013040D01*
X048273Y012782D01*
X048273Y012600D01*
X047833Y012600D01*
X047833Y012600D01*
X048273Y012600D01*
X048273Y012418D01*
X048273Y012463D02*
X048913Y012463D01*
X048913Y012622D02*
X048273Y012622D01*
X048273Y012780D02*
X048919Y012780D01*
X049078Y012939D02*
X048117Y012939D01*
X047833Y012939D02*
X047833Y012939D01*
X047833Y012780D02*
X047833Y012780D01*
X047833Y012622D02*
X047833Y012622D01*
X047833Y012463D02*
X047833Y012463D01*
X047833Y012305D02*
X047833Y012305D01*
X047786Y013256D02*
X050723Y013256D01*
X050723Y013414D02*
X049444Y013414D01*
X049543Y013573D02*
X050723Y013573D01*
X050723Y013731D02*
X049543Y013731D01*
X049543Y013890D02*
X050723Y013890D01*
X050723Y014048D02*
X049543Y014048D01*
X049543Y014207D02*
X050723Y014207D01*
X050723Y014365D02*
X049543Y014365D01*
X049543Y014524D02*
X050723Y014524D01*
X050723Y014682D02*
X049543Y014682D01*
X049543Y014841D02*
X050723Y014841D01*
X050723Y014999D02*
X049543Y014999D01*
X049543Y015158D02*
X050723Y015158D01*
X050723Y015316D02*
X049543Y015316D01*
X049543Y015475D02*
X050723Y015475D01*
X050723Y015633D02*
X049543Y015633D01*
X049543Y015792D02*
X050723Y015792D01*
X050723Y015950D02*
X049543Y015950D01*
X049543Y016109D02*
X050723Y016109D01*
X050723Y016267D02*
X049543Y016267D01*
X049543Y016426D02*
X050723Y016426D01*
X050723Y016584D02*
X049543Y016584D01*
X049543Y016743D02*
X050723Y016743D01*
X050723Y016901D02*
X049543Y016901D01*
X049543Y017060D02*
X050723Y017060D01*
X050723Y017218D02*
X049543Y017218D01*
X049543Y017377D02*
X050723Y017377D01*
X050723Y017535D02*
X049543Y017535D01*
X049543Y017694D02*
X050723Y017694D01*
X050723Y017852D02*
X049543Y017852D01*
X049543Y018011D02*
X050723Y018011D01*
X050723Y018169D02*
X049543Y018169D01*
X049403Y018328D02*
X050723Y018328D01*
X050723Y018486D02*
X049244Y018486D01*
X049086Y018645D02*
X050723Y018645D01*
X050723Y018803D02*
X048927Y018803D01*
X048543Y018962D02*
X050723Y018962D01*
X050723Y019120D02*
X048543Y019120D01*
X048543Y019279D02*
X050723Y019279D01*
X050723Y019437D02*
X048543Y019437D01*
X048552Y019596D02*
X050723Y019596D01*
X050723Y019754D02*
X048772Y019754D01*
X048861Y019913D02*
X050723Y019913D01*
X050723Y020071D02*
X048897Y020071D01*
X048892Y020230D02*
X050723Y020230D01*
X050723Y020388D02*
X048827Y020388D01*
X048688Y020547D02*
X050723Y020547D01*
X050723Y020705D02*
X042504Y020705D01*
X042513Y020684D02*
X042449Y020838D01*
X042331Y020956D01*
X042177Y021020D01*
X041490Y021020D01*
X041335Y020956D01*
X041217Y020838D01*
X041153Y020684D01*
X041153Y020516D01*
X041217Y020362D01*
X041335Y020244D01*
X041490Y020180D01*
X042177Y020180D01*
X042331Y020244D01*
X042449Y020362D01*
X042513Y020516D01*
X042513Y020684D01*
X042513Y020547D02*
X047998Y020547D01*
X047860Y020388D02*
X042460Y020388D01*
X042296Y020230D02*
X047794Y020230D01*
X047789Y020071D02*
X041159Y020071D01*
X041001Y020230D02*
X041370Y020230D01*
X041207Y020388D02*
X039479Y020388D01*
X039530Y020547D02*
X041153Y020547D01*
X041162Y020705D02*
X039522Y020705D01*
X039533Y020600D02*
X038833Y020600D01*
X038833Y021040D01*
X038833Y020600D01*
X038833Y020600D01*
X038833Y020600D01*
X039533Y020600D01*
X039446Y020864D02*
X041243Y020864D01*
X041404Y021192D02*
X041470Y021171D01*
X041539Y021160D01*
X041833Y021160D01*
X041833Y021600D01*
X041133Y021600D01*
X041133Y021565D01*
X041144Y021497D01*
X041166Y021431D01*
X041197Y021369D01*
X041238Y021313D01*
X041287Y021264D01*
X041343Y021224D01*
X041404Y021192D01*
X041440Y021181D02*
X039178Y021181D01*
X039218Y021022D02*
X050723Y021022D01*
X050723Y020864D02*
X042424Y020864D01*
X042262Y021192D02*
X042324Y021224D01*
X042380Y021264D01*
X042429Y021313D01*
X042470Y021369D01*
X042501Y021431D01*
X042522Y021497D01*
X042533Y021565D01*
X042533Y021600D01*
X042533Y021635D01*
X042522Y021703D01*
X042501Y021769D01*
X042470Y021831D01*
X042429Y021887D01*
X042380Y021936D01*
X042324Y021976D01*
X042262Y022008D01*
X042196Y022029D01*
X042128Y022040D01*
X041833Y022040D01*
X041539Y022040D01*
X041470Y022029D01*
X041404Y022008D01*
X041343Y021976D01*
X041287Y021936D01*
X041238Y021887D01*
X041197Y021831D01*
X041166Y021769D01*
X041144Y021703D01*
X041133Y021635D01*
X041133Y021600D01*
X041833Y021600D01*
X041833Y021600D01*
X041833Y022040D01*
X041833Y021600D01*
X041833Y021600D01*
X041833Y021600D01*
X041833Y021160D01*
X042128Y021160D01*
X042196Y021171D01*
X042262Y021192D01*
X042226Y021181D02*
X050723Y021181D01*
X050723Y021339D02*
X044830Y021339D01*
X044875Y021385D02*
X044933Y021524D01*
X044933Y021676D01*
X044875Y021815D01*
X044769Y021922D01*
X044629Y021980D01*
X044543Y021980D01*
X044543Y022687D01*
X044420Y022810D01*
X042461Y022810D01*
X042449Y022838D01*
X042331Y022956D01*
X042177Y023020D01*
X041490Y023020D01*
X041335Y022956D01*
X041217Y022838D01*
X041153Y022684D01*
X041153Y022516D01*
X041217Y022362D01*
X041335Y022244D01*
X041490Y022180D01*
X042177Y022180D01*
X042331Y022244D01*
X042449Y022362D01*
X042461Y022390D01*
X044123Y022390D01*
X044123Y021980D01*
X044038Y021980D01*
X043898Y021922D01*
X043791Y021815D01*
X043733Y021676D01*
X043733Y021524D01*
X043791Y021385D01*
X043898Y021278D01*
X044038Y021220D01*
X044629Y021220D01*
X044769Y021278D01*
X044875Y021385D01*
X044922Y021498D02*
X050723Y021498D01*
X050723Y021656D02*
X048674Y021656D01*
X048657Y021639D02*
X048813Y021795D01*
X048897Y021998D01*
X048897Y022218D01*
X048813Y022422D01*
X048657Y022578D01*
X048453Y022662D01*
X048233Y022662D01*
X048030Y022578D01*
X047874Y022422D01*
X047789Y022218D01*
X047789Y021998D01*
X047874Y021795D01*
X048030Y021639D01*
X048233Y021555D01*
X048453Y021555D01*
X048657Y021639D01*
X048821Y021815D02*
X050723Y021815D01*
X050723Y021973D02*
X048886Y021973D01*
X048897Y022132D02*
X050723Y022132D01*
X050723Y022290D02*
X048867Y022290D01*
X048786Y022449D02*
X050723Y022449D01*
X050723Y022607D02*
X048586Y022607D01*
X048100Y022607D02*
X044543Y022607D01*
X044543Y022449D02*
X047900Y022449D01*
X047819Y022290D02*
X044543Y022290D01*
X044543Y022132D02*
X047789Y022132D01*
X047800Y021973D02*
X044646Y021973D01*
X044876Y021815D02*
X047866Y021815D01*
X048012Y021656D02*
X044933Y021656D01*
X044123Y022132D02*
X040043Y022132D01*
X040043Y022290D02*
X041289Y022290D01*
X041181Y022449D02*
X040043Y022449D01*
X040043Y022607D02*
X041153Y022607D01*
X041187Y022766D02*
X040043Y022766D01*
X040043Y022924D02*
X041303Y022924D01*
X041490Y023180D02*
X041335Y023244D01*
X041217Y023362D01*
X041153Y023516D01*
X041153Y023684D01*
X041217Y023838D01*
X041335Y023956D01*
X041490Y024020D01*
X042177Y024020D01*
X042331Y023956D01*
X042449Y023838D01*
X042513Y023684D01*
X042513Y023516D01*
X042449Y023362D01*
X042331Y023244D01*
X042177Y023180D01*
X041490Y023180D01*
X041342Y023241D02*
X040271Y023241D01*
X040113Y023083D02*
X050723Y023083D01*
X050723Y023241D02*
X044680Y023241D01*
X044629Y023220D02*
X044769Y023278D01*
X044875Y023385D01*
X044933Y023524D01*
X044933Y023676D01*
X044875Y023815D01*
X044769Y023922D01*
X044629Y023980D01*
X044038Y023980D01*
X043898Y023922D01*
X043791Y023815D01*
X043733Y023676D01*
X043733Y023524D01*
X043791Y023385D01*
X043898Y023278D01*
X044038Y023220D01*
X044629Y023220D01*
X044882Y023400D02*
X050723Y023400D01*
X050723Y023558D02*
X044933Y023558D01*
X044916Y023717D02*
X050723Y023717D01*
X050723Y023875D02*
X044816Y023875D01*
X044465Y022766D02*
X050723Y022766D01*
X050723Y022924D02*
X042363Y022924D01*
X042324Y023241D02*
X043987Y023241D01*
X043785Y023400D02*
X042465Y023400D01*
X042513Y023558D02*
X043733Y023558D01*
X043750Y023717D02*
X042500Y023717D01*
X042412Y023875D02*
X043851Y023875D01*
X044123Y022290D02*
X042377Y022290D01*
X042328Y021973D02*
X044021Y021973D01*
X043791Y021815D02*
X042478Y021815D01*
X042530Y021656D02*
X043733Y021656D01*
X043744Y021498D02*
X042523Y021498D01*
X042533Y021600D02*
X041833Y021600D01*
X042533Y021600D01*
X042448Y021339D02*
X043837Y021339D01*
X042952Y019279D02*
X048123Y019279D01*
X048123Y019437D02*
X042480Y019437D01*
X042513Y019596D02*
X048123Y019596D01*
X047914Y019754D02*
X042484Y019754D01*
X042375Y019913D02*
X047825Y019913D01*
X048123Y019120D02*
X043110Y019120D01*
X043269Y018962D02*
X044073Y018962D01*
X044151Y019040D02*
X043893Y018782D01*
X043893Y018418D01*
X044151Y018160D01*
X044516Y018160D01*
X044773Y018418D01*
X044773Y018782D01*
X044516Y019040D01*
X044151Y019040D01*
X043914Y018803D02*
X043427Y018803D01*
X043586Y018645D02*
X043893Y018645D01*
X043893Y018486D02*
X043744Y018486D01*
X043903Y018328D02*
X043984Y018328D01*
X044061Y018169D02*
X044142Y018169D01*
X044220Y018011D02*
X047962Y018011D01*
X048030Y018078D02*
X047874Y017922D01*
X047789Y017718D01*
X047789Y017498D01*
X047874Y017295D01*
X048030Y017139D01*
X048233Y017055D01*
X048453Y017055D01*
X048657Y017139D01*
X048813Y017295D01*
X048897Y017498D01*
X048897Y017718D01*
X048813Y017922D01*
X048657Y018078D01*
X048453Y018162D01*
X048233Y018162D01*
X048030Y018078D01*
X047845Y017852D02*
X044378Y017852D01*
X044537Y017694D02*
X047789Y017694D01*
X047789Y017535D02*
X044695Y017535D01*
X044854Y017377D02*
X047840Y017377D01*
X047950Y017218D02*
X045012Y017218D01*
X045171Y017060D02*
X048221Y017060D01*
X048465Y017060D02*
X049123Y017060D01*
X049123Y017218D02*
X048736Y017218D01*
X048846Y017377D02*
X049123Y017377D01*
X049123Y017535D02*
X048897Y017535D01*
X048897Y017694D02*
X049123Y017694D01*
X049123Y017852D02*
X048842Y017852D01*
X048724Y018011D02*
X049123Y018011D01*
X048967Y018169D02*
X044525Y018169D01*
X044683Y018328D02*
X048809Y018328D01*
X048150Y018486D02*
X044773Y018486D01*
X044773Y018645D02*
X048123Y018645D01*
X048123Y018803D02*
X044753Y018803D01*
X044594Y018962D02*
X048123Y018962D01*
X049123Y016901D02*
X045329Y016901D01*
X045488Y016743D02*
X049123Y016743D01*
X049123Y016584D02*
X045646Y016584D01*
X045805Y016426D02*
X049123Y016426D01*
X049123Y016267D02*
X045963Y016267D01*
X046122Y016109D02*
X048104Y016109D01*
X047902Y015950D02*
X046280Y015950D01*
X046003Y015633D02*
X044793Y015633D01*
X044793Y015610D02*
X044793Y015791D01*
X044524Y016060D01*
X044343Y016060D01*
X044343Y015610D01*
X044323Y015610D01*
X044323Y015590D01*
X043873Y015590D01*
X043873Y015409D01*
X044143Y015140D01*
X044323Y015140D01*
X044323Y015590D01*
X044343Y015590D01*
X044343Y015140D01*
X044524Y015140D01*
X044793Y015409D01*
X044793Y015590D01*
X044343Y015590D01*
X044343Y015610D01*
X044793Y015610D01*
X044793Y015475D02*
X046162Y015475D01*
X045845Y015792D02*
X044792Y015792D01*
X044634Y015950D02*
X045686Y015950D01*
X045528Y016109D02*
X043543Y016109D01*
X043543Y016267D02*
X045369Y016267D01*
X045211Y016426D02*
X043543Y016426D01*
X043543Y016584D02*
X045052Y016584D01*
X044894Y016743D02*
X043543Y016743D01*
X043543Y016901D02*
X044735Y016901D01*
X044577Y017060D02*
X043543Y017060D01*
X043512Y017218D02*
X044418Y017218D01*
X044260Y017377D02*
X043354Y017377D01*
X043195Y017535D02*
X044101Y017535D01*
X043943Y017694D02*
X043037Y017694D01*
X042878Y017852D02*
X043784Y017852D01*
X043626Y018011D02*
X042720Y018011D01*
X042561Y018169D02*
X043467Y018169D01*
X043309Y018328D02*
X042415Y018328D01*
X042501Y018486D02*
X043150Y018486D01*
X042992Y018645D02*
X042513Y018645D01*
X042464Y018803D02*
X042833Y018803D01*
X042601Y017535D02*
X042513Y017535D01*
X042455Y017377D02*
X042760Y017377D01*
X042918Y017218D02*
X042512Y017218D01*
X042671Y017060D02*
X043077Y017060D01*
X043123Y016901D02*
X042829Y016901D01*
X042988Y016743D02*
X043123Y016743D01*
X043123Y016584D02*
X043043Y016584D01*
X043043Y016426D02*
X043123Y016426D01*
X043123Y016267D02*
X043043Y016267D01*
X043043Y016109D02*
X043123Y016109D01*
X043123Y015950D02*
X043043Y015950D01*
X043043Y015792D02*
X043123Y015792D01*
X043123Y015633D02*
X043043Y015633D01*
X043005Y015475D02*
X043123Y015475D01*
X043543Y015475D02*
X043873Y015475D01*
X043873Y015610D02*
X044323Y015610D01*
X044323Y016060D01*
X044143Y016060D01*
X043873Y015791D01*
X043873Y015610D01*
X043873Y015633D02*
X043543Y015633D01*
X043543Y015792D02*
X043874Y015792D01*
X044033Y015950D02*
X043543Y015950D01*
X043543Y015316D02*
X043967Y015316D01*
X044125Y015158D02*
X043543Y015158D01*
X043543Y014999D02*
X049123Y014999D01*
X049123Y014841D02*
X043543Y014841D01*
X043543Y014682D02*
X049123Y014682D01*
X049123Y014524D02*
X043543Y014524D01*
X043543Y014365D02*
X049123Y014365D01*
X049123Y014207D02*
X043543Y014207D01*
X043543Y014048D02*
X049123Y014048D01*
X049123Y013890D02*
X043543Y013890D01*
X043123Y013890D02*
X042841Y013890D01*
X042682Y014048D02*
X043123Y014048D01*
X044323Y015158D02*
X044343Y015158D01*
X044343Y015316D02*
X044323Y015316D01*
X044323Y015475D02*
X044343Y015475D01*
X044343Y015633D02*
X044323Y015633D01*
X044323Y015792D02*
X044343Y015792D01*
X044343Y015950D02*
X044323Y015950D01*
X044700Y015316D02*
X047865Y015316D01*
X048011Y015158D02*
X044541Y015158D01*
X045999Y013731D02*
X047667Y013731D01*
X047509Y013573D02*
X046158Y013573D01*
X046613Y013414D02*
X047350Y013414D01*
X047192Y013256D02*
X046753Y013256D01*
X046753Y013097D02*
X047033Y013097D01*
X046875Y012939D02*
X046753Y012939D01*
X046716Y012780D02*
X046607Y012780D01*
X046558Y012622D02*
X038193Y012622D01*
X038267Y012463D02*
X039602Y012463D01*
X039444Y012305D02*
X038426Y012305D01*
X038584Y012146D02*
X039413Y012146D01*
X039413Y011988D02*
X038743Y011988D01*
X038901Y011829D02*
X039510Y011829D01*
X040253Y012146D02*
X040913Y012146D01*
X040944Y012305D02*
X040223Y012305D01*
X040064Y012463D02*
X041102Y012463D01*
X041564Y012463D02*
X046399Y012463D01*
X046241Y012305D02*
X041723Y012305D01*
X041753Y012146D02*
X046082Y012146D01*
X045924Y011988D02*
X041753Y011988D01*
X041901Y011829D02*
X045765Y011829D01*
X046035Y011195D02*
X050723Y011195D01*
X050723Y011037D02*
X046194Y011037D01*
X046352Y010878D02*
X050723Y010878D01*
X050723Y010720D02*
X046657Y010720D01*
X046760Y010561D02*
X050723Y010561D01*
X050723Y010403D02*
X046790Y010403D01*
X046790Y010244D02*
X050723Y010244D01*
X050723Y010086D02*
X046790Y010086D01*
X046790Y009927D02*
X050723Y009927D01*
X050723Y009769D02*
X046790Y009769D01*
X046748Y009610D02*
X050723Y009610D01*
X050723Y009452D02*
X046628Y009452D01*
X046705Y008025D02*
X050723Y008025D01*
X050723Y007867D02*
X047161Y007867D01*
X047253Y007708D02*
X050723Y007708D01*
X050723Y007550D02*
X047253Y007550D01*
X047218Y007391D02*
X050723Y007391D01*
X050723Y007233D02*
X047060Y007233D01*
X047140Y006916D02*
X050723Y006916D01*
X050723Y007074D02*
X024951Y007074D01*
X024495Y007074D02*
X023816Y007074D01*
X023732Y006916D02*
X024274Y006916D01*
X024179Y006757D02*
X023540Y006757D01*
X022833Y005489D02*
X022833Y005489D01*
X022833Y005331D02*
X022833Y005331D01*
X022833Y005172D02*
X022833Y005172D01*
X022833Y005014D02*
X022833Y005014D01*
X022833Y004855D02*
X022833Y004855D01*
X022833Y004697D02*
X022833Y004697D01*
X022833Y004538D02*
X022833Y004538D01*
X022833Y004380D02*
X022833Y004380D01*
X022118Y004380D02*
X012333Y004380D01*
X012333Y004538D02*
X021926Y004538D01*
X021834Y004697D02*
X012333Y004697D01*
X012333Y004855D02*
X021796Y004855D01*
X021801Y005014D02*
X012333Y005014D01*
X012333Y005172D02*
X021848Y005172D01*
X021952Y005331D02*
X012333Y005331D01*
X012333Y005489D02*
X022184Y005489D01*
X016107Y007233D02*
X012333Y007233D01*
X012333Y007391D02*
X015948Y007391D01*
X014313Y010086D02*
X013043Y010086D01*
X013043Y010244D02*
X013575Y010244D01*
X013565Y010212D02*
X013553Y010138D01*
X013553Y010120D01*
X014313Y010120D01*
X014313Y010580D01*
X013996Y010580D01*
X013921Y010568D01*
X013849Y010545D01*
X013782Y010511D01*
X013721Y010466D01*
X013667Y010413D01*
X013623Y010352D01*
X013588Y010284D01*
X013565Y010212D01*
X013660Y010403D02*
X013043Y010403D01*
X013043Y010561D02*
X013899Y010561D01*
X014313Y010561D02*
X014353Y010561D01*
X014353Y010403D02*
X014313Y010403D01*
X014313Y010244D02*
X014353Y010244D01*
X013686Y009769D02*
X013043Y009769D01*
X013043Y009927D02*
X013585Y009927D01*
X012623Y009927D02*
X012333Y009927D01*
X012333Y009769D02*
X012623Y009769D01*
X012623Y009610D02*
X012333Y009610D01*
X012333Y009452D02*
X012623Y009452D01*
X012623Y009293D02*
X012333Y009293D01*
X012333Y009135D02*
X012623Y009135D01*
X012623Y008976D02*
X012333Y008976D01*
X012333Y008818D02*
X012623Y008818D01*
X012623Y008659D02*
X012333Y008659D01*
X012333Y008501D02*
X012636Y008501D01*
X012623Y010086D02*
X012333Y010086D01*
X012333Y010244D02*
X012623Y010244D01*
X012623Y010403D02*
X012333Y010403D01*
X012333Y010561D02*
X012623Y010561D01*
X012623Y010720D02*
X012333Y010720D01*
X012333Y010878D02*
X012623Y010878D01*
X012623Y011037D02*
X012333Y011037D01*
X012333Y011195D02*
X012623Y011195D01*
X012623Y011354D02*
X012333Y011354D01*
X012333Y011512D02*
X012623Y011512D01*
X012623Y011671D02*
X012333Y011671D01*
X012333Y011829D02*
X012623Y011829D01*
X012623Y011988D02*
X012333Y011988D01*
X012333Y012146D02*
X012623Y012146D01*
X012623Y012305D02*
X012333Y012305D01*
X012333Y012463D02*
X012623Y012463D01*
X012623Y012622D02*
X012333Y012622D01*
X012333Y012780D02*
X012623Y012780D01*
X012623Y012939D02*
X012333Y012939D01*
X012333Y013097D02*
X012623Y013097D01*
X012623Y013256D02*
X012333Y013256D01*
X012333Y013414D02*
X012623Y013414D01*
X012623Y013573D02*
X012333Y013573D01*
X012333Y013731D02*
X012623Y013731D01*
X012623Y013890D02*
X012333Y013890D01*
X012333Y014048D02*
X012623Y014048D01*
X012623Y014207D02*
X012333Y014207D01*
X012333Y014365D02*
X012623Y014365D01*
X012623Y014524D02*
X012333Y014524D01*
X012333Y014682D02*
X012623Y014682D01*
X012623Y014841D02*
X012333Y014841D01*
X012333Y014999D02*
X012623Y014999D01*
X012623Y015158D02*
X012333Y015158D01*
X012333Y015316D02*
X012623Y015316D01*
X012623Y015475D02*
X012333Y015475D01*
X012333Y015633D02*
X012623Y015633D01*
X012623Y015792D02*
X012333Y015792D01*
X012333Y015950D02*
X012623Y015950D01*
X012623Y016109D02*
X012333Y016109D01*
X012333Y016267D02*
X012623Y016267D01*
X012623Y016426D02*
X012333Y016426D01*
X012333Y016584D02*
X012623Y016584D01*
X012623Y016743D02*
X012333Y016743D01*
X012333Y016901D02*
X012623Y016901D01*
X012623Y017060D02*
X012333Y017060D01*
X012333Y017218D02*
X012623Y017218D01*
X012623Y017377D02*
X012333Y017377D01*
X012333Y017535D02*
X012623Y017535D01*
X012623Y017694D02*
X012333Y017694D01*
X012333Y017852D02*
X012623Y017852D01*
X012623Y018011D02*
X012333Y018011D01*
X012333Y018169D02*
X012623Y018169D01*
X012623Y018328D02*
X012333Y018328D01*
X012333Y018486D02*
X012623Y018486D01*
X012623Y018645D02*
X012333Y018645D01*
X012333Y018803D02*
X012623Y018803D01*
X012623Y018962D02*
X012333Y018962D01*
X012333Y019120D02*
X012623Y019120D01*
X012623Y019279D02*
X012333Y019279D01*
X012333Y019437D02*
X012623Y019437D01*
X012623Y019596D02*
X012333Y019596D01*
X012333Y019754D02*
X012690Y019754D01*
X012849Y019913D02*
X012333Y019913D01*
X012333Y020071D02*
X013007Y020071D01*
X013166Y020230D02*
X012333Y020230D01*
X012333Y020388D02*
X013324Y020388D01*
X013483Y020547D02*
X012333Y020547D01*
X012333Y020705D02*
X013641Y020705D01*
X013800Y020864D02*
X012333Y020864D01*
X012333Y021022D02*
X013958Y021022D01*
X014117Y021181D02*
X012333Y021181D01*
X012333Y021339D02*
X014275Y021339D01*
X014434Y021498D02*
X012333Y021498D01*
X012333Y021656D02*
X014592Y021656D01*
X014751Y021815D02*
X012333Y021815D01*
X012333Y021973D02*
X014909Y021973D01*
X015068Y022132D02*
X012333Y022132D01*
X012333Y022290D02*
X015226Y022290D01*
X015385Y022449D02*
X012333Y022449D01*
X012333Y022607D02*
X015543Y022607D01*
X015702Y022766D02*
X012333Y022766D01*
X012333Y022924D02*
X015860Y022924D01*
X016019Y023083D02*
X012333Y023083D01*
X012333Y023241D02*
X016177Y023241D01*
X016336Y023400D02*
X012333Y023400D01*
X012333Y023558D02*
X016494Y023558D01*
X016653Y023717D02*
X012333Y023717D01*
X012333Y023875D02*
X016811Y023875D01*
X016970Y024034D02*
X012333Y024034D01*
X012333Y024192D02*
X017128Y024192D01*
X017287Y024351D02*
X012333Y024351D01*
X012333Y024509D02*
X017445Y024509D01*
X017604Y024668D02*
X012333Y024668D01*
X012333Y024826D02*
X033913Y024826D01*
X033876Y024789D02*
X033876Y024411D01*
X034144Y024143D01*
X034523Y024143D01*
X034790Y024411D01*
X034790Y024760D01*
X035420Y025390D01*
X036246Y025390D01*
X037246Y024390D01*
X038206Y024390D01*
X038217Y024362D01*
X038335Y024244D01*
X038490Y024180D01*
X039177Y024180D01*
X039331Y024244D01*
X039449Y024362D01*
X039513Y024516D01*
X039513Y024684D01*
X039449Y024838D01*
X039331Y024956D01*
X039177Y025020D01*
X038490Y025020D01*
X038335Y024956D01*
X038217Y024838D01*
X038206Y024810D01*
X037420Y024810D01*
X036965Y025265D01*
X037037Y025295D01*
X037132Y025390D01*
X038206Y025390D01*
X038217Y025362D01*
X038335Y025244D01*
X038490Y025180D01*
X039177Y025180D01*
X039331Y025244D01*
X039449Y025362D01*
X039513Y025516D01*
X039513Y025684D01*
X039449Y025838D01*
X039331Y025956D01*
X039177Y026020D01*
X038490Y026020D01*
X038335Y025956D01*
X038217Y025838D01*
X038206Y025810D01*
X037132Y025810D01*
X037037Y025905D01*
X036905Y025960D01*
X036762Y025960D01*
X036629Y025905D01*
X036528Y025804D01*
X036498Y025732D01*
X036420Y025810D01*
X035637Y025810D01*
X035753Y025926D01*
X035753Y026274D01*
X035507Y026520D01*
X035210Y026520D01*
X034420Y027310D01*
X031043Y027310D01*
X031043Y027396D01*
X031092Y027416D01*
X031221Y027544D01*
X031290Y027712D01*
X031290Y028488D01*
X031221Y028656D01*
X031092Y028784D01*
X030924Y028854D01*
X030742Y028854D01*
X030575Y028784D01*
X030446Y028656D01*
X030376Y028488D01*
X030376Y027712D01*
X030446Y027544D01*
X030575Y027416D01*
X030623Y027396D01*
X030623Y027013D01*
X030746Y026890D01*
X034246Y026890D01*
X034913Y026223D01*
X034913Y025926D01*
X035138Y025702D01*
X034493Y025057D01*
X034144Y025057D01*
X033876Y024789D01*
X033876Y024668D02*
X032063Y024668D01*
X032221Y024509D02*
X033876Y024509D01*
X033937Y024351D02*
X032380Y024351D01*
X032538Y024192D02*
X034095Y024192D01*
X034144Y024057D02*
X033876Y023789D01*
X033876Y023411D01*
X034144Y023143D01*
X034523Y023143D01*
X034790Y023411D01*
X034790Y023789D01*
X034523Y024057D01*
X034144Y024057D01*
X034121Y024034D02*
X032697Y024034D01*
X032855Y023875D02*
X033962Y023875D01*
X033876Y023717D02*
X033014Y023717D01*
X033172Y023558D02*
X033876Y023558D01*
X033888Y023400D02*
X033331Y023400D01*
X033489Y023241D02*
X034046Y023241D01*
X033806Y022924D02*
X036860Y022924D01*
X037019Y023083D02*
X033648Y023083D01*
X033371Y022766D02*
X028965Y022766D01*
X028806Y022924D02*
X033212Y022924D01*
X033054Y023083D02*
X031554Y023083D01*
X031545Y023078D02*
X031626Y023119D01*
X031699Y023172D01*
X031763Y023236D01*
X031816Y023309D01*
X031857Y023390D01*
X031885Y023475D01*
X031898Y023562D01*
X031373Y023562D01*
X031373Y023658D01*
X031277Y023658D01*
X031277Y024183D01*
X031191Y024169D01*
X031105Y024142D01*
X031024Y024101D01*
X030951Y024047D01*
X030887Y023984D01*
X030834Y023911D01*
X030793Y023830D01*
X030765Y023744D01*
X030752Y023658D01*
X031277Y023658D01*
X031277Y023562D01*
X030752Y023562D01*
X030765Y023475D01*
X030793Y023390D01*
X030834Y023309D01*
X030887Y023236D01*
X030951Y023172D01*
X031024Y023119D01*
X031105Y023078D01*
X031191Y023050D01*
X031277Y023037D01*
X031277Y023562D01*
X031373Y023562D01*
X031373Y023037D01*
X031459Y023050D01*
X031545Y023078D01*
X031373Y023083D02*
X031277Y023083D01*
X031277Y023241D02*
X031373Y023241D01*
X031373Y023400D02*
X031277Y023400D01*
X031277Y023558D02*
X031373Y023558D01*
X031373Y023658D02*
X031898Y023658D01*
X031885Y023744D01*
X031857Y023830D01*
X031816Y023911D01*
X031763Y023984D01*
X031699Y024047D01*
X031626Y024101D01*
X031545Y024142D01*
X031459Y024169D01*
X031373Y024183D01*
X031373Y023658D01*
X031373Y023717D02*
X031277Y023717D01*
X031277Y023875D02*
X031373Y023875D01*
X031373Y024034D02*
X031277Y024034D01*
X030937Y024034D02*
X029684Y024034D01*
X029814Y023875D02*
X030816Y023875D01*
X030761Y023717D02*
X029879Y023717D01*
X029879Y023558D02*
X030752Y023558D01*
X030790Y023400D02*
X029837Y023400D01*
X029739Y023241D02*
X030884Y023241D01*
X031096Y023083D02*
X029499Y023083D01*
X029151Y023083D02*
X028648Y023083D01*
X028489Y023241D02*
X028911Y023241D01*
X028836Y023875D02*
X021912Y023875D01*
X021949Y023838D02*
X021831Y023956D01*
X021677Y024020D01*
X020990Y024020D01*
X020835Y023956D01*
X020717Y023838D01*
X020653Y023684D01*
X020653Y023516D01*
X020717Y023362D01*
X020835Y023244D01*
X020990Y023180D01*
X021677Y023180D01*
X021831Y023244D01*
X021949Y023362D01*
X022013Y023516D01*
X022013Y023684D01*
X021949Y023838D01*
X022000Y023717D02*
X027153Y023717D01*
X026994Y023558D02*
X022013Y023558D01*
X021965Y023400D02*
X026539Y023400D01*
X026413Y023241D02*
X021824Y023241D01*
X021677Y023020D02*
X020990Y023020D01*
X020835Y022956D01*
X020717Y022838D01*
X020653Y022684D01*
X020653Y022516D01*
X020717Y022362D01*
X020835Y022244D01*
X020990Y022180D01*
X021677Y022180D01*
X021831Y022244D01*
X021949Y022362D01*
X022013Y022516D01*
X022013Y022684D01*
X021949Y022838D01*
X021831Y022956D01*
X021677Y023020D01*
X021863Y022924D02*
X026415Y022924D01*
X026413Y023083D02*
X016613Y023083D01*
X016771Y023241D02*
X017842Y023241D01*
X017835Y023244D02*
X017990Y023180D01*
X018677Y023180D01*
X018831Y023244D01*
X018949Y023362D01*
X019013Y023516D01*
X019013Y023684D01*
X018949Y023838D01*
X018831Y023956D01*
X018677Y024020D01*
X017990Y024020D01*
X017835Y023956D01*
X017717Y023838D01*
X017653Y023684D01*
X017653Y023516D01*
X017717Y023362D01*
X017835Y023244D01*
X017702Y023400D02*
X016930Y023400D01*
X017088Y023558D02*
X017653Y023558D01*
X017667Y023717D02*
X017247Y023717D01*
X017405Y023875D02*
X017754Y023875D01*
X017564Y024034D02*
X028966Y024034D01*
X028371Y022766D02*
X027093Y022766D01*
X027251Y022924D02*
X028212Y022924D01*
X028054Y023083D02*
X027253Y023083D01*
X027271Y023241D02*
X027895Y023241D01*
X028529Y022607D02*
X022013Y022607D01*
X021985Y022449D02*
X028688Y022449D01*
X028846Y022290D02*
X021877Y022290D01*
X021790Y021973D02*
X029163Y021973D01*
X029005Y022132D02*
X015662Y022132D01*
X015820Y022290D02*
X017789Y022290D01*
X017835Y022244D02*
X017990Y022180D01*
X018677Y022180D01*
X018831Y022244D01*
X018949Y022362D01*
X019013Y022516D01*
X019013Y022684D01*
X018949Y022838D01*
X018831Y022956D01*
X018677Y023020D01*
X017990Y023020D01*
X017835Y022956D01*
X017717Y022838D01*
X017653Y022684D01*
X017653Y022516D01*
X017717Y022362D01*
X017835Y022244D01*
X017681Y022449D02*
X015979Y022449D01*
X016137Y022607D02*
X017653Y022607D01*
X017687Y022766D02*
X016296Y022766D01*
X016454Y022924D02*
X017803Y022924D01*
X017876Y021973D02*
X015503Y021973D01*
X015345Y021815D02*
X017708Y021815D01*
X017592Y021656D02*
X015186Y021656D01*
X015028Y021498D02*
X017434Y021498D01*
X017275Y021339D02*
X014869Y021339D01*
X014711Y021181D02*
X017123Y021181D01*
X017123Y021022D02*
X014552Y021022D01*
X014394Y020864D02*
X017123Y020864D01*
X017123Y020705D02*
X014235Y020705D01*
X014077Y020547D02*
X017123Y020547D01*
X017123Y020388D02*
X013918Y020388D01*
X013760Y020230D02*
X017123Y020230D01*
X017123Y020071D02*
X013601Y020071D01*
X013443Y019913D02*
X017123Y019913D01*
X017123Y019754D02*
X013284Y019754D01*
X013126Y019596D02*
X017123Y019596D01*
X017123Y019437D02*
X013043Y019437D01*
X013043Y019279D02*
X017123Y019279D01*
X017543Y019279D02*
X017801Y019279D01*
X017835Y019244D02*
X017990Y019180D01*
X018677Y019180D01*
X018831Y019244D01*
X018949Y019362D01*
X019013Y019516D01*
X019013Y019684D01*
X018949Y019838D01*
X018831Y019956D01*
X018677Y020020D01*
X017990Y020020D01*
X017835Y019956D01*
X017717Y019838D01*
X017653Y019684D01*
X017653Y019516D01*
X017717Y019362D01*
X017835Y019244D01*
X017686Y019437D02*
X017543Y019437D01*
X017543Y019596D02*
X017653Y019596D01*
X017683Y019754D02*
X017543Y019754D01*
X017543Y019913D02*
X017792Y019913D01*
X017543Y020071D02*
X020565Y020071D01*
X020407Y020230D02*
X018796Y020230D01*
X018960Y020388D02*
X020248Y020388D01*
X020525Y020705D02*
X020662Y020705D01*
X020743Y020864D02*
X018924Y020864D01*
X018678Y021181D02*
X020989Y021181D01*
X020740Y021339D02*
X018926Y021339D01*
X019005Y021498D02*
X020661Y021498D01*
X020653Y021656D02*
X019013Y021656D01*
X018959Y021815D02*
X020708Y021815D01*
X020876Y021973D02*
X018790Y021973D01*
X018877Y022290D02*
X020789Y022290D01*
X020681Y022449D02*
X018985Y022449D01*
X019013Y022607D02*
X020653Y022607D01*
X020687Y022766D02*
X018979Y022766D01*
X018863Y022924D02*
X020803Y022924D01*
X020842Y023241D02*
X018824Y023241D01*
X018965Y023400D02*
X020702Y023400D01*
X020653Y023558D02*
X019013Y023558D01*
X019000Y023717D02*
X020667Y023717D01*
X020754Y023875D02*
X018912Y023875D01*
X017881Y024351D02*
X031786Y024351D01*
X031944Y024192D02*
X017722Y024192D01*
X019359Y025777D02*
X012333Y025777D01*
X012333Y025619D02*
X019518Y025619D01*
X019676Y025460D02*
X012333Y025460D01*
X012333Y025302D02*
X034738Y025302D01*
X034896Y025460D02*
X027990Y025460D01*
X028043Y025513D02*
X028043Y028513D01*
X028920Y029390D01*
X032529Y029390D01*
X032413Y029274D01*
X032413Y028926D01*
X032659Y028680D01*
X033007Y028680D01*
X033253Y028926D01*
X033253Y029274D01*
X033137Y029390D01*
X036529Y029390D01*
X036413Y029274D01*
X036413Y028926D01*
X036659Y028680D01*
X037007Y028680D01*
X037253Y028926D01*
X037253Y029274D01*
X037137Y029390D01*
X039623Y029390D01*
X039623Y027013D01*
X039746Y026890D01*
X041177Y025459D01*
X041217Y025362D01*
X041335Y025244D01*
X041490Y025180D01*
X042177Y025180D01*
X042331Y025244D01*
X042449Y025362D01*
X042513Y025516D01*
X042513Y025684D01*
X042449Y025838D01*
X042331Y025956D01*
X042177Y026020D01*
X041490Y026020D01*
X041335Y025956D01*
X041305Y025925D01*
X040043Y027187D01*
X040043Y029687D01*
X039920Y029810D01*
X028746Y029810D01*
X027746Y028810D01*
X027623Y028687D01*
X027623Y025810D01*
X019920Y025810D01*
X018253Y027477D01*
X018253Y027774D01*
X018007Y028020D01*
X017710Y028020D01*
X017156Y028574D01*
X017223Y028546D01*
X017604Y028546D01*
X019520Y026631D01*
X019723Y026546D01*
X025104Y026546D01*
X025520Y026131D01*
X025723Y026046D01*
X025943Y026046D01*
X026147Y026131D01*
X026303Y026286D01*
X026387Y026490D01*
X026387Y026710D01*
X026303Y026914D01*
X025803Y027414D01*
X025647Y027569D01*
X025443Y027654D01*
X020063Y027654D01*
X018303Y029414D01*
X018147Y029569D01*
X018073Y029600D01*
X018147Y029631D01*
X019647Y031131D01*
X019803Y031286D01*
X019887Y031490D01*
X019887Y036577D01*
X019894Y036663D01*
X019887Y036686D01*
X019887Y036710D01*
X019854Y036790D01*
X019828Y036873D01*
X019812Y036891D01*
X019803Y036914D01*
X019796Y036921D01*
X019794Y036923D01*
X019733Y036985D01*
X019677Y037051D01*
X019656Y037062D01*
X019639Y037079D01*
X019559Y037112D01*
X019481Y037152D01*
X019457Y037154D01*
X019435Y037164D01*
X019348Y037164D01*
X019262Y037171D01*
X019239Y037164D01*
X019215Y037164D01*
X019135Y037130D01*
X019052Y037104D01*
X019034Y037088D01*
X019011Y037079D01*
X018950Y037018D01*
X018884Y036962D01*
X018873Y036941D01*
X018856Y036923D01*
X018822Y036843D01*
X018783Y036766D01*
X018781Y036742D01*
X018771Y036720D01*
X018771Y036633D01*
X018764Y036547D01*
X018771Y036524D01*
X018771Y036500D01*
X018780Y036480D01*
X018780Y031829D01*
X017604Y030654D01*
X015813Y030654D01*
X015818Y030655D01*
X015885Y030689D01*
X015946Y030734D01*
X015999Y030787D01*
X016044Y030848D01*
X016078Y030916D01*
X016102Y030988D01*
X016113Y031062D01*
X016113Y031080D01*
X015353Y031080D01*
X015353Y031120D01*
X015313Y031120D01*
X015313Y031080D01*
X014553Y031080D01*
X014553Y031062D01*
X014565Y030988D01*
X014588Y030916D01*
X014623Y030848D01*
X014667Y030787D01*
X014721Y030734D01*
X014782Y030689D01*
X014849Y030655D01*
X014921Y030632D01*
X014996Y030620D01*
X015142Y030620D01*
X015020Y030569D01*
X015010Y030560D01*
X014942Y030560D01*
X014773Y030490D01*
X014643Y030361D01*
X014573Y030191D01*
X014573Y030008D01*
X014643Y029839D01*
X014773Y029710D01*
X014942Y029640D01*
X015010Y029640D01*
X015020Y029631D01*
X015190Y029560D01*
X014942Y029560D01*
X014773Y029490D01*
X014643Y029361D01*
X014573Y029191D01*
X014573Y029008D01*
X014643Y028839D01*
X014773Y028710D01*
X014942Y028640D01*
X015725Y028640D01*
X015894Y028710D01*
X016023Y028839D01*
X016044Y028890D01*
X016246Y028890D01*
X017413Y027723D01*
X017413Y027426D01*
X017659Y027180D01*
X017956Y027180D01*
X019746Y025390D01*
X027920Y025390D01*
X028043Y025513D01*
X028043Y025619D02*
X035055Y025619D01*
X035062Y025777D02*
X031633Y025777D01*
X031516Y025660D02*
X031773Y025918D01*
X031773Y026100D01*
X031773Y026282D01*
X031516Y026540D01*
X031333Y026540D01*
X031151Y026540D01*
X030893Y026282D01*
X030893Y026100D01*
X031333Y026100D01*
X030893Y026100D01*
X030893Y025918D01*
X031151Y025660D01*
X031333Y025660D01*
X031333Y026100D01*
X031333Y026100D01*
X031333Y026100D01*
X031333Y026540D01*
X031333Y026100D01*
X031333Y026100D01*
X031333Y025660D01*
X031516Y025660D01*
X031333Y025777D02*
X031333Y025777D01*
X031333Y025936D02*
X031333Y025936D01*
X031333Y026094D02*
X031333Y026094D01*
X031333Y026100D02*
X031333Y026100D01*
X031773Y026100D01*
X031333Y026100D01*
X031333Y026253D02*
X031333Y026253D01*
X031333Y026411D02*
X031333Y026411D01*
X031022Y026411D02*
X028043Y026411D01*
X028043Y026253D02*
X030893Y026253D01*
X030893Y026094D02*
X028043Y026094D01*
X028043Y025936D02*
X030893Y025936D01*
X031034Y025777D02*
X028043Y025777D01*
X027623Y025936D02*
X019795Y025936D01*
X019636Y026094D02*
X025608Y026094D01*
X025398Y026253D02*
X019478Y026253D01*
X019319Y026411D02*
X025239Y026411D01*
X026059Y026094D02*
X027623Y026094D01*
X027623Y026253D02*
X026269Y026253D01*
X026354Y026411D02*
X027623Y026411D01*
X027623Y026570D02*
X026387Y026570D01*
X026380Y026728D02*
X026611Y026728D01*
X026659Y026680D02*
X027007Y026680D01*
X027253Y026926D01*
X027253Y027274D01*
X027007Y027520D01*
X026659Y027520D01*
X026413Y027274D01*
X026413Y026926D01*
X026659Y026680D01*
X026453Y026887D02*
X026314Y026887D01*
X026413Y027045D02*
X026171Y027045D01*
X026013Y027204D02*
X026413Y027204D01*
X026501Y027362D02*
X025854Y027362D01*
X025696Y027521D02*
X027623Y027521D01*
X027623Y027679D02*
X020037Y027679D01*
X019879Y027838D02*
X027623Y027838D01*
X027623Y027996D02*
X027083Y027996D01*
X027071Y027984D02*
X027189Y028102D01*
X027253Y028256D01*
X027253Y028944D01*
X027189Y029098D01*
X027071Y029216D01*
X026917Y029280D01*
X026750Y029280D01*
X026595Y029216D01*
X026477Y029098D01*
X026413Y028944D01*
X026413Y028256D01*
X026477Y028102D01*
X026595Y027984D01*
X026750Y027920D01*
X026917Y027920D01*
X027071Y027984D01*
X027211Y028155D02*
X027623Y028155D01*
X027623Y028313D02*
X027253Y028313D01*
X027253Y028472D02*
X027623Y028472D01*
X027623Y028630D02*
X027253Y028630D01*
X027253Y028789D02*
X027725Y028789D01*
X027883Y028947D02*
X027252Y028947D01*
X027182Y029106D02*
X028042Y029106D01*
X028200Y029264D02*
X026955Y029264D01*
X026711Y029264D02*
X025010Y029264D01*
X025002Y029268D02*
X024936Y029289D01*
X024868Y029300D01*
X024833Y029300D01*
X024799Y029300D01*
X024730Y029289D01*
X024664Y029268D01*
X024603Y029236D01*
X024547Y029196D01*
X024498Y029147D01*
X024457Y029091D01*
X024426Y029029D01*
X024404Y028963D01*
X024393Y028895D01*
X024393Y028600D01*
X024393Y028305D01*
X024404Y028237D01*
X024426Y028171D01*
X024457Y028109D01*
X024498Y028053D01*
X024547Y028004D01*
X024603Y027964D01*
X024664Y027932D01*
X024730Y027911D01*
X024799Y027900D01*
X024833Y027900D01*
X024833Y028600D01*
X024393Y028600D01*
X024833Y028600D01*
X024833Y028600D01*
X024833Y028600D01*
X024833Y029300D01*
X024833Y028600D01*
X024833Y028600D01*
X024833Y027900D01*
X024868Y027900D01*
X024936Y027911D01*
X025002Y027932D01*
X025064Y027964D01*
X025120Y028004D01*
X025169Y028053D01*
X025210Y028109D01*
X025241Y028171D01*
X025262Y028237D01*
X025273Y028305D01*
X025273Y028600D01*
X025273Y028895D01*
X025262Y028963D01*
X025241Y029029D01*
X025210Y029091D01*
X025169Y029147D01*
X025120Y029196D01*
X025064Y029236D01*
X025002Y029268D01*
X024833Y029264D02*
X024833Y029264D01*
X024833Y029106D02*
X024833Y029106D01*
X024833Y028947D02*
X024833Y028947D01*
X024833Y028789D02*
X024833Y028789D01*
X024833Y028630D02*
X024833Y028630D01*
X024833Y028600D02*
X025273Y028600D01*
X024833Y028600D01*
X024833Y028600D01*
X024833Y028472D02*
X024833Y028472D01*
X024833Y028313D02*
X024833Y028313D01*
X024833Y028155D02*
X024833Y028155D01*
X024833Y027996D02*
X024833Y027996D01*
X024558Y027996D02*
X019720Y027996D01*
X019562Y028155D02*
X024434Y028155D01*
X024393Y028313D02*
X019403Y028313D01*
X019245Y028472D02*
X024393Y028472D01*
X024393Y028630D02*
X019086Y028630D01*
X018928Y028789D02*
X024393Y028789D01*
X024402Y028947D02*
X018769Y028947D01*
X018611Y029106D02*
X024468Y029106D01*
X024657Y029264D02*
X022051Y029264D01*
X022023Y029246D02*
X022088Y029289D01*
X022144Y029345D01*
X022188Y029411D01*
X022218Y029483D01*
X022233Y029561D01*
X022233Y029600D01*
X022233Y029639D01*
X022218Y029717D01*
X022188Y029789D01*
X022144Y029855D01*
X022088Y029911D01*
X022023Y029954D01*
X021950Y029985D01*
X021873Y030000D01*
X021833Y030000D01*
X021794Y030000D01*
X021717Y029985D01*
X021644Y029954D01*
X021578Y029911D01*
X021523Y029855D01*
X021479Y029789D01*
X021449Y029717D01*
X021433Y029639D01*
X021433Y029600D01*
X021833Y029600D01*
X021433Y029600D01*
X021433Y029561D01*
X021449Y029483D01*
X021479Y029411D01*
X021523Y029345D01*
X021578Y029289D01*
X021644Y029246D01*
X021717Y029215D01*
X021794Y029200D01*
X021833Y029200D01*
X021833Y029600D01*
X021833Y029600D01*
X021833Y029600D01*
X021833Y030000D01*
X021833Y029600D01*
X021833Y029600D01*
X021833Y029200D01*
X021873Y029200D01*
X021950Y029215D01*
X022023Y029246D01*
X021833Y029264D02*
X021833Y029264D01*
X021833Y029423D02*
X021833Y029423D01*
X021833Y029581D02*
X021833Y029581D01*
X021833Y029600D02*
X021833Y029600D01*
X022233Y029600D01*
X021833Y029600D01*
X021833Y029740D02*
X021833Y029740D01*
X021833Y029898D02*
X021833Y029898D01*
X021566Y029898D02*
X018414Y029898D01*
X018256Y029740D02*
X021458Y029740D01*
X021433Y029581D02*
X018119Y029581D01*
X018294Y029423D02*
X021474Y029423D01*
X021616Y029264D02*
X018452Y029264D01*
X018573Y030057D02*
X028080Y030057D01*
X028123Y030013D02*
X028246Y029890D01*
X028920Y029890D01*
X029673Y030643D01*
X030023Y030643D01*
X030290Y030911D01*
X030290Y031289D01*
X030023Y031557D01*
X029644Y031557D01*
X029376Y031289D01*
X029376Y030940D01*
X028746Y030310D01*
X028420Y030310D01*
X027920Y030810D01*
X021158Y030810D01*
X021155Y030815D01*
X021049Y030922D01*
X020909Y030980D01*
X020758Y030980D01*
X020618Y030922D01*
X020511Y030815D01*
X020453Y030676D01*
X020453Y030524D01*
X020511Y030385D01*
X020618Y030278D01*
X020758Y030220D01*
X020909Y030220D01*
X021049Y030278D01*
X021155Y030385D01*
X021158Y030390D01*
X027746Y030390D01*
X028123Y030013D01*
X028238Y029898D02*
X022101Y029898D01*
X022208Y029740D02*
X028676Y029740D01*
X028517Y029581D02*
X022233Y029581D01*
X022193Y029423D02*
X028359Y029423D01*
X028636Y029106D02*
X032413Y029106D01*
X032413Y029264D02*
X028794Y029264D01*
X028796Y028874D02*
X028722Y028862D01*
X028650Y028839D01*
X028583Y028805D01*
X028523Y028761D01*
X028470Y028707D01*
X028425Y028647D01*
X028391Y028580D01*
X028368Y028509D01*
X028356Y028434D01*
X028356Y028118D01*
X028815Y028118D01*
X028815Y028082D01*
X028356Y028082D01*
X028356Y027766D01*
X028368Y027691D01*
X028391Y027620D01*
X028425Y027553D01*
X028470Y027493D01*
X028523Y027439D01*
X028583Y027395D01*
X028650Y027361D01*
X028722Y027338D01*
X028796Y027326D01*
X028815Y027326D01*
X028815Y028082D01*
X028852Y028082D01*
X028852Y028118D01*
X029310Y028118D01*
X029310Y028434D01*
X029298Y028509D01*
X029275Y028580D01*
X029241Y028647D01*
X029197Y028707D01*
X029144Y028761D01*
X029083Y028805D01*
X029016Y028839D01*
X028945Y028862D01*
X028871Y028874D01*
X028852Y028874D01*
X028852Y028118D01*
X028815Y028118D01*
X028815Y028874D01*
X028796Y028874D01*
X028815Y028789D02*
X028852Y028789D01*
X028852Y028630D02*
X028815Y028630D01*
X028815Y028472D02*
X028852Y028472D01*
X028852Y028313D02*
X028815Y028313D01*
X028815Y028155D02*
X028852Y028155D01*
X028852Y028082D02*
X029310Y028082D01*
X029310Y027766D01*
X029298Y027691D01*
X029275Y027620D01*
X029241Y027553D01*
X029197Y027493D01*
X029144Y027439D01*
X029083Y027395D01*
X029016Y027361D01*
X028945Y027338D01*
X028871Y027326D01*
X028852Y027326D01*
X028852Y028082D01*
X028852Y027996D02*
X028815Y027996D01*
X028815Y027838D02*
X028852Y027838D01*
X028852Y027679D02*
X028815Y027679D01*
X028815Y027521D02*
X028852Y027521D01*
X028852Y027362D02*
X028815Y027362D01*
X028649Y027362D02*
X028043Y027362D01*
X028043Y027204D02*
X030623Y027204D01*
X030623Y027362D02*
X029962Y027362D01*
X029924Y027346D02*
X030092Y027416D01*
X030221Y027544D01*
X030290Y027712D01*
X030290Y028488D01*
X030221Y028656D01*
X030092Y028784D01*
X029924Y028854D01*
X029742Y028854D01*
X029575Y028784D01*
X029446Y028656D01*
X029376Y028488D01*
X029376Y027712D01*
X029446Y027544D01*
X029575Y027416D01*
X029742Y027346D01*
X029924Y027346D01*
X029704Y027362D02*
X029018Y027362D01*
X029217Y027521D02*
X029470Y027521D01*
X029390Y027679D02*
X029294Y027679D01*
X029310Y027838D02*
X029376Y027838D01*
X029376Y027996D02*
X029310Y027996D01*
X029310Y028155D02*
X029376Y028155D01*
X029376Y028313D02*
X029310Y028313D01*
X029304Y028472D02*
X029376Y028472D01*
X029435Y028630D02*
X029250Y028630D01*
X029105Y028789D02*
X029585Y028789D01*
X030082Y028789D02*
X030585Y028789D01*
X030435Y028630D02*
X030231Y028630D01*
X030290Y028472D02*
X030376Y028472D01*
X030376Y028313D02*
X030290Y028313D01*
X030290Y028155D02*
X030376Y028155D01*
X030376Y027996D02*
X030290Y027996D01*
X030290Y027838D02*
X030376Y027838D01*
X030390Y027679D02*
X030276Y027679D01*
X030197Y027521D02*
X030470Y027521D01*
X030623Y027045D02*
X028043Y027045D01*
X028043Y026887D02*
X034250Y026887D01*
X034408Y026728D02*
X028043Y026728D01*
X028043Y026570D02*
X034567Y026570D01*
X034725Y026411D02*
X031645Y026411D01*
X031773Y026253D02*
X034884Y026253D01*
X034913Y026094D02*
X031773Y026094D01*
X031773Y025936D02*
X034913Y025936D01*
X035161Y026570D02*
X037067Y026570D01*
X036908Y026728D02*
X035002Y026728D01*
X034844Y026887D02*
X036750Y026887D01*
X036591Y027045D02*
X034685Y027045D01*
X034527Y027204D02*
X036433Y027204D01*
X036274Y027362D02*
X031043Y027362D01*
X031197Y027521D02*
X036116Y027521D01*
X035957Y027679D02*
X031276Y027679D01*
X031290Y027838D02*
X032502Y027838D01*
X032413Y027926D02*
X032659Y027680D01*
X033007Y027680D01*
X033253Y027926D01*
X033253Y028274D01*
X033007Y028520D01*
X032659Y028520D01*
X032413Y028274D01*
X032413Y027926D01*
X032413Y027996D02*
X031290Y027996D01*
X031290Y028155D02*
X032413Y028155D01*
X032452Y028313D02*
X031290Y028313D01*
X031290Y028472D02*
X032611Y028472D01*
X032551Y028789D02*
X031082Y028789D01*
X031231Y028630D02*
X034973Y028630D01*
X034973Y028672D02*
X034973Y028528D01*
X035028Y028396D01*
X035129Y028295D01*
X035262Y028240D01*
X035396Y028240D01*
X037246Y026390D01*
X038206Y026390D01*
X038217Y026362D01*
X038335Y026244D01*
X038490Y026180D01*
X039177Y026180D01*
X039331Y026244D01*
X039449Y026362D01*
X039513Y026516D01*
X039513Y026684D01*
X039449Y026838D01*
X039331Y026956D01*
X039177Y027020D01*
X038490Y027020D01*
X038335Y026956D01*
X038217Y026838D01*
X038206Y026810D01*
X037420Y026810D01*
X035693Y028537D01*
X035693Y028672D01*
X035639Y028804D01*
X035537Y028905D01*
X035405Y028960D01*
X035262Y028960D01*
X035129Y028905D01*
X035028Y028804D01*
X034973Y028672D01*
X035022Y028789D02*
X033116Y028789D01*
X033253Y028947D02*
X035230Y028947D01*
X035436Y028947D02*
X036413Y028947D01*
X036413Y029106D02*
X033253Y029106D01*
X033253Y029264D02*
X036413Y029264D01*
X036551Y028789D02*
X035645Y028789D01*
X035693Y028630D02*
X039623Y028630D01*
X039623Y028472D02*
X037056Y028472D01*
X037007Y028520D02*
X036659Y028520D01*
X036413Y028274D01*
X036413Y027926D01*
X036659Y027680D01*
X037007Y027680D01*
X037253Y027926D01*
X037253Y028274D01*
X037007Y028520D01*
X037116Y028789D02*
X039623Y028789D01*
X039623Y028947D02*
X037253Y028947D01*
X037253Y029106D02*
X039623Y029106D01*
X039623Y029264D02*
X037253Y029264D01*
X037214Y028313D02*
X039623Y028313D01*
X039623Y028155D02*
X037253Y028155D01*
X037253Y027996D02*
X038432Y027996D01*
X038490Y028020D02*
X038335Y027956D01*
X038217Y027838D01*
X038153Y027684D01*
X038153Y027516D01*
X038217Y027362D01*
X038335Y027244D01*
X038490Y027180D01*
X039177Y027180D01*
X039331Y027244D01*
X039449Y027362D01*
X039623Y027362D01*
X039623Y027204D02*
X039234Y027204D01*
X039449Y027362D02*
X039513Y027516D01*
X039513Y027684D01*
X039449Y027838D01*
X039331Y027956D01*
X039177Y028020D01*
X038490Y028020D01*
X038217Y027838D02*
X037165Y027838D01*
X036710Y027521D02*
X038153Y027521D01*
X038153Y027679D02*
X036551Y027679D01*
X036502Y027838D02*
X036393Y027838D01*
X036413Y027996D02*
X036234Y027996D01*
X036076Y028155D02*
X036413Y028155D01*
X036452Y028313D02*
X035917Y028313D01*
X035759Y028472D02*
X036611Y028472D01*
X036868Y027362D02*
X038217Y027362D01*
X038433Y027204D02*
X037027Y027204D01*
X037185Y027045D02*
X039623Y027045D01*
X039750Y026887D02*
X039401Y026887D01*
X039495Y026728D02*
X039908Y026728D01*
X040067Y026570D02*
X039513Y026570D01*
X039470Y026411D02*
X040225Y026411D01*
X040384Y026253D02*
X039340Y026253D01*
X039352Y025936D02*
X040701Y025936D01*
X040542Y026094D02*
X035753Y026094D01*
X035753Y025936D02*
X036703Y025936D01*
X036517Y025777D02*
X036453Y025777D01*
X036335Y025302D02*
X035332Y025302D01*
X035173Y025143D02*
X036493Y025143D01*
X036595Y024985D02*
X036652Y024985D01*
X036753Y024826D02*
X036810Y024826D01*
X036790Y024668D02*
X036969Y024668D01*
X037127Y024509D02*
X036790Y024509D01*
X036730Y024351D02*
X038229Y024351D01*
X038461Y024192D02*
X037038Y024192D01*
X037197Y024034D02*
X039970Y024034D01*
X039982Y024192D02*
X039206Y024192D01*
X039438Y024351D02*
X040075Y024351D01*
X040592Y024351D02*
X040787Y024351D01*
X040945Y024509D02*
X039510Y024509D01*
X039513Y024668D02*
X041104Y024668D01*
X041212Y024826D02*
X039454Y024826D01*
X039262Y024985D02*
X041404Y024985D01*
X041278Y025302D02*
X039389Y025302D01*
X039490Y025460D02*
X041176Y025460D01*
X041018Y025619D02*
X039513Y025619D01*
X039475Y025777D02*
X040859Y025777D01*
X041136Y026094D02*
X043893Y026094D01*
X043893Y025936D02*
X042352Y025936D01*
X042475Y025777D02*
X044034Y025777D01*
X044151Y025660D02*
X043893Y025918D01*
X043893Y026282D01*
X044151Y026540D01*
X044516Y026540D01*
X044773Y026282D01*
X044773Y025918D01*
X044516Y025660D01*
X044151Y025660D01*
X044633Y025777D02*
X050723Y025777D01*
X050723Y025619D02*
X042513Y025619D01*
X042490Y025460D02*
X050723Y025460D01*
X050723Y025302D02*
X042389Y025302D01*
X042262Y024985D02*
X047936Y024985D01*
X047874Y024922D02*
X047789Y024718D01*
X047789Y024498D01*
X047874Y024295D01*
X048030Y024139D01*
X048233Y024055D01*
X048453Y024055D01*
X048657Y024139D01*
X048813Y024295D01*
X048897Y024498D01*
X048897Y024718D01*
X048813Y024922D01*
X048657Y025078D01*
X048453Y025162D01*
X048233Y025162D01*
X048030Y025078D01*
X047874Y024922D01*
X047834Y024826D02*
X042454Y024826D01*
X042513Y024668D02*
X047789Y024668D01*
X047789Y024509D02*
X042510Y024509D01*
X042438Y024351D02*
X047851Y024351D01*
X047976Y024192D02*
X042206Y024192D01*
X041461Y024192D02*
X041222Y024192D01*
X041064Y024034D02*
X050723Y024034D01*
X050723Y024192D02*
X048710Y024192D01*
X048836Y024351D02*
X050723Y024351D01*
X050723Y024509D02*
X048897Y024509D01*
X048897Y024668D02*
X050723Y024668D01*
X050723Y024826D02*
X048852Y024826D01*
X048750Y024985D02*
X050723Y024985D01*
X050723Y025143D02*
X048499Y025143D01*
X048187Y025143D02*
X037087Y025143D01*
X037044Y025302D02*
X038278Y025302D01*
X038404Y024985D02*
X037246Y024985D01*
X037404Y024826D02*
X038212Y024826D01*
X038254Y023875D02*
X037355Y023875D01*
X037078Y023558D02*
X036810Y023558D01*
X036810Y023582D02*
X036352Y023582D01*
X036352Y023123D01*
X036531Y023123D01*
X036810Y023402D01*
X036810Y023582D01*
X036810Y023717D02*
X036920Y023717D01*
X036761Y023875D02*
X036733Y023875D01*
X036807Y023400D02*
X037237Y023400D01*
X037177Y023241D02*
X036649Y023241D01*
X036352Y023241D02*
X036315Y023241D01*
X036315Y023400D02*
X036352Y023400D01*
X036352Y023558D02*
X036315Y023558D01*
X036018Y023241D02*
X035620Y023241D01*
X035523Y023143D02*
X035790Y023411D01*
X035790Y023789D01*
X035523Y024057D01*
X035144Y024057D01*
X034876Y023789D01*
X034876Y023411D01*
X035144Y023143D01*
X035523Y023143D01*
X035779Y023400D02*
X035859Y023400D01*
X035856Y023558D02*
X035790Y023558D01*
X035790Y023717D02*
X035856Y023717D01*
X035934Y023875D02*
X035704Y023875D01*
X035603Y024034D02*
X035546Y024034D01*
X035121Y024034D02*
X034546Y024034D01*
X034571Y024192D02*
X035095Y024192D01*
X034937Y024351D02*
X034730Y024351D01*
X034790Y024509D02*
X034876Y024509D01*
X034876Y024668D02*
X034790Y024668D01*
X034856Y024826D02*
X034913Y024826D01*
X035015Y024985D02*
X035072Y024985D01*
X034579Y025143D02*
X012333Y025143D01*
X012333Y024985D02*
X034072Y024985D01*
X034704Y023875D02*
X034962Y023875D01*
X034876Y023717D02*
X034790Y023717D01*
X034790Y023558D02*
X034876Y023558D01*
X034888Y023400D02*
X034779Y023400D01*
X034620Y023241D02*
X035046Y023241D01*
X035880Y024351D02*
X035937Y024351D01*
X035876Y024509D02*
X035790Y024509D01*
X035790Y024668D02*
X035876Y024668D01*
X035913Y024826D02*
X035753Y024826D01*
X035595Y024985D02*
X036072Y024985D01*
X036964Y025936D02*
X038315Y025936D01*
X038327Y026253D02*
X035753Y026253D01*
X035616Y026411D02*
X037225Y026411D01*
X037344Y026887D02*
X038266Y026887D01*
X039235Y027996D02*
X039623Y027996D01*
X039623Y027838D02*
X039450Y027838D01*
X039513Y027679D02*
X039623Y027679D01*
X039623Y027521D02*
X039513Y027521D01*
X040043Y027521D02*
X041153Y027521D01*
X041153Y027516D02*
X041217Y027362D01*
X041335Y027244D01*
X041490Y027180D01*
X042177Y027180D01*
X042331Y027244D01*
X042449Y027362D01*
X050723Y027362D01*
X050723Y027204D02*
X042234Y027204D01*
X042177Y027020D02*
X041490Y027020D01*
X041335Y026956D01*
X041217Y026838D01*
X041153Y026684D01*
X041153Y026516D01*
X041217Y026362D01*
X041335Y026244D01*
X041490Y026180D01*
X042177Y026180D01*
X042331Y026244D01*
X042449Y026362D01*
X042513Y026516D01*
X042513Y026684D01*
X042449Y026838D01*
X042331Y026956D01*
X042177Y027020D01*
X042401Y026887D02*
X047859Y026887D01*
X047874Y026922D02*
X047789Y026718D01*
X047789Y026498D01*
X047874Y026295D01*
X048030Y026139D01*
X048233Y026055D01*
X048453Y026055D01*
X048657Y026139D01*
X048813Y026295D01*
X048897Y026498D01*
X048897Y026718D01*
X048813Y026922D01*
X048657Y027078D01*
X048453Y027162D01*
X048233Y027162D01*
X048030Y027078D01*
X047874Y026922D01*
X047997Y027045D02*
X040185Y027045D01*
X040043Y027204D02*
X041433Y027204D01*
X041217Y027362D02*
X040043Y027362D01*
X040043Y027679D02*
X041153Y027679D01*
X041153Y027684D02*
X041153Y027516D01*
X041153Y027684D02*
X041217Y027838D01*
X041335Y027956D01*
X041490Y028020D01*
X041623Y028020D01*
X041623Y029890D01*
X034746Y029890D01*
X033993Y030643D01*
X033644Y030643D01*
X033376Y030911D01*
X033376Y031289D01*
X033644Y031557D01*
X034023Y031557D01*
X034290Y031289D01*
X034290Y030940D01*
X034920Y030310D01*
X038614Y030310D01*
X038528Y030396D01*
X038473Y030528D01*
X038473Y030663D01*
X036246Y032890D01*
X035420Y032890D01*
X035055Y032525D01*
X035290Y032289D01*
X035290Y031911D01*
X035023Y031643D01*
X034644Y031643D01*
X034376Y031911D01*
X034376Y032289D01*
X034477Y032390D01*
X034420Y032390D01*
X034290Y032260D01*
X034290Y031911D01*
X034023Y031643D01*
X033644Y031643D01*
X033376Y031911D01*
X033376Y032289D01*
X033644Y032557D01*
X033993Y032557D01*
X034246Y032810D01*
X034746Y032810D01*
X035246Y033310D01*
X036420Y033310D01*
X036543Y033187D01*
X038770Y030960D01*
X038876Y030960D01*
X038876Y031289D01*
X038977Y031390D01*
X038746Y031390D01*
X038623Y031513D01*
X036246Y033890D01*
X035166Y033890D01*
X035273Y033782D01*
X035273Y033600D01*
X034833Y033600D01*
X034393Y033600D01*
X034833Y033600D01*
X034833Y033600D01*
X034833Y033600D01*
X034833Y033160D01*
X034651Y033160D01*
X034393Y033418D01*
X034393Y033600D01*
X034393Y033782D01*
X034501Y033890D01*
X033166Y033890D01*
X033273Y033782D01*
X033273Y033600D01*
X032833Y033600D01*
X032393Y033600D01*
X032833Y033600D01*
X032833Y033600D01*
X032833Y033600D01*
X032833Y033160D01*
X032651Y033160D01*
X032393Y033418D01*
X032393Y033600D01*
X032393Y033782D01*
X032501Y033890D01*
X029137Y033890D01*
X029253Y033774D01*
X029253Y033426D01*
X029007Y033180D01*
X028659Y033180D01*
X028413Y033426D01*
X028413Y033774D01*
X028529Y033890D01*
X025420Y033890D01*
X024810Y033280D01*
X024917Y033280D01*
X025071Y033216D01*
X025189Y033098D01*
X025253Y032944D01*
X025253Y032810D01*
X026413Y032810D01*
X026413Y032944D01*
X026477Y033098D01*
X026595Y033216D01*
X026750Y033280D01*
X026917Y033280D01*
X027071Y033216D01*
X027189Y033098D01*
X027253Y032944D01*
X027253Y032256D01*
X027189Y032102D01*
X027071Y031984D01*
X026917Y031920D01*
X026750Y031920D01*
X026595Y031984D01*
X026477Y032102D01*
X026413Y032256D01*
X026413Y032390D01*
X025253Y032390D01*
X025253Y032256D01*
X025189Y032102D01*
X025071Y031984D01*
X024917Y031920D01*
X024750Y031920D01*
X024595Y031984D01*
X024477Y032102D01*
X024413Y032256D01*
X024413Y032883D01*
X023193Y031663D01*
X023193Y031528D01*
X023139Y031396D01*
X023037Y031295D01*
X022905Y031240D01*
X022762Y031240D01*
X022629Y031295D01*
X022528Y031396D01*
X022473Y031528D01*
X022473Y031672D01*
X022528Y031804D01*
X022629Y031905D01*
X022762Y031960D01*
X022896Y031960D01*
X023201Y032265D01*
X023129Y032295D01*
X023028Y032396D01*
X022973Y032528D01*
X022973Y032672D01*
X023028Y032804D01*
X023129Y032905D01*
X023262Y032960D01*
X023396Y032960D01*
X025123Y034687D01*
X025246Y034810D01*
X036920Y034810D01*
X039173Y032557D01*
X039523Y032557D01*
X039790Y032289D01*
X039790Y031911D01*
X039689Y031810D01*
X039920Y031810D01*
X040173Y031557D01*
X040523Y031557D01*
X040790Y031289D01*
X040790Y030911D01*
X040523Y030643D01*
X040144Y030643D01*
X039876Y030911D01*
X039876Y031260D01*
X039746Y031390D01*
X039689Y031390D01*
X039790Y031289D01*
X039790Y030911D01*
X039523Y030643D01*
X039193Y030643D01*
X039193Y030528D01*
X039139Y030396D01*
X039052Y030310D01*
X041920Y030310D01*
X042043Y030187D01*
X042043Y028020D01*
X042177Y028020D01*
X042331Y027956D01*
X042449Y027838D01*
X042513Y027684D01*
X042513Y027516D01*
X042449Y027362D01*
X042513Y027521D02*
X050723Y027521D01*
X050723Y027679D02*
X042513Y027679D01*
X042450Y027838D02*
X050723Y027838D01*
X050723Y027996D02*
X042235Y027996D01*
X042043Y028155D02*
X050723Y028155D01*
X050723Y028313D02*
X042043Y028313D01*
X042043Y028472D02*
X050723Y028472D01*
X050723Y028630D02*
X048635Y028630D01*
X048657Y028639D02*
X048813Y028795D01*
X048897Y028998D01*
X048897Y029218D01*
X048813Y029422D01*
X048657Y029578D01*
X048453Y029662D01*
X048233Y029662D01*
X048030Y029578D01*
X047874Y029422D01*
X047789Y029218D01*
X047789Y028998D01*
X047874Y028795D01*
X048030Y028639D01*
X048233Y028555D01*
X048453Y028555D01*
X048657Y028639D01*
X048806Y028789D02*
X050723Y028789D01*
X050723Y028947D02*
X048876Y028947D01*
X048897Y029106D02*
X050723Y029106D01*
X050723Y029264D02*
X048878Y029264D01*
X048812Y029423D02*
X050723Y029423D01*
X050723Y029581D02*
X048649Y029581D01*
X048038Y029581D02*
X042043Y029581D01*
X042043Y029423D02*
X044005Y029423D01*
X043873Y029291D02*
X043873Y029110D01*
X044323Y029110D01*
X044323Y029090D01*
X043873Y029090D01*
X043873Y028909D01*
X044143Y028640D01*
X044323Y028640D01*
X044323Y029090D01*
X044343Y029090D01*
X044343Y028640D01*
X044524Y028640D01*
X044793Y028909D01*
X044793Y029090D01*
X044343Y029090D01*
X044343Y029110D01*
X044323Y029110D01*
X044323Y029560D01*
X044143Y029560D01*
X043873Y029291D01*
X043873Y029264D02*
X042043Y029264D01*
X042043Y029106D02*
X044323Y029106D01*
X044343Y029106D02*
X047789Y029106D01*
X047808Y029264D02*
X044793Y029264D01*
X044793Y029291D02*
X044524Y029560D01*
X044343Y029560D01*
X044343Y029110D01*
X044793Y029110D01*
X044793Y029291D01*
X044661Y029423D02*
X047874Y029423D01*
X047811Y028947D02*
X044793Y028947D01*
X044672Y028789D02*
X047880Y028789D01*
X048051Y028630D02*
X042043Y028630D01*
X042043Y028789D02*
X043994Y028789D01*
X043873Y028947D02*
X042043Y028947D01*
X041623Y028947D02*
X040043Y028947D01*
X040043Y028789D02*
X041623Y028789D01*
X041623Y028630D02*
X040043Y028630D01*
X040043Y028472D02*
X041623Y028472D01*
X041623Y028313D02*
X040043Y028313D01*
X040043Y028155D02*
X041623Y028155D01*
X041432Y027996D02*
X040043Y027996D01*
X040043Y027838D02*
X041217Y027838D01*
X041266Y026887D02*
X040344Y026887D01*
X040502Y026728D02*
X041172Y026728D01*
X041153Y026570D02*
X040661Y026570D01*
X040819Y026411D02*
X041197Y026411D01*
X041327Y026253D02*
X040978Y026253D01*
X041295Y025936D02*
X041315Y025936D01*
X042340Y026253D02*
X043893Y026253D01*
X044022Y026411D02*
X042470Y026411D01*
X042513Y026570D02*
X047789Y026570D01*
X047793Y026728D02*
X042495Y026728D01*
X041623Y029106D02*
X040043Y029106D01*
X040043Y029264D02*
X041623Y029264D01*
X041623Y029423D02*
X040043Y029423D01*
X040043Y029581D02*
X041623Y029581D01*
X041623Y029740D02*
X039991Y029740D01*
X040097Y030691D02*
X039570Y030691D01*
X039728Y030849D02*
X039938Y030849D01*
X039876Y031008D02*
X039790Y031008D01*
X039790Y031166D02*
X039876Y031166D01*
X039812Y031325D02*
X039755Y031325D01*
X040089Y031642D02*
X048184Y031642D01*
X048233Y031662D02*
X048030Y031578D01*
X047874Y031422D01*
X047789Y031218D01*
X047789Y030998D01*
X047874Y030795D01*
X048030Y030639D01*
X048233Y030555D01*
X048453Y030555D01*
X048657Y030639D01*
X048813Y030795D01*
X048897Y030998D01*
X048897Y031218D01*
X048813Y031422D01*
X048657Y031578D01*
X048453Y031662D01*
X048233Y031662D01*
X048503Y031642D02*
X050723Y031642D01*
X050723Y031800D02*
X043679Y031800D01*
X043790Y031911D02*
X043523Y031643D01*
X043144Y031643D01*
X042876Y031911D01*
X042876Y032289D01*
X043144Y032557D01*
X043523Y032557D01*
X043790Y032289D01*
X043790Y031911D01*
X043790Y031959D02*
X050723Y031959D01*
X050723Y032117D02*
X043790Y032117D01*
X043790Y032276D02*
X050723Y032276D01*
X050723Y032434D02*
X043645Y032434D01*
X043523Y031557D02*
X043144Y031557D01*
X042876Y031289D01*
X042876Y030911D01*
X043144Y030643D01*
X043523Y030643D01*
X043790Y030911D01*
X043790Y031289D01*
X043523Y031557D01*
X043596Y031483D02*
X047935Y031483D01*
X047833Y031325D02*
X043755Y031325D01*
X043790Y031166D02*
X047789Y031166D01*
X047789Y031008D02*
X043790Y031008D01*
X043728Y030849D02*
X047851Y030849D01*
X047978Y030691D02*
X043570Y030691D01*
X043097Y030691D02*
X042570Y030691D01*
X042523Y030643D02*
X042790Y030911D01*
X042790Y031289D01*
X042523Y031557D01*
X042144Y031557D01*
X041876Y031289D01*
X041876Y030911D01*
X042144Y030643D01*
X042523Y030643D01*
X042728Y030849D02*
X042938Y030849D01*
X042876Y031008D02*
X042790Y031008D01*
X042790Y031166D02*
X042876Y031166D01*
X042912Y031325D02*
X042755Y031325D01*
X042596Y031483D02*
X043070Y031483D01*
X042987Y031800D02*
X042679Y031800D01*
X042790Y031911D02*
X042523Y031643D01*
X042144Y031643D01*
X041876Y031911D01*
X041876Y032289D01*
X042144Y032557D01*
X042523Y032557D01*
X042790Y032289D01*
X042790Y031911D01*
X042790Y031959D02*
X042876Y031959D01*
X042876Y032117D02*
X042790Y032117D01*
X042790Y032276D02*
X042876Y032276D01*
X043021Y032434D02*
X042645Y032434D01*
X042070Y031483D02*
X041625Y031483D01*
X041531Y031577D02*
X041810Y031298D01*
X041810Y031118D01*
X041352Y031118D01*
X041352Y031082D01*
X041810Y031082D01*
X041810Y030902D01*
X041531Y030623D01*
X041352Y030623D01*
X041352Y031082D01*
X041315Y031082D01*
X040856Y031082D01*
X040856Y030902D01*
X041136Y030623D01*
X041315Y030623D01*
X041315Y031082D01*
X041315Y031118D01*
X040856Y031118D01*
X040856Y031298D01*
X041136Y031577D01*
X041315Y031577D01*
X041315Y031118D01*
X041352Y031118D01*
X041352Y031577D01*
X041531Y031577D01*
X041523Y031643D02*
X041790Y031911D01*
X041790Y032289D01*
X041523Y032557D01*
X041144Y032557D01*
X040876Y032289D01*
X040876Y031911D01*
X041144Y031643D01*
X041523Y031643D01*
X041679Y031800D02*
X041987Y031800D01*
X041876Y031959D02*
X041790Y031959D01*
X041790Y032117D02*
X041876Y032117D01*
X041876Y032276D02*
X041790Y032276D01*
X041645Y032434D02*
X042021Y032434D01*
X041516Y033160D02*
X041773Y033418D01*
X041773Y033600D01*
X041773Y033782D01*
X041516Y034040D01*
X041333Y034040D01*
X041151Y034040D01*
X040893Y033782D01*
X040893Y033600D01*
X041333Y033600D01*
X040893Y033600D01*
X040893Y033418D01*
X041151Y033160D01*
X041333Y033160D01*
X041333Y033600D01*
X041333Y033600D01*
X041333Y033600D01*
X041333Y034040D01*
X041333Y033600D01*
X041333Y033600D01*
X041333Y033160D01*
X041516Y033160D01*
X041582Y033227D02*
X045113Y033227D01*
X045159Y033180D02*
X044913Y033426D01*
X044913Y033774D01*
X045159Y034020D01*
X045507Y034020D01*
X045753Y033774D01*
X045753Y033426D01*
X045507Y033180D01*
X045159Y033180D01*
X044954Y033385D02*
X041741Y033385D01*
X041773Y033544D02*
X044913Y033544D01*
X044913Y033702D02*
X041773Y033702D01*
X041773Y033600D02*
X041333Y033600D01*
X041333Y033600D01*
X041773Y033600D01*
X041695Y033861D02*
X045000Y033861D01*
X045158Y034019D02*
X041537Y034019D01*
X041333Y034019D02*
X041333Y034019D01*
X041333Y033861D02*
X041333Y033861D01*
X041333Y033702D02*
X041333Y033702D01*
X041333Y033544D02*
X041333Y033544D01*
X041333Y033385D02*
X041333Y033385D01*
X041333Y033227D02*
X041333Y033227D01*
X041085Y033227D02*
X039054Y033227D01*
X039007Y033180D02*
X039253Y033426D01*
X039253Y033774D01*
X039007Y034020D01*
X038659Y034020D01*
X038413Y033774D01*
X038413Y033426D01*
X038659Y033180D01*
X039007Y033180D01*
X039212Y033385D02*
X040926Y033385D01*
X040893Y033544D02*
X039253Y033544D01*
X039253Y033702D02*
X040893Y033702D01*
X040972Y033861D02*
X039167Y033861D01*
X039008Y034019D02*
X041130Y034019D01*
X040523Y032557D02*
X040144Y032557D01*
X039876Y032289D01*
X039876Y031911D01*
X040144Y031643D01*
X040523Y031643D01*
X040790Y031911D01*
X040790Y032289D01*
X040523Y032557D01*
X040645Y032434D02*
X041021Y032434D01*
X040876Y032276D02*
X040790Y032276D01*
X040790Y032117D02*
X040876Y032117D01*
X040876Y031959D02*
X040790Y031959D01*
X040679Y031800D02*
X040987Y031800D01*
X041042Y031483D02*
X040596Y031483D01*
X040755Y031325D02*
X040884Y031325D01*
X040856Y031166D02*
X040790Y031166D01*
X040790Y031008D02*
X040856Y031008D01*
X040910Y030849D02*
X040728Y030849D01*
X040570Y030691D02*
X041068Y030691D01*
X041315Y030691D02*
X041352Y030691D01*
X041352Y030849D02*
X041315Y030849D01*
X041315Y031008D02*
X041352Y031008D01*
X041352Y031166D02*
X041315Y031166D01*
X041315Y031325D02*
X041352Y031325D01*
X041352Y031483D02*
X041315Y031483D01*
X041783Y031325D02*
X041912Y031325D01*
X041876Y031166D02*
X041810Y031166D01*
X041810Y031008D02*
X041876Y031008D01*
X041938Y030849D02*
X041757Y030849D01*
X041598Y030691D02*
X042097Y030691D01*
X042015Y030215D02*
X050723Y030215D01*
X050723Y030057D02*
X042043Y030057D01*
X042043Y029898D02*
X050723Y029898D01*
X050723Y029740D02*
X042043Y029740D01*
X040021Y032434D02*
X039645Y032434D01*
X039790Y032276D02*
X039876Y032276D01*
X039876Y032117D02*
X039790Y032117D01*
X039790Y031959D02*
X039876Y031959D01*
X039930Y031800D02*
X039987Y031800D01*
X039138Y032593D02*
X050723Y032593D01*
X050723Y032751D02*
X038979Y032751D01*
X038821Y032910D02*
X050723Y032910D01*
X050723Y033068D02*
X038662Y033068D01*
X038613Y033227D02*
X038504Y033227D01*
X038454Y033385D02*
X038345Y033385D01*
X038413Y033544D02*
X038187Y033544D01*
X038028Y033702D02*
X038413Y033702D01*
X038500Y033861D02*
X037870Y033861D01*
X037711Y034019D02*
X038658Y034019D01*
X037553Y034178D02*
X050723Y034178D01*
X050723Y034336D02*
X037394Y034336D01*
X037236Y034495D02*
X050723Y034495D01*
X050723Y034653D02*
X037077Y034653D01*
X036434Y033702D02*
X035273Y033702D01*
X035273Y033600D02*
X034833Y033600D01*
X034833Y033160D01*
X035016Y033160D01*
X035273Y033418D01*
X035273Y033600D01*
X035273Y033544D02*
X036593Y033544D01*
X036751Y033385D02*
X035241Y033385D01*
X035163Y033227D02*
X035082Y033227D01*
X035004Y033068D02*
X027202Y033068D01*
X027253Y032910D02*
X034846Y032910D01*
X034833Y033227D02*
X034833Y033227D01*
X034833Y033385D02*
X034833Y033385D01*
X034833Y033544D02*
X034833Y033544D01*
X034833Y033600D02*
X034833Y033600D01*
X034393Y033544D02*
X033273Y033544D01*
X033273Y033600D02*
X032833Y033600D01*
X032833Y033160D01*
X033016Y033160D01*
X033273Y033418D01*
X033273Y033600D01*
X033273Y033702D02*
X034393Y033702D01*
X034472Y033861D02*
X033195Y033861D01*
X032833Y033600D02*
X032833Y033600D01*
X032833Y033544D02*
X032833Y033544D01*
X032833Y033385D02*
X032833Y033385D01*
X032833Y033227D02*
X032833Y033227D01*
X032585Y033227D02*
X029054Y033227D01*
X029212Y033385D02*
X032426Y033385D01*
X032393Y033544D02*
X029253Y033544D01*
X029253Y033702D02*
X032393Y033702D01*
X032472Y033861D02*
X029167Y033861D01*
X028500Y033861D02*
X025391Y033861D01*
X025232Y033702D02*
X028413Y033702D01*
X028413Y033544D02*
X025074Y033544D01*
X024915Y033385D02*
X028454Y033385D01*
X028613Y033227D02*
X027046Y033227D01*
X026621Y033227D02*
X025046Y033227D01*
X025202Y033068D02*
X026465Y033068D01*
X026413Y032910D02*
X025253Y032910D01*
X025253Y032276D02*
X026413Y032276D01*
X026471Y032117D02*
X025196Y032117D01*
X025010Y031959D02*
X026657Y031959D01*
X027010Y031959D02*
X028376Y031959D01*
X028376Y031911D02*
X028644Y031643D01*
X029023Y031643D01*
X029290Y031911D01*
X029290Y032289D01*
X029023Y032557D01*
X028644Y032557D01*
X028376Y032289D01*
X028376Y031911D01*
X028487Y031800D02*
X023330Y031800D01*
X023193Y031642D02*
X031617Y031642D01*
X031636Y031623D02*
X031815Y031623D01*
X031815Y032082D01*
X031356Y032082D01*
X031356Y031902D01*
X031636Y031623D01*
X031636Y031577D02*
X031356Y031298D01*
X031356Y031118D01*
X031815Y031118D01*
X031815Y031082D01*
X031356Y031082D01*
X031356Y030902D01*
X031636Y030623D01*
X031815Y030623D01*
X031815Y031082D01*
X031852Y031082D01*
X031852Y031118D01*
X032310Y031118D01*
X032310Y031298D01*
X032031Y031577D01*
X031852Y031577D01*
X031852Y031118D01*
X031815Y031118D01*
X031815Y031577D01*
X031636Y031577D01*
X031542Y031483D02*
X031125Y031483D01*
X031031Y031577D02*
X030852Y031577D01*
X030852Y031118D01*
X031310Y031118D01*
X031310Y031298D01*
X031031Y031577D01*
X031023Y031643D02*
X031290Y031911D01*
X031290Y032289D01*
X031023Y032557D01*
X030644Y032557D01*
X030376Y032289D01*
X030376Y031911D01*
X030644Y031643D01*
X031023Y031643D01*
X030815Y031577D02*
X030636Y031577D01*
X030356Y031298D01*
X030356Y031118D01*
X030815Y031118D01*
X030815Y031082D01*
X030356Y031082D01*
X030356Y030902D01*
X030636Y030623D01*
X030815Y030623D01*
X030815Y031082D01*
X030852Y031082D01*
X030852Y031118D01*
X030815Y031118D01*
X030815Y031577D01*
X030815Y031483D02*
X030852Y031483D01*
X030852Y031325D02*
X030815Y031325D01*
X030815Y031166D02*
X030852Y031166D01*
X030852Y031082D02*
X031310Y031082D01*
X031310Y030902D01*
X031031Y030623D01*
X030852Y030623D01*
X030852Y031082D01*
X030852Y031008D02*
X030815Y031008D01*
X030815Y030849D02*
X030852Y030849D01*
X030852Y030691D02*
X030815Y030691D01*
X030568Y030691D02*
X030070Y030691D01*
X030228Y030849D02*
X030410Y030849D01*
X030356Y031008D02*
X030290Y031008D01*
X030290Y031166D02*
X030356Y031166D01*
X030384Y031325D02*
X030255Y031325D01*
X030096Y031483D02*
X030542Y031483D01*
X030487Y031800D02*
X030179Y031800D01*
X030290Y031911D02*
X030023Y031643D01*
X029644Y031643D01*
X029376Y031911D01*
X029376Y032289D01*
X029644Y032557D01*
X030023Y032557D01*
X030290Y032289D01*
X030290Y031911D01*
X030290Y031959D02*
X030376Y031959D01*
X030376Y032117D02*
X030290Y032117D01*
X030290Y032276D02*
X030376Y032276D01*
X030521Y032434D02*
X030145Y032434D01*
X029521Y032434D02*
X029145Y032434D01*
X029290Y032276D02*
X029376Y032276D01*
X029376Y032117D02*
X029290Y032117D01*
X029290Y031959D02*
X029376Y031959D01*
X029487Y031800D02*
X029179Y031800D01*
X029031Y031577D02*
X028852Y031577D01*
X028852Y031118D01*
X029310Y031118D01*
X029310Y031298D01*
X029031Y031577D01*
X029125Y031483D02*
X029570Y031483D01*
X029412Y031325D02*
X029283Y031325D01*
X029310Y031166D02*
X029376Y031166D01*
X029310Y031082D02*
X028852Y031082D01*
X028852Y031118D01*
X028815Y031118D01*
X028815Y031082D01*
X028356Y031082D01*
X028356Y030902D01*
X028636Y030623D01*
X028815Y030623D01*
X028815Y031082D01*
X028852Y031082D01*
X028852Y030623D01*
X029031Y030623D01*
X029310Y030902D01*
X029310Y031082D01*
X029310Y031008D02*
X029376Y031008D01*
X029285Y030849D02*
X029257Y030849D01*
X029127Y030691D02*
X029098Y030691D01*
X028968Y030532D02*
X028198Y030532D01*
X028040Y030691D02*
X028568Y030691D01*
X028410Y030849D02*
X021122Y030849D01*
X021144Y030374D02*
X027763Y030374D01*
X027921Y030215D02*
X018731Y030215D01*
X018890Y030374D02*
X020522Y030374D01*
X020453Y030532D02*
X019048Y030532D01*
X019207Y030691D02*
X020460Y030691D01*
X020545Y030849D02*
X019365Y030849D01*
X019524Y031008D02*
X028356Y031008D01*
X028356Y031118D02*
X028815Y031118D01*
X028815Y031577D01*
X028636Y031577D01*
X028356Y031298D01*
X028356Y031118D01*
X028356Y031166D02*
X019682Y031166D01*
X019819Y031325D02*
X021571Y031325D01*
X021618Y031278D02*
X021758Y031220D01*
X021909Y031220D01*
X022049Y031278D01*
X022155Y031385D01*
X022213Y031524D01*
X022213Y031676D01*
X022155Y031815D01*
X022049Y031922D01*
X021909Y031980D01*
X021758Y031980D01*
X021618Y031922D01*
X021511Y031815D01*
X021453Y031676D01*
X021453Y031524D01*
X021511Y031385D01*
X021618Y031278D01*
X021470Y031483D02*
X019884Y031483D01*
X019887Y031642D02*
X021453Y031642D01*
X021505Y031800D02*
X019887Y031800D01*
X019887Y031959D02*
X021706Y031959D01*
X021961Y031959D02*
X022758Y031959D01*
X022527Y031800D02*
X022162Y031800D01*
X022213Y031642D02*
X022473Y031642D01*
X022492Y031483D02*
X022196Y031483D01*
X022095Y031325D02*
X022600Y031325D01*
X023067Y031325D02*
X028384Y031325D01*
X028542Y031483D02*
X023175Y031483D01*
X023489Y031959D02*
X024657Y031959D01*
X024471Y032117D02*
X023647Y032117D01*
X023806Y032276D02*
X024413Y032276D01*
X024413Y032434D02*
X023964Y032434D01*
X024123Y032593D02*
X024413Y032593D01*
X024413Y032751D02*
X024281Y032751D01*
X023663Y033227D02*
X019887Y033227D01*
X019887Y033385D02*
X023821Y033385D01*
X023980Y033544D02*
X019887Y033544D01*
X019887Y033702D02*
X024138Y033702D01*
X024297Y033861D02*
X019887Y033861D01*
X019887Y034019D02*
X024455Y034019D01*
X024614Y034178D02*
X019887Y034178D01*
X019887Y034336D02*
X024772Y034336D01*
X024931Y034495D02*
X019887Y034495D01*
X019887Y034653D02*
X025089Y034653D01*
X025215Y036056D02*
X025011Y036140D01*
X024856Y036296D01*
X024817Y036390D01*
X024746Y036390D01*
X024623Y036513D01*
X023746Y037390D01*
X021543Y037390D01*
X021543Y037119D01*
X021639Y037079D01*
X021794Y036923D01*
X021879Y036720D01*
X021879Y036500D01*
X021794Y036296D01*
X021639Y036140D01*
X021435Y036056D01*
X021215Y036056D01*
X021011Y036140D01*
X020856Y036296D01*
X020771Y036500D01*
X020771Y036720D01*
X020856Y036923D01*
X021011Y037079D01*
X021123Y037126D01*
X021123Y037687D01*
X021246Y037810D01*
X023920Y037810D01*
X024841Y036889D01*
X024856Y036923D01*
X025011Y037079D01*
X025215Y037164D01*
X025435Y037164D01*
X025639Y037079D01*
X025794Y036923D01*
X025879Y036720D01*
X025879Y036500D01*
X025794Y036296D01*
X025639Y036140D01*
X025435Y036056D01*
X025215Y036056D01*
X025158Y036080D02*
X023492Y036080D01*
X023435Y036056D02*
X023639Y036140D01*
X023794Y036296D01*
X023879Y036500D01*
X023879Y036720D01*
X023794Y036923D01*
X023639Y037079D01*
X023435Y037164D01*
X023215Y037164D01*
X023011Y037079D01*
X022856Y036923D01*
X022771Y036720D01*
X022771Y036500D01*
X022856Y036296D01*
X023011Y036140D01*
X023215Y036056D01*
X023435Y036056D01*
X023158Y036080D02*
X021492Y036080D01*
X021736Y036238D02*
X022914Y036238D01*
X022814Y036397D02*
X021836Y036397D01*
X021879Y036555D02*
X022771Y036555D01*
X022771Y036714D02*
X021879Y036714D01*
X021816Y036872D02*
X022834Y036872D01*
X022963Y037031D02*
X021687Y037031D01*
X021543Y037189D02*
X023947Y037189D01*
X023789Y037348D02*
X021543Y037348D01*
X021123Y037348D02*
X014916Y037348D01*
X014943Y037246D02*
X014868Y037528D01*
X014721Y037782D01*
X014515Y037988D01*
X014262Y038134D01*
X013979Y038210D01*
X013687Y038210D01*
X013405Y038134D01*
X013152Y037988D01*
X012945Y037782D01*
X012799Y037528D01*
X012723Y037246D01*
X012723Y036954D01*
X012799Y036672D01*
X012945Y036418D01*
X013152Y036212D01*
X013405Y036066D01*
X013687Y035990D01*
X013979Y035990D01*
X014262Y036066D01*
X014515Y036212D01*
X014721Y036418D01*
X014868Y036672D01*
X014943Y036954D01*
X014943Y037246D01*
X014943Y037189D02*
X021123Y037189D01*
X020963Y037031D02*
X019694Y037031D01*
X019828Y036872D02*
X020834Y036872D01*
X020771Y036714D02*
X019886Y036714D01*
X019887Y036555D02*
X020771Y036555D01*
X020814Y036397D02*
X019887Y036397D01*
X019887Y036238D02*
X020914Y036238D01*
X021158Y036080D02*
X019887Y036080D01*
X019887Y035921D02*
X050723Y035921D01*
X050723Y035763D02*
X019887Y035763D01*
X019887Y035604D02*
X050723Y035604D01*
X050723Y035446D02*
X019887Y035446D01*
X019887Y035287D02*
X050723Y035287D01*
X050723Y035129D02*
X019887Y035129D01*
X019887Y034970D02*
X050723Y034970D01*
X050723Y034812D02*
X019887Y034812D01*
X018780Y034812D02*
X012333Y034812D01*
X012333Y034970D02*
X018780Y034970D01*
X018780Y035129D02*
X012333Y035129D01*
X012333Y035287D02*
X018780Y035287D01*
X018780Y035446D02*
X012333Y035446D01*
X012333Y035604D02*
X018780Y035604D01*
X018780Y035763D02*
X012333Y035763D01*
X012333Y035921D02*
X018780Y035921D01*
X018780Y036080D02*
X017492Y036080D01*
X017435Y036056D02*
X017639Y036140D01*
X017794Y036296D01*
X017879Y036500D01*
X017879Y036720D01*
X017794Y036923D01*
X017639Y037079D01*
X017435Y037164D01*
X017215Y037164D01*
X017011Y037079D01*
X016856Y036923D01*
X016771Y036720D01*
X016771Y036500D01*
X016856Y036296D01*
X017011Y036140D01*
X017215Y036056D01*
X017435Y036056D01*
X017158Y036080D02*
X014286Y036080D01*
X014541Y036238D02*
X016914Y036238D01*
X016814Y036397D02*
X014700Y036397D01*
X014800Y036555D02*
X016771Y036555D01*
X016771Y036714D02*
X014879Y036714D01*
X014921Y036872D02*
X016834Y036872D01*
X016963Y037031D02*
X014943Y037031D01*
X014874Y037506D02*
X021123Y037506D01*
X021123Y037665D02*
X014789Y037665D01*
X014680Y037823D02*
X047987Y037823D01*
X047945Y037782D02*
X047799Y037528D01*
X047723Y037246D01*
X047723Y036954D01*
X047799Y036672D01*
X047945Y036418D01*
X048152Y036212D01*
X048405Y036066D01*
X048687Y035990D01*
X048979Y035990D01*
X049262Y036066D01*
X049515Y036212D01*
X049721Y036418D01*
X049868Y036672D01*
X049943Y036954D01*
X049943Y037246D01*
X049868Y037528D01*
X049721Y037782D01*
X049515Y037988D01*
X049262Y038134D01*
X048979Y038210D01*
X048687Y038210D01*
X048405Y038134D01*
X048152Y037988D01*
X047945Y037782D01*
X047878Y037665D02*
X042543Y037665D01*
X042543Y037687D02*
X042420Y037810D01*
X030746Y037810D01*
X029814Y036877D01*
X029794Y036923D01*
X029639Y037079D01*
X029435Y037164D01*
X029215Y037164D01*
X029011Y037079D01*
X028856Y036923D01*
X028771Y036720D01*
X028771Y036500D01*
X028856Y036296D01*
X029011Y036140D01*
X029215Y036056D01*
X029435Y036056D01*
X029639Y036140D01*
X029794Y036296D01*
X029833Y036390D01*
X029920Y036390D01*
X030043Y036513D01*
X030920Y037390D01*
X035623Y037390D01*
X035623Y037126D01*
X035511Y037079D01*
X035356Y036923D01*
X035271Y036720D01*
X035271Y036500D01*
X035356Y036296D01*
X035511Y036140D01*
X035715Y036056D01*
X035935Y036056D01*
X036139Y036140D01*
X036294Y036296D01*
X036379Y036500D01*
X036379Y036720D01*
X036294Y036923D01*
X036139Y037079D01*
X036043Y037119D01*
X036043Y037390D01*
X042123Y037390D01*
X042123Y037126D01*
X042011Y037079D01*
X041856Y036923D01*
X041771Y036720D01*
X041771Y036500D01*
X041856Y036296D01*
X042011Y036140D01*
X042215Y036056D01*
X042435Y036056D01*
X042639Y036140D01*
X042794Y036296D01*
X042879Y036500D01*
X042879Y036720D01*
X042794Y036923D01*
X042639Y037079D01*
X042543Y037119D01*
X042543Y037687D01*
X042543Y037506D02*
X047793Y037506D01*
X047751Y037348D02*
X042543Y037348D01*
X042543Y037189D02*
X047723Y037189D01*
X047723Y037031D02*
X046687Y037031D01*
X046639Y037079D02*
X046794Y036923D01*
X046879Y036720D01*
X046879Y036500D01*
X046794Y036296D01*
X046639Y036140D01*
X046435Y036056D01*
X046215Y036056D01*
X046011Y036140D01*
X045856Y036296D01*
X045771Y036500D01*
X045771Y036720D01*
X045856Y036923D01*
X046011Y037079D01*
X046215Y037164D01*
X046435Y037164D01*
X046639Y037079D01*
X046816Y036872D02*
X047745Y036872D01*
X047788Y036714D02*
X046879Y036714D01*
X046879Y036555D02*
X047866Y036555D01*
X047967Y036397D02*
X046836Y036397D01*
X046736Y036238D02*
X048126Y036238D01*
X048381Y036080D02*
X046492Y036080D01*
X046158Y036080D02*
X044492Y036080D01*
X044435Y036056D02*
X044639Y036140D01*
X044794Y036296D01*
X044879Y036500D01*
X044879Y036720D01*
X044794Y036923D01*
X044639Y037079D01*
X044435Y037164D01*
X044215Y037164D01*
X044011Y037079D01*
X043856Y036923D01*
X043771Y036720D01*
X043771Y036500D01*
X043856Y036296D01*
X044011Y036140D01*
X044215Y036056D01*
X044435Y036056D01*
X044158Y036080D02*
X042492Y036080D01*
X042736Y036238D02*
X043914Y036238D01*
X043814Y036397D02*
X042836Y036397D01*
X042879Y036555D02*
X043771Y036555D01*
X043771Y036714D02*
X042879Y036714D01*
X042816Y036872D02*
X043834Y036872D01*
X043963Y037031D02*
X042687Y037031D01*
X042123Y037189D02*
X036043Y037189D01*
X036043Y037348D02*
X042123Y037348D01*
X041963Y037031D02*
X040187Y037031D01*
X040139Y037079D02*
X039935Y037164D01*
X039715Y037164D01*
X039511Y037079D01*
X039356Y036923D01*
X039271Y036720D01*
X039271Y036500D01*
X039356Y036296D01*
X039511Y036140D01*
X039715Y036056D01*
X039935Y036056D01*
X040139Y036140D01*
X040294Y036296D01*
X040379Y036500D01*
X040379Y036720D01*
X040294Y036923D01*
X040139Y037079D01*
X040316Y036872D02*
X041834Y036872D01*
X041771Y036714D02*
X040379Y036714D01*
X040379Y036555D02*
X041771Y036555D01*
X041814Y036397D02*
X040336Y036397D01*
X040236Y036238D02*
X041914Y036238D01*
X042158Y036080D02*
X039992Y036080D01*
X039658Y036080D02*
X037992Y036080D01*
X037935Y036056D02*
X038139Y036140D01*
X038294Y036296D01*
X038379Y036500D01*
X038379Y036720D01*
X038294Y036923D01*
X038139Y037079D01*
X037935Y037164D01*
X037715Y037164D01*
X037511Y037079D01*
X037356Y036923D01*
X037271Y036720D01*
X037271Y036500D01*
X037356Y036296D01*
X037511Y036140D01*
X037715Y036056D01*
X037935Y036056D01*
X037658Y036080D02*
X035992Y036080D01*
X036236Y036238D02*
X037414Y036238D01*
X037314Y036397D02*
X036336Y036397D01*
X036379Y036555D02*
X037271Y036555D01*
X037271Y036714D02*
X036379Y036714D01*
X036316Y036872D02*
X037334Y036872D01*
X037463Y037031D02*
X036187Y037031D01*
X035623Y037189D02*
X030719Y037189D01*
X030561Y037031D02*
X030963Y037031D01*
X031011Y037079D02*
X030856Y036923D01*
X030771Y036720D01*
X030771Y036500D01*
X030856Y036296D01*
X031011Y036140D01*
X031215Y036056D01*
X031435Y036056D01*
X031639Y036140D01*
X031794Y036296D01*
X031879Y036500D01*
X031879Y036720D01*
X031794Y036923D01*
X031639Y037079D01*
X031435Y037164D01*
X031215Y037164D01*
X031011Y037079D01*
X030834Y036872D02*
X030402Y036872D01*
X030244Y036714D02*
X030771Y036714D01*
X030771Y036555D02*
X030085Y036555D01*
X029927Y036397D02*
X030814Y036397D01*
X030914Y036238D02*
X029736Y036238D01*
X029492Y036080D02*
X031158Y036080D01*
X031492Y036080D02*
X033158Y036080D01*
X033215Y036056D02*
X033435Y036056D01*
X033639Y036140D01*
X033794Y036296D01*
X033879Y036500D01*
X033879Y036720D01*
X033794Y036923D01*
X033639Y037079D01*
X033435Y037164D01*
X033215Y037164D01*
X033011Y037079D01*
X032856Y036923D01*
X032771Y036720D01*
X032771Y036500D01*
X032856Y036296D01*
X033011Y036140D01*
X033215Y036056D01*
X033492Y036080D02*
X035658Y036080D01*
X035414Y036238D02*
X033736Y036238D01*
X033836Y036397D02*
X035314Y036397D01*
X035271Y036555D02*
X033879Y036555D01*
X033879Y036714D02*
X035271Y036714D01*
X035334Y036872D02*
X033816Y036872D01*
X033687Y037031D02*
X035463Y037031D01*
X035623Y037348D02*
X030878Y037348D01*
X030601Y037665D02*
X024066Y037665D01*
X024224Y037506D02*
X030442Y037506D01*
X030284Y037348D02*
X024383Y037348D01*
X024541Y037189D02*
X030125Y037189D01*
X029967Y037031D02*
X029687Y037031D01*
X028963Y037031D02*
X027687Y037031D01*
X027639Y037079D02*
X027435Y037164D01*
X027215Y037164D01*
X027011Y037079D01*
X026856Y036923D01*
X026771Y036720D01*
X026771Y036500D01*
X026856Y036296D01*
X027011Y036140D01*
X027215Y036056D01*
X027435Y036056D01*
X027639Y036140D01*
X027794Y036296D01*
X027879Y036500D01*
X027879Y036720D01*
X027794Y036923D01*
X027639Y037079D01*
X027816Y036872D02*
X028834Y036872D01*
X028771Y036714D02*
X027879Y036714D01*
X027879Y036555D02*
X028771Y036555D01*
X028814Y036397D02*
X027836Y036397D01*
X027736Y036238D02*
X028914Y036238D01*
X029158Y036080D02*
X027492Y036080D01*
X027158Y036080D02*
X025492Y036080D01*
X025736Y036238D02*
X026914Y036238D01*
X026814Y036397D02*
X025836Y036397D01*
X025879Y036555D02*
X026771Y036555D01*
X026771Y036714D02*
X025879Y036714D01*
X025816Y036872D02*
X026834Y036872D01*
X026963Y037031D02*
X025687Y037031D01*
X024963Y037031D02*
X024700Y037031D01*
X024423Y036714D02*
X023879Y036714D01*
X023879Y036555D02*
X024581Y036555D01*
X024740Y036397D02*
X023836Y036397D01*
X023736Y036238D02*
X024914Y036238D01*
X024264Y036872D02*
X023816Y036872D01*
X023687Y037031D02*
X024106Y037031D01*
X023504Y033068D02*
X019887Y033068D01*
X019887Y032910D02*
X023140Y032910D01*
X023006Y032751D02*
X019887Y032751D01*
X019887Y032593D02*
X022973Y032593D01*
X023012Y032434D02*
X019887Y032434D01*
X019887Y032276D02*
X023176Y032276D01*
X023053Y032117D02*
X019887Y032117D01*
X018780Y032117D02*
X012333Y032117D01*
X012333Y031959D02*
X017570Y031959D01*
X017651Y032040D02*
X017393Y031782D01*
X017393Y031600D01*
X017393Y031418D01*
X017651Y031160D01*
X017833Y031160D01*
X017833Y031600D01*
X017393Y031600D01*
X017833Y031600D01*
X017833Y031600D01*
X017833Y032040D01*
X017651Y032040D01*
X017833Y032040D02*
X017833Y031600D01*
X017833Y031600D01*
X017833Y031600D01*
X017833Y031160D01*
X018016Y031160D01*
X018273Y031418D01*
X018273Y031600D01*
X018273Y031782D01*
X018016Y032040D01*
X017833Y032040D01*
X017833Y031959D02*
X017833Y031959D01*
X017833Y031800D02*
X017833Y031800D01*
X017833Y031642D02*
X017833Y031642D01*
X017833Y031600D02*
X018273Y031600D01*
X017833Y031600D01*
X017833Y031600D01*
X017833Y031483D02*
X017833Y031483D01*
X017833Y031325D02*
X017833Y031325D01*
X017833Y031166D02*
X017833Y031166D01*
X017645Y031166D02*
X016109Y031166D01*
X016113Y031138D02*
X016102Y031212D01*
X016078Y031284D01*
X016044Y031352D01*
X015999Y031413D01*
X015946Y031466D01*
X015885Y031511D01*
X015818Y031545D01*
X015746Y031568D01*
X015671Y031580D01*
X015353Y031580D01*
X015353Y031120D01*
X016113Y031120D01*
X016113Y031138D01*
X016105Y031008D02*
X017958Y031008D01*
X018022Y031166D02*
X018116Y031166D01*
X018180Y031325D02*
X018275Y031325D01*
X018273Y031483D02*
X018433Y031483D01*
X018592Y031642D02*
X018273Y031642D01*
X018256Y031800D02*
X018750Y031800D01*
X018780Y031959D02*
X018097Y031959D01*
X018780Y032276D02*
X012333Y032276D01*
X012333Y032434D02*
X018780Y032434D01*
X018780Y032593D02*
X012333Y032593D01*
X012333Y032751D02*
X018780Y032751D01*
X018780Y032910D02*
X012333Y032910D01*
X012333Y033068D02*
X018780Y033068D01*
X018780Y033227D02*
X012333Y033227D01*
X012333Y033385D02*
X018780Y033385D01*
X018780Y033544D02*
X012333Y033544D01*
X012333Y033702D02*
X018780Y033702D01*
X018780Y033861D02*
X012333Y033861D01*
X012333Y034019D02*
X018780Y034019D01*
X018780Y034178D02*
X012333Y034178D01*
X012333Y034336D02*
X018780Y034336D01*
X018780Y034495D02*
X012333Y034495D01*
X012333Y034653D02*
X018780Y034653D01*
X018780Y036238D02*
X017736Y036238D01*
X017836Y036397D02*
X018780Y036397D01*
X018765Y036555D02*
X017879Y036555D01*
X017879Y036714D02*
X018771Y036714D01*
X018834Y036872D02*
X017816Y036872D01*
X017687Y037031D02*
X018963Y037031D01*
X017411Y031800D02*
X012333Y031800D01*
X012333Y031642D02*
X017393Y031642D01*
X017393Y031483D02*
X015923Y031483D01*
X016058Y031325D02*
X017487Y031325D01*
X017799Y030849D02*
X016044Y030849D01*
X015886Y030691D02*
X017641Y030691D01*
X017679Y028472D02*
X017259Y028472D01*
X017417Y028313D02*
X017837Y028313D01*
X017996Y028155D02*
X017576Y028155D01*
X017299Y027838D02*
X012333Y027838D01*
X012333Y027996D02*
X017140Y027996D01*
X016982Y028155D02*
X012333Y028155D01*
X012333Y028313D02*
X016823Y028313D01*
X016665Y028472D02*
X012333Y028472D01*
X012333Y028630D02*
X016506Y028630D01*
X016348Y028789D02*
X015972Y028789D01*
X015139Y029581D02*
X012333Y029581D01*
X012333Y029423D02*
X014705Y029423D01*
X014603Y029264D02*
X012333Y029264D01*
X012333Y029106D02*
X014573Y029106D01*
X014599Y028947D02*
X012333Y028947D01*
X012333Y028789D02*
X014694Y028789D01*
X014743Y029740D02*
X012333Y029740D01*
X012333Y029898D02*
X014619Y029898D01*
X014573Y030057D02*
X012333Y030057D01*
X012333Y030215D02*
X014583Y030215D01*
X014656Y030374D02*
X012333Y030374D01*
X012333Y030532D02*
X014874Y030532D01*
X014780Y030691D02*
X012333Y030691D01*
X012333Y030849D02*
X014622Y030849D01*
X014562Y031008D02*
X012333Y031008D01*
X012333Y031166D02*
X014558Y031166D01*
X014553Y031138D02*
X014565Y031212D01*
X014588Y031284D01*
X014623Y031352D01*
X014667Y031413D01*
X014721Y031466D01*
X014782Y031511D01*
X014849Y031545D01*
X014921Y031568D01*
X014996Y031580D01*
X015313Y031580D01*
X015313Y031120D01*
X014553Y031120D01*
X014553Y031138D01*
X014609Y031325D02*
X012333Y031325D01*
X012333Y031483D02*
X014744Y031483D01*
X015313Y031483D02*
X015353Y031483D01*
X015353Y031325D02*
X015313Y031325D01*
X015313Y031166D02*
X015353Y031166D01*
X017413Y027679D02*
X012333Y027679D01*
X012333Y027521D02*
X017413Y027521D01*
X017477Y027362D02*
X012333Y027362D01*
X012333Y027204D02*
X017636Y027204D01*
X018091Y027045D02*
X012333Y027045D01*
X012333Y026887D02*
X018250Y026887D01*
X018408Y026728D02*
X012333Y026728D01*
X012333Y026570D02*
X018567Y026570D01*
X018725Y026411D02*
X012333Y026411D01*
X012333Y026253D02*
X018884Y026253D01*
X019042Y026094D02*
X012333Y026094D01*
X012333Y025936D02*
X019201Y025936D01*
X019161Y026570D02*
X019667Y026570D01*
X019422Y026728D02*
X019002Y026728D01*
X018844Y026887D02*
X019264Y026887D01*
X019105Y027045D02*
X018685Y027045D01*
X018527Y027204D02*
X018947Y027204D01*
X018788Y027362D02*
X018368Y027362D01*
X018253Y027521D02*
X018630Y027521D01*
X018471Y027679D02*
X018253Y027679D01*
X018313Y027838D02*
X018190Y027838D01*
X018154Y027996D02*
X018031Y027996D01*
X021979Y022766D02*
X026574Y022766D01*
X026637Y021498D02*
X022005Y021498D01*
X021926Y021339D02*
X026478Y021339D01*
X026413Y021181D02*
X021678Y021181D01*
X021960Y020388D02*
X028824Y020388D01*
X029282Y022449D02*
X033688Y022449D01*
X033529Y022607D02*
X029123Y022607D01*
X031766Y023241D02*
X032895Y023241D01*
X032737Y023400D02*
X031860Y023400D01*
X031898Y023558D02*
X032578Y023558D01*
X032420Y023717D02*
X031889Y023717D01*
X031834Y023875D02*
X032261Y023875D01*
X032103Y024034D02*
X031713Y024034D01*
X033165Y027838D02*
X035799Y027838D01*
X035640Y027996D02*
X033253Y027996D01*
X033253Y028155D02*
X035482Y028155D01*
X035111Y028313D02*
X033214Y028313D01*
X033056Y028472D02*
X034997Y028472D01*
X034738Y029898D02*
X028928Y029898D01*
X029087Y030057D02*
X034580Y030057D01*
X034421Y030215D02*
X029245Y030215D01*
X029404Y030374D02*
X034263Y030374D01*
X034104Y030532D02*
X029562Y030532D01*
X028852Y030691D02*
X028815Y030691D01*
X028815Y030849D02*
X028852Y030849D01*
X028852Y031008D02*
X028815Y031008D01*
X028815Y031166D02*
X028852Y031166D01*
X028852Y031325D02*
X028815Y031325D01*
X028815Y031483D02*
X028852Y031483D01*
X028376Y032117D02*
X027196Y032117D01*
X027253Y032276D02*
X028376Y032276D01*
X028521Y032434D02*
X027253Y032434D01*
X027253Y032593D02*
X034029Y032593D01*
X034187Y032751D02*
X027253Y032751D01*
X028357Y030374D02*
X028810Y030374D01*
X028477Y028947D02*
X032413Y028947D01*
X032636Y030623D02*
X032815Y030623D01*
X032815Y031082D01*
X032356Y031082D01*
X032356Y030902D01*
X032636Y030623D01*
X032568Y030691D02*
X032098Y030691D01*
X032031Y030623D02*
X032310Y030902D01*
X032310Y031082D01*
X031852Y031082D01*
X031852Y030623D01*
X032031Y030623D01*
X031852Y030691D02*
X031815Y030691D01*
X031815Y030849D02*
X031852Y030849D01*
X031852Y031008D02*
X031815Y031008D01*
X031815Y031166D02*
X031852Y031166D01*
X031852Y031325D02*
X031815Y031325D01*
X031815Y031483D02*
X031852Y031483D01*
X031852Y031623D02*
X032031Y031623D01*
X032310Y031902D01*
X032310Y032082D01*
X031852Y032082D01*
X031852Y032118D01*
X032310Y032118D01*
X032310Y032298D01*
X032031Y032577D01*
X031852Y032577D01*
X031852Y032118D01*
X031815Y032118D01*
X031815Y032082D01*
X031852Y032082D01*
X031852Y031623D01*
X031852Y031642D02*
X031815Y031642D01*
X031815Y031800D02*
X031852Y031800D01*
X031852Y031959D02*
X031815Y031959D01*
X031815Y032117D02*
X031290Y032117D01*
X031356Y032118D02*
X031356Y032298D01*
X031636Y032577D01*
X031815Y032577D01*
X031815Y032118D01*
X031356Y032118D01*
X031356Y032276D02*
X031290Y032276D01*
X031145Y032434D02*
X031493Y032434D01*
X031815Y032434D02*
X031852Y032434D01*
X031852Y032276D02*
X031815Y032276D01*
X031852Y032117D02*
X032815Y032117D01*
X032815Y032118D02*
X032815Y032082D01*
X032356Y032082D01*
X032356Y031902D01*
X032636Y031623D01*
X032815Y031623D01*
X032815Y032082D01*
X032852Y032082D01*
X032852Y032118D01*
X033310Y032118D01*
X033310Y032298D01*
X033031Y032577D01*
X032852Y032577D01*
X032852Y032118D01*
X032815Y032118D01*
X032356Y032118D01*
X032356Y032298D01*
X032636Y032577D01*
X032815Y032577D01*
X032815Y032118D01*
X032852Y032117D02*
X033376Y032117D01*
X033310Y032082D02*
X032852Y032082D01*
X032852Y031623D01*
X033031Y031623D01*
X033310Y031902D01*
X033310Y032082D01*
X033310Y031959D02*
X033376Y031959D01*
X033487Y031800D02*
X033208Y031800D01*
X033049Y031642D02*
X035617Y031642D01*
X035636Y031623D02*
X035815Y031623D01*
X035815Y032082D01*
X035356Y032082D01*
X035356Y031902D01*
X035636Y031623D01*
X035644Y031557D02*
X035376Y031289D01*
X035376Y030911D01*
X035644Y030643D01*
X036023Y030643D01*
X036290Y030911D01*
X036290Y031289D01*
X036023Y031557D01*
X035644Y031557D01*
X035570Y031483D02*
X035096Y031483D01*
X035023Y031557D02*
X034644Y031557D01*
X034376Y031289D01*
X034376Y030911D01*
X034644Y030643D01*
X035023Y030643D01*
X035290Y030911D01*
X035290Y031289D01*
X035023Y031557D01*
X035179Y031800D02*
X035459Y031800D01*
X035356Y031959D02*
X035290Y031959D01*
X035290Y032117D02*
X035815Y032117D01*
X035815Y032118D02*
X035815Y032082D01*
X035852Y032082D01*
X035852Y032118D01*
X036310Y032118D01*
X036310Y032298D01*
X036031Y032577D01*
X035852Y032577D01*
X035852Y032118D01*
X035815Y032118D01*
X035356Y032118D01*
X035356Y032298D01*
X035636Y032577D01*
X035815Y032577D01*
X035815Y032118D01*
X035852Y032117D02*
X037019Y032117D01*
X036861Y032276D02*
X036310Y032276D01*
X036310Y032082D02*
X035852Y032082D01*
X035852Y031623D01*
X036031Y031623D01*
X036310Y031902D01*
X036310Y032082D01*
X036310Y031959D02*
X037178Y031959D01*
X037336Y031800D02*
X036208Y031800D01*
X036049Y031642D02*
X037495Y031642D01*
X037653Y031483D02*
X036096Y031483D01*
X036255Y031325D02*
X037812Y031325D01*
X037970Y031166D02*
X036290Y031166D01*
X036290Y031008D02*
X038129Y031008D01*
X038287Y030849D02*
X036228Y030849D01*
X036070Y030691D02*
X038446Y030691D01*
X038473Y030532D02*
X034698Y030532D01*
X034597Y030691D02*
X034540Y030691D01*
X034438Y030849D02*
X034381Y030849D01*
X034376Y031008D02*
X034290Y031008D01*
X034290Y031166D02*
X034376Y031166D01*
X034412Y031325D02*
X034255Y031325D01*
X034096Y031483D02*
X034570Y031483D01*
X034487Y031800D02*
X034179Y031800D01*
X034290Y031959D02*
X034376Y031959D01*
X034376Y032117D02*
X034290Y032117D01*
X034306Y032276D02*
X034376Y032276D01*
X035145Y032434D02*
X035493Y032434D01*
X035356Y032276D02*
X035290Y032276D01*
X035123Y032593D02*
X036544Y032593D01*
X036385Y032751D02*
X035281Y032751D01*
X035815Y032434D02*
X035852Y032434D01*
X035852Y032276D02*
X035815Y032276D01*
X035815Y031959D02*
X035852Y031959D01*
X035852Y031800D02*
X035815Y031800D01*
X035815Y031642D02*
X035852Y031642D01*
X035412Y031325D02*
X035255Y031325D01*
X035290Y031166D02*
X035376Y031166D01*
X035376Y031008D02*
X035290Y031008D01*
X035228Y030849D02*
X035438Y030849D01*
X035597Y030691D02*
X035070Y030691D01*
X034857Y030374D02*
X038551Y030374D01*
X039116Y030374D02*
X050723Y030374D01*
X050723Y030532D02*
X039193Y030532D01*
X038876Y031008D02*
X038723Y031008D01*
X038876Y031166D02*
X038564Y031166D01*
X038406Y031325D02*
X038912Y031325D01*
X038653Y031483D02*
X038247Y031483D01*
X038089Y031642D02*
X038495Y031642D01*
X038336Y031800D02*
X037930Y031800D01*
X037772Y031959D02*
X038178Y031959D01*
X038019Y032117D02*
X037613Y032117D01*
X037455Y032276D02*
X037861Y032276D01*
X037702Y032434D02*
X037296Y032434D01*
X037138Y032593D02*
X037544Y032593D01*
X037385Y032751D02*
X036979Y032751D01*
X036821Y032910D02*
X037227Y032910D01*
X037068Y033068D02*
X036662Y033068D01*
X036504Y033227D02*
X036910Y033227D01*
X036702Y032434D02*
X036174Y032434D01*
X036276Y033861D02*
X035195Y033861D01*
X034585Y033227D02*
X033082Y033227D01*
X033241Y033385D02*
X034426Y033385D01*
X033521Y032434D02*
X033174Y032434D01*
X033310Y032276D02*
X033376Y032276D01*
X032852Y032276D02*
X032815Y032276D01*
X032815Y032434D02*
X032852Y032434D01*
X032493Y032434D02*
X032174Y032434D01*
X032310Y032276D02*
X032356Y032276D01*
X032356Y031959D02*
X032310Y031959D01*
X032208Y031800D02*
X032459Y031800D01*
X032617Y031642D02*
X032049Y031642D01*
X032125Y031483D02*
X032542Y031483D01*
X032636Y031577D02*
X032356Y031298D01*
X032356Y031118D01*
X032815Y031118D01*
X032815Y031082D01*
X032852Y031082D01*
X032852Y031118D01*
X033310Y031118D01*
X033310Y031298D01*
X033031Y031577D01*
X032852Y031577D01*
X032852Y031118D01*
X032815Y031118D01*
X032815Y031577D01*
X032636Y031577D01*
X032815Y031642D02*
X032852Y031642D01*
X032852Y031800D02*
X032815Y031800D01*
X032815Y031959D02*
X032852Y031959D01*
X032852Y031483D02*
X032815Y031483D01*
X032815Y031325D02*
X032852Y031325D01*
X032852Y031166D02*
X032815Y031166D01*
X032852Y031082D02*
X033310Y031082D01*
X033310Y030902D01*
X033031Y030623D01*
X032852Y030623D01*
X032852Y031082D01*
X032852Y031008D02*
X032815Y031008D01*
X032815Y030849D02*
X032852Y030849D01*
X032852Y030691D02*
X032815Y030691D01*
X033098Y030691D02*
X033597Y030691D01*
X033438Y030849D02*
X033257Y030849D01*
X033310Y031008D02*
X033376Y031008D01*
X033376Y031166D02*
X033310Y031166D01*
X033283Y031325D02*
X033412Y031325D01*
X033570Y031483D02*
X033125Y031483D01*
X032384Y031325D02*
X032283Y031325D01*
X032310Y031166D02*
X032356Y031166D01*
X032356Y031008D02*
X032310Y031008D01*
X032257Y030849D02*
X032410Y030849D01*
X031568Y030691D02*
X031098Y030691D01*
X031257Y030849D02*
X031410Y030849D01*
X031356Y031008D02*
X031310Y031008D01*
X031310Y031166D02*
X031356Y031166D01*
X031384Y031325D02*
X031283Y031325D01*
X031179Y031800D02*
X031459Y031800D01*
X031356Y031959D02*
X031290Y031959D01*
X028561Y028789D02*
X028319Y028789D01*
X028417Y028630D02*
X028160Y028630D01*
X028043Y028472D02*
X028362Y028472D01*
X028356Y028313D02*
X028043Y028313D01*
X028043Y028155D02*
X028356Y028155D01*
X028356Y027996D02*
X028043Y027996D01*
X028043Y027838D02*
X028356Y027838D01*
X028372Y027679D02*
X028043Y027679D01*
X028043Y027521D02*
X028449Y027521D01*
X027623Y027362D02*
X027165Y027362D01*
X027253Y027204D02*
X027623Y027204D01*
X027623Y027045D02*
X027253Y027045D01*
X027214Y026887D02*
X027623Y026887D01*
X027623Y026728D02*
X027055Y026728D01*
X026583Y027996D02*
X025108Y027996D01*
X025233Y028155D02*
X026456Y028155D01*
X026413Y028313D02*
X025273Y028313D01*
X025273Y028472D02*
X026413Y028472D01*
X026413Y028630D02*
X025273Y028630D01*
X025273Y028789D02*
X026413Y028789D01*
X026415Y028947D02*
X025265Y028947D01*
X025199Y029106D02*
X026485Y029106D01*
X026413Y021022D02*
X017552Y021022D01*
X017543Y020864D02*
X017743Y020864D01*
X017662Y020705D02*
X017543Y020705D01*
X017543Y020547D02*
X017653Y020547D01*
X017707Y020388D02*
X017543Y020388D01*
X017543Y020230D02*
X017870Y020230D01*
X017989Y021181D02*
X017711Y021181D01*
X018875Y019913D02*
X020724Y019913D01*
X020683Y019754D02*
X018984Y019754D01*
X019013Y019596D02*
X020653Y019596D01*
X020686Y019437D02*
X018980Y019437D01*
X018866Y019279D02*
X020801Y019279D01*
X020849Y018962D02*
X018818Y018962D01*
X018964Y018803D02*
X020703Y018803D01*
X020653Y018645D02*
X019013Y018645D01*
X019001Y018486D02*
X020666Y018486D01*
X020752Y018328D02*
X018915Y018328D01*
X018762Y018008D02*
X018696Y018029D01*
X018628Y018040D01*
X018333Y018040D01*
X018039Y018040D01*
X017970Y018029D01*
X017904Y018008D01*
X017843Y017976D01*
X017787Y017936D01*
X017738Y017887D01*
X017697Y017831D01*
X017666Y017769D01*
X017644Y017703D01*
X017633Y017635D01*
X017633Y017600D01*
X017633Y017565D01*
X017644Y017497D01*
X017666Y017431D01*
X017697Y017369D01*
X017738Y017313D01*
X017787Y017264D01*
X017843Y017224D01*
X017904Y017192D01*
X017970Y017171D01*
X018039Y017160D01*
X018333Y017160D01*
X018333Y017600D01*
X017633Y017600D01*
X018333Y017600D01*
X018333Y017600D01*
X018333Y018040D01*
X018333Y017600D01*
X018333Y017600D01*
X018333Y017600D01*
X018333Y017160D01*
X018628Y017160D01*
X018696Y017171D01*
X018762Y017192D01*
X018824Y017224D01*
X018880Y017264D01*
X018929Y017313D01*
X018970Y017369D01*
X019001Y017431D01*
X019022Y017497D01*
X019033Y017565D01*
X019033Y017600D01*
X019033Y017635D01*
X019022Y017703D01*
X019001Y017769D01*
X018970Y017831D01*
X018929Y017887D01*
X018880Y017936D01*
X018824Y017976D01*
X018762Y018008D01*
X018754Y018011D02*
X020967Y018011D01*
X020731Y017852D02*
X018954Y017852D01*
X019024Y017694D02*
X020657Y017694D01*
X020653Y017535D02*
X019029Y017535D01*
X019033Y017600D02*
X018333Y017600D01*
X019033Y017600D01*
X018973Y017377D02*
X020711Y017377D01*
X020898Y017218D02*
X018813Y017218D01*
X018886Y016901D02*
X020780Y016901D01*
X020678Y016743D02*
X018989Y016743D01*
X019013Y016584D02*
X020653Y016584D01*
X020691Y016426D02*
X018976Y016426D01*
X018854Y016267D02*
X020812Y016267D01*
X018333Y017218D02*
X018333Y017218D01*
X018333Y017377D02*
X018333Y017377D01*
X018333Y017535D02*
X018333Y017535D01*
X018333Y017600D02*
X018333Y017600D01*
X018333Y017694D02*
X018333Y017694D01*
X018333Y017852D02*
X018333Y017852D01*
X018333Y018011D02*
X018333Y018011D01*
X017913Y018011D02*
X017543Y018011D01*
X017543Y017852D02*
X017713Y017852D01*
X017643Y017694D02*
X017543Y017694D01*
X017543Y017535D02*
X017638Y017535D01*
X017693Y017377D02*
X017543Y017377D01*
X017543Y017218D02*
X017854Y017218D01*
X015984Y018328D02*
X013043Y018328D01*
X013043Y018486D02*
X015893Y018486D01*
X015893Y018645D02*
X013043Y018645D01*
X013043Y018803D02*
X015914Y018803D01*
X014353Y018011D02*
X014313Y018011D01*
X014313Y017852D02*
X014353Y017852D01*
X014353Y017694D02*
X014313Y017694D01*
X014313Y017535D02*
X014353Y017535D01*
X014353Y017377D02*
X014313Y017377D01*
X014313Y017218D02*
X014353Y017218D01*
X013733Y015950D02*
X013043Y015950D01*
X013043Y015792D02*
X013615Y015792D01*
X013573Y015633D02*
X013043Y015633D01*
X013043Y015475D02*
X013587Y015475D01*
X013667Y015316D02*
X013043Y015316D01*
X013043Y015158D02*
X013900Y015158D01*
X014767Y015158D02*
X015479Y015158D01*
X015320Y015316D02*
X015000Y015316D01*
X015637Y014999D02*
X013043Y014999D01*
X013043Y014841D02*
X015796Y014841D01*
X015913Y014682D02*
X013043Y014682D01*
X013043Y014524D02*
X015913Y014524D01*
X015974Y014365D02*
X013043Y014365D01*
X013043Y014207D02*
X016133Y014207D01*
X015940Y011829D02*
X013043Y011829D01*
X013043Y011671D02*
X015893Y011671D01*
X015893Y011512D02*
X013043Y011512D01*
X013043Y011354D02*
X015958Y011354D01*
X027151Y017377D02*
X028260Y017377D01*
X028418Y017218D02*
X027253Y017218D01*
X027253Y017060D02*
X028577Y017060D01*
X028735Y016901D02*
X027228Y016901D01*
X028378Y017852D02*
X038231Y017852D01*
X038157Y017694D02*
X028537Y017694D01*
X028695Y017535D02*
X038153Y017535D01*
X038211Y017377D02*
X028854Y017377D01*
X029120Y013890D02*
X034518Y013890D01*
X034507Y013879D02*
X034468Y013824D01*
X034437Y013764D01*
X034416Y013700D01*
X034406Y013634D01*
X034406Y013600D01*
X034406Y013566D01*
X034416Y013500D01*
X034437Y013436D01*
X034468Y013376D01*
X034507Y013321D01*
X034555Y013274D01*
X034609Y013234D01*
X034669Y013204D01*
X034733Y013183D01*
X034800Y013172D01*
X034833Y013172D01*
X034833Y013600D01*
X034406Y013600D01*
X034833Y013600D01*
X034833Y013600D01*
X034833Y013600D01*
X034833Y014028D01*
X034800Y014028D01*
X034733Y014017D01*
X034669Y013996D01*
X034609Y013966D01*
X034555Y013926D01*
X034507Y013879D01*
X034426Y013731D02*
X029220Y013731D01*
X029241Y013573D02*
X034406Y013573D01*
X034448Y013414D02*
X029198Y013414D01*
X029065Y013256D02*
X034580Y013256D01*
X034833Y013256D02*
X034833Y013256D01*
X034833Y013172D02*
X034867Y013172D01*
X034933Y013183D01*
X034997Y013204D01*
X035057Y013234D01*
X035112Y013274D01*
X035160Y013321D01*
X035199Y013376D01*
X035230Y013436D01*
X035250Y013500D01*
X035261Y013566D01*
X035261Y013600D01*
X035261Y013634D01*
X035250Y013700D01*
X035230Y013764D01*
X035199Y013824D01*
X035160Y013879D01*
X035112Y013926D01*
X035057Y013966D01*
X034997Y013996D01*
X034933Y014017D01*
X034867Y014028D01*
X034833Y014028D01*
X034833Y013600D01*
X034833Y013600D01*
X034833Y013172D01*
X034833Y013414D02*
X034833Y013414D01*
X034833Y013573D02*
X034833Y013573D01*
X034833Y013600D02*
X034833Y013600D01*
X035261Y013600D01*
X034833Y013600D01*
X034833Y013731D02*
X034833Y013731D01*
X034833Y013890D02*
X034833Y013890D01*
X035149Y013890D02*
X036546Y013890D01*
X036446Y013731D02*
X035240Y013731D01*
X035261Y013573D02*
X036426Y013573D01*
X036469Y013414D02*
X035219Y013414D01*
X035087Y013256D02*
X036601Y013256D01*
X037065Y013256D02*
X041913Y013256D01*
X041263Y015316D02*
X041126Y015316D01*
X041171Y015475D02*
X040505Y015475D01*
X040540Y015316D02*
X040346Y015316D01*
X040473Y015158D02*
X040188Y015158D01*
X040029Y014999D02*
X040435Y014999D01*
X040663Y015633D02*
X041153Y015633D01*
X041198Y015792D02*
X040822Y015792D01*
X040980Y015950D02*
X041329Y015950D01*
X041139Y016109D02*
X042623Y016109D01*
X042623Y016267D02*
X042354Y016267D01*
X042476Y016426D02*
X042623Y016426D01*
X042552Y016584D02*
X042513Y016584D01*
X042623Y015950D02*
X042337Y015950D01*
X041312Y016267D02*
X041297Y016267D01*
X041020Y016584D02*
X039513Y016584D01*
X039489Y016743D02*
X041178Y016743D01*
X040862Y016426D02*
X039476Y016426D01*
X039354Y016267D02*
X040703Y016267D01*
X038329Y015950D02*
X035280Y015950D01*
X035003Y015633D02*
X033753Y015633D01*
X033753Y015475D02*
X035162Y015475D01*
X034637Y015792D02*
X033736Y015792D01*
X033577Y015950D02*
X034506Y015950D01*
X033643Y015316D02*
X038263Y015316D01*
X038216Y014365D02*
X037607Y014365D01*
X037524Y014207D02*
X038426Y014207D01*
X037722Y013414D02*
X037198Y013414D01*
X037241Y013573D02*
X037564Y013573D01*
X037405Y013731D02*
X037220Y013731D01*
X037247Y013890D02*
X037120Y013890D01*
X040011Y010720D02*
X042510Y010720D01*
X042407Y010561D02*
X040169Y010561D01*
X040328Y010403D02*
X042376Y010403D01*
X043157Y010720D02*
X043510Y010720D01*
X043446Y010656D02*
X043376Y010488D01*
X043376Y009712D01*
X043446Y009544D01*
X043575Y009416D01*
X043742Y009346D01*
X043924Y009346D01*
X044092Y009416D01*
X044221Y009544D01*
X044290Y009712D01*
X044290Y010488D01*
X044221Y010656D01*
X044092Y010784D01*
X043924Y010854D01*
X043742Y010854D01*
X043575Y010784D01*
X043446Y010656D01*
X043407Y010561D02*
X043260Y010561D01*
X043290Y010403D02*
X043376Y010403D01*
X043376Y010244D02*
X043290Y010244D01*
X043290Y010086D02*
X043376Y010086D01*
X043376Y009927D02*
X043290Y009927D01*
X043290Y009769D02*
X043376Y009769D01*
X043419Y009610D02*
X043248Y009610D01*
X043279Y009452D02*
X043539Y009452D01*
X042636Y008025D02*
X041773Y008025D01*
X041722Y007867D02*
X042478Y007867D01*
X042413Y006757D02*
X041773Y006757D01*
X041773Y006599D02*
X042413Y006599D01*
X042413Y006440D02*
X041773Y006440D01*
X041637Y006282D02*
X042558Y006282D01*
X041027Y006916D02*
X040140Y006916D01*
X040273Y006757D02*
X040893Y006757D01*
X040893Y006599D02*
X040273Y006599D01*
X040273Y006440D02*
X040893Y006440D01*
X044128Y009452D02*
X045039Y009452D01*
X044919Y009610D02*
X044248Y009610D01*
X044290Y009769D02*
X044876Y009769D01*
X044876Y009927D02*
X044290Y009927D01*
X044290Y010086D02*
X044876Y010086D01*
X044876Y010244D02*
X044290Y010244D01*
X044290Y010403D02*
X044876Y010403D01*
X044907Y010561D02*
X044260Y010561D01*
X044157Y010720D02*
X045010Y010720D01*
X047273Y006757D02*
X050723Y006757D01*
X050723Y006599D02*
X047273Y006599D01*
X047273Y006440D02*
X050723Y006440D01*
X050723Y008184D02*
X049539Y008184D01*
X049698Y008342D02*
X050723Y008342D01*
X050723Y008501D02*
X049773Y008501D01*
X049773Y008659D02*
X050723Y008659D01*
X050723Y008818D02*
X049738Y008818D01*
X049580Y008976D02*
X050723Y008976D01*
X049123Y015158D02*
X048675Y015158D01*
X048821Y015316D02*
X049123Y015316D01*
X049123Y015475D02*
X048887Y015475D01*
X048897Y015633D02*
X049123Y015633D01*
X049123Y015792D02*
X048867Y015792D01*
X048785Y015950D02*
X049123Y015950D01*
X049123Y016109D02*
X048582Y016109D01*
X048549Y026094D02*
X050723Y026094D01*
X050723Y025936D02*
X044773Y025936D01*
X044773Y026094D02*
X048138Y026094D01*
X047916Y026253D02*
X044773Y026253D01*
X044645Y026411D02*
X047826Y026411D01*
X048689Y027045D02*
X050723Y027045D01*
X050723Y026887D02*
X048827Y026887D01*
X048893Y026728D02*
X050723Y026728D01*
X050723Y026570D02*
X048897Y026570D01*
X048861Y026411D02*
X050723Y026411D01*
X050723Y026253D02*
X048770Y026253D01*
X048708Y030691D02*
X050723Y030691D01*
X050723Y030849D02*
X048835Y030849D01*
X048897Y031008D02*
X050723Y031008D01*
X050723Y031166D02*
X048897Y031166D01*
X048853Y031325D02*
X050723Y031325D01*
X050723Y031483D02*
X048751Y031483D01*
X050723Y033227D02*
X045554Y033227D01*
X045712Y033385D02*
X050723Y033385D01*
X050723Y033544D02*
X045753Y033544D01*
X045753Y033702D02*
X050723Y033702D01*
X050723Y033861D02*
X045667Y033861D01*
X045508Y034019D02*
X050723Y034019D01*
X050723Y036080D02*
X049286Y036080D01*
X049541Y036238D02*
X050723Y036238D01*
X050723Y036397D02*
X049700Y036397D01*
X049800Y036555D02*
X050723Y036555D01*
X050723Y036714D02*
X049879Y036714D01*
X049921Y036872D02*
X050723Y036872D01*
X050723Y037031D02*
X049943Y037031D01*
X049943Y037189D02*
X050723Y037189D01*
X050723Y037348D02*
X049916Y037348D01*
X049874Y037506D02*
X050723Y037506D01*
X050723Y037665D02*
X049789Y037665D01*
X049680Y037823D02*
X050723Y037823D01*
X050723Y037982D02*
X049521Y037982D01*
X049240Y038140D02*
X050723Y038140D01*
X050723Y038299D02*
X012333Y038299D01*
X012333Y038457D02*
X050723Y038457D01*
X050723Y038616D02*
X012333Y038616D01*
X012333Y038774D02*
X050723Y038774D01*
X050723Y038933D02*
X012333Y038933D01*
X012333Y038140D02*
X013426Y038140D01*
X013145Y037982D02*
X012333Y037982D01*
X012333Y037823D02*
X012987Y037823D01*
X012878Y037665D02*
X012333Y037665D01*
X012333Y037506D02*
X012793Y037506D01*
X012751Y037348D02*
X012333Y037348D01*
X012333Y037189D02*
X012723Y037189D01*
X012723Y037031D02*
X012333Y037031D01*
X012333Y036872D02*
X012745Y036872D01*
X012788Y036714D02*
X012333Y036714D01*
X012333Y036555D02*
X012866Y036555D01*
X012967Y036397D02*
X012333Y036397D01*
X012333Y036238D02*
X013126Y036238D01*
X013381Y036080D02*
X012333Y036080D01*
X014240Y038140D02*
X048426Y038140D01*
X048145Y037982D02*
X014521Y037982D01*
X031687Y037031D02*
X032963Y037031D01*
X032834Y036872D02*
X031816Y036872D01*
X031879Y036714D02*
X032771Y036714D01*
X032771Y036555D02*
X031879Y036555D01*
X031836Y036397D02*
X032814Y036397D01*
X032914Y036238D02*
X031736Y036238D01*
X038187Y037031D02*
X039463Y037031D01*
X039334Y036872D02*
X038316Y036872D01*
X038379Y036714D02*
X039271Y036714D01*
X039271Y036555D02*
X038379Y036555D01*
X038336Y036397D02*
X039314Y036397D01*
X039414Y036238D02*
X038236Y036238D01*
X044323Y029423D02*
X044343Y029423D01*
X044343Y029264D02*
X044323Y029264D01*
X044323Y028947D02*
X044343Y028947D01*
X044343Y028789D02*
X044323Y028789D01*
X041254Y023875D02*
X040905Y023875D01*
X040747Y023717D02*
X041167Y023717D01*
X041153Y023558D02*
X040588Y023558D01*
X040430Y023400D02*
X041202Y023400D01*
X041338Y021973D02*
X040003Y021973D01*
X039459Y021815D02*
X041189Y021815D01*
X041137Y021656D02*
X039513Y021656D01*
X039505Y021498D02*
X041144Y021498D01*
X041219Y021339D02*
X039426Y021339D01*
X038833Y021022D02*
X038833Y021022D01*
X038833Y020864D02*
X038833Y020864D01*
X038833Y020705D02*
X038833Y020705D01*
X038240Y021339D02*
X038081Y021339D01*
X038181Y022449D02*
X036979Y022449D01*
X037043Y022513D02*
X037043Y022513D01*
X037137Y022607D02*
X038153Y022607D01*
X038187Y022766D02*
X037296Y022766D01*
X037123Y023187D02*
X037123Y023187D01*
X039412Y023875D02*
X039811Y023875D01*
X039653Y023717D02*
X039500Y023717D01*
X041833Y021973D02*
X041833Y021973D01*
X041833Y021815D02*
X041833Y021815D01*
X041833Y021656D02*
X041833Y021656D01*
X041833Y021600D02*
X041833Y021600D01*
X041833Y021498D02*
X041833Y021498D01*
X041833Y021339D02*
X041833Y021339D01*
X041833Y021181D02*
X041833Y021181D01*
X038175Y018962D02*
X035992Y018962D01*
X036150Y019120D02*
X038016Y019120D01*
X037669Y019279D02*
X036309Y019279D01*
X036467Y019437D02*
X037511Y019437D01*
X037473Y019596D02*
X036626Y019596D01*
X036784Y019754D02*
X037507Y019754D01*
X035655Y004060D02*
X035811Y003904D01*
X044736Y036238D02*
X045914Y036238D01*
X045814Y036397D02*
X044836Y036397D01*
X044879Y036555D02*
X045771Y036555D01*
X045771Y036714D02*
X044879Y036714D01*
X044816Y036872D02*
X045834Y036872D01*
X045963Y037031D02*
X044687Y037031D01*
D26*
X042333Y036600D02*
X042325Y036610D01*
X042333Y036600D02*
X042333Y037600D01*
X035833Y037600D01*
X030833Y037600D01*
X029833Y036600D01*
X029333Y036600D01*
X029325Y036610D01*
X026833Y032600D02*
X024833Y032600D01*
X023333Y032600D02*
X025333Y034600D01*
X036833Y034600D01*
X039333Y032100D01*
X039833Y031600D02*
X038833Y031600D01*
X036333Y034100D01*
X025333Y034100D01*
X022833Y031600D01*
X020833Y030600D02*
X027833Y030600D01*
X028333Y030100D01*
X028833Y030100D01*
X029833Y031100D01*
X028833Y029600D02*
X027833Y028600D01*
X027833Y025600D01*
X019833Y025600D01*
X017833Y027600D01*
X016333Y029100D01*
X015333Y029100D01*
X017833Y024600D02*
X012833Y019600D01*
X012833Y008600D01*
X013333Y008600D01*
X013833Y008100D01*
X014333Y008100D01*
X015833Y008100D01*
X016333Y007600D01*
X016333Y014600D02*
X036833Y014600D01*
X037833Y013600D01*
X039333Y013600D01*
X040833Y015100D01*
X039833Y015100D02*
X041333Y016600D01*
X041833Y016600D01*
X042333Y017100D02*
X042833Y016600D01*
X042833Y015600D01*
X041833Y015600D01*
X041833Y014600D02*
X042833Y013600D01*
X043333Y013600D01*
X043333Y017100D01*
X042333Y018100D01*
X041333Y018100D01*
X040333Y019100D01*
X038333Y019100D01*
X037833Y019600D01*
X038833Y019600D02*
X040833Y019600D01*
X041333Y019100D01*
X042833Y019100D01*
X046333Y015600D01*
X048333Y015600D01*
X048343Y015608D01*
X047833Y013600D02*
X045833Y011600D01*
X041833Y011600D01*
X041333Y012100D01*
X040833Y011100D02*
X045833Y011100D01*
X046333Y010600D01*
X046333Y010100D01*
X045333Y009100D02*
X043333Y009100D01*
X042833Y009600D01*
X042833Y010100D01*
X040333Y010100D01*
X037833Y012600D01*
X037333Y014600D02*
X038833Y014600D01*
X038833Y015600D02*
X035333Y015600D01*
X034833Y016100D01*
X035833Y019100D02*
X033333Y019100D01*
X031833Y020600D01*
X029333Y020600D01*
X028333Y019600D01*
X028333Y019100D01*
X027833Y018100D02*
X028833Y017100D01*
X042333Y017100D01*
X041833Y017600D02*
X039833Y017600D01*
X039333Y018100D01*
X031333Y018100D01*
X030833Y018600D01*
X030833Y019100D01*
X029333Y022100D02*
X027833Y023600D01*
X027333Y023600D01*
X026833Y023100D01*
X027833Y023600D02*
X029333Y023600D01*
X029325Y023610D01*
X029333Y022100D02*
X039833Y022100D01*
X039833Y023100D01*
X041333Y024600D01*
X041833Y024600D01*
X041833Y025600D02*
X041333Y025600D01*
X039833Y027100D01*
X039833Y029600D01*
X028833Y029600D01*
X030833Y028100D02*
X030833Y027100D01*
X034333Y027100D01*
X035333Y026100D01*
X035333Y025600D02*
X034333Y024600D01*
X035333Y024600D02*
X035833Y024100D01*
X036833Y024100D01*
X037333Y023600D01*
X038833Y023600D01*
X039333Y023100D02*
X037333Y023100D01*
X036833Y022600D01*
X033833Y022600D01*
X031833Y024600D01*
X017833Y024600D01*
X017833Y021600D02*
X017333Y021100D01*
X017333Y015100D01*
X039833Y015100D01*
X039833Y012100D02*
X040833Y011100D01*
X043333Y013600D02*
X045833Y013600D01*
X046333Y013100D01*
X047833Y013600D02*
X049333Y013600D01*
X049333Y018100D01*
X048833Y018600D01*
X048333Y018600D01*
X048333Y020100D01*
X048343Y020108D01*
X044333Y021600D02*
X044333Y022600D01*
X041833Y022600D01*
X040833Y020100D02*
X036833Y020100D01*
X035833Y019100D01*
X035833Y019600D02*
X037833Y021600D01*
X039333Y023100D02*
X040333Y024100D01*
X038833Y024600D02*
X037333Y024600D01*
X036333Y025600D01*
X035333Y025600D01*
X036833Y025600D02*
X038833Y025600D01*
X038833Y026600D02*
X037333Y026600D01*
X035333Y028600D01*
X034833Y030100D02*
X033833Y031100D01*
X033833Y032100D02*
X034333Y032600D01*
X034833Y032600D01*
X035333Y033100D01*
X036333Y033100D01*
X038833Y030600D01*
X039833Y031600D02*
X040333Y031100D01*
X041833Y030100D02*
X034833Y030100D01*
X035833Y036600D02*
X035825Y036610D01*
X035833Y036600D02*
X035833Y037600D01*
X041833Y030100D02*
X041833Y027600D01*
X040833Y020100D02*
X041333Y019600D01*
X041833Y019600D01*
X045333Y009100D02*
X046833Y007600D01*
X028833Y013600D02*
X023333Y008100D01*
X023333Y007600D01*
X022833Y007600D01*
X022833Y007281D01*
X024333Y018100D02*
X027833Y018100D01*
X024333Y018100D02*
X022333Y020100D01*
X020833Y020100D01*
X020333Y020600D01*
X018333Y020600D01*
X018333Y021600D02*
X017833Y021600D01*
X015333Y015600D02*
X014333Y015600D01*
X015333Y015600D02*
X016333Y014600D01*
X021333Y036600D02*
X021325Y036610D01*
X021333Y036600D02*
X021333Y037600D01*
X023833Y037600D01*
X024833Y036600D01*
X025333Y036600D01*
X025325Y036610D01*
D27*
X023333Y032600D03*
X022833Y031600D03*
X025833Y026600D03*
X017333Y029100D03*
X034833Y016100D03*
X035833Y019600D03*
X037833Y019600D03*
X037833Y021600D03*
X040333Y024100D03*
X036833Y025600D03*
X035333Y028600D03*
X038833Y030600D03*
X040833Y015100D03*
X037833Y012600D03*
X037333Y014600D03*
D28*
X025833Y026600D02*
X025333Y027100D01*
X019833Y027100D01*
X017833Y029100D01*
X017333Y029100D01*
X017833Y030100D02*
X019333Y031600D01*
X019333Y036600D01*
X019325Y036610D01*
X017833Y030100D02*
X015333Y030100D01*
M02*
