G75*
G70*
%OFA0B0*%
%FSLAX24Y24*%
%IPPOS*%
%LPD*%
%AMOC8*
5,1,8,0,0,1.08239X$1,22.5*
%
%ADD10C,0.1340*%
%ADD11C,0.0600*%
%ADD12R,0.0860X0.0300*%
%ADD13C,0.0575*%
%ADD14C,0.0520*%
%ADD15OC8,0.0640*%
%ADD16C,0.0867*%
%ADD17R,0.0710X0.0789*%
%ADD18R,0.0789X0.0710*%
%ADD19R,0.0592X0.0671*%
%ADD20OC8,0.0600*%
%ADD21C,0.0680*%
%ADD22C,0.0740*%
%ADD23C,0.1064*%
%ADD24C,0.0520*%
%ADD25C,0.0674*%
%ADD26OC8,0.0680*%
%ADD27C,0.1380*%
%ADD28OC8,0.0674*%
%ADD29C,0.1145*%
%ADD30C,0.0634*%
%ADD31C,0.0513*%
%ADD32C,0.0940*%
%ADD33C,0.0480*%
D10*
X013833Y002100D03*
X013833Y037100D03*
X048833Y037100D03*
X049333Y002100D03*
D11*
X042093Y014600D02*
X041573Y014600D01*
X041573Y015600D02*
X042093Y015600D01*
X042093Y016600D02*
X041573Y016600D01*
X041573Y017600D02*
X042093Y017600D01*
X042093Y018600D02*
X041573Y018600D01*
X041573Y019600D02*
X042093Y019600D01*
X042093Y020600D02*
X041573Y020600D01*
X041573Y021600D02*
X042093Y021600D01*
X042093Y022600D02*
X041573Y022600D01*
X041573Y023600D02*
X042093Y023600D01*
X042093Y024600D02*
X041573Y024600D01*
X041573Y025600D02*
X042093Y025600D01*
X042093Y026600D02*
X041573Y026600D01*
X041573Y027600D02*
X042093Y027600D01*
X039093Y027600D02*
X038573Y027600D01*
X038573Y026600D02*
X039093Y026600D01*
X039093Y025600D02*
X038573Y025600D01*
X038573Y024600D02*
X039093Y024600D01*
X039093Y023600D02*
X038573Y023600D01*
X038573Y022600D02*
X039093Y022600D01*
X039093Y021600D02*
X038573Y021600D01*
X038573Y020600D02*
X039093Y020600D01*
X039093Y019600D02*
X038573Y019600D01*
X038573Y018600D02*
X039093Y018600D01*
X039093Y017600D02*
X038573Y017600D01*
X038573Y016600D02*
X039093Y016600D01*
X039093Y015600D02*
X038573Y015600D01*
X038573Y014600D02*
X039093Y014600D01*
X026833Y028340D02*
X026833Y028860D01*
X024833Y028860D02*
X024833Y028340D01*
X024833Y032340D02*
X024833Y032860D01*
X026833Y032860D02*
X026833Y032340D01*
X021593Y023600D02*
X021073Y023600D01*
X021073Y022600D02*
X021593Y022600D01*
X021593Y021600D02*
X021073Y021600D01*
X021073Y020600D02*
X021593Y020600D01*
X021593Y019600D02*
X021073Y019600D01*
X021073Y018600D02*
X021593Y018600D01*
X021593Y017600D02*
X021073Y017600D01*
X021073Y016600D02*
X021593Y016600D01*
X018593Y016600D02*
X018073Y016600D01*
X018073Y017600D02*
X018593Y017600D01*
X018593Y018600D02*
X018073Y018600D01*
X018073Y019600D02*
X018593Y019600D01*
X018593Y020600D02*
X018073Y020600D01*
X018073Y021600D02*
X018593Y021600D01*
X018593Y022600D02*
X018073Y022600D01*
X018073Y023600D02*
X018593Y023600D01*
D12*
X034903Y020600D03*
X034903Y020100D03*
X034903Y019600D03*
X034903Y019100D03*
X034903Y018600D03*
X034903Y018100D03*
X034903Y017600D03*
X036763Y017600D03*
X036763Y018100D03*
X036763Y018600D03*
X036763Y019100D03*
X036763Y019600D03*
X036763Y020100D03*
X036763Y020600D03*
D13*
X036833Y013600D03*
X034833Y013600D03*
X034833Y007600D03*
X036833Y007600D03*
X028833Y007600D03*
X027833Y007600D03*
X027833Y013600D03*
X028833Y013600D03*
D14*
X044113Y021600D02*
X044553Y021600D01*
X044553Y023600D02*
X044113Y023600D01*
D15*
X044333Y026100D03*
X044333Y029100D03*
X044333Y018600D03*
X044333Y015600D03*
D16*
X048343Y015608D03*
X048343Y017608D03*
X048343Y020108D03*
X048343Y022108D03*
X048343Y024608D03*
X048343Y026608D03*
X048343Y029108D03*
X048343Y031108D03*
X046325Y036610D03*
X044325Y036610D03*
X042325Y036610D03*
X039825Y036610D03*
X037825Y036610D03*
X035825Y036610D03*
X033325Y036610D03*
X031325Y036610D03*
X029325Y036610D03*
X027325Y036610D03*
X025325Y036610D03*
X023325Y036610D03*
X021325Y036610D03*
X019325Y036610D03*
X017325Y036610D03*
X029325Y023610D03*
X031325Y023610D03*
X030842Y003590D03*
X028842Y003590D03*
X033342Y003590D03*
X035342Y003590D03*
D17*
X020385Y015100D03*
X019282Y015100D03*
X039782Y029100D03*
X040885Y029100D03*
D18*
X033333Y017651D03*
X033333Y016549D03*
X023833Y017049D03*
X023833Y018151D03*
X023833Y019549D03*
X023833Y020651D03*
X023833Y022049D03*
X023833Y023151D03*
X023833Y024549D03*
X023833Y025651D03*
D19*
X035459Y016600D03*
X036207Y016600D03*
X036207Y015600D03*
X035459Y015600D03*
D20*
X033333Y015600D03*
X029333Y015600D03*
X026833Y017100D03*
X026833Y021100D03*
X026833Y023100D03*
X026833Y027100D03*
X028833Y033600D03*
X032833Y033600D03*
X034833Y033600D03*
X032833Y029100D03*
X032833Y028100D03*
X031333Y026100D03*
X035333Y026100D03*
X036833Y028100D03*
X036833Y029100D03*
X038833Y033600D03*
X041333Y033600D03*
X045333Y033600D03*
X046333Y013100D03*
X047833Y012600D03*
X049333Y012600D03*
X049333Y008600D03*
X047833Y008600D03*
X046833Y007600D03*
X046833Y006600D03*
X042833Y006600D03*
X042833Y007600D03*
X041333Y008100D03*
X041333Y006600D03*
X039833Y006600D03*
X039833Y008100D03*
X039833Y012100D03*
X041333Y012100D03*
X042333Y013100D03*
X041333Y002600D03*
X039833Y002600D03*
X017833Y027600D03*
X017833Y031600D03*
X016333Y018600D03*
X016333Y014600D03*
X016333Y011600D03*
X016333Y007600D03*
X019833Y082100D03*
X019833Y083100D03*
X021833Y083100D03*
X021833Y082100D03*
X023833Y082100D03*
X023833Y083100D03*
X025833Y083100D03*
X025833Y082100D03*
D21*
X015633Y031100D02*
X015033Y031100D01*
X015033Y030100D02*
X015633Y030100D01*
X015633Y029100D02*
X015033Y029100D01*
X014633Y017600D02*
X014033Y017600D01*
X014033Y016600D02*
X014633Y016600D01*
X014633Y015600D02*
X014033Y015600D01*
X014033Y010100D02*
X014633Y010100D01*
X014633Y009100D02*
X014033Y009100D01*
X014033Y008100D02*
X014633Y008100D01*
D22*
X028932Y044498D03*
X029932Y044498D03*
X030932Y044498D03*
X031932Y044498D03*
X032932Y044498D03*
X033932Y044498D03*
X034932Y044498D03*
X035932Y044498D03*
X036932Y044498D03*
X037932Y044498D03*
X038932Y044498D03*
X039932Y044498D03*
X040932Y044498D03*
X041932Y044498D03*
X042932Y044498D03*
X043932Y044498D03*
D23*
X046097Y044498D03*
X046097Y056702D03*
X016570Y056702D03*
X016570Y044498D03*
D24*
X021833Y031600D03*
X020833Y030600D03*
X021833Y029600D03*
X007833Y077100D03*
X007833Y078100D03*
X007833Y079100D03*
D25*
X028833Y028397D02*
X028833Y027803D01*
X029833Y027803D02*
X029833Y028397D01*
X030833Y028397D02*
X030833Y027803D01*
X030833Y019397D02*
X030833Y018803D01*
X031833Y018803D02*
X031833Y019397D01*
X029333Y019397D02*
X029333Y018803D01*
X028333Y018803D02*
X028333Y019397D01*
X042833Y010397D02*
X042833Y009803D01*
X043833Y009803D02*
X043833Y010397D01*
X045333Y010397D02*
X045333Y009803D01*
X046333Y009803D02*
X046333Y010397D01*
X046333Y004397D02*
X046333Y003803D01*
X045333Y003803D02*
X045333Y004397D01*
X043833Y004397D02*
X043833Y003803D01*
X042833Y003803D02*
X042833Y004397D01*
D26*
X022953Y065540D03*
X022413Y066660D03*
X021873Y065540D03*
X021333Y066660D03*
X020793Y065540D03*
X020253Y066660D03*
X019713Y065540D03*
X019173Y066660D03*
X023493Y066660D03*
D27*
X026263Y066100D03*
X016403Y066100D03*
D28*
X028833Y032100D03*
X028833Y031100D03*
X029833Y031100D03*
X029833Y032100D03*
X030833Y032100D03*
X030833Y031100D03*
X031833Y031100D03*
X031833Y032100D03*
X032833Y032100D03*
X032833Y031100D03*
X033833Y031100D03*
X033833Y032100D03*
X034833Y032100D03*
X034833Y031100D03*
X035833Y031100D03*
X035833Y032100D03*
X039333Y032100D03*
X039333Y031100D03*
X040333Y031100D03*
X040333Y032100D03*
X041333Y032100D03*
X041333Y031100D03*
X042333Y031100D03*
X042333Y032100D03*
X043333Y032100D03*
X043333Y031100D03*
X036333Y024600D03*
X036333Y023600D03*
X035333Y023600D03*
X035333Y024600D03*
X034333Y024600D03*
X034333Y023600D03*
D29*
X002366Y069250D02*
X001301Y069250D01*
X001301Y071100D02*
X002366Y071100D01*
X002366Y072950D02*
X001301Y072950D01*
D30*
X013833Y073323D02*
X013833Y073877D01*
X015833Y073877D02*
X015833Y073323D01*
X017833Y073323D02*
X017833Y073877D01*
X017833Y077323D02*
X017833Y077877D01*
X015833Y077877D02*
X015833Y077323D01*
X013833Y077323D02*
X013833Y077877D01*
X023833Y076877D02*
X023833Y076323D01*
X025833Y076323D02*
X025833Y076877D01*
X027833Y076877D02*
X027833Y076323D01*
X027833Y072877D02*
X027833Y072323D01*
X025833Y072323D02*
X025833Y072877D01*
X023833Y072877D02*
X023833Y072323D01*
D31*
X023833Y074600D03*
X027833Y074600D03*
X017833Y075600D03*
X013833Y075600D03*
D32*
X022403Y007281D02*
X023263Y007281D01*
X024723Y006530D02*
X024723Y005670D01*
X023263Y004919D02*
X022403Y004919D01*
D33*
X034833Y016100D03*
X035833Y019600D03*
X037833Y019600D03*
X037833Y021600D03*
X040333Y024100D03*
X036833Y025600D03*
X035333Y028600D03*
X038833Y030600D03*
X040833Y015100D03*
X037833Y012600D03*
X037333Y014600D03*
X025833Y026600D03*
X022833Y031600D03*
X023333Y032600D03*
X017333Y029100D03*
M02*
