%
M48
M72
T01C0.0236
T02C0.0240
T03C0.0295
T04C0.0315
T05C0.0320
T06C0.0360
T07C0.0394
T08C0.0400
T09C0.0512
T10C0.1260
%
T01
X33100Y17600
X34100Y17600
X34600Y20600
T02
X32600Y21600
X32600Y23600
X31100Y18600
X28600Y16100
X26100Y19100
X23600Y20100
X25600Y22100
X26100Y24600
X28100Y28100
X27100Y29600
X22100Y25100
X14100Y30600
X8600Y29100
X7600Y28100
X8600Y27100
X6100Y31100
X11100Y18100
X23600Y16600
X31600Y11600
X33100Y14100
T03
X25100Y13600
X23100Y13600
X23100Y7600
X25100Y7600
X17100Y7600
X16100Y7600
X16100Y13600
X17100Y13600
T04
X12990Y6100
X11100Y4919
T05
X4600Y7600
X4600Y11600
X4600Y14600
X6600Y16600
X6600Y17600
X6600Y18600
X6600Y19600
X6600Y20600
X6600Y21600
X6600Y22600
X6600Y23600
X5100Y26100
X5100Y30100
X11600Y28600
X12600Y28600
X15100Y27100
X15100Y23100
X15100Y21100
X15100Y17100
X14100Y15600
X18100Y15600
X9600Y16600
X9600Y17600
X9600Y18600
X9600Y19600
X9600Y20600
X9600Y21600
X9600Y22600
X9600Y23600
X4600Y18600
X11600Y32600
X12600Y32600
X17100Y33600
X21100Y33600
X23100Y33600
X27100Y33600
X29600Y33600
X33600Y33600
X30100Y27100
X30100Y26100
X30100Y25100
X30100Y24100
X30100Y23100
X30100Y22100
X30100Y21100
X30100Y20100
X30100Y19100
X30100Y18100
X30100Y17100
X30100Y16100
X30100Y15100
X30100Y14100
X31100Y12100
X29600Y11100
X28100Y11100
X27100Y12100
X27100Y14100
X27100Y15100
X27100Y16100
X27100Y17100
X27100Y18100
X27100Y19100
X27100Y20100
X27100Y21100
X27100Y22100
X27100Y23100
X27100Y24100
X27100Y25100
X27100Y26100
X27100Y27100
X25600Y26600
X25600Y27600
X25600Y28600
X21600Y28600
X21600Y27600
X21600Y26600
X37100Y13600
X37100Y9600
X37100Y8600
X35100Y7600
X35100Y6600
X37100Y4600
X31100Y6600
X31100Y7600
X29600Y7100
X29600Y5600
X28100Y5600
X28100Y7100
X28100Y1600
X29600Y1600
T06
X32600Y15600
X32600Y18600
X32600Y26100
X32600Y29100
T07
X32100Y31100
X32100Y32100
X31100Y32100
X30100Y32100
X30100Y31100
X31100Y31100
X29100Y31100
X28100Y31100
X28100Y32100
X29100Y32100
X23100Y32100
X23100Y31100
X22100Y31100
X21100Y31100
X21100Y32100
X22100Y32100
X20100Y32100
X19100Y32100
X19100Y31100
X20100Y31100
X18100Y31100
X17100Y31100
X17100Y32100
X18100Y32100
X16100Y32100
X16100Y31100
X17600Y27600
X18600Y27600
X19600Y27600
X22600Y24100
X22600Y23100
X23600Y23100
X23600Y24100
X24600Y24100
X24600Y23100
X20100Y19100
X19100Y19100
X17600Y19100
X16600Y19100
X11100Y7281
X31100Y10100
X32100Y10100
X33600Y10100
X34600Y10100
X34600Y4100
X33600Y4100
X32100Y4100
X31100Y4100
T08
X2600Y8100
X2600Y9100
X2600Y10100
X2600Y15600
X2600Y16600
X2600Y17600
X2600Y27100
X2600Y28100
X2600Y29100
T09
X5592Y36610
X7592Y36610
X9592Y36610
X11592Y36610
X13592Y36610
X15592Y36610
X17592Y36610
X19592Y36610
X21592Y36610
X24092Y36610
X26092Y36610
X28092Y36610
X30592Y36610
X32592Y36610
X34592Y36610
X36610Y31108
X36610Y29108
X36610Y26608
X36610Y24608
X36610Y22108
X36610Y20108
X36610Y17608
X36610Y15608
X23608Y3590
X21608Y3590
X19108Y3590
X17108Y3590
X17592Y23610
X19592Y23610
T10
X2100Y2100
X2100Y37100
X37100Y37100
X37600Y2100
M30
