%
M48
M72
T01C0.0240
T02C0.0295
T03C0.0315
T04C0.0320
T05C0.0360
T06C0.0394
T07C0.0400
T08C0.0512
T09C0.1260
%
T01
X23100Y16100
X25600Y14600
X26100Y12600
X29100Y15100
X26100Y19600
X26100Y21600
X24100Y19600
X28600Y24100
X25100Y25600
X23600Y28600
X27100Y30600
X32600Y23600
X32600Y21600
X14100Y26600
X10100Y29600
X9100Y30600
X10100Y31600
X11100Y31600
X11600Y32600
X5600Y29100
T02
X16100Y13600
X17100Y13600
X17100Y7600
X16100Y7600
X23100Y7600
X25100Y7600
X25100Y13600
X23100Y13600
T03
X12990Y6100
X11100Y4919
T04
X4600Y7600
X4600Y11600
X4600Y14600
X6600Y16600
X6600Y17600
X6600Y18600
X6600Y19600
X6600Y20600
X6600Y21600
X6600Y22600
X6600Y23600
X9600Y23600
X9600Y22600
X9600Y21600
X9600Y20600
X9600Y19600
X9600Y18600
X9600Y17600
X9600Y16600
X4600Y18600
X6100Y27600
X6100Y31600
X13100Y32600
X15100Y32600
X17100Y33600
X21100Y33600
X23100Y33600
X27100Y33600
X29600Y33600
X33600Y33600
X30100Y27600
X30100Y26600
X30100Y25600
X30100Y24600
X30100Y23600
X30100Y22600
X30100Y21600
X30100Y20600
X30100Y19600
X30100Y18600
X30100Y17600
X30100Y16600
X30100Y15600
X30100Y14600
X30600Y13100
X29600Y12100
X28100Y12100
X27100Y14600
X27100Y15600
X27100Y16600
X27100Y17600
X27100Y18600
X27100Y19600
X27100Y20600
X27100Y21600
X27100Y22600
X27100Y23600
X27100Y24600
X27100Y25600
X27100Y26600
X27100Y27600
X25100Y28100
X25100Y29100
X23600Y26100
X21100Y28100
X21100Y29100
X19600Y26100
X15100Y27100
X15100Y28600
X13100Y28600
X15100Y23100
X15100Y21100
X15100Y17100
X17600Y15600
X21600Y15600
X28100Y8100
X29600Y8100
X29600Y6600
X28100Y6600
X31100Y6600
X31100Y7600
X35100Y7600
X35100Y6600
X36100Y8600
X37600Y8600
X37600Y12600
X36100Y12600
X34600Y13100
X29600Y2600
X28100Y2600
T05
X32600Y15600
X32600Y18600
X32600Y26100
X32600Y29100
T06
X31600Y31100
X30600Y31100
X30600Y32100
X31600Y32100
X29600Y32100
X28600Y32100
X28600Y31100
X29600Y31100
X27600Y31100
X27600Y32100
X24100Y32100
X23100Y32100
X23100Y31100
X24100Y31100
X22100Y31100
X21100Y31100
X21100Y32100
X22100Y32100
X20100Y32100
X19100Y32100
X19100Y31100
X20100Y31100
X18100Y31100
X17100Y31100
X17100Y32100
X18100Y32100
X18100Y28100
X17100Y28100
X19100Y28100
X22600Y24600
X23600Y24600
X23600Y23600
X22600Y23600
X24600Y23600
X24600Y24600
X20100Y19100
X19100Y19100
X17600Y19100
X16600Y19100
X11100Y7281
X31100Y10100
X32100Y10100
X33600Y10100
X34600Y10100
X34600Y4100
X33600Y4100
X32100Y4100
X31100Y4100
T07
X3600Y29100
X3600Y30100
X3600Y31100
X2600Y17600
X2600Y16600
X2600Y15600
X2600Y10100
X2600Y9100
X2600Y8100
T08
X17108Y3590
X19108Y3590
X21608Y3590
X23608Y3590
X36610Y15608
X36610Y17608
X36610Y20108
X36610Y22108
X36610Y24608
X36610Y26608
X36610Y29108
X36610Y31108
X34592Y36610
X32592Y36610
X30592Y36610
X28092Y36610
X26092Y36610
X24092Y36610
X21592Y36610
X19592Y36610
X17592Y36610
X15592Y36610
X13592Y36610
X11592Y36610
X9592Y36610
X7592Y36610
X5592Y36610
X17592Y23610
X19592Y23610
T09
X2100Y2100
X2100Y37100
X37100Y37100
X37600Y2100
M30
