%
M48
M72
T01C0.0240
T02C0.0295
T03C0.0315
T04C0.0320
T05C0.0354
T06C0.0360
T07C0.0394
T08C0.0400
T09C0.0433
T10C0.0512
T11C0.0710
T12C0.0984
T13C0.1260
T14C0.1300
%
T01
X17333Y29100
X20833Y30600
X21833Y29600
X21833Y31600
X22833Y31600
X23333Y32600
X25833Y26600
X34833Y16100
X35833Y19600
X37833Y19600
X37833Y21600
X40333Y24100
X36833Y25600
X35333Y28600
X38833Y30600
X44333Y23600
X44333Y21600
X40833Y15100
X37833Y12600
X37333Y14600
X7833Y77100
X7833Y78100
X7833Y79100
T02
X27833Y13600
X28833Y13600
X28833Y7600
X27833Y7600
X34833Y7600
X36833Y7600
X36833Y13600
X34833Y13600
T03
X24723Y6100
X22833Y4919
T04
X16333Y7600
X16333Y11600
X16333Y14600
X18333Y16600
X18333Y17600
X18333Y18600
X18333Y19600
X18333Y20600
X18333Y21600
X18333Y22600
X18333Y23600
X17833Y27600
X17833Y31600
X21333Y23600
X21333Y22600
X21333Y21600
X21333Y20600
X21333Y19600
X21333Y18600
X21333Y17600
X21333Y16600
X16333Y18600
X24833Y28600
X26833Y28600
X26833Y27100
X26833Y23100
X26833Y21100
X26833Y17100
X29333Y15600
X33333Y15600
X38833Y15600
X38833Y14600
X38833Y16600
X38833Y17600
X38833Y18600
X38833Y19600
X38833Y20600
X38833Y21600
X38833Y22600
X38833Y23600
X38833Y24600
X38833Y25600
X38833Y26600
X38833Y27600
X36833Y28100
X36833Y29100
X35333Y26100
X32833Y28100
X32833Y29100
X31333Y26100
X32833Y33600
X34833Y33600
X38833Y33600
X41333Y33600
X41833Y27600
X41833Y26600
X41833Y25600
X41833Y24600
X41833Y23600
X41833Y22600
X41833Y21600
X41833Y20600
X41833Y19600
X41833Y18600
X41833Y17600
X41833Y16600
X41833Y15600
X41833Y14600
X42333Y13100
X41333Y12100
X39833Y12100
X39833Y8100
X39833Y6600
X41333Y6600
X41333Y8100
X42833Y7600
X42833Y6600
X41333Y2600
X39833Y2600
X46333Y13100
X47833Y12600
X49333Y12600
X49333Y8600
X47833Y8600
X46833Y7600
X46833Y6600
X45333Y33600
X28833Y33600
X26833Y32600
X24833Y32600
X23833Y82100
X23833Y83100
X21833Y83100
X21833Y82100
X19833Y82100
X19833Y83100
X25833Y83100
X25833Y82100
T05
X25833Y76600
X23833Y76600
X23833Y72600
X25833Y72600
X27833Y72600
X27833Y76600
X17833Y77600
X15833Y77600
X13833Y77600
X13833Y73600
X15833Y73600
X17833Y73600
T06
X44333Y29100
X44333Y26100
X44333Y18600
X44333Y15600
T07
X43833Y10100
X42833Y10100
X45333Y10100
X46333Y10100
X46333Y4100
X45333Y4100
X43833Y4100
X42833Y4100
X31833Y19100
X30833Y19100
X29333Y19100
X28333Y19100
X34333Y23600
X34333Y24600
X35333Y24600
X35333Y23600
X36333Y23600
X36333Y24600
X35833Y31100
X35833Y32100
X34833Y32100
X34833Y31100
X33833Y31100
X33833Y32100
X32833Y32100
X31833Y32100
X31833Y31100
X32833Y31100
X30833Y31100
X30833Y32100
X29833Y32100
X29833Y31100
X28833Y31100
X28833Y32100
X28833Y28100
X29833Y28100
X30833Y28100
X39333Y31100
X39333Y32100
X40333Y32100
X40333Y31100
X41333Y31100
X41333Y32100
X42333Y32100
X42333Y31100
X43333Y31100
X43333Y32100
X42932Y44498
X43932Y44498
X41932Y44498
X40932Y44498
X39932Y44498
X38932Y44498
X37932Y44498
X36932Y44498
X35932Y44498
X34932Y44498
X33932Y44498
X32932Y44498
X31932Y44498
X30932Y44498
X29932Y44498
X28932Y44498
X22833Y7281
T08
X14333Y8100
X14333Y9100
X14333Y10100
X14333Y15600
X14333Y16600
X14333Y17600
X15333Y29100
X15333Y30100
X15333Y31100
X19713Y65540
X19173Y66660
X20253Y66660
X20793Y65540
X21333Y66660
X21873Y65540
X22413Y66660
X22953Y65540
X23493Y66660
T09
X23833Y74600
X27833Y74600
X17833Y75600
X13833Y75600
T10
X17325Y36610
X19325Y36610
X21325Y36610
X23325Y36610
X25325Y36610
X27325Y36610
X29325Y36610
X31325Y36610
X33325Y36610
X35825Y36610
X37825Y36610
X39825Y36610
X42325Y36610
X44325Y36610
X46325Y36610
X48343Y31108
X48343Y29108
X48343Y26608
X48343Y24608
X48343Y22108
X48343Y20108
X48343Y17608
X48343Y15608
X35342Y3590
X33342Y3590
X30842Y3590
X28842Y3590
X29325Y23610
X31325Y23610
T11
X1833Y69250
X1833Y71100
X1833Y72950
T12
X16570Y56702
X16570Y44498
X46097Y44498
X46097Y56702
T13
X13833Y2100
X13833Y37100
X48833Y37100
X49333Y2100
T14
X26263Y66100
X16403Y66100
M30
