G75*
G70*
%OFA0B0*%
%FSLAX24Y24*%
%IPPOS*%
%LPD*%
%AMOC8*
5,1,8,0,0,1.08239X$1,22.5*
%
%ADD10C,0.0000*%
%ADD11C,0.0060*%
%ADD12C,0.0070*%
%ADD13C,0.0030*%
%ADD14C,0.0080*%
%ADD15C,0.0050*%
%ADD16C,0.0040*%
%ADD17C,0.0079*%
%ADD18C,0.0020*%
%ADD19C,0.0160*%
%ADD20R,0.0340X0.0240*%
%ADD21R,0.0800X0.0200*%
%ADD22R,0.0200X0.0750*%
%ADD23C,0.0200*%
%ADD24R,0.0300X0.4200*%
%ADD25R,0.0200X0.0300*%
%ADD26R,0.0240X0.0340*%
%ADD27R,0.1161X0.1713*%
%ADD28C,0.0100*%
%ADD29C,0.0039*%
D10*
X011833Y000100D02*
X011833Y039470D01*
X051203Y039470D01*
X051203Y000100D01*
X011833Y000100D01*
X013203Y002100D02*
X013205Y002150D01*
X013211Y002200D01*
X013221Y002249D01*
X013235Y002297D01*
X013252Y002344D01*
X013273Y002389D01*
X013298Y002433D01*
X013326Y002474D01*
X013358Y002513D01*
X013392Y002550D01*
X013429Y002584D01*
X013469Y002614D01*
X013511Y002641D01*
X013555Y002665D01*
X013601Y002686D01*
X013648Y002702D01*
X013696Y002715D01*
X013746Y002724D01*
X013795Y002729D01*
X013846Y002730D01*
X013896Y002727D01*
X013945Y002720D01*
X013994Y002709D01*
X014042Y002694D01*
X014088Y002676D01*
X014133Y002654D01*
X014176Y002628D01*
X014217Y002599D01*
X014256Y002567D01*
X014292Y002532D01*
X014324Y002494D01*
X014354Y002454D01*
X014381Y002411D01*
X014404Y002367D01*
X014423Y002321D01*
X014439Y002273D01*
X014451Y002224D01*
X014459Y002175D01*
X014463Y002125D01*
X014463Y002075D01*
X014459Y002025D01*
X014451Y001976D01*
X014439Y001927D01*
X014423Y001879D01*
X014404Y001833D01*
X014381Y001789D01*
X014354Y001746D01*
X014324Y001706D01*
X014292Y001668D01*
X014256Y001633D01*
X014217Y001601D01*
X014176Y001572D01*
X014133Y001546D01*
X014088Y001524D01*
X014042Y001506D01*
X013994Y001491D01*
X013945Y001480D01*
X013896Y001473D01*
X013846Y001470D01*
X013795Y001471D01*
X013746Y001476D01*
X013696Y001485D01*
X013648Y001498D01*
X013601Y001514D01*
X013555Y001535D01*
X013511Y001559D01*
X013469Y001586D01*
X013429Y001616D01*
X013392Y001650D01*
X013358Y001687D01*
X013326Y001726D01*
X013298Y001767D01*
X013273Y001811D01*
X013252Y001856D01*
X013235Y001903D01*
X013221Y001951D01*
X013211Y002000D01*
X013205Y002050D01*
X013203Y002100D01*
X013203Y037100D02*
X013205Y037150D01*
X013211Y037200D01*
X013221Y037249D01*
X013235Y037297D01*
X013252Y037344D01*
X013273Y037389D01*
X013298Y037433D01*
X013326Y037474D01*
X013358Y037513D01*
X013392Y037550D01*
X013429Y037584D01*
X013469Y037614D01*
X013511Y037641D01*
X013555Y037665D01*
X013601Y037686D01*
X013648Y037702D01*
X013696Y037715D01*
X013746Y037724D01*
X013795Y037729D01*
X013846Y037730D01*
X013896Y037727D01*
X013945Y037720D01*
X013994Y037709D01*
X014042Y037694D01*
X014088Y037676D01*
X014133Y037654D01*
X014176Y037628D01*
X014217Y037599D01*
X014256Y037567D01*
X014292Y037532D01*
X014324Y037494D01*
X014354Y037454D01*
X014381Y037411D01*
X014404Y037367D01*
X014423Y037321D01*
X014439Y037273D01*
X014451Y037224D01*
X014459Y037175D01*
X014463Y037125D01*
X014463Y037075D01*
X014459Y037025D01*
X014451Y036976D01*
X014439Y036927D01*
X014423Y036879D01*
X014404Y036833D01*
X014381Y036789D01*
X014354Y036746D01*
X014324Y036706D01*
X014292Y036668D01*
X014256Y036633D01*
X014217Y036601D01*
X014176Y036572D01*
X014133Y036546D01*
X014088Y036524D01*
X014042Y036506D01*
X013994Y036491D01*
X013945Y036480D01*
X013896Y036473D01*
X013846Y036470D01*
X013795Y036471D01*
X013746Y036476D01*
X013696Y036485D01*
X013648Y036498D01*
X013601Y036514D01*
X013555Y036535D01*
X013511Y036559D01*
X013469Y036586D01*
X013429Y036616D01*
X013392Y036650D01*
X013358Y036687D01*
X013326Y036726D01*
X013298Y036767D01*
X013273Y036811D01*
X013252Y036856D01*
X013235Y036903D01*
X013221Y036951D01*
X013211Y037000D01*
X013205Y037050D01*
X013203Y037100D01*
X016078Y044498D02*
X016080Y044542D01*
X016086Y044586D01*
X016096Y044629D01*
X016109Y044671D01*
X016127Y044711D01*
X016148Y044750D01*
X016172Y044787D01*
X016199Y044822D01*
X016230Y044854D01*
X016263Y044883D01*
X016299Y044909D01*
X016337Y044931D01*
X016377Y044950D01*
X016418Y044966D01*
X016461Y044978D01*
X016504Y044986D01*
X016548Y044990D01*
X016592Y044990D01*
X016636Y044986D01*
X016679Y044978D01*
X016722Y044966D01*
X016763Y044950D01*
X016803Y044931D01*
X016841Y044909D01*
X016877Y044883D01*
X016910Y044854D01*
X016941Y044822D01*
X016968Y044787D01*
X016992Y044750D01*
X017013Y044711D01*
X017031Y044671D01*
X017044Y044629D01*
X017054Y044586D01*
X017060Y044542D01*
X017062Y044498D01*
X017060Y044454D01*
X017054Y044410D01*
X017044Y044367D01*
X017031Y044325D01*
X017013Y044285D01*
X016992Y044246D01*
X016968Y044209D01*
X016941Y044174D01*
X016910Y044142D01*
X016877Y044113D01*
X016841Y044087D01*
X016803Y044065D01*
X016763Y044046D01*
X016722Y044030D01*
X016679Y044018D01*
X016636Y044010D01*
X016592Y044006D01*
X016548Y044006D01*
X016504Y044010D01*
X016461Y044018D01*
X016418Y044030D01*
X016377Y044046D01*
X016337Y044065D01*
X016299Y044087D01*
X016263Y044113D01*
X016230Y044142D01*
X016199Y044174D01*
X016172Y044209D01*
X016148Y044246D01*
X016127Y044285D01*
X016109Y044325D01*
X016096Y044367D01*
X016086Y044410D01*
X016080Y044454D01*
X016078Y044498D01*
X016078Y056702D02*
X016080Y056746D01*
X016086Y056790D01*
X016096Y056833D01*
X016109Y056875D01*
X016127Y056915D01*
X016148Y056954D01*
X016172Y056991D01*
X016199Y057026D01*
X016230Y057058D01*
X016263Y057087D01*
X016299Y057113D01*
X016337Y057135D01*
X016377Y057154D01*
X016418Y057170D01*
X016461Y057182D01*
X016504Y057190D01*
X016548Y057194D01*
X016592Y057194D01*
X016636Y057190D01*
X016679Y057182D01*
X016722Y057170D01*
X016763Y057154D01*
X016803Y057135D01*
X016841Y057113D01*
X016877Y057087D01*
X016910Y057058D01*
X016941Y057026D01*
X016968Y056991D01*
X016992Y056954D01*
X017013Y056915D01*
X017031Y056875D01*
X017044Y056833D01*
X017054Y056790D01*
X017060Y056746D01*
X017062Y056702D01*
X017060Y056658D01*
X017054Y056614D01*
X017044Y056571D01*
X017031Y056529D01*
X017013Y056489D01*
X016992Y056450D01*
X016968Y056413D01*
X016941Y056378D01*
X016910Y056346D01*
X016877Y056317D01*
X016841Y056291D01*
X016803Y056269D01*
X016763Y056250D01*
X016722Y056234D01*
X016679Y056222D01*
X016636Y056214D01*
X016592Y056210D01*
X016548Y056210D01*
X016504Y056214D01*
X016461Y056222D01*
X016418Y056234D01*
X016377Y056250D01*
X016337Y056269D01*
X016299Y056291D01*
X016263Y056317D01*
X016230Y056346D01*
X016199Y056378D01*
X016172Y056413D01*
X016148Y056450D01*
X016127Y056489D01*
X016109Y056529D01*
X016096Y056571D01*
X016086Y056614D01*
X016080Y056658D01*
X016078Y056702D01*
X015753Y066100D02*
X015755Y066150D01*
X015761Y066200D01*
X015771Y066250D01*
X015784Y066298D01*
X015801Y066346D01*
X015822Y066392D01*
X015846Y066436D01*
X015874Y066478D01*
X015905Y066518D01*
X015939Y066555D01*
X015976Y066590D01*
X016015Y066621D01*
X016056Y066650D01*
X016100Y066675D01*
X016146Y066697D01*
X016193Y066715D01*
X016241Y066729D01*
X016290Y066740D01*
X016340Y066747D01*
X016390Y066750D01*
X016441Y066749D01*
X016491Y066744D01*
X016541Y066735D01*
X016589Y066723D01*
X016637Y066706D01*
X016683Y066686D01*
X016728Y066663D01*
X016771Y066636D01*
X016811Y066606D01*
X016849Y066573D01*
X016884Y066537D01*
X016917Y066498D01*
X016946Y066457D01*
X016972Y066414D01*
X016995Y066369D01*
X017014Y066322D01*
X017029Y066274D01*
X017041Y066225D01*
X017049Y066175D01*
X017053Y066125D01*
X017053Y066075D01*
X017049Y066025D01*
X017041Y065975D01*
X017029Y065926D01*
X017014Y065878D01*
X016995Y065831D01*
X016972Y065786D01*
X016946Y065743D01*
X016917Y065702D01*
X016884Y065663D01*
X016849Y065627D01*
X016811Y065594D01*
X016771Y065564D01*
X016728Y065537D01*
X016683Y065514D01*
X016637Y065494D01*
X016589Y065477D01*
X016541Y065465D01*
X016491Y065456D01*
X016441Y065451D01*
X016390Y065450D01*
X016340Y065453D01*
X016290Y065460D01*
X016241Y065471D01*
X016193Y065485D01*
X016146Y065503D01*
X016100Y065525D01*
X016056Y065550D01*
X016015Y065579D01*
X015976Y065610D01*
X015939Y065645D01*
X015905Y065682D01*
X015874Y065722D01*
X015846Y065764D01*
X015822Y065808D01*
X015801Y065854D01*
X015784Y065902D01*
X015771Y065950D01*
X015761Y066000D01*
X015755Y066050D01*
X015753Y066100D01*
X013616Y075600D02*
X013618Y075629D01*
X013624Y075657D01*
X013633Y075685D01*
X013646Y075711D01*
X013663Y075734D01*
X013682Y075756D01*
X013704Y075775D01*
X013729Y075790D01*
X013755Y075803D01*
X013783Y075811D01*
X013811Y075816D01*
X013840Y075817D01*
X013869Y075814D01*
X013897Y075807D01*
X013924Y075797D01*
X013950Y075783D01*
X013973Y075766D01*
X013994Y075746D01*
X014012Y075723D01*
X014027Y075698D01*
X014038Y075671D01*
X014046Y075643D01*
X014050Y075614D01*
X014050Y075586D01*
X014046Y075557D01*
X014038Y075529D01*
X014027Y075502D01*
X014012Y075477D01*
X013994Y075454D01*
X013973Y075434D01*
X013950Y075417D01*
X013924Y075403D01*
X013897Y075393D01*
X013869Y075386D01*
X013840Y075383D01*
X013811Y075384D01*
X013783Y075389D01*
X013755Y075397D01*
X013729Y075410D01*
X013704Y075425D01*
X013682Y075444D01*
X013663Y075466D01*
X013646Y075489D01*
X013633Y075515D01*
X013624Y075543D01*
X013618Y075571D01*
X013616Y075600D01*
X017616Y075600D02*
X017618Y075629D01*
X017624Y075657D01*
X017633Y075685D01*
X017646Y075711D01*
X017663Y075734D01*
X017682Y075756D01*
X017704Y075775D01*
X017729Y075790D01*
X017755Y075803D01*
X017783Y075811D01*
X017811Y075816D01*
X017840Y075817D01*
X017869Y075814D01*
X017897Y075807D01*
X017924Y075797D01*
X017950Y075783D01*
X017973Y075766D01*
X017994Y075746D01*
X018012Y075723D01*
X018027Y075698D01*
X018038Y075671D01*
X018046Y075643D01*
X018050Y075614D01*
X018050Y075586D01*
X018046Y075557D01*
X018038Y075529D01*
X018027Y075502D01*
X018012Y075477D01*
X017994Y075454D01*
X017973Y075434D01*
X017950Y075417D01*
X017924Y075403D01*
X017897Y075393D01*
X017869Y075386D01*
X017840Y075383D01*
X017811Y075384D01*
X017783Y075389D01*
X017755Y075397D01*
X017729Y075410D01*
X017704Y075425D01*
X017682Y075444D01*
X017663Y075466D01*
X017646Y075489D01*
X017633Y075515D01*
X017624Y075543D01*
X017618Y075571D01*
X017616Y075600D01*
X023616Y074600D02*
X023618Y074629D01*
X023624Y074657D01*
X023633Y074685D01*
X023646Y074711D01*
X023663Y074734D01*
X023682Y074756D01*
X023704Y074775D01*
X023729Y074790D01*
X023755Y074803D01*
X023783Y074811D01*
X023811Y074816D01*
X023840Y074817D01*
X023869Y074814D01*
X023897Y074807D01*
X023924Y074797D01*
X023950Y074783D01*
X023973Y074766D01*
X023994Y074746D01*
X024012Y074723D01*
X024027Y074698D01*
X024038Y074671D01*
X024046Y074643D01*
X024050Y074614D01*
X024050Y074586D01*
X024046Y074557D01*
X024038Y074529D01*
X024027Y074502D01*
X024012Y074477D01*
X023994Y074454D01*
X023973Y074434D01*
X023950Y074417D01*
X023924Y074403D01*
X023897Y074393D01*
X023869Y074386D01*
X023840Y074383D01*
X023811Y074384D01*
X023783Y074389D01*
X023755Y074397D01*
X023729Y074410D01*
X023704Y074425D01*
X023682Y074444D01*
X023663Y074466D01*
X023646Y074489D01*
X023633Y074515D01*
X023624Y074543D01*
X023618Y074571D01*
X023616Y074600D01*
X027616Y074600D02*
X027618Y074629D01*
X027624Y074657D01*
X027633Y074685D01*
X027646Y074711D01*
X027663Y074734D01*
X027682Y074756D01*
X027704Y074775D01*
X027729Y074790D01*
X027755Y074803D01*
X027783Y074811D01*
X027811Y074816D01*
X027840Y074817D01*
X027869Y074814D01*
X027897Y074807D01*
X027924Y074797D01*
X027950Y074783D01*
X027973Y074766D01*
X027994Y074746D01*
X028012Y074723D01*
X028027Y074698D01*
X028038Y074671D01*
X028046Y074643D01*
X028050Y074614D01*
X028050Y074586D01*
X028046Y074557D01*
X028038Y074529D01*
X028027Y074502D01*
X028012Y074477D01*
X027994Y074454D01*
X027973Y074434D01*
X027950Y074417D01*
X027924Y074403D01*
X027897Y074393D01*
X027869Y074386D01*
X027840Y074383D01*
X027811Y074384D01*
X027783Y074389D01*
X027755Y074397D01*
X027729Y074410D01*
X027704Y074425D01*
X027682Y074444D01*
X027663Y074466D01*
X027646Y074489D01*
X027633Y074515D01*
X027624Y074543D01*
X027618Y074571D01*
X027616Y074600D01*
X025613Y066100D02*
X025615Y066150D01*
X025621Y066200D01*
X025631Y066250D01*
X025644Y066298D01*
X025661Y066346D01*
X025682Y066392D01*
X025706Y066436D01*
X025734Y066478D01*
X025765Y066518D01*
X025799Y066555D01*
X025836Y066590D01*
X025875Y066621D01*
X025916Y066650D01*
X025960Y066675D01*
X026006Y066697D01*
X026053Y066715D01*
X026101Y066729D01*
X026150Y066740D01*
X026200Y066747D01*
X026250Y066750D01*
X026301Y066749D01*
X026351Y066744D01*
X026401Y066735D01*
X026449Y066723D01*
X026497Y066706D01*
X026543Y066686D01*
X026588Y066663D01*
X026631Y066636D01*
X026671Y066606D01*
X026709Y066573D01*
X026744Y066537D01*
X026777Y066498D01*
X026806Y066457D01*
X026832Y066414D01*
X026855Y066369D01*
X026874Y066322D01*
X026889Y066274D01*
X026901Y066225D01*
X026909Y066175D01*
X026913Y066125D01*
X026913Y066075D01*
X026909Y066025D01*
X026901Y065975D01*
X026889Y065926D01*
X026874Y065878D01*
X026855Y065831D01*
X026832Y065786D01*
X026806Y065743D01*
X026777Y065702D01*
X026744Y065663D01*
X026709Y065627D01*
X026671Y065594D01*
X026631Y065564D01*
X026588Y065537D01*
X026543Y065514D01*
X026497Y065494D01*
X026449Y065477D01*
X026401Y065465D01*
X026351Y065456D01*
X026301Y065451D01*
X026250Y065450D01*
X026200Y065453D01*
X026150Y065460D01*
X026101Y065471D01*
X026053Y065485D01*
X026006Y065503D01*
X025960Y065525D01*
X025916Y065550D01*
X025875Y065579D01*
X025836Y065610D01*
X025799Y065645D01*
X025765Y065682D01*
X025734Y065722D01*
X025706Y065764D01*
X025682Y065808D01*
X025661Y065854D01*
X025644Y065902D01*
X025631Y065950D01*
X025621Y066000D01*
X025615Y066050D01*
X025613Y066100D01*
X045605Y056702D02*
X045607Y056746D01*
X045613Y056790D01*
X045623Y056833D01*
X045636Y056875D01*
X045654Y056915D01*
X045675Y056954D01*
X045699Y056991D01*
X045726Y057026D01*
X045757Y057058D01*
X045790Y057087D01*
X045826Y057113D01*
X045864Y057135D01*
X045904Y057154D01*
X045945Y057170D01*
X045988Y057182D01*
X046031Y057190D01*
X046075Y057194D01*
X046119Y057194D01*
X046163Y057190D01*
X046206Y057182D01*
X046249Y057170D01*
X046290Y057154D01*
X046330Y057135D01*
X046368Y057113D01*
X046404Y057087D01*
X046437Y057058D01*
X046468Y057026D01*
X046495Y056991D01*
X046519Y056954D01*
X046540Y056915D01*
X046558Y056875D01*
X046571Y056833D01*
X046581Y056790D01*
X046587Y056746D01*
X046589Y056702D01*
X046587Y056658D01*
X046581Y056614D01*
X046571Y056571D01*
X046558Y056529D01*
X046540Y056489D01*
X046519Y056450D01*
X046495Y056413D01*
X046468Y056378D01*
X046437Y056346D01*
X046404Y056317D01*
X046368Y056291D01*
X046330Y056269D01*
X046290Y056250D01*
X046249Y056234D01*
X046206Y056222D01*
X046163Y056214D01*
X046119Y056210D01*
X046075Y056210D01*
X046031Y056214D01*
X045988Y056222D01*
X045945Y056234D01*
X045904Y056250D01*
X045864Y056269D01*
X045826Y056291D01*
X045790Y056317D01*
X045757Y056346D01*
X045726Y056378D01*
X045699Y056413D01*
X045675Y056450D01*
X045654Y056489D01*
X045636Y056529D01*
X045623Y056571D01*
X045613Y056614D01*
X045607Y056658D01*
X045605Y056702D01*
X045605Y044498D02*
X045607Y044542D01*
X045613Y044586D01*
X045623Y044629D01*
X045636Y044671D01*
X045654Y044711D01*
X045675Y044750D01*
X045699Y044787D01*
X045726Y044822D01*
X045757Y044854D01*
X045790Y044883D01*
X045826Y044909D01*
X045864Y044931D01*
X045904Y044950D01*
X045945Y044966D01*
X045988Y044978D01*
X046031Y044986D01*
X046075Y044990D01*
X046119Y044990D01*
X046163Y044986D01*
X046206Y044978D01*
X046249Y044966D01*
X046290Y044950D01*
X046330Y044931D01*
X046368Y044909D01*
X046404Y044883D01*
X046437Y044854D01*
X046468Y044822D01*
X046495Y044787D01*
X046519Y044750D01*
X046540Y044711D01*
X046558Y044671D01*
X046571Y044629D01*
X046581Y044586D01*
X046587Y044542D01*
X046589Y044498D01*
X046587Y044454D01*
X046581Y044410D01*
X046571Y044367D01*
X046558Y044325D01*
X046540Y044285D01*
X046519Y044246D01*
X046495Y044209D01*
X046468Y044174D01*
X046437Y044142D01*
X046404Y044113D01*
X046368Y044087D01*
X046330Y044065D01*
X046290Y044046D01*
X046249Y044030D01*
X046206Y044018D01*
X046163Y044010D01*
X046119Y044006D01*
X046075Y044006D01*
X046031Y044010D01*
X045988Y044018D01*
X045945Y044030D01*
X045904Y044046D01*
X045864Y044065D01*
X045826Y044087D01*
X045790Y044113D01*
X045757Y044142D01*
X045726Y044174D01*
X045699Y044209D01*
X045675Y044246D01*
X045654Y044285D01*
X045636Y044325D01*
X045623Y044367D01*
X045613Y044410D01*
X045607Y044454D01*
X045605Y044498D01*
X048203Y037100D02*
X048205Y037150D01*
X048211Y037200D01*
X048221Y037249D01*
X048235Y037297D01*
X048252Y037344D01*
X048273Y037389D01*
X048298Y037433D01*
X048326Y037474D01*
X048358Y037513D01*
X048392Y037550D01*
X048429Y037584D01*
X048469Y037614D01*
X048511Y037641D01*
X048555Y037665D01*
X048601Y037686D01*
X048648Y037702D01*
X048696Y037715D01*
X048746Y037724D01*
X048795Y037729D01*
X048846Y037730D01*
X048896Y037727D01*
X048945Y037720D01*
X048994Y037709D01*
X049042Y037694D01*
X049088Y037676D01*
X049133Y037654D01*
X049176Y037628D01*
X049217Y037599D01*
X049256Y037567D01*
X049292Y037532D01*
X049324Y037494D01*
X049354Y037454D01*
X049381Y037411D01*
X049404Y037367D01*
X049423Y037321D01*
X049439Y037273D01*
X049451Y037224D01*
X049459Y037175D01*
X049463Y037125D01*
X049463Y037075D01*
X049459Y037025D01*
X049451Y036976D01*
X049439Y036927D01*
X049423Y036879D01*
X049404Y036833D01*
X049381Y036789D01*
X049354Y036746D01*
X049324Y036706D01*
X049292Y036668D01*
X049256Y036633D01*
X049217Y036601D01*
X049176Y036572D01*
X049133Y036546D01*
X049088Y036524D01*
X049042Y036506D01*
X048994Y036491D01*
X048945Y036480D01*
X048896Y036473D01*
X048846Y036470D01*
X048795Y036471D01*
X048746Y036476D01*
X048696Y036485D01*
X048648Y036498D01*
X048601Y036514D01*
X048555Y036535D01*
X048511Y036559D01*
X048469Y036586D01*
X048429Y036616D01*
X048392Y036650D01*
X048358Y036687D01*
X048326Y036726D01*
X048298Y036767D01*
X048273Y036811D01*
X048252Y036856D01*
X048235Y036903D01*
X048221Y036951D01*
X048211Y037000D01*
X048205Y037050D01*
X048203Y037100D01*
X035953Y020810D02*
X035952Y020789D01*
X035947Y020769D01*
X035939Y020749D01*
X035928Y020732D01*
X035914Y020716D01*
X035897Y020704D01*
X035879Y020694D01*
X035859Y020688D01*
X035838Y020685D01*
X035817Y020686D01*
X035797Y020691D01*
X035777Y020699D01*
X035760Y020710D01*
X035744Y020724D01*
X035732Y020741D01*
X035722Y020759D01*
X035716Y020779D01*
X035713Y020800D01*
X048703Y002100D02*
X048705Y002150D01*
X048711Y002200D01*
X048721Y002249D01*
X048735Y002297D01*
X048752Y002344D01*
X048773Y002389D01*
X048798Y002433D01*
X048826Y002474D01*
X048858Y002513D01*
X048892Y002550D01*
X048929Y002584D01*
X048969Y002614D01*
X049011Y002641D01*
X049055Y002665D01*
X049101Y002686D01*
X049148Y002702D01*
X049196Y002715D01*
X049246Y002724D01*
X049295Y002729D01*
X049346Y002730D01*
X049396Y002727D01*
X049445Y002720D01*
X049494Y002709D01*
X049542Y002694D01*
X049588Y002676D01*
X049633Y002654D01*
X049676Y002628D01*
X049717Y002599D01*
X049756Y002567D01*
X049792Y002532D01*
X049824Y002494D01*
X049854Y002454D01*
X049881Y002411D01*
X049904Y002367D01*
X049923Y002321D01*
X049939Y002273D01*
X049951Y002224D01*
X049959Y002175D01*
X049963Y002125D01*
X049963Y002075D01*
X049959Y002025D01*
X049951Y001976D01*
X049939Y001927D01*
X049923Y001879D01*
X049904Y001833D01*
X049881Y001789D01*
X049854Y001746D01*
X049824Y001706D01*
X049792Y001668D01*
X049756Y001633D01*
X049717Y001601D01*
X049676Y001572D01*
X049633Y001546D01*
X049588Y001524D01*
X049542Y001506D01*
X049494Y001491D01*
X049445Y001480D01*
X049396Y001473D01*
X049346Y001470D01*
X049295Y001471D01*
X049246Y001476D01*
X049196Y001485D01*
X049148Y001498D01*
X049101Y001514D01*
X049055Y001535D01*
X049011Y001559D01*
X048969Y001586D01*
X048929Y001616D01*
X048892Y001650D01*
X048858Y001687D01*
X048826Y001726D01*
X048798Y001767D01*
X048773Y001811D01*
X048752Y001856D01*
X048735Y001903D01*
X048721Y001951D01*
X048711Y002000D01*
X048705Y002050D01*
X048703Y002100D01*
D11*
X045983Y006150D02*
X045833Y006150D01*
X045783Y006200D01*
X043883Y006200D01*
X043833Y006150D01*
X043683Y006150D01*
X043666Y006152D01*
X043649Y006156D01*
X043633Y006163D01*
X043619Y006173D01*
X043606Y006186D01*
X043596Y006200D01*
X043589Y006216D01*
X043585Y006233D01*
X043583Y006250D01*
X043583Y006950D01*
X043585Y006967D01*
X043589Y006984D01*
X043596Y007000D01*
X043606Y007014D01*
X043619Y007027D01*
X043633Y007037D01*
X043649Y007044D01*
X043666Y007048D01*
X043683Y007050D01*
X043833Y007050D01*
X043883Y007000D01*
X045783Y007000D01*
X045833Y007050D01*
X045983Y007050D01*
X045983Y007150D02*
X045833Y007150D01*
X045783Y007200D01*
X043883Y007200D01*
X043833Y007150D01*
X043683Y007150D01*
X043666Y007152D01*
X043649Y007156D01*
X043633Y007163D01*
X043619Y007173D01*
X043606Y007186D01*
X043596Y007200D01*
X043589Y007216D01*
X043585Y007233D01*
X043583Y007250D01*
X043583Y007950D01*
X043585Y007967D01*
X043589Y007984D01*
X043596Y008000D01*
X043606Y008014D01*
X043619Y008027D01*
X043633Y008037D01*
X043649Y008044D01*
X043666Y008048D01*
X043683Y008050D01*
X043833Y008050D01*
X043883Y008000D01*
X045783Y008000D01*
X045833Y008050D01*
X045983Y008050D01*
X046000Y008048D01*
X046017Y008044D01*
X046033Y008037D01*
X046047Y008027D01*
X046060Y008014D01*
X046070Y008000D01*
X046077Y007984D01*
X046081Y007967D01*
X046083Y007950D01*
X046083Y007250D01*
X046081Y007233D01*
X046077Y007216D01*
X046070Y007200D01*
X046060Y007186D01*
X046047Y007173D01*
X046033Y007163D01*
X046017Y007156D01*
X046000Y007152D01*
X045983Y007150D01*
X045983Y007050D02*
X046000Y007048D01*
X046017Y007044D01*
X046033Y007037D01*
X046047Y007027D01*
X046060Y007014D01*
X046070Y007000D01*
X046077Y006984D01*
X046081Y006967D01*
X046083Y006950D01*
X046083Y006250D01*
X046081Y006233D01*
X046077Y006216D01*
X046070Y006200D01*
X046060Y006186D01*
X046047Y006173D01*
X046033Y006163D01*
X046017Y006156D01*
X046000Y006152D01*
X045983Y006150D01*
X047483Y009350D02*
X048183Y009350D01*
X048200Y009352D01*
X048217Y009356D01*
X048233Y009363D01*
X048247Y009373D01*
X048260Y009386D01*
X048270Y009400D01*
X048277Y009416D01*
X048281Y009433D01*
X048283Y009450D01*
X048283Y009600D01*
X048233Y009650D01*
X048233Y011550D01*
X048283Y011600D01*
X048283Y011750D01*
X048281Y011767D01*
X048277Y011784D01*
X048270Y011800D01*
X048260Y011814D01*
X048247Y011827D01*
X048233Y011837D01*
X048217Y011844D01*
X048200Y011848D01*
X048183Y011850D01*
X047483Y011850D01*
X047466Y011848D01*
X047449Y011844D01*
X047433Y011837D01*
X047419Y011827D01*
X047406Y011814D01*
X047396Y011800D01*
X047389Y011784D01*
X047385Y011767D01*
X047383Y011750D01*
X047383Y011600D01*
X047433Y011550D01*
X047433Y009650D01*
X047383Y009600D01*
X047383Y009450D01*
X047385Y009433D01*
X047389Y009416D01*
X047396Y009400D01*
X047406Y009386D01*
X047419Y009373D01*
X047433Y009363D01*
X047449Y009356D01*
X047466Y009352D01*
X047483Y009350D01*
X048883Y009450D02*
X048883Y009600D01*
X048933Y009650D01*
X048933Y011550D01*
X048883Y011600D01*
X048883Y011750D01*
X048885Y011767D01*
X048889Y011784D01*
X048896Y011800D01*
X048906Y011814D01*
X048919Y011827D01*
X048933Y011837D01*
X048949Y011844D01*
X048966Y011848D01*
X048983Y011850D01*
X049683Y011850D01*
X049700Y011848D01*
X049717Y011844D01*
X049733Y011837D01*
X049747Y011827D01*
X049760Y011814D01*
X049770Y011800D01*
X049777Y011784D01*
X049781Y011767D01*
X049783Y011750D01*
X049783Y011600D01*
X049733Y011550D01*
X049733Y009650D01*
X049783Y009600D01*
X049783Y009450D01*
X049781Y009433D01*
X049777Y009416D01*
X049770Y009400D01*
X049760Y009386D01*
X049747Y009373D01*
X049733Y009363D01*
X049717Y009356D01*
X049700Y009352D01*
X049683Y009350D01*
X048983Y009350D01*
X048966Y009352D01*
X048949Y009356D01*
X048933Y009363D01*
X048919Y009373D01*
X048906Y009386D01*
X048896Y009400D01*
X048889Y009416D01*
X048885Y009433D01*
X048883Y009450D01*
X045583Y012750D02*
X045583Y013450D01*
X045581Y013467D01*
X045577Y013484D01*
X045570Y013500D01*
X045560Y013514D01*
X045547Y013527D01*
X045533Y013537D01*
X045517Y013544D01*
X045500Y013548D01*
X045483Y013550D01*
X045333Y013550D01*
X045283Y013500D01*
X043383Y013500D01*
X043333Y013550D01*
X043183Y013550D01*
X043166Y013548D01*
X043149Y013544D01*
X043133Y013537D01*
X043119Y013527D01*
X043106Y013514D01*
X043096Y013500D01*
X043089Y013484D01*
X043085Y013467D01*
X043083Y013450D01*
X043083Y012750D01*
X043085Y012733D01*
X043089Y012716D01*
X043096Y012700D01*
X043106Y012686D01*
X043119Y012673D01*
X043133Y012663D01*
X043149Y012656D01*
X043166Y012652D01*
X043183Y012650D01*
X043333Y012650D01*
X043383Y012700D01*
X045283Y012700D01*
X045333Y012650D01*
X045483Y012650D01*
X045500Y012652D01*
X045517Y012656D01*
X045533Y012663D01*
X045547Y012673D01*
X045560Y012686D01*
X045570Y012700D01*
X045577Y012716D01*
X045581Y012733D01*
X045583Y012750D01*
X044833Y015100D02*
X043833Y015100D01*
X043816Y015102D01*
X043799Y015106D01*
X043783Y015113D01*
X043769Y015123D01*
X043756Y015136D01*
X043746Y015150D01*
X043739Y015166D01*
X043735Y015183D01*
X043733Y015200D01*
X043733Y019000D01*
X043735Y019017D01*
X043739Y019034D01*
X043746Y019050D01*
X043756Y019064D01*
X043769Y019077D01*
X043783Y019087D01*
X043799Y019094D01*
X043816Y019098D01*
X043833Y019100D01*
X044833Y019100D01*
X044850Y019098D01*
X044867Y019094D01*
X044883Y019087D01*
X044897Y019077D01*
X044910Y019064D01*
X044920Y019050D01*
X044927Y019034D01*
X044931Y019017D01*
X044933Y019000D01*
X044933Y015200D01*
X044931Y015183D01*
X044927Y015166D01*
X044920Y015150D01*
X044910Y015136D01*
X044897Y015123D01*
X044883Y015113D01*
X044867Y015106D01*
X044850Y015102D01*
X044833Y015100D01*
X044333Y016100D02*
X044333Y016900D01*
X044333Y017300D02*
X044333Y018100D01*
X043433Y021250D02*
X043435Y021191D01*
X043441Y021133D01*
X043450Y021074D01*
X043464Y021017D01*
X043481Y020961D01*
X043502Y020906D01*
X043526Y020852D01*
X043554Y020800D01*
X043585Y020750D01*
X043619Y020702D01*
X043656Y020657D01*
X043697Y020614D01*
X043740Y020573D01*
X043785Y020536D01*
X043833Y020502D01*
X043883Y020471D01*
X043935Y020443D01*
X043989Y020419D01*
X044044Y020398D01*
X044100Y020381D01*
X044157Y020367D01*
X044216Y020358D01*
X044274Y020352D01*
X044333Y020350D01*
X044392Y020352D01*
X044450Y020358D01*
X044509Y020367D01*
X044566Y020381D01*
X044622Y020398D01*
X044677Y020419D01*
X044731Y020443D01*
X044783Y020471D01*
X044833Y020502D01*
X044881Y020536D01*
X044926Y020573D01*
X044969Y020614D01*
X045010Y020657D01*
X045047Y020702D01*
X045081Y020750D01*
X045112Y020800D01*
X045140Y020852D01*
X045164Y020906D01*
X045185Y020961D01*
X045202Y021017D01*
X045216Y021074D01*
X045225Y021133D01*
X045231Y021191D01*
X045233Y021250D01*
X045233Y023950D01*
X045231Y024009D01*
X045225Y024067D01*
X045216Y024126D01*
X045202Y024183D01*
X045185Y024239D01*
X045164Y024294D01*
X045140Y024348D01*
X045112Y024400D01*
X045081Y024450D01*
X045047Y024498D01*
X045010Y024543D01*
X044969Y024586D01*
X044926Y024627D01*
X044881Y024664D01*
X044833Y024698D01*
X044783Y024729D01*
X044731Y024757D01*
X044677Y024781D01*
X044622Y024802D01*
X044566Y024819D01*
X044509Y024833D01*
X044450Y024842D01*
X044392Y024848D01*
X044333Y024850D01*
X044274Y024848D01*
X044216Y024842D01*
X044157Y024833D01*
X044100Y024819D01*
X044044Y024802D01*
X043989Y024781D01*
X043935Y024757D01*
X043883Y024729D01*
X043833Y024698D01*
X043785Y024664D01*
X043740Y024627D01*
X043697Y024586D01*
X043656Y024543D01*
X043619Y024498D01*
X043585Y024450D01*
X043554Y024400D01*
X043526Y024348D01*
X043502Y024294D01*
X043481Y024239D01*
X043464Y024183D01*
X043450Y024126D01*
X043441Y024067D01*
X043435Y024009D01*
X043433Y023950D01*
X043433Y021250D01*
X043833Y025600D02*
X044833Y025600D01*
X044850Y025602D01*
X044867Y025606D01*
X044883Y025613D01*
X044897Y025623D01*
X044910Y025636D01*
X044920Y025650D01*
X044927Y025666D01*
X044931Y025683D01*
X044933Y025700D01*
X044933Y029500D01*
X044931Y029517D01*
X044927Y029534D01*
X044920Y029550D01*
X044910Y029564D01*
X044897Y029577D01*
X044883Y029587D01*
X044867Y029594D01*
X044850Y029598D01*
X044833Y029600D01*
X043833Y029600D01*
X043816Y029598D01*
X043799Y029594D01*
X043783Y029587D01*
X043769Y029577D01*
X043756Y029564D01*
X043746Y029550D01*
X043739Y029534D01*
X043735Y029517D01*
X043733Y029500D01*
X043733Y025700D01*
X043735Y025683D01*
X043739Y025666D01*
X043746Y025650D01*
X043756Y025636D01*
X043769Y025623D01*
X043783Y025613D01*
X043799Y025606D01*
X043816Y025602D01*
X043833Y025600D01*
X044333Y026600D02*
X044333Y027400D01*
X044333Y027800D02*
X044333Y028600D01*
X041433Y028400D02*
X039233Y028400D01*
X039233Y013800D01*
X040083Y013800D01*
X040085Y013830D01*
X040090Y013860D01*
X040099Y013889D01*
X040112Y013916D01*
X040127Y013942D01*
X040146Y013966D01*
X040167Y013987D01*
X040191Y014006D01*
X040217Y014021D01*
X040244Y014034D01*
X040273Y014043D01*
X040303Y014048D01*
X040333Y014050D01*
X040363Y014048D01*
X040393Y014043D01*
X040422Y014034D01*
X040449Y014021D01*
X040475Y014006D01*
X040499Y013987D01*
X040520Y013966D01*
X040539Y013942D01*
X040554Y013916D01*
X040567Y013889D01*
X040576Y013860D01*
X040581Y013830D01*
X040583Y013800D01*
X041433Y013800D01*
X041433Y028400D01*
X042183Y033150D02*
X042333Y033150D01*
X042383Y033200D01*
X044283Y033200D01*
X044333Y033150D01*
X044483Y033150D01*
X044500Y033152D01*
X044517Y033156D01*
X044533Y033163D01*
X044547Y033173D01*
X044560Y033186D01*
X044570Y033200D01*
X044577Y033216D01*
X044581Y033233D01*
X044583Y033250D01*
X044583Y033950D01*
X044581Y033967D01*
X044577Y033984D01*
X044570Y034000D01*
X044560Y034014D01*
X044547Y034027D01*
X044533Y034037D01*
X044517Y034044D01*
X044500Y034048D01*
X044483Y034050D01*
X044333Y034050D01*
X044283Y034000D01*
X042383Y034000D01*
X042333Y034050D01*
X042183Y034050D01*
X042166Y034048D01*
X042149Y034044D01*
X042133Y034037D01*
X042119Y034027D01*
X042106Y034014D01*
X042096Y034000D01*
X042089Y033984D01*
X042085Y033967D01*
X042083Y033950D01*
X042083Y033250D01*
X042085Y033233D01*
X042089Y033216D01*
X042096Y033200D01*
X042106Y033186D01*
X042119Y033173D01*
X042133Y033163D01*
X042149Y033156D01*
X042166Y033152D01*
X042183Y033150D01*
X042008Y034130D02*
X042008Y034771D01*
X042435Y034130D01*
X042435Y034771D01*
X042652Y034771D02*
X042973Y034771D01*
X043079Y034664D01*
X043079Y034237D01*
X042973Y034130D01*
X042652Y034130D01*
X042652Y034771D01*
X041790Y034664D02*
X041684Y034771D01*
X041470Y034771D01*
X041363Y034664D01*
X041363Y034237D01*
X041470Y034130D01*
X041684Y034130D01*
X041790Y034237D01*
X041790Y034450D01*
X041577Y034450D01*
X040579Y034237D02*
X040473Y034130D01*
X040259Y034130D01*
X040152Y034237D01*
X040152Y034664D01*
X040259Y034771D01*
X040473Y034771D01*
X040579Y034664D01*
X039935Y034664D02*
X039828Y034771D01*
X039615Y034771D01*
X039508Y034664D01*
X039508Y034237D01*
X039615Y034130D01*
X039828Y034130D01*
X039935Y034237D01*
X039290Y034344D02*
X039290Y034771D01*
X038863Y034771D02*
X038863Y034344D01*
X039077Y034130D01*
X039290Y034344D01*
X038083Y033950D02*
X038083Y033250D01*
X038081Y033233D01*
X038077Y033216D01*
X038070Y033200D01*
X038060Y033186D01*
X038047Y033173D01*
X038033Y033163D01*
X038017Y033156D01*
X038000Y033152D01*
X037983Y033150D01*
X037833Y033150D01*
X037783Y033200D01*
X035883Y033200D01*
X035833Y033150D01*
X035683Y033150D01*
X035666Y033152D01*
X035649Y033156D01*
X035633Y033163D01*
X035619Y033173D01*
X035606Y033186D01*
X035596Y033200D01*
X035589Y033216D01*
X035585Y033233D01*
X035583Y033250D01*
X035583Y033950D01*
X035585Y033967D01*
X035589Y033984D01*
X035596Y034000D01*
X035606Y034014D01*
X035619Y034027D01*
X035633Y034037D01*
X035649Y034044D01*
X035666Y034048D01*
X035683Y034050D01*
X035833Y034050D01*
X035883Y034000D01*
X037783Y034000D01*
X037833Y034050D01*
X037983Y034050D01*
X038000Y034048D01*
X038017Y034044D01*
X038033Y034037D01*
X038047Y034027D01*
X038060Y034014D01*
X038070Y034000D01*
X038077Y033984D01*
X038081Y033967D01*
X038083Y033950D01*
X037079Y034237D02*
X037079Y034664D01*
X036973Y034771D01*
X036652Y034771D01*
X036652Y034130D01*
X036973Y034130D01*
X037079Y034237D01*
X036435Y034130D02*
X036435Y034771D01*
X036008Y034771D02*
X036435Y034130D01*
X036008Y034130D02*
X036008Y034771D01*
X035790Y034664D02*
X035684Y034771D01*
X035470Y034771D01*
X035363Y034664D01*
X035363Y034237D01*
X035470Y034130D01*
X035684Y034130D01*
X035790Y034237D01*
X035790Y034450D01*
X035577Y034450D01*
X034079Y034237D02*
X033973Y034130D01*
X033759Y034130D01*
X033652Y034237D01*
X033652Y034664D01*
X033759Y034771D01*
X033973Y034771D01*
X034079Y034664D01*
X033435Y034664D02*
X033328Y034771D01*
X033115Y034771D01*
X033008Y034664D01*
X033008Y034237D01*
X033115Y034130D01*
X033328Y034130D01*
X033435Y034237D01*
X032790Y034344D02*
X032790Y034771D01*
X032363Y034771D02*
X032363Y034344D01*
X032577Y034130D01*
X032790Y034344D01*
X032083Y033950D02*
X032083Y033250D01*
X032081Y033233D01*
X032077Y033216D01*
X032070Y033200D01*
X032060Y033186D01*
X032047Y033173D01*
X032033Y033163D01*
X032017Y033156D01*
X032000Y033152D01*
X031983Y033150D01*
X031833Y033150D01*
X031783Y033200D01*
X029883Y033200D01*
X029833Y033150D01*
X029683Y033150D01*
X029666Y033152D01*
X029649Y033156D01*
X029633Y033163D01*
X029619Y033173D01*
X029606Y033186D01*
X029596Y033200D01*
X029589Y033216D01*
X029585Y033233D01*
X029583Y033250D01*
X029583Y033950D01*
X029585Y033967D01*
X029589Y033984D01*
X029596Y034000D01*
X029606Y034014D01*
X029619Y034027D01*
X029633Y034037D01*
X029649Y034044D01*
X029666Y034048D01*
X029683Y034050D01*
X029833Y034050D01*
X029883Y034000D01*
X031783Y034000D01*
X031833Y034050D01*
X031983Y034050D01*
X032000Y034048D01*
X032017Y034044D01*
X032033Y034037D01*
X032047Y034027D01*
X032060Y034014D01*
X032070Y034000D01*
X032077Y033984D01*
X032081Y033967D01*
X032083Y033950D01*
X030079Y034237D02*
X030079Y034664D01*
X029973Y034771D01*
X029652Y034771D01*
X029652Y034130D01*
X029973Y034130D01*
X030079Y034237D01*
X029435Y034130D02*
X029435Y034771D01*
X029008Y034771D02*
X029435Y034130D01*
X029008Y034130D02*
X029008Y034771D01*
X028790Y034664D02*
X028684Y034771D01*
X028470Y034771D01*
X028363Y034664D01*
X028363Y034237D01*
X028470Y034130D01*
X028684Y034130D01*
X028790Y034237D01*
X028790Y034450D01*
X028577Y034450D01*
X028079Y034450D02*
X027652Y034450D01*
X027435Y034450D02*
X027008Y034450D01*
X026790Y034450D02*
X026363Y034450D01*
X026079Y034450D02*
X025652Y034450D01*
X025435Y034450D02*
X025008Y034450D01*
X024790Y034450D02*
X024363Y034450D01*
X024079Y034450D02*
X023652Y034450D01*
X023435Y034450D02*
X023008Y034450D01*
X022790Y034450D02*
X022363Y034450D01*
X022079Y034450D02*
X021652Y034450D01*
X021435Y034450D02*
X021008Y034450D01*
X020790Y034450D02*
X020363Y034450D01*
X020079Y034450D02*
X019652Y034450D01*
X019435Y034450D02*
X019008Y034450D01*
X018790Y034450D02*
X018363Y034450D01*
X018079Y034450D02*
X017652Y034450D01*
X017435Y034450D02*
X017008Y034450D01*
X016790Y034450D02*
X016363Y034450D01*
X016577Y034237D02*
X016577Y034664D01*
X017221Y034664D02*
X017221Y034237D01*
X017866Y034237D02*
X017866Y034664D01*
X019412Y032352D02*
X019412Y032017D01*
X019589Y032017D01*
X019589Y031801D01*
X019412Y031801D01*
X019412Y031486D01*
X019885Y031486D01*
X019885Y032352D02*
X019412Y032352D01*
X018183Y030850D02*
X017483Y030850D01*
X017466Y030848D01*
X017449Y030844D01*
X017433Y030837D01*
X017419Y030827D01*
X017406Y030814D01*
X017396Y030800D01*
X017389Y030784D01*
X017385Y030767D01*
X017383Y030750D01*
X017383Y030600D01*
X017433Y030550D01*
X017433Y028650D01*
X017383Y028600D01*
X017383Y028450D01*
X017385Y028433D01*
X017389Y028416D01*
X017396Y028400D01*
X017406Y028386D01*
X017419Y028373D01*
X017433Y028363D01*
X017449Y028356D01*
X017466Y028352D01*
X017483Y028350D01*
X018183Y028350D01*
X018200Y028352D01*
X018217Y028356D01*
X018233Y028363D01*
X018247Y028373D01*
X018260Y028386D01*
X018270Y028400D01*
X018277Y028416D01*
X018281Y028433D01*
X018283Y028450D01*
X018283Y028600D01*
X018233Y028650D01*
X018233Y030550D01*
X018283Y030600D01*
X018283Y030750D01*
X018281Y030767D01*
X018277Y030784D01*
X018270Y030800D01*
X018260Y030814D01*
X018247Y030827D01*
X018233Y030837D01*
X018217Y030844D01*
X018200Y030848D01*
X018183Y030850D01*
X016033Y031950D02*
X016033Y028250D01*
X015933Y028150D01*
X014783Y028100D01*
X014783Y032100D02*
X015933Y032050D01*
X016033Y031950D01*
X020577Y034237D02*
X020577Y034664D01*
X021221Y034664D02*
X021221Y034237D01*
X021866Y034237D02*
X021866Y034664D01*
X024577Y034664D02*
X024577Y034237D01*
X025221Y034237D02*
X025221Y034664D01*
X025866Y034664D02*
X025866Y034237D01*
X026533Y031500D02*
X027133Y031500D01*
X027150Y031498D01*
X027167Y031494D01*
X027183Y031487D01*
X027197Y031477D01*
X027210Y031464D01*
X027220Y031450D01*
X027227Y031434D01*
X027231Y031417D01*
X027233Y031400D01*
X027233Y029800D01*
X027231Y029783D01*
X027227Y029766D01*
X027220Y029750D01*
X027210Y029736D01*
X027197Y029723D01*
X027183Y029713D01*
X027167Y029706D01*
X027150Y029702D01*
X027133Y029700D01*
X026533Y029700D01*
X026516Y029702D01*
X026499Y029706D01*
X026483Y029713D01*
X026469Y029723D01*
X026456Y029736D01*
X026446Y029750D01*
X026439Y029766D01*
X026435Y029783D01*
X026433Y029800D01*
X026433Y031400D01*
X026435Y031417D01*
X026439Y031434D01*
X026446Y031450D01*
X026456Y031464D01*
X026469Y031477D01*
X026483Y031487D01*
X026499Y031494D01*
X026516Y031498D01*
X026533Y031500D01*
X026833Y030850D02*
X026833Y030600D01*
X026583Y030600D01*
X026833Y030600D02*
X026583Y030200D01*
X027083Y030200D01*
X026833Y030600D01*
X027083Y030600D01*
X026833Y030600D02*
X026833Y030000D01*
X025233Y029800D02*
X025233Y031400D01*
X025231Y031417D01*
X025227Y031434D01*
X025220Y031450D01*
X025210Y031464D01*
X025197Y031477D01*
X025183Y031487D01*
X025167Y031494D01*
X025150Y031498D01*
X025133Y031500D01*
X024533Y031500D01*
X024516Y031498D01*
X024499Y031494D01*
X024483Y031487D01*
X024469Y031477D01*
X024456Y031464D01*
X024446Y031450D01*
X024439Y031434D01*
X024435Y031417D01*
X024433Y031400D01*
X024433Y029800D01*
X024435Y029783D01*
X024439Y029766D01*
X024446Y029750D01*
X024456Y029736D01*
X024469Y029723D01*
X024483Y029713D01*
X024499Y029706D01*
X024516Y029702D01*
X024533Y029700D01*
X025133Y029700D01*
X025150Y029702D01*
X025167Y029706D01*
X025183Y029713D01*
X025197Y029723D01*
X025210Y029736D01*
X025220Y029750D01*
X025227Y029766D01*
X025231Y029783D01*
X025233Y029800D01*
X024833Y030350D02*
X024833Y030600D01*
X025083Y030600D01*
X024833Y030600D02*
X024583Y030600D01*
X024833Y030600D02*
X024583Y031000D01*
X025083Y031000D01*
X024833Y030600D01*
X024833Y031200D01*
X026483Y026350D02*
X027183Y026350D01*
X027200Y026348D01*
X027217Y026344D01*
X027233Y026337D01*
X027247Y026327D01*
X027260Y026314D01*
X027270Y026300D01*
X027277Y026284D01*
X027281Y026267D01*
X027283Y026250D01*
X027283Y026100D01*
X027233Y026050D01*
X027233Y024150D01*
X027283Y024100D01*
X027283Y023950D01*
X027281Y023933D01*
X027277Y023916D01*
X027270Y023900D01*
X027260Y023886D01*
X027247Y023873D01*
X027233Y023863D01*
X027217Y023856D01*
X027200Y023852D01*
X027183Y023850D01*
X026483Y023850D01*
X026466Y023852D01*
X026449Y023856D01*
X026433Y023863D01*
X026419Y023873D01*
X026406Y023886D01*
X026396Y023900D01*
X026389Y023916D01*
X026385Y023933D01*
X026383Y023950D01*
X026383Y024100D01*
X026433Y024150D01*
X026433Y026050D01*
X026383Y026100D01*
X026383Y026250D01*
X026385Y026267D01*
X026389Y026284D01*
X026396Y026300D01*
X026406Y026314D01*
X026419Y026327D01*
X026433Y026337D01*
X026449Y026344D01*
X026466Y026348D01*
X026483Y026350D01*
X026483Y020350D02*
X027183Y020350D01*
X027200Y020348D01*
X027217Y020344D01*
X027233Y020337D01*
X027247Y020327D01*
X027260Y020314D01*
X027270Y020300D01*
X027277Y020284D01*
X027281Y020267D01*
X027283Y020250D01*
X027283Y020100D01*
X027233Y020050D01*
X027233Y018150D01*
X027283Y018100D01*
X027283Y017950D01*
X027281Y017933D01*
X027277Y017916D01*
X027270Y017900D01*
X027260Y017886D01*
X027247Y017873D01*
X027233Y017863D01*
X027217Y017856D01*
X027200Y017852D01*
X027183Y017850D01*
X026483Y017850D01*
X026466Y017852D01*
X026449Y017856D01*
X026433Y017863D01*
X026419Y017873D01*
X026406Y017886D01*
X026396Y017900D01*
X026389Y017916D01*
X026385Y017933D01*
X026383Y017950D01*
X026383Y018100D01*
X026433Y018150D01*
X026433Y020050D01*
X026383Y020100D01*
X026383Y020250D01*
X026385Y020267D01*
X026389Y020284D01*
X026396Y020300D01*
X026406Y020314D01*
X026419Y020327D01*
X026433Y020337D01*
X026449Y020344D01*
X026466Y020348D01*
X026483Y020350D01*
X030183Y016050D02*
X030333Y016050D01*
X030383Y016000D01*
X032283Y016000D01*
X032333Y016050D01*
X032483Y016050D01*
X032500Y016048D01*
X032517Y016044D01*
X032533Y016037D01*
X032547Y016027D01*
X032560Y016014D01*
X032570Y016000D01*
X032577Y015984D01*
X032581Y015967D01*
X032583Y015950D01*
X032583Y015250D01*
X032581Y015233D01*
X032577Y015216D01*
X032570Y015200D01*
X032560Y015186D01*
X032547Y015173D01*
X032533Y015163D01*
X032517Y015156D01*
X032500Y015152D01*
X032483Y015150D01*
X032333Y015150D01*
X032283Y015200D01*
X030383Y015200D01*
X030333Y015150D01*
X030183Y015150D01*
X030166Y015152D01*
X030149Y015156D01*
X030133Y015163D01*
X030119Y015173D01*
X030106Y015186D01*
X030096Y015200D01*
X030089Y015216D01*
X030085Y015233D01*
X030083Y015250D01*
X030083Y015950D01*
X030085Y015967D01*
X030089Y015984D01*
X030096Y016000D01*
X030106Y016014D01*
X030119Y016027D01*
X030133Y016037D01*
X030149Y016044D01*
X030166Y016048D01*
X030183Y016050D01*
X035383Y017400D02*
X036283Y017400D01*
X037253Y018520D02*
X037253Y018680D01*
X037353Y018680D02*
X037353Y018520D01*
X037253Y018520D01*
X036283Y020800D02*
X035713Y020800D01*
X035383Y020800D01*
X034483Y025650D02*
X034333Y025650D01*
X034283Y025700D01*
X032383Y025700D01*
X032333Y025650D01*
X032183Y025650D01*
X032166Y025652D01*
X032149Y025656D01*
X032133Y025663D01*
X032119Y025673D01*
X032106Y025686D01*
X032096Y025700D01*
X032089Y025716D01*
X032085Y025733D01*
X032083Y025750D01*
X032083Y026450D01*
X032085Y026467D01*
X032089Y026484D01*
X032096Y026500D01*
X032106Y026514D01*
X032119Y026527D01*
X032133Y026537D01*
X032149Y026544D01*
X032166Y026548D01*
X032183Y026550D01*
X032333Y026550D01*
X032383Y026500D01*
X034283Y026500D01*
X034333Y026550D01*
X034483Y026550D01*
X034500Y026548D01*
X034517Y026544D01*
X034533Y026537D01*
X034547Y026527D01*
X034560Y026514D01*
X034570Y026500D01*
X034577Y026484D01*
X034581Y026467D01*
X034583Y026450D01*
X034583Y025750D01*
X034581Y025733D01*
X034577Y025716D01*
X034570Y025700D01*
X034560Y025686D01*
X034547Y025673D01*
X034533Y025663D01*
X034517Y025656D01*
X034500Y025652D01*
X034483Y025650D01*
X033833Y027650D02*
X033683Y027650D01*
X033666Y027652D01*
X033649Y027656D01*
X033633Y027663D01*
X033619Y027673D01*
X033606Y027686D01*
X033596Y027700D01*
X033589Y027716D01*
X033585Y027733D01*
X033583Y027750D01*
X033583Y028450D01*
X033585Y028467D01*
X033589Y028484D01*
X033596Y028500D01*
X033606Y028514D01*
X033619Y028527D01*
X033633Y028537D01*
X033649Y028544D01*
X033666Y028548D01*
X033683Y028550D01*
X033833Y028550D01*
X033883Y028500D01*
X035783Y028500D01*
X035833Y028550D01*
X035983Y028550D01*
X036000Y028548D01*
X036017Y028544D01*
X036033Y028537D01*
X036047Y028527D01*
X036060Y028514D01*
X036070Y028500D01*
X036077Y028484D01*
X036081Y028467D01*
X036083Y028450D01*
X036083Y027750D01*
X036081Y027733D01*
X036077Y027716D01*
X036070Y027700D01*
X036060Y027686D01*
X036047Y027673D01*
X036033Y027663D01*
X036017Y027656D01*
X036000Y027652D01*
X035983Y027650D01*
X035833Y027650D01*
X035783Y027700D01*
X033883Y027700D01*
X033833Y027650D01*
X033833Y028650D02*
X033883Y028700D01*
X035783Y028700D01*
X035833Y028650D01*
X035983Y028650D01*
X036000Y028652D01*
X036017Y028656D01*
X036033Y028663D01*
X036047Y028673D01*
X036060Y028686D01*
X036070Y028700D01*
X036077Y028716D01*
X036081Y028733D01*
X036083Y028750D01*
X036083Y029450D01*
X036081Y029467D01*
X036077Y029484D01*
X036070Y029500D01*
X036060Y029514D01*
X036047Y029527D01*
X036033Y029537D01*
X036017Y029544D01*
X036000Y029548D01*
X035983Y029550D01*
X035833Y029550D01*
X035783Y029500D01*
X033883Y029500D01*
X033833Y029550D01*
X033683Y029550D01*
X033666Y029548D01*
X033649Y029544D01*
X033633Y029537D01*
X033619Y029527D01*
X033606Y029514D01*
X033596Y029500D01*
X033589Y029484D01*
X033585Y029467D01*
X033583Y029450D01*
X033583Y028750D01*
X033585Y028733D01*
X033589Y028716D01*
X033596Y028700D01*
X033606Y028686D01*
X033619Y028673D01*
X033633Y028663D01*
X033649Y028656D01*
X033666Y028652D01*
X033683Y028650D01*
X033833Y028650D01*
X039483Y011350D02*
X040183Y011350D01*
X040200Y011348D01*
X040217Y011344D01*
X040233Y011337D01*
X040247Y011327D01*
X040260Y011314D01*
X040270Y011300D01*
X040277Y011284D01*
X040281Y011267D01*
X040283Y011250D01*
X040283Y011100D01*
X040233Y011050D01*
X040233Y009150D01*
X040283Y009100D01*
X040283Y008950D01*
X040281Y008933D01*
X040277Y008916D01*
X040270Y008900D01*
X040260Y008886D01*
X040247Y008873D01*
X040233Y008863D01*
X040217Y008856D01*
X040200Y008852D01*
X040183Y008850D01*
X039483Y008850D01*
X039466Y008852D01*
X039449Y008856D01*
X039433Y008863D01*
X039419Y008873D01*
X039406Y008886D01*
X039396Y008900D01*
X039389Y008916D01*
X039385Y008933D01*
X039383Y008950D01*
X039383Y009100D01*
X039433Y009150D01*
X039433Y011050D01*
X039383Y011100D01*
X039383Y011250D01*
X039385Y011267D01*
X039389Y011284D01*
X039396Y011300D01*
X039406Y011314D01*
X039419Y011327D01*
X039433Y011337D01*
X039449Y011344D01*
X039466Y011348D01*
X039483Y011350D01*
X040883Y011250D02*
X040883Y011100D01*
X040933Y011050D01*
X040933Y009150D01*
X040883Y009100D01*
X040883Y008950D01*
X040885Y008933D01*
X040889Y008916D01*
X040896Y008900D01*
X040906Y008886D01*
X040919Y008873D01*
X040933Y008863D01*
X040949Y008856D01*
X040966Y008852D01*
X040983Y008850D01*
X041683Y008850D01*
X041700Y008852D01*
X041717Y008856D01*
X041733Y008863D01*
X041747Y008873D01*
X041760Y008886D01*
X041770Y008900D01*
X041777Y008916D01*
X041781Y008933D01*
X041783Y008950D01*
X041783Y009100D01*
X041733Y009150D01*
X041733Y011050D01*
X041783Y011100D01*
X041783Y011250D01*
X041781Y011267D01*
X041777Y011284D01*
X041770Y011300D01*
X041760Y011314D01*
X041747Y011327D01*
X041733Y011337D01*
X041717Y011344D01*
X041700Y011348D01*
X041683Y011350D01*
X040983Y011350D01*
X040966Y011348D01*
X040949Y011344D01*
X040933Y011337D01*
X040919Y011327D01*
X040906Y011314D01*
X040896Y011300D01*
X040889Y011284D01*
X040885Y011267D01*
X040883Y011250D01*
X040983Y005850D02*
X041683Y005850D01*
X041700Y005848D01*
X041717Y005844D01*
X041733Y005837D01*
X041747Y005827D01*
X041760Y005814D01*
X041770Y005800D01*
X041777Y005784D01*
X041781Y005767D01*
X041783Y005750D01*
X041783Y005600D01*
X041733Y005550D01*
X041733Y003650D01*
X041783Y003600D01*
X041783Y003450D01*
X041781Y003433D01*
X041777Y003416D01*
X041770Y003400D01*
X041760Y003386D01*
X041747Y003373D01*
X041733Y003363D01*
X041717Y003356D01*
X041700Y003352D01*
X041683Y003350D01*
X040983Y003350D01*
X040966Y003352D01*
X040949Y003356D01*
X040933Y003363D01*
X040919Y003373D01*
X040906Y003386D01*
X040896Y003400D01*
X040889Y003416D01*
X040885Y003433D01*
X040883Y003450D01*
X040883Y003600D01*
X040933Y003650D01*
X040933Y005550D01*
X040883Y005600D01*
X040883Y005750D01*
X040885Y005767D01*
X040889Y005784D01*
X040896Y005800D01*
X040906Y005814D01*
X040919Y005827D01*
X040933Y005837D01*
X040949Y005844D01*
X040966Y005848D01*
X040983Y005850D01*
X040283Y005750D02*
X040283Y005600D01*
X040233Y005550D01*
X040233Y003650D01*
X040283Y003600D01*
X040283Y003450D01*
X040281Y003433D01*
X040277Y003416D01*
X040270Y003400D01*
X040260Y003386D01*
X040247Y003373D01*
X040233Y003363D01*
X040217Y003356D01*
X040200Y003352D01*
X040183Y003350D01*
X039483Y003350D01*
X039466Y003352D01*
X039449Y003356D01*
X039433Y003363D01*
X039419Y003373D01*
X039406Y003386D01*
X039396Y003400D01*
X039389Y003416D01*
X039385Y003433D01*
X039383Y003450D01*
X039383Y003600D01*
X039433Y003650D01*
X039433Y005550D01*
X039383Y005600D01*
X039383Y005750D01*
X039385Y005767D01*
X039389Y005784D01*
X039396Y005800D01*
X039406Y005814D01*
X039419Y005827D01*
X039433Y005837D01*
X039449Y005844D01*
X039466Y005848D01*
X039483Y005850D01*
X040183Y005850D01*
X040200Y005848D01*
X040217Y005844D01*
X040233Y005837D01*
X040247Y005827D01*
X040260Y005814D01*
X040270Y005800D01*
X040277Y005784D01*
X040281Y005767D01*
X040283Y005750D01*
X036079Y005737D02*
X036079Y006164D01*
X035973Y006271D01*
X035652Y006271D01*
X035652Y005630D01*
X035973Y005630D01*
X036079Y005737D01*
X035435Y005630D02*
X035435Y006271D01*
X035008Y006271D02*
X035008Y005630D01*
X034790Y005737D02*
X034790Y005950D01*
X034577Y005950D01*
X034790Y005737D02*
X034684Y005630D01*
X034470Y005630D01*
X034363Y005737D01*
X034363Y006164D01*
X034470Y006271D01*
X034684Y006271D01*
X034790Y006164D01*
X035008Y006271D02*
X035435Y005630D01*
X031579Y005737D02*
X031579Y006164D01*
X031473Y006271D01*
X031152Y006271D01*
X031152Y005630D01*
X031473Y005630D01*
X031579Y005737D01*
X030935Y005630D02*
X030935Y006271D01*
X030508Y006271D02*
X030508Y005630D01*
X030290Y005737D02*
X030290Y005950D01*
X030077Y005950D01*
X030290Y005737D02*
X030184Y005630D01*
X029970Y005630D01*
X029863Y005737D01*
X029863Y006164D01*
X029970Y006271D01*
X030184Y006271D01*
X030290Y006164D01*
X030508Y006271D02*
X030935Y005630D01*
X020983Y016100D02*
X020233Y016100D01*
X020231Y016139D01*
X020225Y016178D01*
X020216Y016216D01*
X020203Y016253D01*
X020186Y016289D01*
X020166Y016322D01*
X020142Y016354D01*
X020116Y016383D01*
X020087Y016409D01*
X020055Y016433D01*
X020022Y016453D01*
X019986Y016470D01*
X019949Y016483D01*
X019911Y016492D01*
X019872Y016498D01*
X019833Y016500D01*
X019794Y016498D01*
X019755Y016492D01*
X019717Y016483D01*
X019680Y016470D01*
X019644Y016453D01*
X019611Y016433D01*
X019579Y016409D01*
X019550Y016383D01*
X019524Y016354D01*
X019500Y016322D01*
X019480Y016289D01*
X019463Y016253D01*
X019450Y016216D01*
X019441Y016178D01*
X019435Y016139D01*
X019433Y016100D01*
X018683Y016100D01*
X018683Y024100D01*
X020983Y024100D01*
X020983Y016100D01*
X016783Y015600D02*
X016783Y015450D01*
X016781Y015433D01*
X016777Y015416D01*
X016770Y015400D01*
X016760Y015386D01*
X016747Y015373D01*
X016733Y015363D01*
X016717Y015356D01*
X016700Y015352D01*
X016683Y015350D01*
X015983Y015350D01*
X015966Y015352D01*
X015949Y015356D01*
X015933Y015363D01*
X015919Y015373D01*
X015906Y015386D01*
X015896Y015400D01*
X015889Y015416D01*
X015885Y015433D01*
X015883Y015450D01*
X015883Y015600D01*
X015933Y015650D01*
X015933Y017550D01*
X015883Y017600D01*
X015883Y017750D01*
X015885Y017767D01*
X015889Y017784D01*
X015896Y017800D01*
X015906Y017814D01*
X015919Y017827D01*
X015933Y017837D01*
X015949Y017844D01*
X015966Y017848D01*
X015983Y017850D01*
X016683Y017850D01*
X016700Y017848D01*
X016717Y017844D01*
X016733Y017837D01*
X016747Y017827D01*
X016760Y017814D01*
X016770Y017800D01*
X016777Y017784D01*
X016781Y017767D01*
X016783Y017750D01*
X016783Y017600D01*
X016733Y017550D01*
X016733Y015650D01*
X016783Y015600D01*
X015033Y014750D02*
X014933Y014650D01*
X013783Y014600D01*
X015033Y014750D02*
X015033Y018450D01*
X014933Y018550D01*
X013783Y018600D01*
X013783Y011100D02*
X014933Y011050D01*
X015033Y010950D01*
X015033Y007250D01*
X014933Y007150D01*
X013783Y007100D01*
X015883Y008450D02*
X015883Y008600D01*
X015933Y008650D01*
X015933Y010550D01*
X015883Y010600D01*
X015883Y010750D01*
X015885Y010767D01*
X015889Y010784D01*
X015896Y010800D01*
X015906Y010814D01*
X015919Y010827D01*
X015933Y010837D01*
X015949Y010844D01*
X015966Y010848D01*
X015983Y010850D01*
X016683Y010850D01*
X016700Y010848D01*
X016717Y010844D01*
X016733Y010837D01*
X016747Y010827D01*
X016760Y010814D01*
X016770Y010800D01*
X016777Y010784D01*
X016781Y010767D01*
X016783Y010750D01*
X016783Y010600D01*
X016733Y010550D01*
X016733Y008650D01*
X016783Y008600D01*
X016783Y008450D01*
X016781Y008433D01*
X016777Y008416D01*
X016770Y008400D01*
X016760Y008386D01*
X016747Y008373D01*
X016733Y008363D01*
X016717Y008356D01*
X016700Y008352D01*
X016683Y008350D01*
X015983Y008350D01*
X015966Y008352D01*
X015949Y008356D01*
X015933Y008363D01*
X015919Y008373D01*
X015906Y008386D01*
X015896Y008400D01*
X015889Y008416D01*
X015885Y008433D01*
X015883Y008450D01*
X045363Y034344D02*
X045577Y034130D01*
X045790Y034344D01*
X045790Y034771D01*
X046008Y034664D02*
X046008Y034237D01*
X046115Y034130D01*
X046328Y034130D01*
X046435Y034237D01*
X046652Y034237D02*
X046759Y034130D01*
X046973Y034130D01*
X047079Y034237D01*
X046652Y034237D02*
X046652Y034664D01*
X046759Y034771D01*
X046973Y034771D01*
X047079Y034664D01*
X046435Y034664D02*
X046328Y034771D01*
X046115Y034771D01*
X046008Y034664D01*
X045363Y034771D02*
X045363Y034344D01*
X027433Y063900D02*
X027433Y068300D01*
X027431Y068330D01*
X027426Y068360D01*
X027417Y068389D01*
X027404Y068416D01*
X027389Y068442D01*
X027370Y068466D01*
X027349Y068487D01*
X027325Y068506D01*
X027299Y068521D01*
X027272Y068534D01*
X027243Y068543D01*
X027213Y068548D01*
X027183Y068550D01*
X026333Y068550D01*
X025333Y068550D01*
X017333Y068550D01*
X016333Y068550D01*
X015483Y068550D01*
X015453Y068548D01*
X015423Y068543D01*
X015394Y068534D01*
X015367Y068521D01*
X015341Y068506D01*
X015317Y068487D01*
X015296Y068466D01*
X015277Y068442D01*
X015262Y068416D01*
X015249Y068389D01*
X015240Y068360D01*
X015235Y068330D01*
X015233Y068300D01*
X015233Y063900D01*
X015235Y063870D01*
X015240Y063840D01*
X015249Y063811D01*
X015262Y063784D01*
X015277Y063758D01*
X015296Y063734D01*
X015317Y063713D01*
X015341Y063694D01*
X015367Y063679D01*
X015394Y063666D01*
X015423Y063657D01*
X015453Y063652D01*
X015483Y063650D01*
X016333Y063650D01*
X017333Y063650D01*
X025333Y063650D01*
X026333Y063650D01*
X027183Y063650D01*
X027213Y063652D01*
X027243Y063657D01*
X027272Y063666D01*
X027299Y063679D01*
X027325Y063694D01*
X027349Y063713D01*
X027370Y063734D01*
X027389Y063758D01*
X027404Y063784D01*
X027417Y063811D01*
X027426Y063840D01*
X027431Y063870D01*
X027433Y063900D01*
X026333Y063700D02*
X026333Y063650D01*
X026333Y063700D02*
X025333Y063700D01*
X025333Y063650D01*
X024293Y064950D02*
X024603Y067010D01*
X024601Y067007D02*
X024609Y067051D01*
X024612Y067096D01*
X024613Y067141D01*
X024609Y067186D01*
X024601Y067231D01*
X024590Y067274D01*
X024575Y067317D01*
X024557Y067358D01*
X024535Y067397D01*
X024510Y067435D01*
X024481Y067470D01*
X024450Y067502D01*
X024416Y067532D01*
X024380Y067559D01*
X024342Y067583D01*
X024302Y067603D01*
X024260Y067620D01*
X024217Y067633D01*
X024173Y067642D01*
X024128Y067648D01*
X024083Y067650D01*
X018583Y067650D01*
X018538Y067648D01*
X018494Y067643D01*
X018451Y067633D01*
X018408Y067620D01*
X018366Y067604D01*
X018326Y067584D01*
X018288Y067561D01*
X018252Y067534D01*
X018219Y067505D01*
X018188Y067473D01*
X018159Y067438D01*
X018134Y067402D01*
X018112Y067363D01*
X018093Y067322D01*
X018078Y067281D01*
X018066Y067238D01*
X018058Y067194D01*
X018054Y067149D01*
X018053Y067105D01*
X018056Y067060D01*
X018063Y067016D01*
X018063Y067020D02*
X018373Y064940D01*
X018370Y064947D02*
X018383Y064905D01*
X018399Y064864D01*
X018418Y064825D01*
X018441Y064788D01*
X018466Y064753D01*
X018494Y064720D01*
X018525Y064689D01*
X018559Y064661D01*
X018594Y064636D01*
X018632Y064613D01*
X018671Y064594D01*
X018712Y064578D01*
X018754Y064566D01*
X018796Y064557D01*
X018839Y064552D01*
X018883Y064550D01*
X023783Y064550D01*
X023827Y064552D01*
X023871Y064557D01*
X023914Y064567D01*
X023957Y064579D01*
X023998Y064596D01*
X024037Y064615D01*
X024075Y064638D01*
X024111Y064664D01*
X024145Y064693D01*
X024176Y064724D01*
X024204Y064758D01*
X024229Y064794D01*
X024252Y064832D01*
X024271Y064872D01*
X024286Y064914D01*
X024298Y064956D01*
X025613Y066100D02*
X025615Y066150D01*
X025621Y066200D01*
X025631Y066250D01*
X025644Y066298D01*
X025661Y066346D01*
X025682Y066392D01*
X025706Y066436D01*
X025734Y066478D01*
X025765Y066518D01*
X025799Y066555D01*
X025836Y066590D01*
X025875Y066621D01*
X025916Y066650D01*
X025960Y066675D01*
X026006Y066697D01*
X026053Y066715D01*
X026101Y066729D01*
X026150Y066740D01*
X026200Y066747D01*
X026250Y066750D01*
X026301Y066749D01*
X026351Y066744D01*
X026401Y066735D01*
X026449Y066723D01*
X026497Y066706D01*
X026543Y066686D01*
X026588Y066663D01*
X026631Y066636D01*
X026671Y066606D01*
X026709Y066573D01*
X026744Y066537D01*
X026777Y066498D01*
X026806Y066457D01*
X026832Y066414D01*
X026855Y066369D01*
X026874Y066322D01*
X026889Y066274D01*
X026901Y066225D01*
X026909Y066175D01*
X026913Y066125D01*
X026913Y066075D01*
X026909Y066025D01*
X026901Y065975D01*
X026889Y065926D01*
X026874Y065878D01*
X026855Y065831D01*
X026832Y065786D01*
X026806Y065743D01*
X026777Y065702D01*
X026744Y065663D01*
X026709Y065627D01*
X026671Y065594D01*
X026631Y065564D01*
X026588Y065537D01*
X026543Y065514D01*
X026497Y065494D01*
X026449Y065477D01*
X026401Y065465D01*
X026351Y065456D01*
X026301Y065451D01*
X026250Y065450D01*
X026200Y065453D01*
X026150Y065460D01*
X026101Y065471D01*
X026053Y065485D01*
X026006Y065503D01*
X025960Y065525D01*
X025916Y065550D01*
X025875Y065579D01*
X025836Y065610D01*
X025799Y065645D01*
X025765Y065682D01*
X025734Y065722D01*
X025706Y065764D01*
X025682Y065808D01*
X025661Y065854D01*
X025644Y065902D01*
X025631Y065950D01*
X025621Y066000D01*
X025615Y066050D01*
X025613Y066100D01*
X025333Y068500D02*
X026333Y068500D01*
X026333Y068550D01*
X025333Y068550D02*
X025333Y068500D01*
X017333Y068500D02*
X017333Y068550D01*
X017333Y068500D02*
X016333Y068500D01*
X016333Y068550D01*
X015753Y066100D02*
X015755Y066150D01*
X015761Y066200D01*
X015771Y066250D01*
X015784Y066298D01*
X015801Y066346D01*
X015822Y066392D01*
X015846Y066436D01*
X015874Y066478D01*
X015905Y066518D01*
X015939Y066555D01*
X015976Y066590D01*
X016015Y066621D01*
X016056Y066650D01*
X016100Y066675D01*
X016146Y066697D01*
X016193Y066715D01*
X016241Y066729D01*
X016290Y066740D01*
X016340Y066747D01*
X016390Y066750D01*
X016441Y066749D01*
X016491Y066744D01*
X016541Y066735D01*
X016589Y066723D01*
X016637Y066706D01*
X016683Y066686D01*
X016728Y066663D01*
X016771Y066636D01*
X016811Y066606D01*
X016849Y066573D01*
X016884Y066537D01*
X016917Y066498D01*
X016946Y066457D01*
X016972Y066414D01*
X016995Y066369D01*
X017014Y066322D01*
X017029Y066274D01*
X017041Y066225D01*
X017049Y066175D01*
X017053Y066125D01*
X017053Y066075D01*
X017049Y066025D01*
X017041Y065975D01*
X017029Y065926D01*
X017014Y065878D01*
X016995Y065831D01*
X016972Y065786D01*
X016946Y065743D01*
X016917Y065702D01*
X016884Y065663D01*
X016849Y065627D01*
X016811Y065594D01*
X016771Y065564D01*
X016728Y065537D01*
X016683Y065514D01*
X016637Y065494D01*
X016589Y065477D01*
X016541Y065465D01*
X016491Y065456D01*
X016441Y065451D01*
X016390Y065450D01*
X016340Y065453D01*
X016290Y065460D01*
X016241Y065471D01*
X016193Y065485D01*
X016146Y065503D01*
X016100Y065525D01*
X016056Y065550D01*
X016015Y065579D01*
X015976Y065610D01*
X015939Y065645D01*
X015905Y065682D01*
X015874Y065722D01*
X015846Y065764D01*
X015822Y065808D01*
X015801Y065854D01*
X015784Y065902D01*
X015771Y065950D01*
X015761Y066000D01*
X015755Y066050D01*
X015753Y066100D01*
X016333Y063700D02*
X017333Y063700D01*
X017333Y063650D01*
X016333Y063650D02*
X016333Y063700D01*
X008266Y079950D02*
X008266Y080423D01*
X007932Y080423D01*
X007932Y080226D01*
X007735Y080226D01*
X007735Y080423D01*
X007400Y080423D01*
X007400Y079950D01*
X003153Y073730D02*
X003403Y073480D01*
X003403Y072090D01*
X003533Y072000D01*
X003533Y070200D01*
X003413Y070120D01*
X003413Y068720D01*
X003163Y068470D01*
X000503Y068470D01*
X000253Y068720D01*
X000253Y070120D01*
X000133Y070200D01*
X000133Y072000D01*
X000263Y072080D01*
X000263Y073480D01*
X000513Y073730D01*
X003153Y073730D01*
X019233Y082600D02*
X019235Y082647D01*
X019241Y082695D01*
X019250Y082741D01*
X019263Y082787D01*
X019279Y082831D01*
X019300Y082875D01*
X019323Y082916D01*
X019349Y082955D01*
X019379Y082992D01*
X019412Y083027D01*
X019447Y083059D01*
X019484Y083088D01*
X020433Y082600D02*
X020431Y082555D01*
X020426Y082509D01*
X020418Y082465D01*
X020406Y082421D01*
X020390Y082378D01*
X020372Y082336D01*
X020350Y082296D01*
X020326Y082258D01*
X020299Y082222D01*
X020269Y082187D01*
X020236Y082156D01*
X020201Y082126D01*
X020433Y082600D02*
X020431Y082645D01*
X020426Y082691D01*
X020418Y082735D01*
X020406Y082779D01*
X020390Y082822D01*
X020372Y082864D01*
X020350Y082904D01*
X020326Y082942D01*
X020299Y082978D01*
X020269Y083013D01*
X020236Y083044D01*
X020201Y083074D01*
X019233Y082600D02*
X019235Y082554D01*
X019240Y082508D01*
X019249Y082462D01*
X019261Y082417D01*
X019277Y082374D01*
X019296Y082332D01*
X019319Y082291D01*
X019344Y082252D01*
X019372Y082216D01*
X019403Y082181D01*
X019437Y082149D01*
X019473Y082120D01*
X021233Y082600D02*
X021235Y082647D01*
X021241Y082695D01*
X021250Y082741D01*
X021263Y082787D01*
X021279Y082831D01*
X021300Y082875D01*
X021323Y082916D01*
X021349Y082955D01*
X021379Y082992D01*
X021412Y083027D01*
X021447Y083059D01*
X021484Y083088D01*
X022433Y082600D02*
X022431Y082555D01*
X022426Y082509D01*
X022418Y082465D01*
X022406Y082421D01*
X022390Y082378D01*
X022372Y082336D01*
X022350Y082296D01*
X022326Y082258D01*
X022299Y082222D01*
X022269Y082187D01*
X022236Y082156D01*
X022201Y082126D01*
X022433Y082600D02*
X022431Y082645D01*
X022426Y082691D01*
X022418Y082735D01*
X022406Y082779D01*
X022390Y082822D01*
X022372Y082864D01*
X022350Y082904D01*
X022326Y082942D01*
X022299Y082978D01*
X022269Y083013D01*
X022236Y083044D01*
X022201Y083074D01*
X021233Y082600D02*
X021235Y082554D01*
X021240Y082508D01*
X021249Y082462D01*
X021261Y082417D01*
X021277Y082374D01*
X021296Y082332D01*
X021319Y082291D01*
X021344Y082252D01*
X021372Y082216D01*
X021403Y082181D01*
X021437Y082149D01*
X021473Y082120D01*
X023233Y082600D02*
X023235Y082647D01*
X023241Y082695D01*
X023250Y082741D01*
X023263Y082787D01*
X023279Y082831D01*
X023300Y082875D01*
X023323Y082916D01*
X023349Y082955D01*
X023379Y082992D01*
X023412Y083027D01*
X023447Y083059D01*
X023484Y083088D01*
X024433Y082600D02*
X024431Y082555D01*
X024426Y082509D01*
X024418Y082465D01*
X024406Y082421D01*
X024390Y082378D01*
X024372Y082336D01*
X024350Y082296D01*
X024326Y082258D01*
X024299Y082222D01*
X024269Y082187D01*
X024236Y082156D01*
X024201Y082126D01*
X024433Y082600D02*
X024431Y082645D01*
X024426Y082691D01*
X024418Y082735D01*
X024406Y082779D01*
X024390Y082822D01*
X024372Y082864D01*
X024350Y082904D01*
X024326Y082942D01*
X024299Y082978D01*
X024269Y083013D01*
X024236Y083044D01*
X024201Y083074D01*
X023233Y082600D02*
X023235Y082554D01*
X023240Y082508D01*
X023249Y082462D01*
X023261Y082417D01*
X023277Y082374D01*
X023296Y082332D01*
X023319Y082291D01*
X023344Y082252D01*
X023372Y082216D01*
X023403Y082181D01*
X023437Y082149D01*
X023473Y082120D01*
X025233Y082600D02*
X025235Y082647D01*
X025241Y082695D01*
X025250Y082741D01*
X025263Y082787D01*
X025279Y082831D01*
X025300Y082875D01*
X025323Y082916D01*
X025349Y082955D01*
X025379Y082992D01*
X025412Y083027D01*
X025447Y083059D01*
X025484Y083088D01*
X026433Y082600D02*
X026431Y082555D01*
X026426Y082509D01*
X026418Y082465D01*
X026406Y082421D01*
X026390Y082378D01*
X026372Y082336D01*
X026350Y082296D01*
X026326Y082258D01*
X026299Y082222D01*
X026269Y082187D01*
X026236Y082156D01*
X026201Y082126D01*
X026433Y082600D02*
X026431Y082645D01*
X026426Y082691D01*
X026418Y082735D01*
X026406Y082779D01*
X026390Y082822D01*
X026372Y082864D01*
X026350Y082904D01*
X026326Y082942D01*
X026299Y082978D01*
X026269Y083013D01*
X026236Y083044D01*
X026201Y083074D01*
X025233Y082600D02*
X025235Y082554D01*
X025240Y082508D01*
X025249Y082462D01*
X025261Y082417D01*
X025277Y082374D01*
X025296Y082332D01*
X025319Y082291D01*
X025344Y082252D01*
X025372Y082216D01*
X025403Y082181D01*
X025437Y082149D01*
X025473Y082120D01*
D12*
X016383Y069516D02*
X015963Y069516D01*
X015963Y069200D01*
X016173Y069305D01*
X016278Y069305D01*
X016383Y069200D01*
X016383Y068990D01*
X016278Y068885D01*
X016068Y068885D01*
X015963Y068990D01*
X015739Y068885D02*
X015318Y069516D01*
X015739Y069516D02*
X015318Y068885D01*
X004011Y074135D02*
X003591Y074135D01*
X003591Y074766D01*
X004011Y074766D01*
X003801Y074450D02*
X003591Y074450D01*
X003367Y074240D02*
X003367Y074660D01*
X003262Y074766D01*
X002947Y074766D01*
X002947Y074135D01*
X003262Y074135D01*
X003367Y074240D01*
X002722Y074240D02*
X002722Y074660D01*
X002617Y074766D01*
X002407Y074766D01*
X002302Y074660D01*
X002302Y074240D01*
X002407Y074135D01*
X002617Y074135D01*
X002722Y074240D01*
X002078Y074135D02*
X002078Y074766D01*
X001868Y074555D01*
X001657Y074766D01*
X001657Y074135D01*
X001433Y074135D02*
X001433Y074766D01*
X001013Y074766D02*
X001013Y074135D01*
X001223Y074345D01*
X001433Y074135D01*
X000789Y074240D02*
X000684Y074135D01*
X000473Y074135D01*
X000368Y074240D01*
X000473Y074450D02*
X000684Y074450D01*
X000789Y074345D01*
X000789Y074240D01*
X000473Y074450D02*
X000368Y074555D01*
X000368Y074660D01*
X000473Y074766D01*
X000684Y074766D01*
X000789Y074660D01*
X039650Y013506D02*
X039860Y013506D01*
X039755Y013506D02*
X039755Y012875D01*
X039650Y012875D02*
X039860Y012875D01*
X040079Y012980D02*
X040079Y013400D01*
X040184Y013506D01*
X040395Y013506D01*
X040500Y013400D01*
X040724Y013295D02*
X040934Y013506D01*
X040934Y012875D01*
X040724Y012875D02*
X041144Y012875D01*
X040500Y012980D02*
X040395Y012875D01*
X040184Y012875D01*
X040079Y012980D01*
D13*
X034902Y020653D02*
X034588Y020967D01*
X034588Y020810D02*
X034902Y020810D01*
X034902Y020967D02*
X034588Y020653D01*
X034745Y020653D02*
X034745Y020967D01*
D14*
X034640Y021170D02*
X034887Y021170D01*
X035010Y021293D01*
X035272Y021170D02*
X035765Y021664D01*
X035765Y021787D01*
X035642Y021911D01*
X035395Y021911D01*
X035272Y021787D01*
X035010Y021787D02*
X034887Y021911D01*
X034640Y021911D01*
X034517Y021787D01*
X034517Y021293D01*
X034640Y021170D01*
X034260Y021170D02*
X034013Y021170D01*
X034137Y021170D02*
X034137Y021911D01*
X034260Y021911D02*
X034013Y021911D01*
X033783Y023145D02*
X033783Y025055D01*
X036884Y025055D01*
X036884Y023145D01*
X033783Y023145D01*
X032325Y022830D02*
X032325Y024404D01*
X032325Y024594D01*
X032325Y025194D01*
X028325Y025194D01*
X028325Y024594D01*
X028325Y024404D01*
X028325Y022830D01*
X028325Y022636D01*
X032325Y022636D01*
X032325Y022369D01*
X032325Y022124D01*
X032325Y022006D01*
X028325Y022006D01*
X028325Y022124D01*
X032325Y022124D01*
X032325Y022369D02*
X028325Y022369D01*
X028325Y022290D01*
X028325Y022124D01*
X028204Y022231D02*
X028274Y022290D01*
X028325Y022290D01*
X028325Y022369D02*
X028325Y022453D01*
X028325Y022636D01*
X028204Y022512D02*
X028274Y022453D01*
X028325Y022453D01*
X028204Y022512D02*
X028101Y022512D01*
X028101Y022231D01*
X028204Y022231D01*
X028571Y023610D02*
X028573Y023664D01*
X028579Y023719D01*
X028589Y023772D01*
X028602Y023825D01*
X028620Y023876D01*
X028641Y023927D01*
X028665Y023975D01*
X028693Y024022D01*
X028725Y024066D01*
X028759Y024108D01*
X028797Y024148D01*
X028837Y024185D01*
X028880Y024218D01*
X028925Y024249D01*
X028972Y024276D01*
X029021Y024300D01*
X029071Y024320D01*
X029123Y024337D01*
X029176Y024349D01*
X029230Y024358D01*
X029284Y024363D01*
X029339Y024364D01*
X029393Y024361D01*
X029447Y024354D01*
X029500Y024343D01*
X029553Y024329D01*
X029604Y024310D01*
X029654Y024288D01*
X029702Y024263D01*
X029748Y024234D01*
X029792Y024202D01*
X029834Y024167D01*
X029872Y024129D01*
X029908Y024088D01*
X029941Y024044D01*
X029971Y023999D01*
X029997Y023951D01*
X030020Y023902D01*
X030040Y023851D01*
X030055Y023799D01*
X030067Y023745D01*
X030075Y023692D01*
X030079Y023637D01*
X030079Y023583D01*
X030075Y023528D01*
X030067Y023475D01*
X030055Y023421D01*
X030040Y023369D01*
X030020Y023318D01*
X029997Y023269D01*
X029971Y023221D01*
X029941Y023176D01*
X029908Y023132D01*
X029872Y023091D01*
X029834Y023053D01*
X029792Y023018D01*
X029748Y022986D01*
X029702Y022957D01*
X029654Y022932D01*
X029604Y022910D01*
X029553Y022891D01*
X029500Y022877D01*
X029447Y022866D01*
X029393Y022859D01*
X029339Y022856D01*
X029284Y022857D01*
X029230Y022862D01*
X029176Y022871D01*
X029123Y022883D01*
X029071Y022900D01*
X029021Y022920D01*
X028972Y022944D01*
X028925Y022971D01*
X028880Y023002D01*
X028837Y023035D01*
X028797Y023072D01*
X028759Y023112D01*
X028725Y023154D01*
X028693Y023198D01*
X028665Y023245D01*
X028641Y023293D01*
X028620Y023344D01*
X028602Y023395D01*
X028589Y023448D01*
X028579Y023501D01*
X028573Y023556D01*
X028571Y023610D01*
X028325Y024594D02*
X032325Y024594D01*
X030571Y023610D02*
X030573Y023664D01*
X030579Y023719D01*
X030589Y023772D01*
X030602Y023825D01*
X030620Y023876D01*
X030641Y023927D01*
X030665Y023975D01*
X030693Y024022D01*
X030725Y024066D01*
X030759Y024108D01*
X030797Y024148D01*
X030837Y024185D01*
X030880Y024218D01*
X030925Y024249D01*
X030972Y024276D01*
X031021Y024300D01*
X031071Y024320D01*
X031123Y024337D01*
X031176Y024349D01*
X031230Y024358D01*
X031284Y024363D01*
X031339Y024364D01*
X031393Y024361D01*
X031447Y024354D01*
X031500Y024343D01*
X031553Y024329D01*
X031604Y024310D01*
X031654Y024288D01*
X031702Y024263D01*
X031748Y024234D01*
X031792Y024202D01*
X031834Y024167D01*
X031872Y024129D01*
X031908Y024088D01*
X031941Y024044D01*
X031971Y023999D01*
X031997Y023951D01*
X032020Y023902D01*
X032040Y023851D01*
X032055Y023799D01*
X032067Y023745D01*
X032075Y023692D01*
X032079Y023637D01*
X032079Y023583D01*
X032075Y023528D01*
X032067Y023475D01*
X032055Y023421D01*
X032040Y023369D01*
X032020Y023318D01*
X031997Y023269D01*
X031971Y023221D01*
X031941Y023176D01*
X031908Y023132D01*
X031872Y023091D01*
X031834Y023053D01*
X031792Y023018D01*
X031748Y022986D01*
X031702Y022957D01*
X031654Y022932D01*
X031604Y022910D01*
X031553Y022891D01*
X031500Y022877D01*
X031447Y022866D01*
X031393Y022859D01*
X031339Y022856D01*
X031284Y022857D01*
X031230Y022862D01*
X031176Y022871D01*
X031123Y022883D01*
X031071Y022900D01*
X031021Y022920D01*
X030972Y022944D01*
X030925Y022971D01*
X030880Y023002D01*
X030837Y023035D01*
X030797Y023072D01*
X030759Y023112D01*
X030725Y023154D01*
X030693Y023198D01*
X030665Y023245D01*
X030641Y023293D01*
X030620Y023344D01*
X030602Y023395D01*
X030589Y023448D01*
X030579Y023501D01*
X030573Y023556D01*
X030571Y023610D01*
X032325Y022830D02*
X032325Y022636D01*
X035272Y021170D02*
X035765Y021170D01*
X036384Y030645D02*
X028283Y030645D01*
X028283Y032555D01*
X036384Y032555D01*
X036384Y030645D01*
X038783Y030645D02*
X038783Y032555D01*
X043884Y032555D01*
X043884Y030645D01*
X038783Y030645D01*
X040825Y035006D02*
X040825Y035124D01*
X034825Y035124D01*
X034825Y035006D01*
X040825Y035006D01*
X040825Y035124D02*
X040825Y035369D01*
X040825Y035636D01*
X040825Y035830D01*
X040825Y037404D01*
X040825Y037594D01*
X040825Y038194D01*
X034825Y038194D01*
X034825Y037594D01*
X034825Y037404D01*
X034825Y035830D01*
X034825Y035636D01*
X040825Y035636D01*
X040825Y035369D02*
X034825Y035369D01*
X034825Y035290D01*
X034825Y035124D01*
X034704Y035231D02*
X034774Y035290D01*
X034825Y035290D01*
X034825Y035369D02*
X034825Y035453D01*
X034825Y035636D01*
X034704Y035512D02*
X034774Y035453D01*
X034825Y035453D01*
X034704Y035512D02*
X034601Y035512D01*
X034601Y035231D01*
X034704Y035231D01*
X034325Y035124D02*
X034325Y035006D01*
X028325Y035006D01*
X028325Y035124D01*
X034325Y035124D01*
X034325Y035369D01*
X034325Y035636D01*
X034325Y035830D01*
X034325Y037404D01*
X034325Y037594D01*
X034325Y038194D01*
X028325Y038194D01*
X028325Y037594D01*
X028325Y037404D01*
X028325Y035830D01*
X028325Y035636D01*
X034325Y035636D01*
X034325Y035369D02*
X028325Y035369D01*
X028325Y035290D01*
X028325Y035124D01*
X028325Y035006D01*
X024325Y035006D01*
X024325Y035124D01*
X028325Y035124D01*
X028325Y035369D01*
X028325Y035453D01*
X028325Y035636D01*
X028325Y035369D01*
X024325Y035369D01*
X024325Y035290D01*
X024325Y035124D01*
X024325Y035006D01*
X020325Y035006D01*
X020325Y035124D01*
X016325Y035124D01*
X016325Y035006D01*
X020325Y035006D01*
X020325Y035124D01*
X020325Y035369D01*
X020325Y035636D01*
X020325Y035830D01*
X020325Y037404D01*
X020325Y037594D01*
X020325Y038194D01*
X016325Y038194D01*
X016325Y037594D01*
X016325Y037404D01*
X016325Y035830D01*
X016325Y035636D01*
X020325Y035636D01*
X024325Y035636D01*
X028325Y035636D01*
X028325Y035830D01*
X028325Y037404D01*
X028325Y037594D01*
X034325Y037594D01*
X034825Y037594D02*
X040825Y037594D01*
X041325Y037594D02*
X041325Y037404D01*
X041325Y035830D01*
X041325Y035636D01*
X047325Y035636D01*
X047325Y035369D01*
X047325Y035124D01*
X047325Y035006D01*
X041325Y035006D01*
X041325Y035124D01*
X047325Y035124D01*
X047325Y035369D02*
X041325Y035369D01*
X041325Y035290D01*
X041325Y035124D01*
X041204Y035231D02*
X041274Y035290D01*
X041325Y035290D01*
X041325Y035369D02*
X041325Y035453D01*
X041325Y035636D01*
X041204Y035512D02*
X041274Y035453D01*
X041325Y035453D01*
X041204Y035512D02*
X041101Y035512D01*
X041101Y035231D01*
X041204Y035231D01*
X041571Y036610D02*
X041573Y036664D01*
X041579Y036719D01*
X041589Y036772D01*
X041602Y036825D01*
X041620Y036876D01*
X041641Y036927D01*
X041665Y036975D01*
X041693Y037022D01*
X041725Y037066D01*
X041759Y037108D01*
X041797Y037148D01*
X041837Y037185D01*
X041880Y037218D01*
X041925Y037249D01*
X041972Y037276D01*
X042021Y037300D01*
X042071Y037320D01*
X042123Y037337D01*
X042176Y037349D01*
X042230Y037358D01*
X042284Y037363D01*
X042339Y037364D01*
X042393Y037361D01*
X042447Y037354D01*
X042500Y037343D01*
X042553Y037329D01*
X042604Y037310D01*
X042654Y037288D01*
X042702Y037263D01*
X042748Y037234D01*
X042792Y037202D01*
X042834Y037167D01*
X042872Y037129D01*
X042908Y037088D01*
X042941Y037044D01*
X042971Y036999D01*
X042997Y036951D01*
X043020Y036902D01*
X043040Y036851D01*
X043055Y036799D01*
X043067Y036745D01*
X043075Y036692D01*
X043079Y036637D01*
X043079Y036583D01*
X043075Y036528D01*
X043067Y036475D01*
X043055Y036421D01*
X043040Y036369D01*
X043020Y036318D01*
X042997Y036269D01*
X042971Y036221D01*
X042941Y036176D01*
X042908Y036132D01*
X042872Y036091D01*
X042834Y036053D01*
X042792Y036018D01*
X042748Y035986D01*
X042702Y035957D01*
X042654Y035932D01*
X042604Y035910D01*
X042553Y035891D01*
X042500Y035877D01*
X042447Y035866D01*
X042393Y035859D01*
X042339Y035856D01*
X042284Y035857D01*
X042230Y035862D01*
X042176Y035871D01*
X042123Y035883D01*
X042071Y035900D01*
X042021Y035920D01*
X041972Y035944D01*
X041925Y035971D01*
X041880Y036002D01*
X041837Y036035D01*
X041797Y036072D01*
X041759Y036112D01*
X041725Y036154D01*
X041693Y036198D01*
X041665Y036245D01*
X041641Y036293D01*
X041620Y036344D01*
X041602Y036395D01*
X041589Y036448D01*
X041579Y036501D01*
X041573Y036556D01*
X041571Y036610D01*
X041325Y037594D02*
X041325Y038194D01*
X047325Y038194D01*
X047325Y037594D01*
X047325Y037404D01*
X047325Y035830D01*
X047325Y035636D01*
X045571Y036610D02*
X045573Y036664D01*
X045579Y036719D01*
X045589Y036772D01*
X045602Y036825D01*
X045620Y036876D01*
X045641Y036927D01*
X045665Y036975D01*
X045693Y037022D01*
X045725Y037066D01*
X045759Y037108D01*
X045797Y037148D01*
X045837Y037185D01*
X045880Y037218D01*
X045925Y037249D01*
X045972Y037276D01*
X046021Y037300D01*
X046071Y037320D01*
X046123Y037337D01*
X046176Y037349D01*
X046230Y037358D01*
X046284Y037363D01*
X046339Y037364D01*
X046393Y037361D01*
X046447Y037354D01*
X046500Y037343D01*
X046553Y037329D01*
X046604Y037310D01*
X046654Y037288D01*
X046702Y037263D01*
X046748Y037234D01*
X046792Y037202D01*
X046834Y037167D01*
X046872Y037129D01*
X046908Y037088D01*
X046941Y037044D01*
X046971Y036999D01*
X046997Y036951D01*
X047020Y036902D01*
X047040Y036851D01*
X047055Y036799D01*
X047067Y036745D01*
X047075Y036692D01*
X047079Y036637D01*
X047079Y036583D01*
X047075Y036528D01*
X047067Y036475D01*
X047055Y036421D01*
X047040Y036369D01*
X047020Y036318D01*
X046997Y036269D01*
X046971Y036221D01*
X046941Y036176D01*
X046908Y036132D01*
X046872Y036091D01*
X046834Y036053D01*
X046792Y036018D01*
X046748Y035986D01*
X046702Y035957D01*
X046654Y035932D01*
X046604Y035910D01*
X046553Y035891D01*
X046500Y035877D01*
X046447Y035866D01*
X046393Y035859D01*
X046339Y035856D01*
X046284Y035857D01*
X046230Y035862D01*
X046176Y035871D01*
X046123Y035883D01*
X046071Y035900D01*
X046021Y035920D01*
X045972Y035944D01*
X045925Y035971D01*
X045880Y036002D01*
X045837Y036035D01*
X045797Y036072D01*
X045759Y036112D01*
X045725Y036154D01*
X045693Y036198D01*
X045665Y036245D01*
X045641Y036293D01*
X045620Y036344D01*
X045602Y036395D01*
X045589Y036448D01*
X045579Y036501D01*
X045573Y036556D01*
X045571Y036610D01*
X043571Y036610D02*
X043573Y036664D01*
X043579Y036719D01*
X043589Y036772D01*
X043602Y036825D01*
X043620Y036876D01*
X043641Y036927D01*
X043665Y036975D01*
X043693Y037022D01*
X043725Y037066D01*
X043759Y037108D01*
X043797Y037148D01*
X043837Y037185D01*
X043880Y037218D01*
X043925Y037249D01*
X043972Y037276D01*
X044021Y037300D01*
X044071Y037320D01*
X044123Y037337D01*
X044176Y037349D01*
X044230Y037358D01*
X044284Y037363D01*
X044339Y037364D01*
X044393Y037361D01*
X044447Y037354D01*
X044500Y037343D01*
X044553Y037329D01*
X044604Y037310D01*
X044654Y037288D01*
X044702Y037263D01*
X044748Y037234D01*
X044792Y037202D01*
X044834Y037167D01*
X044872Y037129D01*
X044908Y037088D01*
X044941Y037044D01*
X044971Y036999D01*
X044997Y036951D01*
X045020Y036902D01*
X045040Y036851D01*
X045055Y036799D01*
X045067Y036745D01*
X045075Y036692D01*
X045079Y036637D01*
X045079Y036583D01*
X045075Y036528D01*
X045067Y036475D01*
X045055Y036421D01*
X045040Y036369D01*
X045020Y036318D01*
X044997Y036269D01*
X044971Y036221D01*
X044941Y036176D01*
X044908Y036132D01*
X044872Y036091D01*
X044834Y036053D01*
X044792Y036018D01*
X044748Y035986D01*
X044702Y035957D01*
X044654Y035932D01*
X044604Y035910D01*
X044553Y035891D01*
X044500Y035877D01*
X044447Y035866D01*
X044393Y035859D01*
X044339Y035856D01*
X044284Y035857D01*
X044230Y035862D01*
X044176Y035871D01*
X044123Y035883D01*
X044071Y035900D01*
X044021Y035920D01*
X043972Y035944D01*
X043925Y035971D01*
X043880Y036002D01*
X043837Y036035D01*
X043797Y036072D01*
X043759Y036112D01*
X043725Y036154D01*
X043693Y036198D01*
X043665Y036245D01*
X043641Y036293D01*
X043620Y036344D01*
X043602Y036395D01*
X043589Y036448D01*
X043579Y036501D01*
X043573Y036556D01*
X043571Y036610D01*
X041325Y037594D02*
X047325Y037594D01*
X047246Y032333D02*
X046964Y032333D01*
X046964Y032229D01*
X047023Y032159D01*
X047023Y032108D01*
X046857Y032108D01*
X046739Y032108D01*
X046739Y028108D01*
X046857Y028108D01*
X046857Y032108D01*
X047023Y032108D02*
X047102Y032108D01*
X047102Y028108D01*
X046857Y028108D01*
X047102Y028108D02*
X047370Y028108D01*
X047563Y028108D01*
X049137Y028108D01*
X049327Y028108D01*
X049928Y028108D01*
X049928Y032108D01*
X049327Y032108D01*
X049137Y032108D01*
X047563Y032108D01*
X047370Y032108D01*
X047370Y028108D01*
X047246Y027833D02*
X046964Y027833D01*
X046964Y027729D01*
X047023Y027659D01*
X047023Y027608D01*
X046857Y027608D01*
X046739Y027608D01*
X046739Y023608D01*
X046857Y023608D01*
X046857Y027608D01*
X047023Y027608D02*
X047102Y027608D01*
X047102Y023608D01*
X046857Y023608D01*
X047102Y023608D02*
X047370Y023608D01*
X047563Y023608D01*
X049137Y023608D01*
X049327Y023608D01*
X049928Y023608D01*
X049928Y027608D01*
X049327Y027608D01*
X049137Y027608D01*
X047563Y027608D01*
X047370Y027608D01*
X047370Y023608D01*
X047246Y023333D02*
X046964Y023333D01*
X046964Y023229D01*
X047023Y023159D01*
X047023Y023108D01*
X046857Y023108D01*
X046739Y023108D01*
X046739Y019108D01*
X046857Y019108D01*
X046857Y023108D01*
X047023Y023108D02*
X047102Y023108D01*
X047102Y019108D01*
X046857Y019108D01*
X047102Y019108D02*
X047370Y019108D01*
X047563Y019108D01*
X049137Y019108D01*
X049327Y019108D01*
X049928Y019108D01*
X049928Y023108D01*
X049327Y023108D01*
X049137Y023108D01*
X047563Y023108D01*
X047370Y023108D01*
X047370Y019108D01*
X047246Y018833D02*
X046964Y018833D01*
X046964Y018729D01*
X047023Y018659D01*
X047023Y018608D01*
X046857Y018608D01*
X046739Y018608D01*
X046739Y014608D01*
X046857Y014608D01*
X046857Y018608D01*
X047023Y018608D02*
X047102Y018608D01*
X047102Y014608D01*
X046857Y014608D01*
X047102Y014608D02*
X047370Y014608D01*
X047563Y014608D01*
X049137Y014608D01*
X049327Y014608D01*
X049928Y014608D01*
X049928Y018608D01*
X049327Y018608D01*
X049137Y018608D01*
X047563Y018608D01*
X047370Y018608D01*
X047370Y014608D01*
X047589Y015608D02*
X047591Y015662D01*
X047597Y015717D01*
X047607Y015770D01*
X047620Y015823D01*
X047638Y015874D01*
X047659Y015925D01*
X047683Y015973D01*
X047711Y016020D01*
X047743Y016064D01*
X047777Y016106D01*
X047815Y016146D01*
X047855Y016183D01*
X047898Y016216D01*
X047943Y016247D01*
X047990Y016274D01*
X048039Y016298D01*
X048089Y016318D01*
X048141Y016335D01*
X048194Y016347D01*
X048248Y016356D01*
X048302Y016361D01*
X048357Y016362D01*
X048411Y016359D01*
X048465Y016352D01*
X048518Y016341D01*
X048571Y016327D01*
X048622Y016308D01*
X048672Y016286D01*
X048720Y016261D01*
X048766Y016232D01*
X048810Y016200D01*
X048852Y016165D01*
X048890Y016127D01*
X048926Y016086D01*
X048959Y016042D01*
X048989Y015997D01*
X049015Y015949D01*
X049038Y015900D01*
X049058Y015849D01*
X049073Y015797D01*
X049085Y015743D01*
X049093Y015690D01*
X049097Y015635D01*
X049097Y015581D01*
X049093Y015526D01*
X049085Y015473D01*
X049073Y015419D01*
X049058Y015367D01*
X049038Y015316D01*
X049015Y015267D01*
X048989Y015219D01*
X048959Y015174D01*
X048926Y015130D01*
X048890Y015089D01*
X048852Y015051D01*
X048810Y015016D01*
X048766Y014984D01*
X048720Y014955D01*
X048672Y014930D01*
X048622Y014908D01*
X048571Y014889D01*
X048518Y014875D01*
X048465Y014864D01*
X048411Y014857D01*
X048357Y014854D01*
X048302Y014855D01*
X048248Y014860D01*
X048194Y014869D01*
X048141Y014881D01*
X048089Y014898D01*
X048039Y014918D01*
X047990Y014942D01*
X047943Y014969D01*
X047898Y015000D01*
X047855Y015033D01*
X047815Y015070D01*
X047777Y015110D01*
X047743Y015152D01*
X047711Y015196D01*
X047683Y015243D01*
X047659Y015291D01*
X047638Y015342D01*
X047620Y015393D01*
X047607Y015446D01*
X047597Y015499D01*
X047591Y015554D01*
X047589Y015608D01*
X047589Y017608D02*
X047591Y017662D01*
X047597Y017717D01*
X047607Y017770D01*
X047620Y017823D01*
X047638Y017874D01*
X047659Y017925D01*
X047683Y017973D01*
X047711Y018020D01*
X047743Y018064D01*
X047777Y018106D01*
X047815Y018146D01*
X047855Y018183D01*
X047898Y018216D01*
X047943Y018247D01*
X047990Y018274D01*
X048039Y018298D01*
X048089Y018318D01*
X048141Y018335D01*
X048194Y018347D01*
X048248Y018356D01*
X048302Y018361D01*
X048357Y018362D01*
X048411Y018359D01*
X048465Y018352D01*
X048518Y018341D01*
X048571Y018327D01*
X048622Y018308D01*
X048672Y018286D01*
X048720Y018261D01*
X048766Y018232D01*
X048810Y018200D01*
X048852Y018165D01*
X048890Y018127D01*
X048926Y018086D01*
X048959Y018042D01*
X048989Y017997D01*
X049015Y017949D01*
X049038Y017900D01*
X049058Y017849D01*
X049073Y017797D01*
X049085Y017743D01*
X049093Y017690D01*
X049097Y017635D01*
X049097Y017581D01*
X049093Y017526D01*
X049085Y017473D01*
X049073Y017419D01*
X049058Y017367D01*
X049038Y017316D01*
X049015Y017267D01*
X048989Y017219D01*
X048959Y017174D01*
X048926Y017130D01*
X048890Y017089D01*
X048852Y017051D01*
X048810Y017016D01*
X048766Y016984D01*
X048720Y016955D01*
X048672Y016930D01*
X048622Y016908D01*
X048571Y016889D01*
X048518Y016875D01*
X048465Y016864D01*
X048411Y016857D01*
X048357Y016854D01*
X048302Y016855D01*
X048248Y016860D01*
X048194Y016869D01*
X048141Y016881D01*
X048089Y016898D01*
X048039Y016918D01*
X047990Y016942D01*
X047943Y016969D01*
X047898Y017000D01*
X047855Y017033D01*
X047815Y017070D01*
X047777Y017110D01*
X047743Y017152D01*
X047711Y017196D01*
X047683Y017243D01*
X047659Y017291D01*
X047638Y017342D01*
X047620Y017393D01*
X047607Y017446D01*
X047597Y017499D01*
X047591Y017554D01*
X047589Y017608D01*
X047370Y018608D02*
X047186Y018608D01*
X047102Y018608D01*
X047186Y018608D02*
X047186Y018659D01*
X047246Y018729D01*
X047246Y018833D01*
X047589Y020108D02*
X047591Y020162D01*
X047597Y020217D01*
X047607Y020270D01*
X047620Y020323D01*
X047638Y020374D01*
X047659Y020425D01*
X047683Y020473D01*
X047711Y020520D01*
X047743Y020564D01*
X047777Y020606D01*
X047815Y020646D01*
X047855Y020683D01*
X047898Y020716D01*
X047943Y020747D01*
X047990Y020774D01*
X048039Y020798D01*
X048089Y020818D01*
X048141Y020835D01*
X048194Y020847D01*
X048248Y020856D01*
X048302Y020861D01*
X048357Y020862D01*
X048411Y020859D01*
X048465Y020852D01*
X048518Y020841D01*
X048571Y020827D01*
X048622Y020808D01*
X048672Y020786D01*
X048720Y020761D01*
X048766Y020732D01*
X048810Y020700D01*
X048852Y020665D01*
X048890Y020627D01*
X048926Y020586D01*
X048959Y020542D01*
X048989Y020497D01*
X049015Y020449D01*
X049038Y020400D01*
X049058Y020349D01*
X049073Y020297D01*
X049085Y020243D01*
X049093Y020190D01*
X049097Y020135D01*
X049097Y020081D01*
X049093Y020026D01*
X049085Y019973D01*
X049073Y019919D01*
X049058Y019867D01*
X049038Y019816D01*
X049015Y019767D01*
X048989Y019719D01*
X048959Y019674D01*
X048926Y019630D01*
X048890Y019589D01*
X048852Y019551D01*
X048810Y019516D01*
X048766Y019484D01*
X048720Y019455D01*
X048672Y019430D01*
X048622Y019408D01*
X048571Y019389D01*
X048518Y019375D01*
X048465Y019364D01*
X048411Y019357D01*
X048357Y019354D01*
X048302Y019355D01*
X048248Y019360D01*
X048194Y019369D01*
X048141Y019381D01*
X048089Y019398D01*
X048039Y019418D01*
X047990Y019442D01*
X047943Y019469D01*
X047898Y019500D01*
X047855Y019533D01*
X047815Y019570D01*
X047777Y019610D01*
X047743Y019652D01*
X047711Y019696D01*
X047683Y019743D01*
X047659Y019791D01*
X047638Y019842D01*
X047620Y019893D01*
X047607Y019946D01*
X047597Y019999D01*
X047591Y020054D01*
X047589Y020108D01*
X047589Y022108D02*
X047591Y022162D01*
X047597Y022217D01*
X047607Y022270D01*
X047620Y022323D01*
X047638Y022374D01*
X047659Y022425D01*
X047683Y022473D01*
X047711Y022520D01*
X047743Y022564D01*
X047777Y022606D01*
X047815Y022646D01*
X047855Y022683D01*
X047898Y022716D01*
X047943Y022747D01*
X047990Y022774D01*
X048039Y022798D01*
X048089Y022818D01*
X048141Y022835D01*
X048194Y022847D01*
X048248Y022856D01*
X048302Y022861D01*
X048357Y022862D01*
X048411Y022859D01*
X048465Y022852D01*
X048518Y022841D01*
X048571Y022827D01*
X048622Y022808D01*
X048672Y022786D01*
X048720Y022761D01*
X048766Y022732D01*
X048810Y022700D01*
X048852Y022665D01*
X048890Y022627D01*
X048926Y022586D01*
X048959Y022542D01*
X048989Y022497D01*
X049015Y022449D01*
X049038Y022400D01*
X049058Y022349D01*
X049073Y022297D01*
X049085Y022243D01*
X049093Y022190D01*
X049097Y022135D01*
X049097Y022081D01*
X049093Y022026D01*
X049085Y021973D01*
X049073Y021919D01*
X049058Y021867D01*
X049038Y021816D01*
X049015Y021767D01*
X048989Y021719D01*
X048959Y021674D01*
X048926Y021630D01*
X048890Y021589D01*
X048852Y021551D01*
X048810Y021516D01*
X048766Y021484D01*
X048720Y021455D01*
X048672Y021430D01*
X048622Y021408D01*
X048571Y021389D01*
X048518Y021375D01*
X048465Y021364D01*
X048411Y021357D01*
X048357Y021354D01*
X048302Y021355D01*
X048248Y021360D01*
X048194Y021369D01*
X048141Y021381D01*
X048089Y021398D01*
X048039Y021418D01*
X047990Y021442D01*
X047943Y021469D01*
X047898Y021500D01*
X047855Y021533D01*
X047815Y021570D01*
X047777Y021610D01*
X047743Y021652D01*
X047711Y021696D01*
X047683Y021743D01*
X047659Y021791D01*
X047638Y021842D01*
X047620Y021893D01*
X047607Y021946D01*
X047597Y021999D01*
X047591Y022054D01*
X047589Y022108D01*
X047370Y023108D02*
X047186Y023108D01*
X047102Y023108D01*
X047186Y023108D02*
X047186Y023159D01*
X047246Y023229D01*
X047246Y023333D01*
X047589Y024608D02*
X047591Y024662D01*
X047597Y024717D01*
X047607Y024770D01*
X047620Y024823D01*
X047638Y024874D01*
X047659Y024925D01*
X047683Y024973D01*
X047711Y025020D01*
X047743Y025064D01*
X047777Y025106D01*
X047815Y025146D01*
X047855Y025183D01*
X047898Y025216D01*
X047943Y025247D01*
X047990Y025274D01*
X048039Y025298D01*
X048089Y025318D01*
X048141Y025335D01*
X048194Y025347D01*
X048248Y025356D01*
X048302Y025361D01*
X048357Y025362D01*
X048411Y025359D01*
X048465Y025352D01*
X048518Y025341D01*
X048571Y025327D01*
X048622Y025308D01*
X048672Y025286D01*
X048720Y025261D01*
X048766Y025232D01*
X048810Y025200D01*
X048852Y025165D01*
X048890Y025127D01*
X048926Y025086D01*
X048959Y025042D01*
X048989Y024997D01*
X049015Y024949D01*
X049038Y024900D01*
X049058Y024849D01*
X049073Y024797D01*
X049085Y024743D01*
X049093Y024690D01*
X049097Y024635D01*
X049097Y024581D01*
X049093Y024526D01*
X049085Y024473D01*
X049073Y024419D01*
X049058Y024367D01*
X049038Y024316D01*
X049015Y024267D01*
X048989Y024219D01*
X048959Y024174D01*
X048926Y024130D01*
X048890Y024089D01*
X048852Y024051D01*
X048810Y024016D01*
X048766Y023984D01*
X048720Y023955D01*
X048672Y023930D01*
X048622Y023908D01*
X048571Y023889D01*
X048518Y023875D01*
X048465Y023864D01*
X048411Y023857D01*
X048357Y023854D01*
X048302Y023855D01*
X048248Y023860D01*
X048194Y023869D01*
X048141Y023881D01*
X048089Y023898D01*
X048039Y023918D01*
X047990Y023942D01*
X047943Y023969D01*
X047898Y024000D01*
X047855Y024033D01*
X047815Y024070D01*
X047777Y024110D01*
X047743Y024152D01*
X047711Y024196D01*
X047683Y024243D01*
X047659Y024291D01*
X047638Y024342D01*
X047620Y024393D01*
X047607Y024446D01*
X047597Y024499D01*
X047591Y024554D01*
X047589Y024608D01*
X047589Y026608D02*
X047591Y026662D01*
X047597Y026717D01*
X047607Y026770D01*
X047620Y026823D01*
X047638Y026874D01*
X047659Y026925D01*
X047683Y026973D01*
X047711Y027020D01*
X047743Y027064D01*
X047777Y027106D01*
X047815Y027146D01*
X047855Y027183D01*
X047898Y027216D01*
X047943Y027247D01*
X047990Y027274D01*
X048039Y027298D01*
X048089Y027318D01*
X048141Y027335D01*
X048194Y027347D01*
X048248Y027356D01*
X048302Y027361D01*
X048357Y027362D01*
X048411Y027359D01*
X048465Y027352D01*
X048518Y027341D01*
X048571Y027327D01*
X048622Y027308D01*
X048672Y027286D01*
X048720Y027261D01*
X048766Y027232D01*
X048810Y027200D01*
X048852Y027165D01*
X048890Y027127D01*
X048926Y027086D01*
X048959Y027042D01*
X048989Y026997D01*
X049015Y026949D01*
X049038Y026900D01*
X049058Y026849D01*
X049073Y026797D01*
X049085Y026743D01*
X049093Y026690D01*
X049097Y026635D01*
X049097Y026581D01*
X049093Y026526D01*
X049085Y026473D01*
X049073Y026419D01*
X049058Y026367D01*
X049038Y026316D01*
X049015Y026267D01*
X048989Y026219D01*
X048959Y026174D01*
X048926Y026130D01*
X048890Y026089D01*
X048852Y026051D01*
X048810Y026016D01*
X048766Y025984D01*
X048720Y025955D01*
X048672Y025930D01*
X048622Y025908D01*
X048571Y025889D01*
X048518Y025875D01*
X048465Y025864D01*
X048411Y025857D01*
X048357Y025854D01*
X048302Y025855D01*
X048248Y025860D01*
X048194Y025869D01*
X048141Y025881D01*
X048089Y025898D01*
X048039Y025918D01*
X047990Y025942D01*
X047943Y025969D01*
X047898Y026000D01*
X047855Y026033D01*
X047815Y026070D01*
X047777Y026110D01*
X047743Y026152D01*
X047711Y026196D01*
X047683Y026243D01*
X047659Y026291D01*
X047638Y026342D01*
X047620Y026393D01*
X047607Y026446D01*
X047597Y026499D01*
X047591Y026554D01*
X047589Y026608D01*
X047370Y027608D02*
X047186Y027608D01*
X047102Y027608D01*
X047186Y027608D02*
X047186Y027659D01*
X047246Y027729D01*
X047246Y027833D01*
X047589Y029108D02*
X047591Y029162D01*
X047597Y029217D01*
X047607Y029270D01*
X047620Y029323D01*
X047638Y029374D01*
X047659Y029425D01*
X047683Y029473D01*
X047711Y029520D01*
X047743Y029564D01*
X047777Y029606D01*
X047815Y029646D01*
X047855Y029683D01*
X047898Y029716D01*
X047943Y029747D01*
X047990Y029774D01*
X048039Y029798D01*
X048089Y029818D01*
X048141Y029835D01*
X048194Y029847D01*
X048248Y029856D01*
X048302Y029861D01*
X048357Y029862D01*
X048411Y029859D01*
X048465Y029852D01*
X048518Y029841D01*
X048571Y029827D01*
X048622Y029808D01*
X048672Y029786D01*
X048720Y029761D01*
X048766Y029732D01*
X048810Y029700D01*
X048852Y029665D01*
X048890Y029627D01*
X048926Y029586D01*
X048959Y029542D01*
X048989Y029497D01*
X049015Y029449D01*
X049038Y029400D01*
X049058Y029349D01*
X049073Y029297D01*
X049085Y029243D01*
X049093Y029190D01*
X049097Y029135D01*
X049097Y029081D01*
X049093Y029026D01*
X049085Y028973D01*
X049073Y028919D01*
X049058Y028867D01*
X049038Y028816D01*
X049015Y028767D01*
X048989Y028719D01*
X048959Y028674D01*
X048926Y028630D01*
X048890Y028589D01*
X048852Y028551D01*
X048810Y028516D01*
X048766Y028484D01*
X048720Y028455D01*
X048672Y028430D01*
X048622Y028408D01*
X048571Y028389D01*
X048518Y028375D01*
X048465Y028364D01*
X048411Y028357D01*
X048357Y028354D01*
X048302Y028355D01*
X048248Y028360D01*
X048194Y028369D01*
X048141Y028381D01*
X048089Y028398D01*
X048039Y028418D01*
X047990Y028442D01*
X047943Y028469D01*
X047898Y028500D01*
X047855Y028533D01*
X047815Y028570D01*
X047777Y028610D01*
X047743Y028652D01*
X047711Y028696D01*
X047683Y028743D01*
X047659Y028791D01*
X047638Y028842D01*
X047620Y028893D01*
X047607Y028946D01*
X047597Y028999D01*
X047591Y029054D01*
X047589Y029108D01*
X047589Y031108D02*
X047591Y031162D01*
X047597Y031217D01*
X047607Y031270D01*
X047620Y031323D01*
X047638Y031374D01*
X047659Y031425D01*
X047683Y031473D01*
X047711Y031520D01*
X047743Y031564D01*
X047777Y031606D01*
X047815Y031646D01*
X047855Y031683D01*
X047898Y031716D01*
X047943Y031747D01*
X047990Y031774D01*
X048039Y031798D01*
X048089Y031818D01*
X048141Y031835D01*
X048194Y031847D01*
X048248Y031856D01*
X048302Y031861D01*
X048357Y031862D01*
X048411Y031859D01*
X048465Y031852D01*
X048518Y031841D01*
X048571Y031827D01*
X048622Y031808D01*
X048672Y031786D01*
X048720Y031761D01*
X048766Y031732D01*
X048810Y031700D01*
X048852Y031665D01*
X048890Y031627D01*
X048926Y031586D01*
X048959Y031542D01*
X048989Y031497D01*
X049015Y031449D01*
X049038Y031400D01*
X049058Y031349D01*
X049073Y031297D01*
X049085Y031243D01*
X049093Y031190D01*
X049097Y031135D01*
X049097Y031081D01*
X049093Y031026D01*
X049085Y030973D01*
X049073Y030919D01*
X049058Y030867D01*
X049038Y030816D01*
X049015Y030767D01*
X048989Y030719D01*
X048959Y030674D01*
X048926Y030630D01*
X048890Y030589D01*
X048852Y030551D01*
X048810Y030516D01*
X048766Y030484D01*
X048720Y030455D01*
X048672Y030430D01*
X048622Y030408D01*
X048571Y030389D01*
X048518Y030375D01*
X048465Y030364D01*
X048411Y030357D01*
X048357Y030354D01*
X048302Y030355D01*
X048248Y030360D01*
X048194Y030369D01*
X048141Y030381D01*
X048089Y030398D01*
X048039Y030418D01*
X047990Y030442D01*
X047943Y030469D01*
X047898Y030500D01*
X047855Y030533D01*
X047815Y030570D01*
X047777Y030610D01*
X047743Y030652D01*
X047711Y030696D01*
X047683Y030743D01*
X047659Y030791D01*
X047638Y030842D01*
X047620Y030893D01*
X047607Y030946D01*
X047597Y030999D01*
X047591Y031054D01*
X047589Y031108D01*
X047370Y032108D02*
X047186Y032108D01*
X047102Y032108D01*
X047186Y032108D02*
X047186Y032159D01*
X047246Y032229D01*
X047246Y032333D01*
X049327Y032108D02*
X049327Y028108D01*
X049327Y027608D02*
X049327Y023608D01*
X049327Y023108D02*
X049327Y019108D01*
X049327Y018608D02*
X049327Y014608D01*
X036566Y004969D02*
X036566Y004688D01*
X036463Y004688D01*
X036392Y004747D01*
X036342Y004747D01*
X036342Y004564D01*
X032342Y004564D01*
X032342Y004831D01*
X032342Y005076D01*
X032342Y005194D01*
X036342Y005194D01*
X036342Y005076D01*
X032342Y005076D01*
X032342Y004831D02*
X036342Y004831D01*
X036342Y004910D01*
X036342Y005076D01*
X036463Y004969D02*
X036392Y004910D01*
X036342Y004910D01*
X036342Y004831D02*
X036342Y004747D01*
X036342Y004564D02*
X036342Y004370D01*
X036342Y002796D01*
X036342Y002606D01*
X036342Y002006D01*
X032342Y002006D01*
X032342Y002606D01*
X032342Y002796D01*
X032342Y004370D01*
X032342Y004564D01*
X032066Y004688D02*
X032066Y004969D01*
X031963Y004969D01*
X031892Y004910D01*
X031842Y004910D01*
X031842Y005076D01*
X031842Y005194D01*
X027842Y005194D01*
X027842Y005076D01*
X031842Y005076D01*
X031842Y004910D02*
X031842Y004831D01*
X027842Y004831D01*
X027842Y005076D01*
X027842Y004831D02*
X027842Y004564D01*
X027842Y004370D01*
X027842Y002796D01*
X027842Y002606D01*
X027842Y002006D01*
X031842Y002006D01*
X031842Y002606D01*
X031842Y002796D01*
X031842Y004370D01*
X031842Y004564D01*
X027842Y004564D01*
X028088Y003590D02*
X028090Y003644D01*
X028096Y003699D01*
X028106Y003752D01*
X028119Y003805D01*
X028137Y003856D01*
X028158Y003907D01*
X028182Y003955D01*
X028210Y004002D01*
X028242Y004046D01*
X028276Y004088D01*
X028314Y004128D01*
X028354Y004165D01*
X028397Y004198D01*
X028442Y004229D01*
X028489Y004256D01*
X028538Y004280D01*
X028588Y004300D01*
X028640Y004317D01*
X028693Y004329D01*
X028747Y004338D01*
X028801Y004343D01*
X028856Y004344D01*
X028910Y004341D01*
X028964Y004334D01*
X029017Y004323D01*
X029070Y004309D01*
X029121Y004290D01*
X029171Y004268D01*
X029219Y004243D01*
X029265Y004214D01*
X029309Y004182D01*
X029351Y004147D01*
X029389Y004109D01*
X029425Y004068D01*
X029458Y004024D01*
X029488Y003979D01*
X029514Y003931D01*
X029537Y003882D01*
X029557Y003831D01*
X029572Y003779D01*
X029584Y003725D01*
X029592Y003672D01*
X029596Y003617D01*
X029596Y003563D01*
X029592Y003508D01*
X029584Y003455D01*
X029572Y003401D01*
X029557Y003349D01*
X029537Y003298D01*
X029514Y003249D01*
X029488Y003201D01*
X029458Y003156D01*
X029425Y003112D01*
X029389Y003071D01*
X029351Y003033D01*
X029309Y002998D01*
X029265Y002966D01*
X029219Y002937D01*
X029171Y002912D01*
X029121Y002890D01*
X029070Y002871D01*
X029017Y002857D01*
X028964Y002846D01*
X028910Y002839D01*
X028856Y002836D01*
X028801Y002837D01*
X028747Y002842D01*
X028693Y002851D01*
X028640Y002863D01*
X028588Y002880D01*
X028538Y002900D01*
X028489Y002924D01*
X028442Y002951D01*
X028397Y002982D01*
X028354Y003015D01*
X028314Y003052D01*
X028276Y003092D01*
X028242Y003134D01*
X028210Y003178D01*
X028182Y003225D01*
X028158Y003273D01*
X028137Y003324D01*
X028119Y003375D01*
X028106Y003428D01*
X028096Y003481D01*
X028090Y003536D01*
X028088Y003590D01*
X027842Y002606D02*
X031842Y002606D01*
X032342Y002606D02*
X036342Y002606D01*
X034588Y003590D02*
X034590Y003644D01*
X034596Y003699D01*
X034606Y003752D01*
X034619Y003805D01*
X034637Y003856D01*
X034658Y003907D01*
X034682Y003955D01*
X034710Y004002D01*
X034742Y004046D01*
X034776Y004088D01*
X034814Y004128D01*
X034854Y004165D01*
X034897Y004198D01*
X034942Y004229D01*
X034989Y004256D01*
X035038Y004280D01*
X035088Y004300D01*
X035140Y004317D01*
X035193Y004329D01*
X035247Y004338D01*
X035301Y004343D01*
X035356Y004344D01*
X035410Y004341D01*
X035464Y004334D01*
X035517Y004323D01*
X035570Y004309D01*
X035621Y004290D01*
X035671Y004268D01*
X035719Y004243D01*
X035765Y004214D01*
X035809Y004182D01*
X035851Y004147D01*
X035889Y004109D01*
X035925Y004068D01*
X035958Y004024D01*
X035988Y003979D01*
X036014Y003931D01*
X036037Y003882D01*
X036057Y003831D01*
X036072Y003779D01*
X036084Y003725D01*
X036092Y003672D01*
X036096Y003617D01*
X036096Y003563D01*
X036092Y003508D01*
X036084Y003455D01*
X036072Y003401D01*
X036057Y003349D01*
X036037Y003298D01*
X036014Y003249D01*
X035988Y003201D01*
X035958Y003156D01*
X035925Y003112D01*
X035889Y003071D01*
X035851Y003033D01*
X035809Y002998D01*
X035765Y002966D01*
X035719Y002937D01*
X035671Y002912D01*
X035621Y002890D01*
X035570Y002871D01*
X035517Y002857D01*
X035464Y002846D01*
X035410Y002839D01*
X035356Y002836D01*
X035301Y002837D01*
X035247Y002842D01*
X035193Y002851D01*
X035140Y002863D01*
X035088Y002880D01*
X035038Y002900D01*
X034989Y002924D01*
X034942Y002951D01*
X034897Y002982D01*
X034854Y003015D01*
X034814Y003052D01*
X034776Y003092D01*
X034742Y003134D01*
X034710Y003178D01*
X034682Y003225D01*
X034658Y003273D01*
X034637Y003324D01*
X034619Y003375D01*
X034606Y003428D01*
X034596Y003481D01*
X034590Y003536D01*
X034588Y003590D01*
X032588Y003590D02*
X032590Y003644D01*
X032596Y003699D01*
X032606Y003752D01*
X032619Y003805D01*
X032637Y003856D01*
X032658Y003907D01*
X032682Y003955D01*
X032710Y004002D01*
X032742Y004046D01*
X032776Y004088D01*
X032814Y004128D01*
X032854Y004165D01*
X032897Y004198D01*
X032942Y004229D01*
X032989Y004256D01*
X033038Y004280D01*
X033088Y004300D01*
X033140Y004317D01*
X033193Y004329D01*
X033247Y004338D01*
X033301Y004343D01*
X033356Y004344D01*
X033410Y004341D01*
X033464Y004334D01*
X033517Y004323D01*
X033570Y004309D01*
X033621Y004290D01*
X033671Y004268D01*
X033719Y004243D01*
X033765Y004214D01*
X033809Y004182D01*
X033851Y004147D01*
X033889Y004109D01*
X033925Y004068D01*
X033958Y004024D01*
X033988Y003979D01*
X034014Y003931D01*
X034037Y003882D01*
X034057Y003831D01*
X034072Y003779D01*
X034084Y003725D01*
X034092Y003672D01*
X034096Y003617D01*
X034096Y003563D01*
X034092Y003508D01*
X034084Y003455D01*
X034072Y003401D01*
X034057Y003349D01*
X034037Y003298D01*
X034014Y003249D01*
X033988Y003201D01*
X033958Y003156D01*
X033925Y003112D01*
X033889Y003071D01*
X033851Y003033D01*
X033809Y002998D01*
X033765Y002966D01*
X033719Y002937D01*
X033671Y002912D01*
X033621Y002890D01*
X033570Y002871D01*
X033517Y002857D01*
X033464Y002846D01*
X033410Y002839D01*
X033356Y002836D01*
X033301Y002837D01*
X033247Y002842D01*
X033193Y002851D01*
X033140Y002863D01*
X033088Y002880D01*
X033038Y002900D01*
X032989Y002924D01*
X032942Y002951D01*
X032897Y002982D01*
X032854Y003015D01*
X032814Y003052D01*
X032776Y003092D01*
X032742Y003134D01*
X032710Y003178D01*
X032682Y003225D01*
X032658Y003273D01*
X032637Y003324D01*
X032619Y003375D01*
X032606Y003428D01*
X032596Y003481D01*
X032590Y003536D01*
X032588Y003590D01*
X032066Y004688D02*
X031963Y004688D01*
X031892Y004747D01*
X031842Y004747D01*
X031842Y004564D01*
X031842Y004747D02*
X031842Y004831D01*
X030088Y003590D02*
X030090Y003644D01*
X030096Y003699D01*
X030106Y003752D01*
X030119Y003805D01*
X030137Y003856D01*
X030158Y003907D01*
X030182Y003955D01*
X030210Y004002D01*
X030242Y004046D01*
X030276Y004088D01*
X030314Y004128D01*
X030354Y004165D01*
X030397Y004198D01*
X030442Y004229D01*
X030489Y004256D01*
X030538Y004280D01*
X030588Y004300D01*
X030640Y004317D01*
X030693Y004329D01*
X030747Y004338D01*
X030801Y004343D01*
X030856Y004344D01*
X030910Y004341D01*
X030964Y004334D01*
X031017Y004323D01*
X031070Y004309D01*
X031121Y004290D01*
X031171Y004268D01*
X031219Y004243D01*
X031265Y004214D01*
X031309Y004182D01*
X031351Y004147D01*
X031389Y004109D01*
X031425Y004068D01*
X031458Y004024D01*
X031488Y003979D01*
X031514Y003931D01*
X031537Y003882D01*
X031557Y003831D01*
X031572Y003779D01*
X031584Y003725D01*
X031592Y003672D01*
X031596Y003617D01*
X031596Y003563D01*
X031592Y003508D01*
X031584Y003455D01*
X031572Y003401D01*
X031557Y003349D01*
X031537Y003298D01*
X031514Y003249D01*
X031488Y003201D01*
X031458Y003156D01*
X031425Y003112D01*
X031389Y003071D01*
X031351Y003033D01*
X031309Y002998D01*
X031265Y002966D01*
X031219Y002937D01*
X031171Y002912D01*
X031121Y002890D01*
X031070Y002871D01*
X031017Y002857D01*
X030964Y002846D01*
X030910Y002839D01*
X030856Y002836D01*
X030801Y002837D01*
X030747Y002842D01*
X030693Y002851D01*
X030640Y002863D01*
X030588Y002880D01*
X030538Y002900D01*
X030489Y002924D01*
X030442Y002951D01*
X030397Y002982D01*
X030354Y003015D01*
X030314Y003052D01*
X030276Y003092D01*
X030242Y003134D01*
X030210Y003178D01*
X030182Y003225D01*
X030158Y003273D01*
X030137Y003324D01*
X030119Y003375D01*
X030106Y003428D01*
X030096Y003481D01*
X030090Y003536D01*
X030088Y003590D01*
X036463Y004969D02*
X036566Y004969D01*
X028204Y035231D02*
X028274Y035290D01*
X028325Y035290D01*
X028204Y035231D02*
X028101Y035231D01*
X028101Y035512D01*
X028204Y035512D01*
X028274Y035453D01*
X028325Y035453D01*
X026571Y036610D02*
X026573Y036664D01*
X026579Y036719D01*
X026589Y036772D01*
X026602Y036825D01*
X026620Y036876D01*
X026641Y036927D01*
X026665Y036975D01*
X026693Y037022D01*
X026725Y037066D01*
X026759Y037108D01*
X026797Y037148D01*
X026837Y037185D01*
X026880Y037218D01*
X026925Y037249D01*
X026972Y037276D01*
X027021Y037300D01*
X027071Y037320D01*
X027123Y037337D01*
X027176Y037349D01*
X027230Y037358D01*
X027284Y037363D01*
X027339Y037364D01*
X027393Y037361D01*
X027447Y037354D01*
X027500Y037343D01*
X027553Y037329D01*
X027604Y037310D01*
X027654Y037288D01*
X027702Y037263D01*
X027748Y037234D01*
X027792Y037202D01*
X027834Y037167D01*
X027872Y037129D01*
X027908Y037088D01*
X027941Y037044D01*
X027971Y036999D01*
X027997Y036951D01*
X028020Y036902D01*
X028040Y036851D01*
X028055Y036799D01*
X028067Y036745D01*
X028075Y036692D01*
X028079Y036637D01*
X028079Y036583D01*
X028075Y036528D01*
X028067Y036475D01*
X028055Y036421D01*
X028040Y036369D01*
X028020Y036318D01*
X027997Y036269D01*
X027971Y036221D01*
X027941Y036176D01*
X027908Y036132D01*
X027872Y036091D01*
X027834Y036053D01*
X027792Y036018D01*
X027748Y035986D01*
X027702Y035957D01*
X027654Y035932D01*
X027604Y035910D01*
X027553Y035891D01*
X027500Y035877D01*
X027447Y035866D01*
X027393Y035859D01*
X027339Y035856D01*
X027284Y035857D01*
X027230Y035862D01*
X027176Y035871D01*
X027123Y035883D01*
X027071Y035900D01*
X027021Y035920D01*
X026972Y035944D01*
X026925Y035971D01*
X026880Y036002D01*
X026837Y036035D01*
X026797Y036072D01*
X026759Y036112D01*
X026725Y036154D01*
X026693Y036198D01*
X026665Y036245D01*
X026641Y036293D01*
X026620Y036344D01*
X026602Y036395D01*
X026589Y036448D01*
X026579Y036501D01*
X026573Y036556D01*
X026571Y036610D01*
X024571Y036610D02*
X024573Y036664D01*
X024579Y036719D01*
X024589Y036772D01*
X024602Y036825D01*
X024620Y036876D01*
X024641Y036927D01*
X024665Y036975D01*
X024693Y037022D01*
X024725Y037066D01*
X024759Y037108D01*
X024797Y037148D01*
X024837Y037185D01*
X024880Y037218D01*
X024925Y037249D01*
X024972Y037276D01*
X025021Y037300D01*
X025071Y037320D01*
X025123Y037337D01*
X025176Y037349D01*
X025230Y037358D01*
X025284Y037363D01*
X025339Y037364D01*
X025393Y037361D01*
X025447Y037354D01*
X025500Y037343D01*
X025553Y037329D01*
X025604Y037310D01*
X025654Y037288D01*
X025702Y037263D01*
X025748Y037234D01*
X025792Y037202D01*
X025834Y037167D01*
X025872Y037129D01*
X025908Y037088D01*
X025941Y037044D01*
X025971Y036999D01*
X025997Y036951D01*
X026020Y036902D01*
X026040Y036851D01*
X026055Y036799D01*
X026067Y036745D01*
X026075Y036692D01*
X026079Y036637D01*
X026079Y036583D01*
X026075Y036528D01*
X026067Y036475D01*
X026055Y036421D01*
X026040Y036369D01*
X026020Y036318D01*
X025997Y036269D01*
X025971Y036221D01*
X025941Y036176D01*
X025908Y036132D01*
X025872Y036091D01*
X025834Y036053D01*
X025792Y036018D01*
X025748Y035986D01*
X025702Y035957D01*
X025654Y035932D01*
X025604Y035910D01*
X025553Y035891D01*
X025500Y035877D01*
X025447Y035866D01*
X025393Y035859D01*
X025339Y035856D01*
X025284Y035857D01*
X025230Y035862D01*
X025176Y035871D01*
X025123Y035883D01*
X025071Y035900D01*
X025021Y035920D01*
X024972Y035944D01*
X024925Y035971D01*
X024880Y036002D01*
X024837Y036035D01*
X024797Y036072D01*
X024759Y036112D01*
X024725Y036154D01*
X024693Y036198D01*
X024665Y036245D01*
X024641Y036293D01*
X024620Y036344D01*
X024602Y036395D01*
X024589Y036448D01*
X024579Y036501D01*
X024573Y036556D01*
X024571Y036610D01*
X024325Y035830D02*
X024325Y037404D01*
X024325Y037594D01*
X024325Y038194D01*
X028325Y038194D01*
X028325Y037594D01*
X024325Y037594D01*
X024325Y038194D01*
X020325Y038194D01*
X020325Y037594D01*
X016325Y037594D01*
X016571Y036610D02*
X016573Y036664D01*
X016579Y036719D01*
X016589Y036772D01*
X016602Y036825D01*
X016620Y036876D01*
X016641Y036927D01*
X016665Y036975D01*
X016693Y037022D01*
X016725Y037066D01*
X016759Y037108D01*
X016797Y037148D01*
X016837Y037185D01*
X016880Y037218D01*
X016925Y037249D01*
X016972Y037276D01*
X017021Y037300D01*
X017071Y037320D01*
X017123Y037337D01*
X017176Y037349D01*
X017230Y037358D01*
X017284Y037363D01*
X017339Y037364D01*
X017393Y037361D01*
X017447Y037354D01*
X017500Y037343D01*
X017553Y037329D01*
X017604Y037310D01*
X017654Y037288D01*
X017702Y037263D01*
X017748Y037234D01*
X017792Y037202D01*
X017834Y037167D01*
X017872Y037129D01*
X017908Y037088D01*
X017941Y037044D01*
X017971Y036999D01*
X017997Y036951D01*
X018020Y036902D01*
X018040Y036851D01*
X018055Y036799D01*
X018067Y036745D01*
X018075Y036692D01*
X018079Y036637D01*
X018079Y036583D01*
X018075Y036528D01*
X018067Y036475D01*
X018055Y036421D01*
X018040Y036369D01*
X018020Y036318D01*
X017997Y036269D01*
X017971Y036221D01*
X017941Y036176D01*
X017908Y036132D01*
X017872Y036091D01*
X017834Y036053D01*
X017792Y036018D01*
X017748Y035986D01*
X017702Y035957D01*
X017654Y035932D01*
X017604Y035910D01*
X017553Y035891D01*
X017500Y035877D01*
X017447Y035866D01*
X017393Y035859D01*
X017339Y035856D01*
X017284Y035857D01*
X017230Y035862D01*
X017176Y035871D01*
X017123Y035883D01*
X017071Y035900D01*
X017021Y035920D01*
X016972Y035944D01*
X016925Y035971D01*
X016880Y036002D01*
X016837Y036035D01*
X016797Y036072D01*
X016759Y036112D01*
X016725Y036154D01*
X016693Y036198D01*
X016665Y036245D01*
X016641Y036293D01*
X016620Y036344D01*
X016602Y036395D01*
X016589Y036448D01*
X016579Y036501D01*
X016573Y036556D01*
X016571Y036610D01*
X016325Y035636D02*
X016325Y035453D01*
X016325Y035369D01*
X020325Y035369D01*
X024325Y035369D01*
X024325Y035453D01*
X024325Y035636D01*
X024325Y035830D01*
X024325Y037404D01*
X024325Y037594D01*
X020325Y037594D01*
X020325Y037404D01*
X020325Y035830D01*
X020325Y035636D01*
X020325Y035453D01*
X020325Y035369D01*
X020325Y035290D01*
X020325Y035124D01*
X024325Y035124D01*
X024325Y035369D01*
X024325Y035636D01*
X024325Y035830D01*
X024204Y035512D02*
X024101Y035512D01*
X024101Y035231D01*
X024204Y035231D01*
X024274Y035290D01*
X024325Y035290D01*
X024325Y035453D02*
X024274Y035453D01*
X024204Y035512D01*
X022571Y036610D02*
X022573Y036664D01*
X022579Y036719D01*
X022589Y036772D01*
X022602Y036825D01*
X022620Y036876D01*
X022641Y036927D01*
X022665Y036975D01*
X022693Y037022D01*
X022725Y037066D01*
X022759Y037108D01*
X022797Y037148D01*
X022837Y037185D01*
X022880Y037218D01*
X022925Y037249D01*
X022972Y037276D01*
X023021Y037300D01*
X023071Y037320D01*
X023123Y037337D01*
X023176Y037349D01*
X023230Y037358D01*
X023284Y037363D01*
X023339Y037364D01*
X023393Y037361D01*
X023447Y037354D01*
X023500Y037343D01*
X023553Y037329D01*
X023604Y037310D01*
X023654Y037288D01*
X023702Y037263D01*
X023748Y037234D01*
X023792Y037202D01*
X023834Y037167D01*
X023872Y037129D01*
X023908Y037088D01*
X023941Y037044D01*
X023971Y036999D01*
X023997Y036951D01*
X024020Y036902D01*
X024040Y036851D01*
X024055Y036799D01*
X024067Y036745D01*
X024075Y036692D01*
X024079Y036637D01*
X024079Y036583D01*
X024075Y036528D01*
X024067Y036475D01*
X024055Y036421D01*
X024040Y036369D01*
X024020Y036318D01*
X023997Y036269D01*
X023971Y036221D01*
X023941Y036176D01*
X023908Y036132D01*
X023872Y036091D01*
X023834Y036053D01*
X023792Y036018D01*
X023748Y035986D01*
X023702Y035957D01*
X023654Y035932D01*
X023604Y035910D01*
X023553Y035891D01*
X023500Y035877D01*
X023447Y035866D01*
X023393Y035859D01*
X023339Y035856D01*
X023284Y035857D01*
X023230Y035862D01*
X023176Y035871D01*
X023123Y035883D01*
X023071Y035900D01*
X023021Y035920D01*
X022972Y035944D01*
X022925Y035971D01*
X022880Y036002D01*
X022837Y036035D01*
X022797Y036072D01*
X022759Y036112D01*
X022725Y036154D01*
X022693Y036198D01*
X022665Y036245D01*
X022641Y036293D01*
X022620Y036344D01*
X022602Y036395D01*
X022589Y036448D01*
X022579Y036501D01*
X022573Y036556D01*
X022571Y036610D01*
X020571Y036610D02*
X020573Y036664D01*
X020579Y036719D01*
X020589Y036772D01*
X020602Y036825D01*
X020620Y036876D01*
X020641Y036927D01*
X020665Y036975D01*
X020693Y037022D01*
X020725Y037066D01*
X020759Y037108D01*
X020797Y037148D01*
X020837Y037185D01*
X020880Y037218D01*
X020925Y037249D01*
X020972Y037276D01*
X021021Y037300D01*
X021071Y037320D01*
X021123Y037337D01*
X021176Y037349D01*
X021230Y037358D01*
X021284Y037363D01*
X021339Y037364D01*
X021393Y037361D01*
X021447Y037354D01*
X021500Y037343D01*
X021553Y037329D01*
X021604Y037310D01*
X021654Y037288D01*
X021702Y037263D01*
X021748Y037234D01*
X021792Y037202D01*
X021834Y037167D01*
X021872Y037129D01*
X021908Y037088D01*
X021941Y037044D01*
X021971Y036999D01*
X021997Y036951D01*
X022020Y036902D01*
X022040Y036851D01*
X022055Y036799D01*
X022067Y036745D01*
X022075Y036692D01*
X022079Y036637D01*
X022079Y036583D01*
X022075Y036528D01*
X022067Y036475D01*
X022055Y036421D01*
X022040Y036369D01*
X022020Y036318D01*
X021997Y036269D01*
X021971Y036221D01*
X021941Y036176D01*
X021908Y036132D01*
X021872Y036091D01*
X021834Y036053D01*
X021792Y036018D01*
X021748Y035986D01*
X021702Y035957D01*
X021654Y035932D01*
X021604Y035910D01*
X021553Y035891D01*
X021500Y035877D01*
X021447Y035866D01*
X021393Y035859D01*
X021339Y035856D01*
X021284Y035857D01*
X021230Y035862D01*
X021176Y035871D01*
X021123Y035883D01*
X021071Y035900D01*
X021021Y035920D01*
X020972Y035944D01*
X020925Y035971D01*
X020880Y036002D01*
X020837Y036035D01*
X020797Y036072D01*
X020759Y036112D01*
X020725Y036154D01*
X020693Y036198D01*
X020665Y036245D01*
X020641Y036293D01*
X020620Y036344D01*
X020602Y036395D01*
X020589Y036448D01*
X020579Y036501D01*
X020573Y036556D01*
X020571Y036610D01*
X020204Y035512D02*
X020274Y035453D01*
X020325Y035453D01*
X020204Y035512D02*
X020101Y035512D01*
X020101Y035231D01*
X020204Y035231D01*
X020274Y035290D01*
X020325Y035290D01*
X018571Y036610D02*
X018573Y036664D01*
X018579Y036719D01*
X018589Y036772D01*
X018602Y036825D01*
X018620Y036876D01*
X018641Y036927D01*
X018665Y036975D01*
X018693Y037022D01*
X018725Y037066D01*
X018759Y037108D01*
X018797Y037148D01*
X018837Y037185D01*
X018880Y037218D01*
X018925Y037249D01*
X018972Y037276D01*
X019021Y037300D01*
X019071Y037320D01*
X019123Y037337D01*
X019176Y037349D01*
X019230Y037358D01*
X019284Y037363D01*
X019339Y037364D01*
X019393Y037361D01*
X019447Y037354D01*
X019500Y037343D01*
X019553Y037329D01*
X019604Y037310D01*
X019654Y037288D01*
X019702Y037263D01*
X019748Y037234D01*
X019792Y037202D01*
X019834Y037167D01*
X019872Y037129D01*
X019908Y037088D01*
X019941Y037044D01*
X019971Y036999D01*
X019997Y036951D01*
X020020Y036902D01*
X020040Y036851D01*
X020055Y036799D01*
X020067Y036745D01*
X020075Y036692D01*
X020079Y036637D01*
X020079Y036583D01*
X020075Y036528D01*
X020067Y036475D01*
X020055Y036421D01*
X020040Y036369D01*
X020020Y036318D01*
X019997Y036269D01*
X019971Y036221D01*
X019941Y036176D01*
X019908Y036132D01*
X019872Y036091D01*
X019834Y036053D01*
X019792Y036018D01*
X019748Y035986D01*
X019702Y035957D01*
X019654Y035932D01*
X019604Y035910D01*
X019553Y035891D01*
X019500Y035877D01*
X019447Y035866D01*
X019393Y035859D01*
X019339Y035856D01*
X019284Y035857D01*
X019230Y035862D01*
X019176Y035871D01*
X019123Y035883D01*
X019071Y035900D01*
X019021Y035920D01*
X018972Y035944D01*
X018925Y035971D01*
X018880Y036002D01*
X018837Y036035D01*
X018797Y036072D01*
X018759Y036112D01*
X018725Y036154D01*
X018693Y036198D01*
X018665Y036245D01*
X018641Y036293D01*
X018620Y036344D01*
X018602Y036395D01*
X018589Y036448D01*
X018579Y036501D01*
X018573Y036556D01*
X018571Y036610D01*
X016325Y035453D02*
X016274Y035453D01*
X016204Y035512D01*
X016101Y035512D01*
X016101Y035231D01*
X016204Y035231D01*
X016274Y035290D01*
X016325Y035290D01*
X016325Y035124D01*
X016325Y035290D02*
X016325Y035369D01*
X015625Y043553D02*
X015625Y057647D01*
X047042Y057647D01*
X047042Y043553D01*
X015625Y043553D01*
X016865Y045876D02*
X016865Y055561D01*
X045802Y055561D01*
X045802Y045876D01*
X016865Y045876D01*
X018676Y048041D02*
X018676Y053395D01*
X043991Y053395D01*
X043991Y048041D01*
X018676Y048041D01*
X028571Y036610D02*
X028573Y036664D01*
X028579Y036719D01*
X028589Y036772D01*
X028602Y036825D01*
X028620Y036876D01*
X028641Y036927D01*
X028665Y036975D01*
X028693Y037022D01*
X028725Y037066D01*
X028759Y037108D01*
X028797Y037148D01*
X028837Y037185D01*
X028880Y037218D01*
X028925Y037249D01*
X028972Y037276D01*
X029021Y037300D01*
X029071Y037320D01*
X029123Y037337D01*
X029176Y037349D01*
X029230Y037358D01*
X029284Y037363D01*
X029339Y037364D01*
X029393Y037361D01*
X029447Y037354D01*
X029500Y037343D01*
X029553Y037329D01*
X029604Y037310D01*
X029654Y037288D01*
X029702Y037263D01*
X029748Y037234D01*
X029792Y037202D01*
X029834Y037167D01*
X029872Y037129D01*
X029908Y037088D01*
X029941Y037044D01*
X029971Y036999D01*
X029997Y036951D01*
X030020Y036902D01*
X030040Y036851D01*
X030055Y036799D01*
X030067Y036745D01*
X030075Y036692D01*
X030079Y036637D01*
X030079Y036583D01*
X030075Y036528D01*
X030067Y036475D01*
X030055Y036421D01*
X030040Y036369D01*
X030020Y036318D01*
X029997Y036269D01*
X029971Y036221D01*
X029941Y036176D01*
X029908Y036132D01*
X029872Y036091D01*
X029834Y036053D01*
X029792Y036018D01*
X029748Y035986D01*
X029702Y035957D01*
X029654Y035932D01*
X029604Y035910D01*
X029553Y035891D01*
X029500Y035877D01*
X029447Y035866D01*
X029393Y035859D01*
X029339Y035856D01*
X029284Y035857D01*
X029230Y035862D01*
X029176Y035871D01*
X029123Y035883D01*
X029071Y035900D01*
X029021Y035920D01*
X028972Y035944D01*
X028925Y035971D01*
X028880Y036002D01*
X028837Y036035D01*
X028797Y036072D01*
X028759Y036112D01*
X028725Y036154D01*
X028693Y036198D01*
X028665Y036245D01*
X028641Y036293D01*
X028620Y036344D01*
X028602Y036395D01*
X028589Y036448D01*
X028579Y036501D01*
X028573Y036556D01*
X028571Y036610D01*
X030571Y036610D02*
X030573Y036664D01*
X030579Y036719D01*
X030589Y036772D01*
X030602Y036825D01*
X030620Y036876D01*
X030641Y036927D01*
X030665Y036975D01*
X030693Y037022D01*
X030725Y037066D01*
X030759Y037108D01*
X030797Y037148D01*
X030837Y037185D01*
X030880Y037218D01*
X030925Y037249D01*
X030972Y037276D01*
X031021Y037300D01*
X031071Y037320D01*
X031123Y037337D01*
X031176Y037349D01*
X031230Y037358D01*
X031284Y037363D01*
X031339Y037364D01*
X031393Y037361D01*
X031447Y037354D01*
X031500Y037343D01*
X031553Y037329D01*
X031604Y037310D01*
X031654Y037288D01*
X031702Y037263D01*
X031748Y037234D01*
X031792Y037202D01*
X031834Y037167D01*
X031872Y037129D01*
X031908Y037088D01*
X031941Y037044D01*
X031971Y036999D01*
X031997Y036951D01*
X032020Y036902D01*
X032040Y036851D01*
X032055Y036799D01*
X032067Y036745D01*
X032075Y036692D01*
X032079Y036637D01*
X032079Y036583D01*
X032075Y036528D01*
X032067Y036475D01*
X032055Y036421D01*
X032040Y036369D01*
X032020Y036318D01*
X031997Y036269D01*
X031971Y036221D01*
X031941Y036176D01*
X031908Y036132D01*
X031872Y036091D01*
X031834Y036053D01*
X031792Y036018D01*
X031748Y035986D01*
X031702Y035957D01*
X031654Y035932D01*
X031604Y035910D01*
X031553Y035891D01*
X031500Y035877D01*
X031447Y035866D01*
X031393Y035859D01*
X031339Y035856D01*
X031284Y035857D01*
X031230Y035862D01*
X031176Y035871D01*
X031123Y035883D01*
X031071Y035900D01*
X031021Y035920D01*
X030972Y035944D01*
X030925Y035971D01*
X030880Y036002D01*
X030837Y036035D01*
X030797Y036072D01*
X030759Y036112D01*
X030725Y036154D01*
X030693Y036198D01*
X030665Y036245D01*
X030641Y036293D01*
X030620Y036344D01*
X030602Y036395D01*
X030589Y036448D01*
X030579Y036501D01*
X030573Y036556D01*
X030571Y036610D01*
X032571Y036610D02*
X032573Y036664D01*
X032579Y036719D01*
X032589Y036772D01*
X032602Y036825D01*
X032620Y036876D01*
X032641Y036927D01*
X032665Y036975D01*
X032693Y037022D01*
X032725Y037066D01*
X032759Y037108D01*
X032797Y037148D01*
X032837Y037185D01*
X032880Y037218D01*
X032925Y037249D01*
X032972Y037276D01*
X033021Y037300D01*
X033071Y037320D01*
X033123Y037337D01*
X033176Y037349D01*
X033230Y037358D01*
X033284Y037363D01*
X033339Y037364D01*
X033393Y037361D01*
X033447Y037354D01*
X033500Y037343D01*
X033553Y037329D01*
X033604Y037310D01*
X033654Y037288D01*
X033702Y037263D01*
X033748Y037234D01*
X033792Y037202D01*
X033834Y037167D01*
X033872Y037129D01*
X033908Y037088D01*
X033941Y037044D01*
X033971Y036999D01*
X033997Y036951D01*
X034020Y036902D01*
X034040Y036851D01*
X034055Y036799D01*
X034067Y036745D01*
X034075Y036692D01*
X034079Y036637D01*
X034079Y036583D01*
X034075Y036528D01*
X034067Y036475D01*
X034055Y036421D01*
X034040Y036369D01*
X034020Y036318D01*
X033997Y036269D01*
X033971Y036221D01*
X033941Y036176D01*
X033908Y036132D01*
X033872Y036091D01*
X033834Y036053D01*
X033792Y036018D01*
X033748Y035986D01*
X033702Y035957D01*
X033654Y035932D01*
X033604Y035910D01*
X033553Y035891D01*
X033500Y035877D01*
X033447Y035866D01*
X033393Y035859D01*
X033339Y035856D01*
X033284Y035857D01*
X033230Y035862D01*
X033176Y035871D01*
X033123Y035883D01*
X033071Y035900D01*
X033021Y035920D01*
X032972Y035944D01*
X032925Y035971D01*
X032880Y036002D01*
X032837Y036035D01*
X032797Y036072D01*
X032759Y036112D01*
X032725Y036154D01*
X032693Y036198D01*
X032665Y036245D01*
X032641Y036293D01*
X032620Y036344D01*
X032602Y036395D01*
X032589Y036448D01*
X032579Y036501D01*
X032573Y036556D01*
X032571Y036610D01*
X035071Y036610D02*
X035073Y036664D01*
X035079Y036719D01*
X035089Y036772D01*
X035102Y036825D01*
X035120Y036876D01*
X035141Y036927D01*
X035165Y036975D01*
X035193Y037022D01*
X035225Y037066D01*
X035259Y037108D01*
X035297Y037148D01*
X035337Y037185D01*
X035380Y037218D01*
X035425Y037249D01*
X035472Y037276D01*
X035521Y037300D01*
X035571Y037320D01*
X035623Y037337D01*
X035676Y037349D01*
X035730Y037358D01*
X035784Y037363D01*
X035839Y037364D01*
X035893Y037361D01*
X035947Y037354D01*
X036000Y037343D01*
X036053Y037329D01*
X036104Y037310D01*
X036154Y037288D01*
X036202Y037263D01*
X036248Y037234D01*
X036292Y037202D01*
X036334Y037167D01*
X036372Y037129D01*
X036408Y037088D01*
X036441Y037044D01*
X036471Y036999D01*
X036497Y036951D01*
X036520Y036902D01*
X036540Y036851D01*
X036555Y036799D01*
X036567Y036745D01*
X036575Y036692D01*
X036579Y036637D01*
X036579Y036583D01*
X036575Y036528D01*
X036567Y036475D01*
X036555Y036421D01*
X036540Y036369D01*
X036520Y036318D01*
X036497Y036269D01*
X036471Y036221D01*
X036441Y036176D01*
X036408Y036132D01*
X036372Y036091D01*
X036334Y036053D01*
X036292Y036018D01*
X036248Y035986D01*
X036202Y035957D01*
X036154Y035932D01*
X036104Y035910D01*
X036053Y035891D01*
X036000Y035877D01*
X035947Y035866D01*
X035893Y035859D01*
X035839Y035856D01*
X035784Y035857D01*
X035730Y035862D01*
X035676Y035871D01*
X035623Y035883D01*
X035571Y035900D01*
X035521Y035920D01*
X035472Y035944D01*
X035425Y035971D01*
X035380Y036002D01*
X035337Y036035D01*
X035297Y036072D01*
X035259Y036112D01*
X035225Y036154D01*
X035193Y036198D01*
X035165Y036245D01*
X035141Y036293D01*
X035120Y036344D01*
X035102Y036395D01*
X035089Y036448D01*
X035079Y036501D01*
X035073Y036556D01*
X035071Y036610D01*
X037071Y036610D02*
X037073Y036664D01*
X037079Y036719D01*
X037089Y036772D01*
X037102Y036825D01*
X037120Y036876D01*
X037141Y036927D01*
X037165Y036975D01*
X037193Y037022D01*
X037225Y037066D01*
X037259Y037108D01*
X037297Y037148D01*
X037337Y037185D01*
X037380Y037218D01*
X037425Y037249D01*
X037472Y037276D01*
X037521Y037300D01*
X037571Y037320D01*
X037623Y037337D01*
X037676Y037349D01*
X037730Y037358D01*
X037784Y037363D01*
X037839Y037364D01*
X037893Y037361D01*
X037947Y037354D01*
X038000Y037343D01*
X038053Y037329D01*
X038104Y037310D01*
X038154Y037288D01*
X038202Y037263D01*
X038248Y037234D01*
X038292Y037202D01*
X038334Y037167D01*
X038372Y037129D01*
X038408Y037088D01*
X038441Y037044D01*
X038471Y036999D01*
X038497Y036951D01*
X038520Y036902D01*
X038540Y036851D01*
X038555Y036799D01*
X038567Y036745D01*
X038575Y036692D01*
X038579Y036637D01*
X038579Y036583D01*
X038575Y036528D01*
X038567Y036475D01*
X038555Y036421D01*
X038540Y036369D01*
X038520Y036318D01*
X038497Y036269D01*
X038471Y036221D01*
X038441Y036176D01*
X038408Y036132D01*
X038372Y036091D01*
X038334Y036053D01*
X038292Y036018D01*
X038248Y035986D01*
X038202Y035957D01*
X038154Y035932D01*
X038104Y035910D01*
X038053Y035891D01*
X038000Y035877D01*
X037947Y035866D01*
X037893Y035859D01*
X037839Y035856D01*
X037784Y035857D01*
X037730Y035862D01*
X037676Y035871D01*
X037623Y035883D01*
X037571Y035900D01*
X037521Y035920D01*
X037472Y035944D01*
X037425Y035971D01*
X037380Y036002D01*
X037337Y036035D01*
X037297Y036072D01*
X037259Y036112D01*
X037225Y036154D01*
X037193Y036198D01*
X037165Y036245D01*
X037141Y036293D01*
X037120Y036344D01*
X037102Y036395D01*
X037089Y036448D01*
X037079Y036501D01*
X037073Y036556D01*
X037071Y036610D01*
X039071Y036610D02*
X039073Y036664D01*
X039079Y036719D01*
X039089Y036772D01*
X039102Y036825D01*
X039120Y036876D01*
X039141Y036927D01*
X039165Y036975D01*
X039193Y037022D01*
X039225Y037066D01*
X039259Y037108D01*
X039297Y037148D01*
X039337Y037185D01*
X039380Y037218D01*
X039425Y037249D01*
X039472Y037276D01*
X039521Y037300D01*
X039571Y037320D01*
X039623Y037337D01*
X039676Y037349D01*
X039730Y037358D01*
X039784Y037363D01*
X039839Y037364D01*
X039893Y037361D01*
X039947Y037354D01*
X040000Y037343D01*
X040053Y037329D01*
X040104Y037310D01*
X040154Y037288D01*
X040202Y037263D01*
X040248Y037234D01*
X040292Y037202D01*
X040334Y037167D01*
X040372Y037129D01*
X040408Y037088D01*
X040441Y037044D01*
X040471Y036999D01*
X040497Y036951D01*
X040520Y036902D01*
X040540Y036851D01*
X040555Y036799D01*
X040567Y036745D01*
X040575Y036692D01*
X040579Y036637D01*
X040579Y036583D01*
X040575Y036528D01*
X040567Y036475D01*
X040555Y036421D01*
X040540Y036369D01*
X040520Y036318D01*
X040497Y036269D01*
X040471Y036221D01*
X040441Y036176D01*
X040408Y036132D01*
X040372Y036091D01*
X040334Y036053D01*
X040292Y036018D01*
X040248Y035986D01*
X040202Y035957D01*
X040154Y035932D01*
X040104Y035910D01*
X040053Y035891D01*
X040000Y035877D01*
X039947Y035866D01*
X039893Y035859D01*
X039839Y035856D01*
X039784Y035857D01*
X039730Y035862D01*
X039676Y035871D01*
X039623Y035883D01*
X039571Y035900D01*
X039521Y035920D01*
X039472Y035944D01*
X039425Y035971D01*
X039380Y036002D01*
X039337Y036035D01*
X039297Y036072D01*
X039259Y036112D01*
X039225Y036154D01*
X039193Y036198D01*
X039165Y036245D01*
X039141Y036293D01*
X039120Y036344D01*
X039102Y036395D01*
X039089Y036448D01*
X039079Y036501D01*
X039073Y036556D01*
X039071Y036610D01*
X028550Y072198D02*
X024416Y072198D01*
X024833Y073000D01*
X028183Y073000D01*
X028183Y076200D01*
X024833Y076200D01*
X024416Y077002D01*
X024416Y072198D01*
X023117Y072198D01*
X023117Y077002D01*
X024416Y077002D01*
X028550Y077002D01*
X028183Y076200D01*
X028550Y077002D02*
X028550Y072198D01*
X028183Y073000D01*
X024833Y073000D02*
X024833Y076200D01*
X018550Y078002D02*
X018550Y073198D01*
X018183Y074000D01*
X014833Y074000D01*
X014833Y077200D01*
X018183Y077200D01*
X018550Y078002D01*
X014416Y078002D01*
X014833Y077200D01*
X014416Y078002D02*
X014416Y073198D01*
X014833Y074000D01*
X014416Y073198D02*
X018550Y073198D01*
X018183Y074000D02*
X018183Y077200D01*
X014416Y078002D02*
X013117Y078002D01*
X013117Y073198D01*
X014416Y073198D01*
D15*
X019008Y067465D02*
X019008Y067295D01*
X019122Y067352D01*
X019178Y067352D01*
X019235Y067295D01*
X019235Y067182D01*
X019178Y067125D01*
X019065Y067125D01*
X019008Y067182D01*
X019008Y067465D02*
X019235Y067465D01*
X020108Y067295D02*
X020335Y067295D01*
X020278Y067125D02*
X020278Y067465D01*
X020108Y067295D01*
X021158Y067182D02*
X021215Y067125D01*
X021328Y067125D01*
X021385Y067182D01*
X021385Y067238D01*
X021328Y067295D01*
X021272Y067295D01*
X021328Y067295D02*
X021385Y067352D01*
X021385Y067409D01*
X021328Y067465D01*
X021215Y067465D01*
X021158Y067409D01*
X022258Y067409D02*
X022315Y067465D01*
X022428Y067465D01*
X022485Y067409D01*
X022485Y067352D01*
X022258Y067125D01*
X022485Y067125D01*
X023358Y067125D02*
X023585Y067125D01*
X023472Y067125D02*
X023472Y067465D01*
X023358Y067352D01*
X023085Y065065D02*
X022972Y065009D01*
X022858Y064895D01*
X023028Y064895D01*
X023085Y064838D01*
X023085Y064782D01*
X023028Y064725D01*
X022915Y064725D01*
X022858Y064782D01*
X022858Y064895D01*
X021985Y065009D02*
X021758Y064782D01*
X021758Y064725D01*
X021758Y065065D02*
X021985Y065065D01*
X021985Y065009D01*
X020885Y065009D02*
X020885Y064952D01*
X020828Y064895D01*
X020715Y064895D01*
X020658Y064952D01*
X020658Y065009D01*
X020715Y065065D01*
X020828Y065065D01*
X020885Y065009D01*
X020828Y064895D02*
X020885Y064838D01*
X020885Y064782D01*
X020828Y064725D01*
X020715Y064725D01*
X020658Y064782D01*
X020658Y064838D01*
X020715Y064895D01*
X019785Y064895D02*
X019615Y064895D01*
X019558Y064952D01*
X019558Y065009D01*
X019615Y065065D01*
X019728Y065065D01*
X019785Y065009D01*
X019785Y064782D01*
X019728Y064725D01*
X019615Y064725D01*
X019558Y064782D01*
X019658Y083375D02*
X019208Y083375D01*
X019658Y083375D02*
X019658Y083675D01*
X019658Y083835D02*
X019658Y084136D01*
X019658Y084296D02*
X019658Y084521D01*
X019583Y084596D01*
X019283Y084596D01*
X019208Y084521D01*
X019208Y084296D01*
X019658Y084296D01*
X019433Y083986D02*
X019433Y083835D01*
X019208Y083835D02*
X019658Y083835D01*
X019208Y083835D02*
X019208Y084136D01*
X019358Y084756D02*
X019208Y084906D01*
X019658Y084906D01*
X019658Y084756D02*
X019658Y085056D01*
X021208Y084981D02*
X021208Y084831D01*
X021283Y084756D01*
X021283Y084596D02*
X021208Y084521D01*
X021208Y084296D01*
X021658Y084296D01*
X021658Y084521D01*
X021583Y084596D01*
X021283Y084596D01*
X021208Y084981D02*
X021283Y085056D01*
X021358Y085056D01*
X021658Y084756D01*
X021658Y085056D01*
X021658Y084136D02*
X021658Y083835D01*
X021208Y083835D01*
X021208Y084136D01*
X021433Y083986D02*
X021433Y083835D01*
X021658Y083675D02*
X021658Y083375D01*
X021208Y083375D01*
X023208Y083375D02*
X023658Y083375D01*
X023658Y083675D01*
X023658Y083835D02*
X023658Y084136D01*
X023658Y084296D02*
X023658Y084521D01*
X023583Y084596D01*
X023283Y084596D01*
X023208Y084521D01*
X023208Y084296D01*
X023658Y084296D01*
X023433Y083986D02*
X023433Y083835D01*
X023208Y083835D02*
X023658Y083835D01*
X023208Y083835D02*
X023208Y084136D01*
X023283Y084756D02*
X023208Y084831D01*
X023208Y084981D01*
X023283Y085056D01*
X023358Y085056D01*
X023433Y084981D01*
X023508Y085056D01*
X023583Y085056D01*
X023658Y084981D01*
X023658Y084831D01*
X023583Y084756D01*
X023433Y084906D02*
X023433Y084981D01*
X025208Y084981D02*
X025433Y084756D01*
X025433Y085056D01*
X025658Y084981D02*
X025208Y084981D01*
X025283Y084596D02*
X025208Y084521D01*
X025208Y084296D01*
X025658Y084296D01*
X025658Y084521D01*
X025583Y084596D01*
X025283Y084596D01*
X025208Y084136D02*
X025208Y083835D01*
X025658Y083835D01*
X025658Y084136D01*
X025433Y083986D02*
X025433Y083835D01*
X025658Y083675D02*
X025658Y083375D01*
X025208Y083375D01*
X029658Y034675D02*
X029884Y034675D01*
X029959Y034600D01*
X029959Y034450D01*
X029884Y034375D01*
X029658Y034375D01*
X029658Y034225D02*
X029658Y034675D01*
X029808Y034375D02*
X029959Y034225D01*
X030119Y034300D02*
X030194Y034225D01*
X030344Y034225D01*
X030419Y034300D01*
X030419Y034375D01*
X030344Y034450D01*
X030269Y034450D01*
X030344Y034450D02*
X030419Y034525D01*
X030419Y034600D01*
X030344Y034675D01*
X030194Y034675D01*
X030119Y034600D01*
X028964Y033336D02*
X028760Y033336D01*
X028658Y033234D01*
X028964Y033336D02*
X029065Y033234D01*
X029065Y033132D01*
X028658Y032725D01*
X029065Y032725D01*
X027808Y031315D02*
X027808Y031015D01*
X027808Y031165D02*
X027358Y031165D01*
X027508Y031015D01*
X027433Y030854D02*
X027358Y030779D01*
X027358Y030554D01*
X027808Y030554D01*
X027808Y030779D01*
X027733Y030854D01*
X027433Y030854D01*
X028658Y030332D02*
X028862Y030536D01*
X028862Y029925D01*
X029065Y029925D02*
X028658Y029925D01*
X026133Y025146D02*
X025833Y025146D01*
X025758Y025071D01*
X025758Y024921D01*
X025833Y024846D01*
X025908Y024846D01*
X025983Y024921D01*
X025983Y025146D01*
X026133Y025146D02*
X026208Y025071D01*
X026208Y024921D01*
X026133Y024846D01*
X026208Y024686D02*
X026208Y024385D01*
X026208Y024536D02*
X025758Y024536D01*
X025908Y024385D01*
X025833Y024225D02*
X025983Y024225D01*
X026058Y024150D01*
X026058Y023925D01*
X026058Y024075D02*
X026208Y024225D01*
X026208Y023925D02*
X025758Y023925D01*
X025758Y024150D01*
X025833Y024225D01*
X025758Y019146D02*
X025758Y018846D01*
X025983Y018846D01*
X025908Y018996D01*
X025908Y019071D01*
X025983Y019146D01*
X026133Y019146D01*
X026208Y019071D01*
X026208Y018921D01*
X026133Y018846D01*
X026208Y018686D02*
X026208Y018385D01*
X025908Y018686D01*
X025833Y018686D01*
X025758Y018611D01*
X025758Y018460D01*
X025833Y018385D01*
X025833Y018225D02*
X025983Y018225D01*
X026058Y018150D01*
X026058Y017925D01*
X026058Y018075D02*
X026208Y018225D01*
X026208Y017925D02*
X025758Y017925D01*
X025758Y018150D01*
X025833Y018225D01*
X030158Y016675D02*
X030158Y016225D01*
X030158Y016375D02*
X030384Y016375D01*
X030459Y016450D01*
X030459Y016600D01*
X030384Y016675D01*
X030158Y016675D01*
X030308Y016375D02*
X030459Y016225D01*
X030619Y016225D02*
X030919Y016525D01*
X030919Y016600D01*
X030844Y016675D01*
X030694Y016675D01*
X030619Y016600D01*
X030619Y016225D02*
X030919Y016225D01*
X031079Y016450D02*
X031379Y016450D01*
X031304Y016225D02*
X031304Y016675D01*
X031079Y016450D01*
X035951Y022365D02*
X036358Y022772D01*
X036358Y022874D01*
X036256Y022976D01*
X036052Y022976D01*
X035951Y022874D01*
X035951Y022365D02*
X036358Y022365D01*
X036358Y025165D02*
X035951Y025165D01*
X036154Y025165D02*
X036154Y025776D01*
X035951Y025572D01*
X035898Y027025D02*
X035598Y027025D01*
X035898Y027325D01*
X035898Y027400D01*
X035823Y027475D01*
X035673Y027475D01*
X035598Y027400D01*
X035438Y027400D02*
X035363Y027475D01*
X035213Y027475D01*
X035138Y027400D01*
X034977Y027400D02*
X034977Y027250D01*
X034902Y027175D01*
X034677Y027175D01*
X034677Y027025D02*
X034677Y027475D01*
X034902Y027475D01*
X034977Y027400D01*
X034827Y027175D02*
X034977Y027025D01*
X035138Y027025D02*
X035438Y027325D01*
X035438Y027400D01*
X035438Y027025D02*
X035138Y027025D01*
X033379Y027025D02*
X033304Y026950D01*
X033379Y026875D01*
X033379Y026800D01*
X033304Y026725D01*
X033154Y026725D01*
X033079Y026800D01*
X032919Y026725D02*
X032619Y026725D01*
X032919Y027025D01*
X032919Y027100D01*
X032844Y027175D01*
X032694Y027175D01*
X032619Y027100D01*
X032459Y027100D02*
X032459Y026950D01*
X032384Y026875D01*
X032158Y026875D01*
X032158Y026725D02*
X032158Y027175D01*
X032384Y027175D01*
X032459Y027100D01*
X032308Y026875D02*
X032459Y026725D01*
X033079Y027100D02*
X033154Y027175D01*
X033304Y027175D01*
X033379Y027100D01*
X033379Y027025D01*
X033304Y026950D02*
X033229Y026950D01*
X033658Y029725D02*
X033658Y030175D01*
X033884Y030175D01*
X033959Y030100D01*
X033959Y029950D01*
X033884Y029875D01*
X033658Y029875D01*
X033808Y029875D02*
X033959Y029725D01*
X034119Y029725D02*
X034419Y029725D01*
X034269Y029725D02*
X034269Y030175D01*
X034119Y030025D01*
X034579Y030100D02*
X034654Y030175D01*
X034804Y030175D01*
X034879Y030100D01*
X034579Y029800D01*
X034654Y029725D01*
X034804Y029725D01*
X034879Y029800D01*
X034879Y030100D01*
X034579Y030100D02*
X034579Y029800D01*
X035658Y034225D02*
X035658Y034675D01*
X035884Y034675D01*
X035959Y034600D01*
X035959Y034450D01*
X035884Y034375D01*
X035658Y034375D01*
X035808Y034375D02*
X035959Y034225D01*
X036119Y034450D02*
X036419Y034450D01*
X036344Y034225D02*
X036344Y034675D01*
X036119Y034450D01*
X039158Y033234D02*
X039260Y033336D01*
X039464Y033336D01*
X039565Y033234D01*
X039565Y033132D01*
X039158Y032725D01*
X039565Y032725D01*
X039362Y030536D02*
X039362Y029925D01*
X039565Y029925D02*
X039158Y029925D01*
X039158Y030332D02*
X039362Y030536D01*
X042158Y034225D02*
X042158Y034675D01*
X042384Y034675D01*
X042459Y034600D01*
X042459Y034450D01*
X042384Y034375D01*
X042158Y034375D01*
X042308Y034375D02*
X042459Y034225D01*
X042619Y034300D02*
X042694Y034225D01*
X042844Y034225D01*
X042919Y034300D01*
X042919Y034450D01*
X042844Y034525D01*
X042769Y034525D01*
X042619Y034450D01*
X042619Y034675D01*
X042919Y034675D01*
X045183Y029365D02*
X045108Y029290D01*
X045108Y029140D01*
X045183Y029065D01*
X045183Y028904D02*
X045108Y028829D01*
X045108Y028679D01*
X045183Y028604D01*
X045483Y028604D01*
X045558Y028679D01*
X045558Y028829D01*
X045483Y028904D01*
X045558Y029065D02*
X045258Y029365D01*
X045183Y029365D01*
X045558Y029365D02*
X045558Y029065D01*
X045858Y024465D02*
X045858Y024165D01*
X045858Y024315D02*
X045408Y024315D01*
X045558Y024165D01*
X045483Y024004D02*
X045783Y024004D01*
X045858Y023929D01*
X045858Y023779D01*
X045783Y023704D01*
X045483Y023704D01*
X045408Y023779D01*
X045408Y023929D01*
X045483Y024004D01*
X045708Y023854D02*
X045858Y024004D01*
X043558Y015986D02*
X043558Y015685D01*
X043558Y015836D02*
X043108Y015836D01*
X043258Y015685D01*
X043183Y015525D02*
X043108Y015450D01*
X043108Y015300D01*
X043183Y015225D01*
X043483Y015225D01*
X043558Y015300D01*
X043558Y015450D01*
X043483Y015525D01*
X044177Y012475D02*
X044402Y012475D01*
X044477Y012400D01*
X044477Y012250D01*
X044402Y012175D01*
X044177Y012175D01*
X044177Y012025D02*
X044177Y012475D01*
X044327Y012175D02*
X044477Y012025D01*
X044638Y012025D02*
X044938Y012325D01*
X044938Y012400D01*
X044863Y012475D01*
X044713Y012475D01*
X044638Y012400D01*
X044638Y012025D02*
X044938Y012025D01*
X045098Y012100D02*
X045398Y012400D01*
X045398Y012100D01*
X045323Y012025D01*
X045173Y012025D01*
X045098Y012100D01*
X045098Y012400D01*
X045173Y012475D01*
X045323Y012475D01*
X045398Y012400D01*
X044879Y008675D02*
X044579Y008675D01*
X044879Y008675D02*
X044879Y008600D01*
X044579Y008300D01*
X044579Y008225D01*
X044419Y008225D02*
X044119Y008225D01*
X044269Y008225D02*
X044269Y008675D01*
X044119Y008525D01*
X043959Y008450D02*
X043884Y008375D01*
X043658Y008375D01*
X043658Y008225D02*
X043658Y008675D01*
X043884Y008675D01*
X043959Y008600D01*
X043959Y008450D01*
X043808Y008375D02*
X043959Y008225D01*
X044677Y005975D02*
X044902Y005975D01*
X044977Y005900D01*
X044977Y005750D01*
X044902Y005675D01*
X044677Y005675D01*
X044677Y005525D02*
X044677Y005975D01*
X044827Y005675D02*
X044977Y005525D01*
X045138Y005525D02*
X045438Y005525D01*
X045288Y005525D02*
X045288Y005975D01*
X045138Y005825D01*
X045598Y005825D02*
X045598Y005900D01*
X045673Y005975D01*
X045823Y005975D01*
X045898Y005900D01*
X045898Y005825D01*
X045823Y005750D01*
X045673Y005750D01*
X045598Y005825D01*
X045673Y005750D02*
X045598Y005675D01*
X045598Y005600D01*
X045673Y005525D01*
X045823Y005525D01*
X045898Y005600D01*
X045898Y005675D01*
X045823Y005750D01*
X048258Y009425D02*
X048258Y009650D01*
X048333Y009725D01*
X048483Y009725D01*
X048558Y009650D01*
X048558Y009425D01*
X048558Y009575D02*
X048708Y009725D01*
X048708Y009885D02*
X048708Y010186D01*
X048708Y010036D02*
X048258Y010036D01*
X048408Y009885D01*
X048408Y010346D02*
X048258Y010496D01*
X048708Y010496D01*
X048758Y010444D02*
X048758Y010669D01*
X048683Y010744D01*
X048533Y010744D01*
X048458Y010669D01*
X048458Y010444D01*
X048908Y010444D01*
X048758Y010594D02*
X048908Y010744D01*
X048908Y010904D02*
X048908Y011204D01*
X048908Y011054D02*
X048458Y011054D01*
X048608Y010904D01*
X048708Y010646D02*
X048708Y010346D01*
X048708Y009425D02*
X048258Y009425D01*
X048533Y011365D02*
X048458Y011440D01*
X048458Y011590D01*
X048533Y011665D01*
X048608Y011665D01*
X048908Y011365D01*
X048908Y011665D01*
X042408Y005590D02*
X041958Y005590D01*
X042183Y005365D01*
X042183Y005665D01*
X042408Y005204D02*
X042408Y004904D01*
X042408Y005054D02*
X041958Y005054D01*
X042108Y004904D01*
X042033Y004744D02*
X042183Y004744D01*
X042258Y004669D01*
X042258Y004444D01*
X042258Y004594D02*
X042408Y004744D01*
X042408Y004444D02*
X041958Y004444D01*
X041958Y004669D01*
X042033Y004744D01*
X040908Y004744D02*
X040758Y004594D01*
X040758Y004669D02*
X040758Y004444D01*
X040908Y004444D02*
X040458Y004444D01*
X040458Y004669D01*
X040533Y004744D01*
X040683Y004744D01*
X040758Y004669D01*
X040608Y004904D02*
X040458Y005054D01*
X040908Y005054D01*
X040908Y004904D02*
X040908Y005204D01*
X040833Y005365D02*
X040908Y005440D01*
X040908Y005590D01*
X040833Y005665D01*
X040683Y005665D01*
X040608Y005590D01*
X040608Y005515D01*
X040683Y005365D01*
X040458Y005365D01*
X040458Y005665D01*
X040558Y008925D02*
X040558Y009150D01*
X040483Y009225D01*
X040333Y009225D01*
X040258Y009150D01*
X040258Y008925D01*
X040708Y008925D01*
X040558Y009075D02*
X040708Y009225D01*
X040708Y009385D02*
X040708Y009686D01*
X040708Y009536D02*
X040258Y009536D01*
X040408Y009385D01*
X040333Y009846D02*
X040258Y009921D01*
X040258Y010071D01*
X040333Y010146D01*
X040408Y010146D01*
X040483Y010071D01*
X040558Y010146D01*
X040633Y010146D01*
X040708Y010071D01*
X040708Y009921D01*
X040633Y009846D01*
X040483Y009996D02*
X040483Y010071D01*
X039208Y010071D02*
X039133Y010146D01*
X039058Y010146D01*
X038983Y010071D01*
X038983Y009846D01*
X039133Y009846D01*
X039208Y009921D01*
X039208Y010071D01*
X038983Y009846D02*
X038833Y009996D01*
X038758Y010146D01*
X038758Y009536D02*
X039208Y009536D01*
X039208Y009686D02*
X039208Y009385D01*
X039208Y009225D02*
X039058Y009075D01*
X039058Y009150D02*
X039058Y008925D01*
X039208Y008925D02*
X038758Y008925D01*
X038758Y009150D01*
X038833Y009225D01*
X038983Y009225D01*
X039058Y009150D01*
X038908Y009385D02*
X038758Y009536D01*
X024308Y029775D02*
X024308Y030000D01*
X024233Y030075D01*
X023933Y030075D01*
X023858Y030000D01*
X023858Y029775D01*
X024308Y029775D01*
X024308Y030235D02*
X024008Y030536D01*
X023933Y030536D01*
X023858Y030461D01*
X023858Y030310D01*
X023933Y030235D01*
X024308Y030235D02*
X024308Y030536D01*
X018908Y030440D02*
X018908Y030590D01*
X018833Y030665D01*
X018758Y030665D01*
X018683Y030590D01*
X018683Y030365D01*
X018833Y030365D01*
X018908Y030440D01*
X018908Y030204D02*
X018758Y030054D01*
X018758Y030129D02*
X018758Y029904D01*
X018908Y029904D02*
X018458Y029904D01*
X018458Y030129D01*
X018533Y030204D01*
X018683Y030204D01*
X018758Y030129D01*
X018683Y030365D02*
X018533Y030515D01*
X018458Y030665D01*
X016688Y030117D02*
X016238Y030117D01*
X016238Y029967D02*
X016238Y030267D01*
X016688Y029806D02*
X016688Y029506D01*
X016238Y029506D01*
X016238Y029346D02*
X016238Y029046D01*
X016688Y029046D01*
X016688Y029346D01*
X016463Y029196D02*
X016463Y029046D01*
X016463Y028886D02*
X016538Y028811D01*
X016538Y028585D01*
X016688Y028585D02*
X016238Y028585D01*
X016238Y028811D01*
X016313Y028886D01*
X016463Y028886D01*
X016313Y028425D02*
X016613Y028425D01*
X016688Y028350D01*
X016688Y028200D01*
X016613Y028125D01*
X016313Y028125D01*
X016238Y028200D01*
X016238Y028350D01*
X016313Y028425D01*
X016538Y028275D02*
X016688Y028425D01*
X016958Y017665D02*
X017033Y017665D01*
X017333Y017365D01*
X017408Y017365D01*
X017408Y017204D02*
X017258Y017054D01*
X017258Y017129D02*
X017258Y016904D01*
X017408Y016904D02*
X016958Y016904D01*
X016958Y017129D01*
X017033Y017204D01*
X017183Y017204D01*
X017258Y017129D01*
X016958Y017365D02*
X016958Y017665D01*
X015688Y016617D02*
X015238Y016617D01*
X015238Y016467D02*
X015238Y016767D01*
X015238Y016306D02*
X015688Y016006D01*
X015688Y015846D02*
X015688Y015546D01*
X015238Y015546D01*
X015238Y015846D01*
X015238Y016006D02*
X015688Y016306D01*
X015463Y015696D02*
X015463Y015546D01*
X015538Y015386D02*
X015238Y015386D01*
X015538Y015386D02*
X015688Y015236D01*
X015538Y015085D01*
X015238Y015085D01*
X015313Y014925D02*
X015613Y014925D01*
X015688Y014850D01*
X015688Y014700D01*
X015613Y014625D01*
X015313Y014625D01*
X015238Y014700D01*
X015238Y014850D01*
X015313Y014925D01*
X015538Y014775D02*
X015688Y014925D01*
X017033Y010665D02*
X017108Y010665D01*
X017183Y010590D01*
X017183Y010440D01*
X017108Y010365D01*
X017033Y010365D01*
X016958Y010440D01*
X016958Y010590D01*
X017033Y010665D01*
X017183Y010590D02*
X017258Y010665D01*
X017333Y010665D01*
X017408Y010590D01*
X017408Y010440D01*
X017333Y010365D01*
X017258Y010365D01*
X017183Y010440D01*
X017183Y010204D02*
X017258Y010129D01*
X017258Y009904D01*
X017408Y009904D02*
X016958Y009904D01*
X016958Y010129D01*
X017033Y010204D01*
X017183Y010204D01*
X017258Y010054D02*
X017408Y010204D01*
X015688Y008963D02*
X015238Y008963D01*
X015238Y008813D02*
X015238Y009113D01*
X015238Y008653D02*
X015688Y008653D01*
X015238Y008353D01*
X015688Y008353D01*
X015688Y008196D02*
X015688Y008046D01*
X015688Y008121D02*
X015238Y008121D01*
X015238Y008046D02*
X015238Y008196D01*
X015238Y007886D02*
X015538Y007886D01*
X015688Y007736D01*
X015538Y007585D01*
X015238Y007585D01*
X015313Y007425D02*
X015613Y007425D01*
X015688Y007350D01*
X015688Y007200D01*
X015613Y007125D01*
X015313Y007125D01*
X015238Y007200D01*
X015238Y007350D01*
X015313Y007425D01*
X015538Y007275D02*
X015688Y007425D01*
X019781Y015475D02*
X019931Y015475D01*
X019856Y015475D02*
X019856Y015925D01*
X019781Y015925D02*
X019931Y015925D01*
X020088Y015850D02*
X020088Y015550D01*
X020163Y015475D01*
X020313Y015475D01*
X020388Y015550D01*
X020548Y015550D02*
X020623Y015475D01*
X020773Y015475D01*
X020848Y015550D01*
X020848Y015625D01*
X020773Y015700D01*
X020698Y015700D01*
X020773Y015700D02*
X020848Y015775D01*
X020848Y015850D01*
X020773Y015925D01*
X020623Y015925D01*
X020548Y015850D01*
X020388Y015850D02*
X020313Y015925D01*
X020163Y015925D01*
X020088Y015850D01*
D16*
X020121Y015850D02*
X020121Y015697D01*
X020044Y015620D01*
X019890Y015620D01*
X019814Y015697D01*
X019814Y015850D02*
X019967Y015927D01*
X020044Y015927D01*
X020121Y015850D01*
X020121Y016080D02*
X019814Y016080D01*
X019814Y015850D01*
X019660Y015697D02*
X019584Y015620D01*
X019430Y015620D01*
X019353Y015697D01*
X019353Y016004D01*
X019430Y016080D01*
X019584Y016080D01*
X019660Y016004D01*
X024353Y016816D02*
X024430Y016739D01*
X024737Y016739D01*
X024813Y016816D01*
X024813Y016969D01*
X024737Y017046D01*
X024813Y017199D02*
X024813Y017506D01*
X024813Y017353D02*
X024353Y017353D01*
X024506Y017199D01*
X024430Y017046D02*
X024353Y016969D01*
X024353Y016816D01*
X024506Y017660D02*
X024353Y017813D01*
X024813Y017813D01*
X024813Y017660D02*
X024813Y017967D01*
X024737Y019239D02*
X024430Y019239D01*
X024353Y019316D01*
X024353Y019469D01*
X024430Y019546D01*
X024506Y019699D02*
X024353Y019853D01*
X024813Y019853D01*
X024813Y020006D02*
X024813Y019699D01*
X024737Y019546D02*
X024813Y019469D01*
X024813Y019316D01*
X024737Y019239D01*
X024813Y020160D02*
X024506Y020467D01*
X024430Y020467D01*
X024353Y020390D01*
X024353Y020236D01*
X024430Y020160D01*
X024813Y020160D02*
X024813Y020467D01*
X024737Y021739D02*
X024430Y021739D01*
X024353Y021816D01*
X024353Y021969D01*
X024430Y022046D01*
X024506Y022199D02*
X024353Y022353D01*
X024813Y022353D01*
X024813Y022506D02*
X024813Y022199D01*
X024737Y022046D02*
X024813Y021969D01*
X024813Y021816D01*
X024737Y021739D01*
X024737Y022660D02*
X024813Y022736D01*
X024813Y022890D01*
X024737Y022967D01*
X024660Y022967D01*
X024583Y022890D01*
X024583Y022813D01*
X024583Y022890D02*
X024506Y022967D01*
X024430Y022967D01*
X024353Y022890D01*
X024353Y022736D01*
X024430Y022660D01*
X024430Y024239D02*
X024737Y024239D01*
X024813Y024316D01*
X024813Y024469D01*
X024737Y024546D01*
X024813Y024699D02*
X024813Y025006D01*
X024813Y024853D02*
X024353Y024853D01*
X024506Y024699D01*
X024430Y024546D02*
X024353Y024469D01*
X024353Y024316D01*
X024430Y024239D01*
X024583Y025160D02*
X024583Y025467D01*
X024353Y025390D02*
X024583Y025160D01*
X024813Y025390D02*
X024353Y025390D01*
X024183Y030743D02*
X023723Y030743D01*
X023723Y030973D01*
X023800Y031049D01*
X023953Y031049D01*
X024030Y030973D01*
X024030Y030743D01*
X024030Y030896D02*
X024183Y031049D01*
X024107Y031203D02*
X024183Y031280D01*
X024183Y031433D01*
X024107Y031510D01*
X023800Y031510D01*
X023723Y031433D01*
X023723Y031280D01*
X023800Y031203D01*
X023876Y031203D01*
X023953Y031280D01*
X023953Y031510D01*
X027603Y031541D02*
X027603Y031771D01*
X027680Y031848D01*
X027987Y031848D01*
X028063Y031771D01*
X028063Y031541D01*
X027603Y031541D01*
X027680Y031387D02*
X027603Y031311D01*
X027603Y031157D01*
X027680Y031080D01*
X027987Y031080D01*
X028063Y031157D01*
X028063Y031311D01*
X027987Y031387D01*
X028063Y030927D02*
X028063Y030620D01*
X027603Y030620D01*
X028353Y029980D02*
X028594Y029620D01*
X028722Y029620D02*
X028962Y029620D01*
X028842Y029620D02*
X028842Y029980D01*
X028722Y029860D01*
X028594Y029980D02*
X028353Y029620D01*
X028560Y025830D02*
X028483Y025754D01*
X028483Y025677D01*
X028560Y025600D01*
X028713Y025600D01*
X028790Y025523D01*
X028790Y025447D01*
X028713Y025370D01*
X028560Y025370D01*
X028483Y025447D01*
X028560Y025830D02*
X028713Y025830D01*
X028790Y025754D01*
X028943Y025830D02*
X029250Y025830D01*
X029097Y025830D02*
X029097Y025370D01*
X029404Y025370D02*
X029404Y025677D01*
X029557Y025830D01*
X029711Y025677D01*
X029711Y025370D01*
X029864Y025370D02*
X029864Y025830D01*
X030094Y025830D01*
X030171Y025754D01*
X030171Y025600D01*
X030094Y025523D01*
X029864Y025523D01*
X030017Y025523D02*
X030171Y025370D01*
X030478Y025370D02*
X030478Y025830D01*
X030631Y025830D02*
X030324Y025830D01*
X029711Y025600D02*
X029404Y025600D01*
X029357Y017580D02*
X029117Y017580D01*
X029117Y017220D01*
X028989Y017220D02*
X028989Y017460D01*
X028868Y017580D01*
X028748Y017460D01*
X028748Y017220D01*
X028748Y017400D02*
X028989Y017400D01*
X029117Y017400D02*
X029237Y017400D01*
X029485Y017400D02*
X029605Y017400D01*
X029485Y017220D02*
X029485Y017580D01*
X029725Y017580D01*
X030880Y017580D02*
X030880Y017220D01*
X031120Y017220D02*
X031120Y017580D01*
X031000Y017460D01*
X030880Y017580D01*
X031248Y017520D02*
X031248Y017280D01*
X031308Y017220D01*
X031429Y017220D01*
X031489Y017280D01*
X031489Y017520D01*
X031429Y017580D01*
X031308Y017580D01*
X031248Y017520D01*
X031617Y017580D02*
X031617Y017220D01*
X031797Y017220D01*
X031857Y017280D01*
X031857Y017520D01*
X031797Y017580D01*
X031617Y017580D01*
X031985Y017580D02*
X031985Y017220D01*
X032225Y017220D01*
X032353Y017311D02*
X032583Y017080D01*
X032583Y017387D01*
X032813Y017311D02*
X032353Y017311D01*
X032105Y017400D02*
X031985Y017400D01*
X031985Y017580D02*
X032225Y017580D01*
X032430Y016927D02*
X032353Y016850D01*
X032353Y016697D01*
X032430Y016620D01*
X032737Y016620D01*
X032813Y016697D01*
X032813Y016850D01*
X032737Y016927D01*
X035183Y015080D02*
X035183Y014620D01*
X035183Y014773D02*
X035413Y014773D01*
X035489Y014850D01*
X035489Y015004D01*
X035413Y015080D01*
X035183Y015080D01*
X035336Y014773D02*
X035489Y014620D01*
X035643Y014620D02*
X035950Y014620D01*
X035796Y014620D02*
X035796Y015080D01*
X035643Y014927D01*
X035603Y017120D02*
X035603Y017580D01*
X035834Y017580D01*
X035910Y017504D01*
X035910Y017350D01*
X035834Y017273D01*
X035603Y017273D01*
X035757Y017273D02*
X035910Y017120D01*
X036064Y017120D02*
X036371Y017427D01*
X036371Y017504D01*
X036294Y017580D01*
X036140Y017580D01*
X036064Y017504D01*
X036064Y017120D02*
X036371Y017120D01*
X037103Y023892D02*
X037103Y024046D01*
X037103Y023969D02*
X037563Y023969D01*
X037563Y023892D02*
X037563Y024046D01*
X037487Y024199D02*
X037563Y024276D01*
X037563Y024429D01*
X037487Y024506D01*
X037410Y024506D01*
X037333Y024429D01*
X037333Y024276D01*
X037256Y024199D01*
X037180Y024199D01*
X037103Y024276D01*
X037103Y024429D01*
X037180Y024506D01*
X037103Y024660D02*
X037103Y024890D01*
X037180Y024967D01*
X037333Y024967D01*
X037410Y024890D01*
X037410Y024660D01*
X037563Y024660D02*
X037103Y024660D01*
X039930Y029620D02*
X040084Y029620D01*
X040160Y029697D01*
X040314Y029697D02*
X040390Y029620D01*
X040544Y029620D01*
X040621Y029697D01*
X040621Y029773D01*
X040544Y029850D01*
X040467Y029850D01*
X040544Y029850D02*
X040621Y029927D01*
X040621Y030004D01*
X040544Y030080D01*
X040390Y030080D01*
X040314Y030004D01*
X040160Y030004D02*
X040084Y030080D01*
X039930Y030080D01*
X039853Y030004D01*
X039853Y029697D01*
X039930Y029620D01*
X038563Y030620D02*
X038563Y030850D01*
X038487Y030927D01*
X038180Y030927D01*
X038103Y030850D01*
X038103Y030620D01*
X038563Y030620D01*
X038563Y031080D02*
X038563Y031311D01*
X038487Y031387D01*
X038410Y031387D01*
X038333Y031311D01*
X038333Y031080D01*
X038103Y031080D02*
X038103Y031311D01*
X038180Y031387D01*
X038256Y031387D01*
X038333Y031311D01*
X038256Y031541D02*
X038333Y031618D01*
X038333Y031848D01*
X038180Y031848D02*
X038103Y031771D01*
X038103Y031618D01*
X038180Y031541D01*
X038256Y031541D01*
X038487Y031541D02*
X038563Y031618D01*
X038563Y031771D01*
X038487Y031848D01*
X038180Y031848D01*
X038103Y031080D02*
X038563Y031080D01*
X037131Y038293D02*
X036824Y038293D01*
X036594Y038523D02*
X036364Y038523D01*
X036364Y038370D02*
X036364Y038830D01*
X036594Y038830D01*
X036671Y038754D01*
X036671Y038600D01*
X036594Y038523D01*
X036211Y038370D02*
X036211Y038830D01*
X036057Y038677D01*
X035904Y038830D01*
X035904Y038370D01*
X035750Y038370D02*
X035443Y038370D01*
X035443Y038830D01*
X035750Y038830D01*
X035597Y038600D02*
X035443Y038600D01*
X035290Y038830D02*
X034983Y038830D01*
X035136Y038830D02*
X035136Y038370D01*
X037285Y038830D02*
X037592Y038830D01*
X037745Y038830D02*
X037745Y038370D01*
X037745Y038600D02*
X038052Y038600D01*
X038206Y038600D02*
X038359Y038600D01*
X038206Y038370D02*
X038512Y038370D01*
X038666Y038370D02*
X038666Y038830D01*
X038896Y038830D01*
X038973Y038754D01*
X038973Y038600D01*
X038896Y038523D01*
X038666Y038523D01*
X038819Y038523D02*
X038973Y038370D01*
X039126Y038370D02*
X039126Y038830D01*
X039280Y038677D01*
X039433Y038830D01*
X039433Y038370D01*
X039587Y038447D02*
X039663Y038370D01*
X039817Y038370D01*
X039894Y038447D01*
X039894Y038754D01*
X039817Y038830D01*
X039663Y038830D01*
X039587Y038754D01*
X039587Y038447D01*
X038512Y038830D02*
X038206Y038830D01*
X038206Y038370D01*
X038052Y038370D02*
X038052Y038830D01*
X037438Y038830D02*
X037438Y038370D01*
X041483Y038830D02*
X041790Y038830D01*
X041943Y038830D02*
X041943Y038370D01*
X042250Y038370D01*
X042404Y038370D02*
X042404Y038830D01*
X042557Y038677D01*
X042711Y038830D01*
X042711Y038370D01*
X042864Y038370D02*
X042864Y038830D01*
X043094Y038830D01*
X043171Y038754D01*
X043171Y038600D01*
X043094Y038523D01*
X042864Y038523D01*
X043324Y038293D02*
X043631Y038293D01*
X043785Y038370D02*
X043785Y038830D01*
X044015Y038830D01*
X044092Y038754D01*
X044092Y038600D01*
X044015Y038523D01*
X043785Y038523D01*
X044245Y038600D02*
X044399Y038600D01*
X044245Y038370D02*
X044552Y038370D01*
X044706Y038370D02*
X045012Y038370D01*
X044706Y038370D02*
X044706Y038830D01*
X044552Y038830D02*
X044245Y038830D01*
X044245Y038370D01*
X045166Y038830D02*
X045473Y038830D01*
X045626Y038830D02*
X045780Y038830D01*
X045703Y038830D02*
X045703Y038370D01*
X045626Y038370D02*
X045780Y038370D01*
X045933Y038370D02*
X046240Y038370D01*
X046394Y038370D02*
X046394Y038830D01*
X046624Y038830D01*
X046701Y038754D01*
X046701Y038600D01*
X046624Y038523D01*
X046394Y038523D01*
X046547Y038523D02*
X046701Y038370D01*
X046240Y038830D02*
X045933Y038830D01*
X045933Y038370D01*
X045933Y038600D02*
X046087Y038600D01*
X045319Y038370D02*
X045319Y038830D01*
X045279Y042870D02*
X045126Y042870D01*
X045202Y042870D02*
X045202Y043330D01*
X045126Y043330D02*
X045279Y043330D01*
X045433Y043254D02*
X045433Y043177D01*
X045509Y043100D01*
X045663Y043100D01*
X045739Y043023D01*
X045739Y042947D01*
X045663Y042870D01*
X045509Y042870D01*
X045433Y042947D01*
X045433Y043254D02*
X045509Y043330D01*
X045663Y043330D01*
X045739Y043254D01*
X045893Y043177D02*
X046046Y043330D01*
X046046Y042870D01*
X045893Y042870D02*
X046200Y042870D01*
X044972Y042947D02*
X044972Y043254D01*
X044895Y043330D01*
X044665Y043330D01*
X044665Y042870D01*
X044895Y042870D01*
X044972Y042947D01*
X042250Y038830D02*
X041943Y038830D01*
X041943Y038600D02*
X042097Y038600D01*
X041636Y038370D02*
X041636Y038830D01*
X050103Y031760D02*
X050333Y031530D01*
X050333Y031837D01*
X050563Y031760D02*
X050103Y031760D01*
X050103Y031377D02*
X050563Y031377D01*
X050410Y031223D01*
X050563Y031070D01*
X050103Y031070D01*
X050180Y030916D02*
X050103Y030840D01*
X050103Y030686D01*
X050180Y030609D01*
X050256Y030609D01*
X050333Y030686D01*
X050333Y030840D01*
X050410Y030916D01*
X050487Y030916D01*
X050563Y030840D01*
X050563Y030686D01*
X050487Y030609D01*
X050563Y030302D02*
X050103Y030302D01*
X050103Y030149D02*
X050103Y030456D01*
X050180Y027337D02*
X050256Y027337D01*
X050333Y027260D01*
X050410Y027337D01*
X050487Y027337D01*
X050563Y027260D01*
X050563Y027107D01*
X050487Y027030D01*
X050563Y026877D02*
X050103Y026877D01*
X050180Y027030D02*
X050103Y027107D01*
X050103Y027260D01*
X050180Y027337D01*
X050333Y027260D02*
X050333Y027184D01*
X050563Y026877D02*
X050410Y026723D01*
X050563Y026570D01*
X050103Y026570D01*
X050180Y026416D02*
X050103Y026340D01*
X050103Y026186D01*
X050180Y026109D01*
X050256Y026109D01*
X050333Y026186D01*
X050333Y026340D01*
X050410Y026416D01*
X050487Y026416D01*
X050563Y026340D01*
X050563Y026186D01*
X050487Y026109D01*
X050563Y025802D02*
X050103Y025802D01*
X050103Y025649D02*
X050103Y025956D01*
X050180Y022837D02*
X050103Y022760D01*
X050103Y022607D01*
X050180Y022530D01*
X050103Y022377D02*
X050563Y022377D01*
X050410Y022223D01*
X050563Y022070D01*
X050103Y022070D01*
X050180Y021916D02*
X050103Y021840D01*
X050103Y021686D01*
X050180Y021609D01*
X050256Y021609D01*
X050333Y021686D01*
X050333Y021840D01*
X050410Y021916D01*
X050487Y021916D01*
X050563Y021840D01*
X050563Y021686D01*
X050487Y021609D01*
X050563Y021302D02*
X050103Y021302D01*
X050103Y021149D02*
X050103Y021456D01*
X050563Y022530D02*
X050256Y022837D01*
X050180Y022837D01*
X050563Y022837D02*
X050563Y022530D01*
X050563Y018337D02*
X050563Y018030D01*
X050563Y017877D02*
X050103Y017877D01*
X050256Y018030D02*
X050103Y018184D01*
X050563Y018184D01*
X050563Y017877D02*
X050410Y017723D01*
X050563Y017570D01*
X050103Y017570D01*
X050180Y017416D02*
X050103Y017340D01*
X050103Y017186D01*
X050180Y017109D01*
X050256Y017109D01*
X050333Y017186D01*
X050333Y017340D01*
X050410Y017416D01*
X050487Y017416D01*
X050563Y017340D01*
X050563Y017186D01*
X050487Y017109D01*
X050563Y016802D02*
X050103Y016802D01*
X050103Y016649D02*
X050103Y016956D01*
X047612Y011980D02*
X047672Y011920D01*
X047672Y011860D01*
X047612Y011800D01*
X047672Y011740D01*
X047672Y011680D01*
X047612Y011620D01*
X047492Y011620D01*
X047432Y011680D01*
X047303Y011620D02*
X047303Y011980D01*
X047432Y011920D02*
X047492Y011980D01*
X047612Y011980D01*
X047612Y011800D02*
X047552Y011800D01*
X047303Y011620D02*
X047183Y011740D01*
X047063Y011620D01*
X047063Y011980D01*
X046935Y011920D02*
X046875Y011980D01*
X046755Y011980D01*
X046695Y011920D01*
X046695Y011860D01*
X046755Y011800D01*
X046875Y011800D01*
X046935Y011740D01*
X046935Y011680D01*
X046875Y011620D01*
X046755Y011620D01*
X046695Y011680D01*
X046447Y011620D02*
X046447Y011980D01*
X046327Y011980D02*
X046567Y011980D01*
X046198Y011560D02*
X045958Y011560D01*
X045830Y011680D02*
X045830Y011920D01*
X045770Y011980D01*
X045590Y011980D01*
X045590Y011620D01*
X045770Y011620D01*
X045830Y011680D01*
X045462Y011620D02*
X045222Y011620D01*
X045222Y011980D01*
X045462Y011980D01*
X045342Y011800D02*
X045222Y011800D01*
X045172Y011800D02*
X044932Y011800D01*
X045112Y011980D01*
X045112Y011620D01*
X045094Y011620D02*
X044853Y011620D01*
X044853Y011980D01*
X044803Y011980D02*
X044803Y011620D01*
X044683Y011740D01*
X044563Y011620D01*
X044563Y011980D01*
X044435Y011920D02*
X044375Y011980D01*
X044255Y011980D01*
X044195Y011920D01*
X044195Y011860D01*
X044255Y011800D01*
X044375Y011800D01*
X044435Y011740D01*
X044435Y011680D01*
X044375Y011620D01*
X044255Y011620D01*
X044195Y011680D01*
X043947Y011620D02*
X043947Y011980D01*
X043827Y011980D02*
X044067Y011980D01*
X043698Y011560D02*
X043458Y011560D01*
X043330Y011680D02*
X043330Y011920D01*
X043270Y011980D01*
X043090Y011980D01*
X043090Y011620D01*
X043270Y011620D01*
X043330Y011680D01*
X042962Y011620D02*
X042722Y011620D01*
X042722Y011980D01*
X042962Y011980D01*
X042842Y011800D02*
X042722Y011800D01*
X042594Y011620D02*
X042353Y011620D01*
X042353Y011980D01*
X042353Y005980D02*
X042353Y005620D01*
X042594Y005620D01*
X042722Y005620D02*
X042962Y005620D01*
X043090Y005620D02*
X043270Y005620D01*
X043330Y005680D01*
X043330Y005920D01*
X043270Y005980D01*
X043090Y005980D01*
X043090Y005620D01*
X042842Y005800D02*
X042722Y005800D01*
X042722Y005980D02*
X042722Y005620D01*
X042722Y005980D02*
X042962Y005980D01*
X043458Y005560D02*
X043698Y005560D01*
X043947Y005620D02*
X043947Y005980D01*
X043827Y005980D02*
X044067Y005980D01*
X044195Y005920D02*
X044195Y005860D01*
X044255Y005800D01*
X044375Y005800D01*
X044435Y005740D01*
X044435Y005680D01*
X044375Y005620D01*
X044255Y005620D01*
X044195Y005680D01*
X044195Y005920D02*
X044255Y005980D01*
X044375Y005980D01*
X044435Y005920D01*
X044563Y005980D02*
X044563Y005620D01*
X044683Y005740D01*
X044803Y005620D01*
X044803Y005980D01*
X044853Y005980D02*
X044853Y005620D01*
X045094Y005620D01*
X045172Y005620D02*
X044932Y005620D01*
X045172Y005860D01*
X045172Y005920D01*
X045112Y005980D01*
X044992Y005980D01*
X044932Y005920D01*
X045222Y005980D02*
X045222Y005620D01*
X045462Y005620D01*
X045590Y005620D02*
X045770Y005620D01*
X045830Y005680D01*
X045830Y005920D01*
X045770Y005980D01*
X045590Y005980D01*
X045590Y005620D01*
X045342Y005800D02*
X045222Y005800D01*
X045222Y005980D02*
X045462Y005980D01*
X045958Y005560D02*
X046198Y005560D01*
X046447Y005620D02*
X046447Y005980D01*
X046327Y005980D02*
X046567Y005980D01*
X046695Y005920D02*
X046695Y005860D01*
X046755Y005800D01*
X046875Y005800D01*
X046935Y005740D01*
X046935Y005680D01*
X046875Y005620D01*
X046755Y005620D01*
X046695Y005680D01*
X046695Y005920D02*
X046755Y005980D01*
X046875Y005980D01*
X046935Y005920D01*
X047063Y005980D02*
X047063Y005620D01*
X047183Y005740D01*
X047303Y005620D01*
X047303Y005980D01*
X047432Y005860D02*
X047552Y005980D01*
X047552Y005620D01*
X047432Y005620D02*
X047672Y005620D01*
X036070Y001754D02*
X036070Y001600D01*
X035994Y001523D01*
X035763Y001523D01*
X035763Y001370D02*
X035763Y001830D01*
X035994Y001830D01*
X036070Y001754D01*
X035917Y001523D02*
X036070Y001370D01*
X035610Y001370D02*
X035303Y001370D01*
X035303Y001830D01*
X035610Y001830D01*
X035457Y001600D02*
X035303Y001600D01*
X035150Y001370D02*
X034996Y001370D01*
X035073Y001370D02*
X035073Y001830D01*
X034996Y001830D02*
X035150Y001830D01*
X034843Y001830D02*
X034536Y001830D01*
X034689Y001830D02*
X034689Y001370D01*
X034382Y001370D02*
X034075Y001370D01*
X034075Y001830D01*
X033922Y001830D02*
X033615Y001830D01*
X033615Y001370D01*
X033922Y001370D01*
X033768Y001600D02*
X033615Y001600D01*
X033461Y001600D02*
X033385Y001523D01*
X033155Y001523D01*
X033155Y001370D02*
X033155Y001830D01*
X033385Y001830D01*
X033461Y001754D01*
X033461Y001600D01*
X033001Y001293D02*
X032694Y001293D01*
X032541Y001370D02*
X032541Y001830D01*
X032387Y001677D01*
X032234Y001830D01*
X032234Y001370D01*
X032080Y001370D02*
X031927Y001370D01*
X032004Y001370D02*
X032004Y001830D01*
X032080Y001830D02*
X031927Y001830D01*
X031466Y001830D02*
X031466Y001370D01*
X031773Y001370D01*
X031570Y001370D02*
X031263Y001370D01*
X031263Y001830D01*
X031160Y001830D02*
X031313Y001677D01*
X031313Y001370D01*
X031110Y001370D02*
X030957Y001370D01*
X031006Y001370D02*
X031006Y001677D01*
X031160Y001830D01*
X031110Y001830D02*
X030957Y001830D01*
X031033Y001830D02*
X031033Y001370D01*
X031006Y001600D02*
X031313Y001600D01*
X030803Y001830D02*
X030496Y001830D01*
X030343Y001830D02*
X030343Y001370D01*
X030036Y001830D01*
X030036Y001370D01*
X029882Y001370D02*
X029575Y001370D01*
X029575Y001830D01*
X029882Y001830D01*
X029729Y001600D02*
X029575Y001600D01*
X029422Y001523D02*
X029422Y001830D01*
X029422Y001523D02*
X029268Y001370D01*
X029115Y001523D01*
X029115Y001830D01*
X028961Y001293D02*
X028655Y001293D01*
X028501Y001370D02*
X028501Y001830D01*
X028348Y001677D01*
X028194Y001830D01*
X028194Y001370D01*
X028041Y001370D02*
X027887Y001370D01*
X027964Y001370D02*
X027964Y001830D01*
X027887Y001830D02*
X028041Y001830D01*
X027734Y001370D02*
X027427Y001370D01*
X027427Y001830D01*
X027273Y001677D02*
X027273Y001370D01*
X027273Y001600D02*
X026966Y001600D01*
X026966Y001677D02*
X027120Y001830D01*
X027273Y001677D01*
X026966Y001677D02*
X026966Y001370D01*
X030650Y001370D02*
X030650Y001830D01*
X031627Y010381D02*
X031780Y010381D01*
X031857Y010458D01*
X031857Y010841D01*
X032010Y010688D02*
X032164Y010841D01*
X032164Y010381D01*
X032317Y010381D02*
X032010Y010381D01*
X031627Y010381D02*
X031550Y010458D01*
X031550Y010841D01*
X020813Y002887D02*
X020813Y002580D01*
X020813Y002734D02*
X020353Y002734D01*
X020506Y002580D01*
X020353Y002427D02*
X020353Y002273D01*
X020353Y002350D02*
X020737Y002350D01*
X020813Y002273D01*
X020813Y002197D01*
X020737Y002120D01*
X023092Y038293D02*
X023399Y038293D01*
X023552Y038370D02*
X023859Y038370D01*
X024012Y038370D02*
X024319Y038830D01*
X024473Y038830D02*
X024780Y038830D01*
X024790Y038830D02*
X024790Y038523D01*
X024636Y038370D01*
X024483Y038523D01*
X024483Y038830D01*
X024626Y038830D02*
X024626Y038370D01*
X024319Y038370D02*
X024012Y038830D01*
X023859Y038830D02*
X023552Y038830D01*
X023552Y038370D01*
X023552Y038600D02*
X023706Y038600D01*
X022938Y038370D02*
X022631Y038370D01*
X022631Y038830D01*
X022478Y038830D02*
X022324Y038830D01*
X022401Y038830D02*
X022401Y038370D01*
X022324Y038370D02*
X022478Y038370D01*
X022017Y038370D02*
X022017Y038830D01*
X021864Y038830D02*
X022171Y038830D01*
X021711Y038830D02*
X021711Y038370D01*
X021404Y038830D01*
X021404Y038370D01*
X021250Y038370D02*
X020943Y038370D01*
X020943Y038830D01*
X021250Y038830D01*
X021097Y038600D02*
X020943Y038600D01*
X020790Y038523D02*
X020790Y038830D01*
X020790Y038523D02*
X020636Y038370D01*
X020483Y038523D01*
X020483Y038830D01*
X019399Y038754D02*
X019399Y038600D01*
X019322Y038523D01*
X019092Y038523D01*
X019092Y038370D02*
X019092Y038830D01*
X019322Y038830D01*
X019399Y038754D01*
X019245Y038523D02*
X019399Y038370D01*
X018938Y038370D02*
X018631Y038370D01*
X018631Y038830D01*
X018938Y038830D01*
X018785Y038600D02*
X018631Y038600D01*
X018478Y038370D02*
X018324Y038370D01*
X018401Y038370D02*
X018401Y038830D01*
X018324Y038830D02*
X018478Y038830D01*
X018171Y038830D02*
X017864Y038830D01*
X018017Y038830D02*
X018017Y038370D01*
X017711Y038370D02*
X017404Y038370D01*
X017404Y038830D01*
X017250Y038830D02*
X016943Y038830D01*
X016943Y038370D01*
X017250Y038370D01*
X017097Y038600D02*
X016943Y038600D01*
X016790Y038600D02*
X016713Y038523D01*
X016483Y038523D01*
X016483Y038370D02*
X016483Y038830D01*
X016713Y038830D01*
X016790Y038754D01*
X016790Y038600D01*
X024943Y038600D02*
X025097Y038600D01*
X024943Y038370D02*
X025250Y038370D01*
X025404Y038370D02*
X025404Y038830D01*
X025711Y038370D01*
X025711Y038830D01*
X025864Y038830D02*
X026171Y038830D01*
X026324Y038830D02*
X026478Y038830D01*
X026401Y038830D02*
X026401Y038370D01*
X026324Y038370D02*
X026478Y038370D01*
X026631Y038370D02*
X026938Y038370D01*
X027092Y038293D02*
X027399Y038293D01*
X027552Y038370D02*
X027706Y038370D01*
X027629Y038370D02*
X027629Y038830D01*
X027552Y038830D02*
X027706Y038830D01*
X027859Y038830D02*
X028166Y038370D01*
X028166Y038830D01*
X028319Y038830D02*
X028626Y038830D01*
X028636Y038830D02*
X028636Y038370D01*
X028473Y038370D02*
X028473Y038830D01*
X028483Y038830D02*
X028790Y038830D01*
X028943Y038830D02*
X028943Y038370D01*
X029250Y038370D01*
X029404Y038370D02*
X029404Y038830D01*
X029557Y038677D01*
X029711Y038830D01*
X029711Y038370D01*
X029864Y038370D02*
X029864Y038830D01*
X030094Y038830D01*
X030171Y038754D01*
X030171Y038600D01*
X030094Y038523D01*
X029864Y038523D01*
X030324Y038293D02*
X030631Y038293D01*
X030785Y038370D02*
X030785Y038677D01*
X030938Y038830D01*
X031092Y038677D01*
X031092Y038370D01*
X031245Y038370D02*
X031399Y038370D01*
X031322Y038370D02*
X031322Y038830D01*
X031245Y038830D02*
X031399Y038830D01*
X031552Y038830D02*
X031782Y038830D01*
X031859Y038754D01*
X031859Y038600D01*
X031782Y038523D01*
X031552Y038523D01*
X031552Y038370D02*
X031552Y038830D01*
X031706Y038523D02*
X031859Y038370D01*
X031092Y038600D02*
X030785Y038600D01*
X029250Y038830D02*
X028943Y038830D01*
X028943Y038600D02*
X029097Y038600D01*
X027859Y038370D02*
X027859Y038830D01*
X026631Y038830D02*
X026631Y038370D01*
X026017Y038370D02*
X026017Y038830D01*
X025250Y038830D02*
X024943Y038830D01*
X024943Y038370D01*
X025430Y075120D02*
X025353Y075197D01*
X025430Y075120D02*
X025584Y075120D01*
X025660Y075197D01*
X025660Y075273D01*
X025584Y075350D01*
X025430Y075350D01*
X025353Y075427D01*
X025353Y075504D01*
X025430Y075580D01*
X025584Y075580D01*
X025660Y075504D01*
X025814Y075580D02*
X025814Y075120D01*
X025967Y075273D01*
X026121Y075120D01*
X026121Y075580D01*
X026274Y075427D02*
X026428Y075580D01*
X026581Y075427D01*
X026581Y075120D01*
X026735Y075120D02*
X026735Y075580D01*
X027041Y075580D01*
X027195Y075580D02*
X027502Y075580D01*
X027348Y075350D02*
X027195Y075350D01*
X027195Y075120D02*
X027195Y075580D01*
X026888Y075350D02*
X026735Y075350D01*
X026581Y075350D02*
X026274Y075350D01*
X026274Y075427D02*
X026274Y075120D01*
X018423Y076580D02*
X018116Y076580D01*
X018269Y076580D02*
X018269Y076120D01*
X017962Y076120D02*
X017809Y076273D01*
X017885Y076273D02*
X017655Y076273D01*
X017655Y076120D02*
X017655Y076580D01*
X017885Y076580D01*
X017962Y076504D01*
X017962Y076350D01*
X017885Y076273D01*
X017502Y076350D02*
X017195Y076350D01*
X017195Y076427D02*
X017348Y076580D01*
X017502Y076427D01*
X017502Y076120D01*
X017195Y076120D02*
X017195Y076427D01*
X017041Y076580D02*
X016735Y076580D01*
X016888Y076580D02*
X016888Y076120D01*
X016581Y076197D02*
X016504Y076120D01*
X016351Y076120D01*
X016274Y076197D01*
X016351Y076350D02*
X016504Y076350D01*
X016581Y076273D01*
X016581Y076197D01*
X016351Y076350D02*
X016274Y076427D01*
X016274Y076504D01*
X016351Y076580D01*
X016504Y076580D01*
X016581Y076504D01*
X016121Y076580D02*
X016121Y076120D01*
X015967Y076273D01*
X015814Y076120D01*
X015814Y076580D01*
X015660Y076504D02*
X015584Y076580D01*
X015430Y076580D01*
X015353Y076504D01*
X015353Y076427D01*
X015430Y076350D01*
X015584Y076350D01*
X015660Y076273D01*
X015660Y076197D01*
X015584Y076120D01*
X015430Y076120D01*
X015353Y076197D01*
X006770Y076348D02*
X006310Y076348D01*
X006310Y076579D01*
X006386Y076655D01*
X006540Y076655D01*
X006617Y076579D01*
X006617Y076348D01*
X006617Y076502D02*
X006770Y076655D01*
X006770Y076809D02*
X006463Y077116D01*
X006386Y077116D01*
X006310Y077039D01*
X006310Y076885D01*
X006386Y076809D01*
X006770Y076809D02*
X006770Y077116D01*
X006770Y077269D02*
X006770Y077576D01*
X006770Y077423D02*
X006310Y077423D01*
X006463Y077269D01*
D17*
X026833Y014596D02*
X037857Y014596D01*
X037857Y006604D01*
X026833Y006604D01*
X026833Y014596D01*
X027725Y006184D02*
X027727Y006201D01*
X027733Y006216D01*
X027742Y006230D01*
X027754Y006242D01*
X027768Y006250D01*
X027784Y006255D01*
X027801Y006256D01*
X027818Y006253D01*
X027833Y006246D01*
X027846Y006236D01*
X027857Y006224D01*
X027865Y006209D01*
X027869Y006192D01*
X027869Y006176D01*
X027865Y006159D01*
X027857Y006144D01*
X027846Y006132D01*
X027833Y006122D01*
X027818Y006115D01*
X027801Y006112D01*
X027784Y006113D01*
X027768Y006118D01*
X027754Y006126D01*
X027742Y006138D01*
X027733Y006152D01*
X027727Y006167D01*
X027725Y006184D01*
D18*
X043633Y021250D02*
X043633Y023950D01*
X043635Y024001D01*
X043640Y024052D01*
X043650Y024102D01*
X043663Y024152D01*
X043679Y024200D01*
X043699Y024247D01*
X043723Y024293D01*
X043749Y024336D01*
X043779Y024378D01*
X043812Y024417D01*
X043847Y024454D01*
X043885Y024488D01*
X043926Y024519D01*
X043968Y024548D01*
X044013Y024573D01*
X044059Y024594D01*
X044107Y024613D01*
X044156Y024627D01*
X044206Y024638D01*
X044256Y024646D01*
X044307Y024650D01*
X044359Y024650D01*
X044410Y024646D01*
X044460Y024638D01*
X044510Y024627D01*
X044559Y024613D01*
X044607Y024594D01*
X044653Y024573D01*
X044698Y024548D01*
X044740Y024519D01*
X044781Y024488D01*
X044819Y024454D01*
X044854Y024417D01*
X044887Y024378D01*
X044917Y024336D01*
X044943Y024293D01*
X044967Y024247D01*
X044987Y024200D01*
X045003Y024152D01*
X045016Y024102D01*
X045026Y024052D01*
X045031Y024001D01*
X045033Y023950D01*
X045033Y021250D01*
X045031Y021199D01*
X045026Y021148D01*
X045016Y021098D01*
X045003Y021048D01*
X044987Y021000D01*
X044967Y020953D01*
X044943Y020907D01*
X044917Y020864D01*
X044887Y020822D01*
X044854Y020783D01*
X044819Y020746D01*
X044781Y020712D01*
X044740Y020681D01*
X044698Y020652D01*
X044653Y020627D01*
X044607Y020606D01*
X044559Y020587D01*
X044510Y020573D01*
X044460Y020562D01*
X044410Y020554D01*
X044359Y020550D01*
X044307Y020550D01*
X044256Y020554D01*
X044206Y020562D01*
X044156Y020573D01*
X044107Y020587D01*
X044059Y020606D01*
X044013Y020627D01*
X043968Y020652D01*
X043926Y020681D01*
X043885Y020712D01*
X043847Y020746D01*
X043812Y020783D01*
X043779Y020822D01*
X043749Y020864D01*
X043723Y020907D01*
X043699Y020953D01*
X043679Y021000D01*
X043663Y021048D01*
X043650Y021098D01*
X043640Y021148D01*
X043635Y021199D01*
X043633Y021250D01*
D19*
X043983Y017300D02*
X044333Y017300D01*
X044683Y017300D01*
X044683Y016900D02*
X044333Y016900D01*
X043983Y016900D01*
X043983Y027400D02*
X044333Y027400D01*
X044683Y027400D01*
X044683Y027800D02*
X044333Y027800D01*
X043983Y027800D01*
D20*
X044753Y033600D03*
X041913Y033600D03*
X038253Y033600D03*
X035413Y033600D03*
X036253Y029100D03*
X036253Y028100D03*
X034753Y026100D03*
X033413Y028100D03*
X033413Y029100D03*
X031913Y026100D03*
X032253Y033600D03*
X029413Y033600D03*
X029913Y015600D03*
X032753Y015600D03*
X042913Y013100D03*
X045753Y013100D03*
X046253Y007600D03*
X046253Y006600D03*
X043413Y006600D03*
X043413Y007600D03*
D21*
X026833Y031250D03*
X024833Y029950D03*
D22*
X024833Y029325D03*
X024833Y031875D03*
X026833Y031875D03*
X026833Y029325D03*
X014733Y028375D03*
X014733Y031825D03*
X013733Y018325D03*
X013733Y014875D03*
X013733Y010825D03*
X013733Y007375D03*
D23*
X014793Y007330D03*
X014793Y014830D03*
X015793Y028330D03*
D24*
X014483Y030100D03*
X013483Y016600D03*
X013483Y009100D03*
D25*
X013733Y008600D03*
X013733Y009600D03*
X013733Y016100D03*
X013733Y017100D03*
X014733Y029600D03*
X014733Y030600D03*
D26*
X017833Y031020D03*
X017833Y028180D03*
X016333Y018020D03*
X016333Y015180D03*
X016333Y011020D03*
X016333Y008180D03*
X026833Y017680D03*
X026833Y020520D03*
X026833Y023680D03*
X026833Y026520D03*
X039833Y011520D03*
X041333Y011520D03*
X041333Y008680D03*
X039833Y008680D03*
X039833Y006020D03*
X041333Y006020D03*
X041333Y003180D03*
X039833Y003180D03*
X047833Y009180D03*
X049333Y009180D03*
X049333Y012020D03*
X047833Y012020D03*
D27*
X042111Y049704D03*
X042111Y051732D03*
X040674Y051732D03*
X040674Y049704D03*
X039237Y049704D03*
X039237Y051732D03*
X037800Y051732D03*
X037800Y049704D03*
X036363Y049704D03*
X034926Y049704D03*
X034926Y051732D03*
X036363Y051732D03*
X033489Y051732D03*
X033489Y049704D03*
X032052Y049704D03*
X032052Y051732D03*
X030615Y051732D03*
X030615Y049704D03*
X029178Y049704D03*
X027741Y049704D03*
X027741Y051732D03*
X029178Y051732D03*
X026304Y051732D03*
X026304Y049704D03*
X024867Y049704D03*
X024867Y051732D03*
X023430Y051732D03*
X023430Y049704D03*
X021993Y049704D03*
X020556Y049704D03*
X020556Y051732D03*
X021993Y051732D03*
D28*
X023467Y032490D02*
X019944Y032490D01*
X019944Y028710D01*
X023467Y028710D01*
X023723Y028966D01*
X023723Y029065D01*
X023467Y029320D01*
X023467Y031880D01*
X023723Y032135D01*
X023723Y032234D01*
X023467Y032490D01*
X028333Y029350D02*
X028333Y028600D01*
X031333Y028600D01*
X031333Y026850D01*
X028333Y026850D01*
X028333Y028600D01*
X028333Y029350D02*
X031333Y029350D01*
X031333Y028600D01*
X030333Y020350D02*
X032333Y020350D01*
X032333Y018600D01*
X030333Y018600D01*
X030333Y020350D01*
X029833Y020350D02*
X029833Y018600D01*
X027833Y018600D01*
X027833Y020350D01*
X029833Y020350D01*
X029833Y018600D02*
X029833Y017850D01*
X027833Y017850D01*
X027833Y018600D01*
X030333Y018600D02*
X030333Y017850D01*
X032333Y017850D01*
X032333Y018600D01*
X042333Y011350D02*
X042333Y010600D01*
X044333Y010600D01*
X044333Y008850D01*
X042333Y008850D01*
X042333Y010600D01*
X042333Y011350D02*
X044333Y011350D01*
X044333Y010600D01*
X044833Y010600D02*
X044833Y011350D01*
X046833Y011350D01*
X046833Y010600D01*
X044833Y010600D01*
X044833Y008850D01*
X046833Y008850D01*
X046833Y010600D01*
X046833Y005350D02*
X044833Y005350D01*
X044833Y004600D01*
X046833Y004600D01*
X046833Y002850D01*
X044833Y002850D01*
X044833Y004600D01*
X044333Y004600D02*
X044333Y005350D01*
X042333Y005350D01*
X042333Y004600D01*
X044333Y004600D01*
X044333Y002850D01*
X042333Y002850D01*
X042333Y004600D01*
X046833Y004600D02*
X046833Y005350D01*
X008719Y076269D02*
X006948Y076269D01*
X006948Y079931D01*
X008719Y079931D01*
X008719Y076269D01*
X020230Y081905D02*
X020278Y081935D01*
X020323Y081968D01*
X020366Y082004D01*
X020407Y082042D01*
X020444Y082084D01*
X020479Y082128D01*
X020510Y082174D01*
X020539Y082223D01*
X020563Y082273D01*
X020584Y082325D01*
X020602Y082379D01*
X020615Y082433D01*
X020625Y082488D01*
X020631Y082544D01*
X020633Y082600D01*
X019457Y081894D02*
X019410Y081921D01*
X019365Y081951D01*
X019322Y081984D01*
X019282Y082020D01*
X019244Y082059D01*
X019209Y082100D01*
X019176Y082143D01*
X019147Y082188D01*
X019121Y082236D01*
X019098Y082285D01*
X019078Y082335D01*
X019062Y082386D01*
X019049Y082439D01*
X019040Y082492D01*
X019035Y082546D01*
X019033Y082600D01*
X020350Y083211D02*
X020389Y083175D01*
X020427Y083136D01*
X020461Y083096D01*
X020493Y083053D01*
X020521Y083008D01*
X020547Y082961D01*
X020570Y082912D01*
X020589Y082862D01*
X020605Y082811D01*
X020617Y082759D01*
X020626Y082707D01*
X020631Y082653D01*
X020633Y082600D01*
X019321Y083215D02*
X019281Y083179D01*
X019243Y083140D01*
X019208Y083099D01*
X019176Y083056D01*
X019146Y083011D01*
X019120Y082964D01*
X019098Y082915D01*
X019078Y082864D01*
X019062Y082813D01*
X019049Y082761D01*
X019040Y082707D01*
X019035Y082654D01*
X019033Y082600D01*
X022230Y081905D02*
X022278Y081935D01*
X022323Y081968D01*
X022366Y082004D01*
X022407Y082042D01*
X022444Y082084D01*
X022479Y082128D01*
X022510Y082174D01*
X022539Y082223D01*
X022563Y082273D01*
X022584Y082325D01*
X022602Y082379D01*
X022615Y082433D01*
X022625Y082488D01*
X022631Y082544D01*
X022633Y082600D01*
X021457Y081894D02*
X021410Y081921D01*
X021365Y081951D01*
X021322Y081984D01*
X021282Y082020D01*
X021244Y082059D01*
X021209Y082100D01*
X021176Y082143D01*
X021147Y082188D01*
X021121Y082236D01*
X021098Y082285D01*
X021078Y082335D01*
X021062Y082386D01*
X021049Y082439D01*
X021040Y082492D01*
X021035Y082546D01*
X021033Y082600D01*
X022350Y083211D02*
X022389Y083175D01*
X022427Y083136D01*
X022461Y083096D01*
X022493Y083053D01*
X022521Y083008D01*
X022547Y082961D01*
X022570Y082912D01*
X022589Y082862D01*
X022605Y082811D01*
X022617Y082759D01*
X022626Y082707D01*
X022631Y082653D01*
X022633Y082600D01*
X021321Y083215D02*
X021281Y083179D01*
X021243Y083140D01*
X021208Y083099D01*
X021176Y083056D01*
X021146Y083011D01*
X021120Y082964D01*
X021098Y082915D01*
X021078Y082864D01*
X021062Y082813D01*
X021049Y082761D01*
X021040Y082707D01*
X021035Y082654D01*
X021033Y082600D01*
X024230Y081905D02*
X024278Y081935D01*
X024323Y081968D01*
X024366Y082004D01*
X024407Y082042D01*
X024444Y082084D01*
X024479Y082128D01*
X024510Y082174D01*
X024539Y082223D01*
X024563Y082273D01*
X024584Y082325D01*
X024602Y082379D01*
X024615Y082433D01*
X024625Y082488D01*
X024631Y082544D01*
X024633Y082600D01*
X023457Y081894D02*
X023410Y081921D01*
X023365Y081951D01*
X023322Y081984D01*
X023282Y082020D01*
X023244Y082059D01*
X023209Y082100D01*
X023176Y082143D01*
X023147Y082188D01*
X023121Y082236D01*
X023098Y082285D01*
X023078Y082335D01*
X023062Y082386D01*
X023049Y082439D01*
X023040Y082492D01*
X023035Y082546D01*
X023033Y082600D01*
X024350Y083211D02*
X024389Y083175D01*
X024427Y083136D01*
X024461Y083096D01*
X024493Y083053D01*
X024521Y083008D01*
X024547Y082961D01*
X024570Y082912D01*
X024589Y082862D01*
X024605Y082811D01*
X024617Y082759D01*
X024626Y082707D01*
X024631Y082653D01*
X024633Y082600D01*
X023321Y083215D02*
X023281Y083179D01*
X023243Y083140D01*
X023208Y083099D01*
X023176Y083056D01*
X023146Y083011D01*
X023120Y082964D01*
X023098Y082915D01*
X023078Y082864D01*
X023062Y082813D01*
X023049Y082761D01*
X023040Y082707D01*
X023035Y082654D01*
X023033Y082600D01*
X026230Y081905D02*
X026278Y081935D01*
X026323Y081968D01*
X026366Y082004D01*
X026407Y082042D01*
X026444Y082084D01*
X026479Y082128D01*
X026510Y082174D01*
X026539Y082223D01*
X026563Y082273D01*
X026584Y082325D01*
X026602Y082379D01*
X026615Y082433D01*
X026625Y082488D01*
X026631Y082544D01*
X026633Y082600D01*
X025457Y081894D02*
X025410Y081921D01*
X025365Y081951D01*
X025322Y081984D01*
X025282Y082020D01*
X025244Y082059D01*
X025209Y082100D01*
X025176Y082143D01*
X025147Y082188D01*
X025121Y082236D01*
X025098Y082285D01*
X025078Y082335D01*
X025062Y082386D01*
X025049Y082439D01*
X025040Y082492D01*
X025035Y082546D01*
X025033Y082600D01*
X026350Y083211D02*
X026389Y083175D01*
X026427Y083136D01*
X026461Y083096D01*
X026493Y083053D01*
X026521Y083008D01*
X026547Y082961D01*
X026570Y082912D01*
X026589Y082862D01*
X026605Y082811D01*
X026617Y082759D01*
X026626Y082707D01*
X026631Y082653D01*
X026633Y082600D01*
X025321Y083215D02*
X025281Y083179D01*
X025243Y083140D01*
X025208Y083099D01*
X025176Y083056D01*
X025146Y083011D01*
X025120Y082964D01*
X025098Y082915D01*
X025078Y082864D01*
X025062Y082813D01*
X025049Y082761D01*
X025040Y082707D01*
X025035Y082654D01*
X025033Y082600D01*
D29*
X024408Y007380D02*
X023759Y007380D01*
X023759Y007183D02*
X024408Y007183D01*
X024408Y007380D01*
X023908Y006592D02*
X021259Y006592D01*
X021259Y007183D01*
X021908Y007183D01*
X021908Y007380D02*
X021259Y007380D01*
X021259Y007183D01*
X021259Y006592D02*
X021062Y006592D01*
X021062Y001868D01*
X021573Y001868D01*
X021573Y002261D01*
X021573Y001868D02*
X024093Y001868D01*
X024093Y002261D01*
X024093Y001868D02*
X024605Y001868D01*
X024605Y005092D01*
X024093Y005017D02*
X024093Y005411D01*
X023325Y005411D01*
X023030Y005411D01*
X022636Y005411D02*
X022341Y005411D01*
X021573Y005411D01*
X021573Y005017D01*
X021573Y004624D02*
X021573Y004230D01*
X021573Y003836D02*
X021573Y003443D01*
X021259Y003246D02*
X021259Y006592D01*
X021259Y003246D02*
X021062Y003246D01*
X021259Y003246D02*
X024605Y003246D01*
X024093Y003443D02*
X024093Y003836D01*
X024093Y004230D02*
X024093Y004624D01*
X024093Y003049D02*
X024093Y002655D01*
X023325Y002655D02*
X023323Y002612D01*
X023318Y002570D01*
X023308Y002528D01*
X023295Y002487D01*
X023279Y002447D01*
X023259Y002409D01*
X023236Y002373D01*
X023210Y002339D01*
X023181Y002307D01*
X023149Y002278D01*
X023115Y002252D01*
X023079Y002229D01*
X023041Y002209D01*
X023001Y002193D01*
X022960Y002180D01*
X022918Y002170D01*
X022876Y002165D01*
X022833Y002163D01*
X022790Y002165D01*
X022748Y002170D01*
X022706Y002180D01*
X022665Y002193D01*
X022625Y002209D01*
X022587Y002229D01*
X022551Y002252D01*
X022517Y002278D01*
X022485Y002307D01*
X022456Y002339D01*
X022430Y002373D01*
X022407Y002409D01*
X022387Y002447D01*
X022371Y002487D01*
X022358Y002528D01*
X022348Y002570D01*
X022343Y002612D01*
X022341Y002655D01*
X021573Y002655D02*
X021573Y003049D01*
M02*
